<?xml version="1.0" encoding="utf-8" standalone="no"?>
<!DOCTYPE svg PUBLIC "-//W3C//DTD SVG 1.1//EN"
  "http://www.w3.org/Graphics/SVG/1.1/DTD/svg11.dtd">
<svg xmlns:xlink="http://www.w3.org/1999/xlink" width="1454.8925pt" height="416.963337pt" viewBox="0 0 1454.8925 416.963337" xmlns="http://www.w3.org/2000/svg" version="1.1">
 <metadata>
  <rdf:RDF xmlns:dc="http://purl.org/dc/elements/1.1/" xmlns:cc="http://creativecommons.org/ns#" xmlns:rdf="http://www.w3.org/1999/02/22-rdf-syntax-ns#">
   <cc:Work>
    <dc:type rdf:resource="http://purl.org/dc/dcmitype/StillImage"/>
    <dc:date>2023-02-07T22:16:13.161362</dc:date>
    <dc:format>image/svg+xml</dc:format>
    <dc:creator>
     <cc:Agent>
      <dc:title>Matplotlib v3.5.2, https://matplotlib.org/</dc:title>
     </cc:Agent>
    </dc:creator>
   </cc:Work>
  </rdf:RDF>
 </metadata>
 <defs>
  <style type="text/css">*{stroke-linejoin: round; stroke-linecap: butt}</style>
 </defs>
 <g id="figure_1">
  <g id="patch_1">
   <path d="M 0 416.963337 
L 1454.8925 416.963337 
L 1454.8925 0 
L 0 0 
L 0 416.963337 
z
" style="fill: none"/>
  </g>
  <g id="axes_1">
   <g id="patch_2">
    <path d="M 52.6925 388.842712 
L 1447.6925 388.842712 
L 1447.6925 8.322712 
L 52.6925 8.322712 
z
" style="fill: #ffffff"/>
   </g>
   <g id="matplotlib.axis_1">
    <g id="xtick_1">
     <g id="line2d_1">
      <defs>
       <path id="m25541ade17" d="M 0 0 
L 0 -3.5 
" style="stroke: #000000; stroke-width: 0.8"/>
      </defs>
      <g>
       <use xlink:href="#m25541ade17" x="52.6925" y="388.842712" style="stroke: #000000; stroke-width: 0.8"/>
      </g>
     </g>
     <g id="text_1">
      <!-- Jan-22 -->
      <g transform="translate(52.6925 406.0199)scale(0.18 -0.18)">
       <defs>
        <path id="DejaVuSerif-4a" d="M -538 -1119 
L -538 -384 
L -181 -384 
Q -172 -694 -34 -845 
Q 103 -997 378 -997 
Q 750 -997 897 -762 
Q 1044 -528 1044 153 
L 1044 4331 
L 319 4331 
L 319 4666 
L 2272 4666 
L 2272 4331 
L 1678 4331 
L 1678 128 
Q 1678 -644 1368 -987 
Q 1059 -1331 372 -1331 
Q 150 -1331 -79 -1278 
Q -309 -1225 -538 -1119 
z
" transform="scale(0.015625)"/>
        <path id="DejaVuSerif-61" d="M 2547 1044 
L 2547 1747 
L 1806 1747 
Q 1378 1747 1168 1562 
Q 959 1378 959 997 
Q 959 650 1171 447 
Q 1384 244 1747 244 
Q 2106 244 2326 466 
Q 2547 688 2547 1044 
z
M 3122 2075 
L 3122 331 
L 3634 331 
L 3634 0 
L 2547 0 
L 2547 359 
Q 2356 128 2106 18 
Q 1856 -91 1522 -91 
Q 969 -91 644 203 
Q 319 497 319 997 
Q 319 1513 691 1797 
Q 1063 2081 1741 2081 
L 2547 2081 
L 2547 2309 
Q 2547 2688 2317 2895 
Q 2088 3103 1672 3103 
Q 1328 3103 1125 2947 
Q 922 2791 872 2484 
L 575 2484 
L 575 3156 
Q 875 3284 1158 3348 
Q 1441 3413 1709 3413 
Q 2400 3413 2761 3070 
Q 3122 2728 3122 2075 
z
" transform="scale(0.015625)"/>
        <path id="DejaVuSerif-6e" d="M 263 0 
L 263 331 
L 781 331 
L 781 2988 
L 231 2988 
L 231 3322 
L 1356 3322 
L 1356 2731 
Q 1516 3069 1770 3241 
Q 2025 3413 2363 3413 
Q 2913 3413 3172 3097 
Q 3431 2781 3431 2113 
L 3431 331 
L 3944 331 
L 3944 0 
L 2356 0 
L 2356 331 
L 2853 331 
L 2853 1931 
Q 2853 2541 2703 2767 
Q 2553 2994 2175 2994 
Q 1775 2994 1565 2701 
Q 1356 2409 1356 1850 
L 1356 331 
L 1856 331 
L 1856 0 
L 263 0 
z
" transform="scale(0.015625)"/>
        <path id="DejaVuSerif-2d" d="M 281 1959 
L 1881 1959 
L 1881 1472 
L 281 1472 
L 281 1959 
z
" transform="scale(0.015625)"/>
        <path id="DejaVuSerif-32" d="M 819 3553 
L 469 3553 
L 469 4384 
Q 803 4563 1142 4656 
Q 1481 4750 1806 4750 
Q 2534 4750 2956 4397 
Q 3378 4044 3378 3438 
Q 3378 2753 2422 1800 
Q 2347 1728 2309 1691 
L 1131 513 
L 3078 513 
L 3078 1088 
L 3444 1088 
L 3444 0 
L 434 0 
L 434 341 
L 1850 1753 
Q 2319 2222 2519 2614 
Q 2719 3006 2719 3438 
Q 2719 3909 2473 4175 
Q 2228 4441 1797 4441 
Q 1350 4441 1106 4219 
Q 863 3997 819 3553 
z
" transform="scale(0.015625)"/>
       </defs>
       <use xlink:href="#DejaVuSerif-4a"/>
       <use xlink:href="#DejaVuSerif-61" x="40.087891"/>
       <use xlink:href="#DejaVuSerif-6e" x="99.707031"/>
       <use xlink:href="#DejaVuSerif-2d" x="164.111328"/>
       <use xlink:href="#DejaVuSerif-32" x="197.900391"/>
       <use xlink:href="#DejaVuSerif-32" x="261.523438"/>
      </g>
     </g>
    </g>
    <g id="xtick_2">
     <g id="line2d_2">
      <g>
       <use xlink:href="#m25541ade17" x="171.171952" y="388.842712" style="stroke: #000000; stroke-width: 0.8"/>
      </g>
     </g>
     <g id="text_2">
      <!-- Feb-22 -->
      <g transform="translate(139.839296 406.0199)scale(0.18 -0.18)">
       <defs>
        <path id="DejaVuSerif-46" d="M 353 0 
L 353 331 
L 947 331 
L 947 4331 
L 353 4331 
L 353 4666 
L 4172 4666 
L 4172 3628 
L 3788 3628 
L 3788 4281 
L 1581 4281 
L 1581 2719 
L 3175 2719 
L 3175 3303 
L 3559 3303 
L 3559 1753 
L 3175 1753 
L 3175 2338 
L 1581 2338 
L 1581 331 
L 2328 331 
L 2328 0 
L 353 0 
z
" transform="scale(0.015625)"/>
        <path id="DejaVuSerif-65" d="M 3469 1600 
L 991 1600 
L 991 1575 
Q 991 903 1244 561 
Q 1497 219 1991 219 
Q 2369 219 2611 417 
Q 2853 616 2950 1006 
L 3413 1006 
Q 3275 459 2904 184 
Q 2534 -91 1931 -91 
Q 1203 -91 761 389 
Q 319 869 319 1663 
Q 319 2450 753 2931 
Q 1188 3413 1894 3413 
Q 2647 3413 3050 2948 
Q 3453 2484 3469 1600 
z
M 2791 1931 
Q 2772 2513 2545 2808 
Q 2319 3103 1894 3103 
Q 1497 3103 1269 2806 
Q 1041 2509 991 1931 
L 2791 1931 
z
" transform="scale(0.015625)"/>
        <path id="DejaVuSerif-62" d="M 738 331 
L 738 4531 
L 184 4531 
L 184 4863 
L 1313 4863 
L 1313 2803 
Q 1481 3116 1742 3264 
Q 2003 3413 2388 3413 
Q 3000 3413 3387 2928 
Q 3775 2444 3775 1663 
Q 3775 881 3387 395 
Q 3000 -91 2388 -91 
Q 2003 -91 1742 57 
Q 1481 206 1313 519 
L 1313 0 
L 184 0 
L 184 331 
L 738 331 
z
M 1313 1497 
Q 1313 897 1542 583 
Q 1772 269 2209 269 
Q 2650 269 2876 622 
Q 3103 975 3103 1663 
Q 3103 2353 2876 2703 
Q 2650 3053 2209 3053 
Q 1772 3053 1542 2737 
Q 1313 2422 1313 1825 
L 1313 1497 
z
" transform="scale(0.015625)"/>
       </defs>
       <use xlink:href="#DejaVuSerif-46"/>
       <use xlink:href="#DejaVuSerif-65" x="63.884766"/>
       <use xlink:href="#DejaVuSerif-62" x="123.064453"/>
       <use xlink:href="#DejaVuSerif-2d" x="187.078125"/>
       <use xlink:href="#DejaVuSerif-32" x="220.867188"/>
       <use xlink:href="#DejaVuSerif-32" x="284.490234"/>
      </g>
     </g>
    </g>
    <g id="xtick_3">
     <g id="line2d_3">
      <g>
       <use xlink:href="#m25541ade17" x="278.185651" y="388.842712" style="stroke: #000000; stroke-width: 0.8"/>
      </g>
     </g>
     <g id="text_3">
      <!-- Mar-22 -->
      <g transform="translate(244.808307 406.0199)scale(0.18 -0.18)">
       <defs>
        <path id="DejaVuSerif-4d" d="M 353 0 
L 353 331 
L 947 331 
L 947 4331 
L 319 4331 
L 319 4666 
L 1678 4666 
L 3316 1344 
L 4953 4666 
L 6228 4666 
L 6228 4331 
L 5606 4331 
L 5606 331 
L 6203 331 
L 6203 0 
L 4378 0 
L 4378 331 
L 4972 331 
L 4972 3938 
L 3372 684 
L 2931 684 
L 1331 3938 
L 1331 331 
L 1925 331 
L 1925 0 
L 353 0 
z
" transform="scale(0.015625)"/>
        <path id="DejaVuSerif-72" d="M 3059 3328 
L 3059 2497 
L 2728 2497 
Q 2713 2744 2591 2866 
Q 2469 2988 2234 2988 
Q 1809 2988 1582 2694 
Q 1356 2400 1356 1850 
L 1356 331 
L 2022 331 
L 2022 0 
L 263 0 
L 263 331 
L 781 331 
L 781 2994 
L 231 2994 
L 231 3322 
L 1356 3322 
L 1356 2731 
Q 1525 3078 1790 3245 
Q 2056 3413 2438 3413 
Q 2578 3413 2733 3391 
Q 2888 3369 3059 3328 
z
" transform="scale(0.015625)"/>
       </defs>
       <use xlink:href="#DejaVuSerif-4d"/>
       <use xlink:href="#DejaVuSerif-61" x="102.392578"/>
       <use xlink:href="#DejaVuSerif-72" x="162.011719"/>
       <use xlink:href="#DejaVuSerif-2d" x="209.814453"/>
       <use xlink:href="#DejaVuSerif-32" x="243.603516"/>
       <use xlink:href="#DejaVuSerif-32" x="307.226562"/>
      </g>
     </g>
    </g>
    <g id="xtick_4">
     <g id="line2d_4">
      <g>
       <use xlink:href="#m25541ade17" x="396.665103" y="388.842712" style="stroke: #000000; stroke-width: 0.8"/>
      </g>
     </g>
     <g id="text_4">
      <!-- Apr-22 -->
      <g transform="translate(365.608071 406.0199)scale(0.18 -0.18)">
       <defs>
        <path id="DejaVuSerif-41" d="M 1281 1691 
L 2994 1691 
L 2138 3909 
L 1281 1691 
z
M -38 0 
L -38 331 
L 372 331 
L 2034 4666 
L 2559 4666 
L 4225 331 
L 4684 331 
L 4684 0 
L 2988 0 
L 2988 331 
L 3506 331 
L 3116 1356 
L 1153 1356 
L 763 331 
L 1275 331 
L 1275 0 
L -38 0 
z
" transform="scale(0.015625)"/>
        <path id="DejaVuSerif-70" d="M 1313 1825 
L 1313 1497 
Q 1313 897 1542 583 
Q 1772 269 2209 269 
Q 2650 269 2876 622 
Q 3103 975 3103 1663 
Q 3103 2353 2876 2703 
Q 2650 3053 2209 3053 
Q 1772 3053 1542 2737 
Q 1313 2422 1313 1825 
z
M 738 2988 
L 184 2988 
L 184 3322 
L 1313 3322 
L 1313 2803 
Q 1481 3116 1742 3264 
Q 2003 3413 2388 3413 
Q 3000 3413 3387 2928 
Q 3775 2444 3775 1663 
Q 3775 881 3387 395 
Q 3000 -91 2388 -91 
Q 2003 -91 1742 57 
Q 1481 206 1313 519 
L 1313 -997 
L 1856 -997 
L 1856 -1331 
L 184 -1331 
L 184 -997 
L 738 -997 
L 738 2988 
z
" transform="scale(0.015625)"/>
       </defs>
       <use xlink:href="#DejaVuSerif-41"/>
       <use xlink:href="#DejaVuSerif-70" x="72.216797"/>
       <use xlink:href="#DejaVuSerif-72" x="136.230469"/>
       <use xlink:href="#DejaVuSerif-2d" x="184.033203"/>
       <use xlink:href="#DejaVuSerif-32" x="217.822266"/>
       <use xlink:href="#DejaVuSerif-32" x="281.445312"/>
      </g>
     </g>
    </g>
    <g id="xtick_5">
     <g id="line2d_5">
      <g>
       <use xlink:href="#m25541ade17" x="511.322637" y="388.842712" style="stroke: #000000; stroke-width: 0.8"/>
      </g>
     </g>
     <g id="text_5">
      <!-- May-22 -->
      <g transform="translate(477.162012 405.763962)scale(0.18 -0.18)">
       <defs>
        <path id="DejaVuSerif-79" d="M 1381 -609 
L 1600 -56 
L 359 2988 
L -19 2988 
L -19 3322 
L 1509 3322 
L 1509 2988 
L 978 2988 
L 1913 703 
L 2847 2988 
L 2350 2988 
L 2350 3322 
L 3597 3322 
L 3597 2988 
L 3225 2988 
L 1703 -750 
Q 1547 -1138 1356 -1280 
Q 1166 -1422 819 -1422 
Q 672 -1422 517 -1397 
Q 363 -1372 206 -1325 
L 206 -691 
L 500 -691 
Q 519 -903 608 -995 
Q 697 -1088 884 -1088 
Q 1056 -1088 1161 -992 
Q 1266 -897 1381 -609 
z
" transform="scale(0.015625)"/>
       </defs>
       <use xlink:href="#DejaVuSerif-4d"/>
       <use xlink:href="#DejaVuSerif-61" x="102.392578"/>
       <use xlink:href="#DejaVuSerif-79" x="162.011719"/>
       <use xlink:href="#DejaVuSerif-2d" x="218.505859"/>
       <use xlink:href="#DejaVuSerif-32" x="252.294922"/>
       <use xlink:href="#DejaVuSerif-32" x="315.917969"/>
      </g>
     </g>
    </g>
    <g id="xtick_6">
     <g id="line2d_6">
      <g>
       <use xlink:href="#m25541ade17" x="629.802089" y="388.842712" style="stroke: #000000; stroke-width: 0.8"/>
      </g>
     </g>
     <g id="text_6">
      <!-- Jun-22 -->
      <g transform="translate(600.106308 406.0199)scale(0.18 -0.18)">
       <defs>
        <path id="DejaVuSerif-75" d="M 2266 3322 
L 3341 3322 
L 3341 331 
L 3884 331 
L 3884 0 
L 2766 0 
L 2766 588 
Q 2606 256 2353 82 
Q 2100 -91 1766 -91 
Q 1213 -91 952 223 
Q 691 538 691 1209 
L 691 2988 
L 172 2988 
L 172 3322 
L 1269 3322 
L 1269 1388 
Q 1269 781 1417 556 
Q 1566 331 1947 331 
Q 2347 331 2556 625 
Q 2766 919 2766 1478 
L 2766 2988 
L 2266 2988 
L 2266 3322 
z
" transform="scale(0.015625)"/>
       </defs>
       <use xlink:href="#DejaVuSerif-4a"/>
       <use xlink:href="#DejaVuSerif-75" x="40.087891"/>
       <use xlink:href="#DejaVuSerif-6e" x="104.492188"/>
       <use xlink:href="#DejaVuSerif-2d" x="168.896484"/>
       <use xlink:href="#DejaVuSerif-32" x="202.685547"/>
       <use xlink:href="#DejaVuSerif-32" x="266.308594"/>
      </g>
     </g>
    </g>
    <g id="xtick_7">
     <g id="line2d_7">
      <g>
       <use xlink:href="#m25541ade17" x="744.459623" y="388.842712" style="stroke: #000000; stroke-width: 0.8"/>
      </g>
     </g>
     <g id="text_7">
      <!-- Jul-22 -->
      <g transform="translate(717.681811 406.0199)scale(0.18 -0.18)">
       <defs>
        <path id="DejaVuSerif-6c" d="M 1313 331 
L 1856 331 
L 1856 0 
L 184 0 
L 184 331 
L 738 331 
L 738 4531 
L 184 4531 
L 184 4863 
L 1313 4863 
L 1313 331 
z
" transform="scale(0.015625)"/>
       </defs>
       <use xlink:href="#DejaVuSerif-4a"/>
       <use xlink:href="#DejaVuSerif-75" x="40.087891"/>
       <use xlink:href="#DejaVuSerif-6c" x="104.492188"/>
       <use xlink:href="#DejaVuSerif-2d" x="136.474609"/>
       <use xlink:href="#DejaVuSerif-32" x="170.263672"/>
       <use xlink:href="#DejaVuSerif-32" x="233.886719"/>
      </g>
     </g>
    </g>
    <g id="xtick_8">
     <g id="line2d_8">
      <g>
       <use xlink:href="#m25541ade17" x="862.939075" y="388.842712" style="stroke: #000000; stroke-width: 0.8"/>
      </g>
     </g>
     <g id="text_8">
      <!-- Aug-22 -->
      <g transform="translate(830.3872 405.763962)scale(0.18 -0.18)">
       <defs>
        <path id="DejaVuSerif-67" d="M 3359 2988 
L 3359 72 
Q 3359 -644 2965 -1033 
Q 2572 -1422 1844 -1422 
Q 1516 -1422 1216 -1362 
Q 916 -1303 641 -1184 
L 641 -488 
L 941 -488 
Q 997 -813 1206 -963 
Q 1416 -1113 1806 -1113 
Q 2313 -1113 2548 -827 
Q 2784 -541 2784 72 
L 2784 519 
Q 2616 206 2355 57 
Q 2094 -91 1709 -91 
Q 1097 -91 708 395 
Q 319 881 319 1663 
Q 319 2444 706 2928 
Q 1094 3413 1709 3413 
Q 2094 3413 2355 3264 
Q 2616 3116 2784 2803 
L 2784 3322 
L 3909 3322 
L 3909 2988 
L 3359 2988 
z
M 2784 1825 
Q 2784 2422 2554 2737 
Q 2325 3053 1888 3053 
Q 1444 3053 1217 2703 
Q 991 2353 991 1663 
Q 991 975 1217 622 
Q 1444 269 1888 269 
Q 2325 269 2554 583 
Q 2784 897 2784 1497 
L 2784 1825 
z
" transform="scale(0.015625)"/>
       </defs>
       <use xlink:href="#DejaVuSerif-41"/>
       <use xlink:href="#DejaVuSerif-75" x="72.216797"/>
       <use xlink:href="#DejaVuSerif-67" x="136.621094"/>
       <use xlink:href="#DejaVuSerif-2d" x="200.634766"/>
       <use xlink:href="#DejaVuSerif-32" x="234.423828"/>
       <use xlink:href="#DejaVuSerif-32" x="298.046875"/>
      </g>
     </g>
    </g>
    <g id="xtick_9">
     <g id="line2d_9">
      <g>
       <use xlink:href="#m25541ade17" x="981.418527" y="388.842712" style="stroke: #000000; stroke-width: 0.8"/>
      </g>
     </g>
     <g id="text_9">
      <!-- Sep-22 -->
      <g transform="translate(949.671027 406.0199)scale(0.18 -0.18)">
       <defs>
        <path id="DejaVuSerif-53" d="M 594 225 
L 594 1288 
L 953 1284 
Q 969 753 1261 498 
Q 1553 244 2150 244 
Q 2706 244 2998 464 
Q 3291 684 3291 1106 
Q 3291 1444 3114 1625 
Q 2938 1806 2369 1978 
L 1753 2163 
Q 1084 2366 811 2669 
Q 538 2972 538 3500 
Q 538 4094 959 4422 
Q 1381 4750 2144 4750 
Q 2469 4750 2856 4679 
Q 3244 4609 3681 4475 
L 3681 3481 
L 3328 3481 
Q 3275 3975 2998 4195 
Q 2722 4416 2156 4416 
Q 1663 4416 1405 4214 
Q 1147 4013 1147 3628 
Q 1147 3294 1340 3103 
Q 1534 2913 2163 2725 
L 2741 2553 
Q 3375 2363 3645 2067 
Q 3916 1772 3916 1275 
Q 3916 597 3481 253 
Q 3047 -91 2188 -91 
Q 1803 -91 1404 -12 
Q 1006 66 594 225 
z
" transform="scale(0.015625)"/>
       </defs>
       <use xlink:href="#DejaVuSerif-53"/>
       <use xlink:href="#DejaVuSerif-65" x="68.505859"/>
       <use xlink:href="#DejaVuSerif-70" x="127.685547"/>
       <use xlink:href="#DejaVuSerif-2d" x="191.699219"/>
       <use xlink:href="#DejaVuSerif-32" x="225.488281"/>
       <use xlink:href="#DejaVuSerif-32" x="289.111328"/>
      </g>
     </g>
    </g>
    <g id="xtick_10">
     <g id="line2d_10">
      <g>
       <use xlink:href="#m25541ade17" x="1096.076062" y="388.842712" style="stroke: #000000; stroke-width: 0.8"/>
      </g>
     </g>
     <g id="text_10">
      <!-- Oct-22 -->
      <g transform="translate(1065.546374 406.0199)scale(0.18 -0.18)">
       <defs>
        <path id="DejaVuSerif-4f" d="M 2625 244 
Q 3391 244 3781 770 
Q 4172 1297 4172 2328 
Q 4172 3363 3781 3889 
Q 3391 4416 2625 4416 
Q 1856 4416 1465 3889 
Q 1075 3363 1075 2328 
Q 1075 1297 1465 770 
Q 1856 244 2625 244 
z
M 2625 -91 
Q 2150 -91 1751 65 
Q 1353 222 1050 525 
Q 700 875 529 1319 
Q 359 1763 359 2328 
Q 359 2894 529 3339 
Q 700 3784 1050 4134 
Q 1356 4441 1750 4595 
Q 2144 4750 2625 4750 
Q 3641 4750 4266 4084 
Q 4891 3419 4891 2328 
Q 4891 1769 4719 1320 
Q 4547 872 4197 525 
Q 3891 219 3497 64 
Q 3103 -91 2625 -91 
z
" transform="scale(0.015625)"/>
        <path id="DejaVuSerif-63" d="M 3291 997 
Q 3169 466 2822 187 
Q 2475 -91 1925 -91 
Q 1200 -91 759 389 
Q 319 869 319 1663 
Q 319 2459 759 2936 
Q 1200 3413 1925 3413 
Q 2241 3413 2553 3339 
Q 2866 3266 3181 3116 
L 3181 2266 
L 2847 2266 
Q 2781 2703 2561 2903 
Q 2341 3103 1931 3103 
Q 1466 3103 1228 2742 
Q 991 2381 991 1663 
Q 991 944 1227 581 
Q 1463 219 1931 219 
Q 2303 219 2525 412 
Q 2747 606 2828 997 
L 3291 997 
z
" transform="scale(0.015625)"/>
        <path id="DejaVuSerif-74" d="M 691 2988 
L 184 2988 
L 184 3322 
L 691 3322 
L 691 4353 
L 1269 4353 
L 1269 3322 
L 2350 3322 
L 2350 2988 
L 1269 2988 
L 1269 878 
Q 1269 456 1350 337 
Q 1431 219 1650 219 
Q 1875 219 1978 351 
Q 2081 484 2088 781 
L 2522 781 
Q 2497 328 2275 118 
Q 2053 -91 1600 -91 
Q 1103 -91 897 129 
Q 691 350 691 878 
L 691 2988 
z
" transform="scale(0.015625)"/>
       </defs>
       <use xlink:href="#DejaVuSerif-4f"/>
       <use xlink:href="#DejaVuSerif-63" x="81.982422"/>
       <use xlink:href="#DejaVuSerif-74" x="137.988281"/>
       <use xlink:href="#DejaVuSerif-2d" x="178.173828"/>
       <use xlink:href="#DejaVuSerif-32" x="211.962891"/>
       <use xlink:href="#DejaVuSerif-32" x="275.585938"/>
      </g>
     </g>
    </g>
    <g id="xtick_11">
     <g id="line2d_11">
      <g>
       <use xlink:href="#m25541ade17" x="1214.555514" y="388.842712" style="stroke: #000000; stroke-width: 0.8"/>
      </g>
     </g>
     <g id="text_11">
      <!-- Nov-22 -->
      <g transform="translate(1181.683014 406.0199)scale(0.18 -0.18)">
       <defs>
        <path id="DejaVuSerif-4e" d="M 313 0 
L 313 331 
L 941 331 
L 941 4331 
L 313 4331 
L 313 4666 
L 1509 4666 
L 4306 984 
L 4306 4331 
L 3681 4331 
L 3681 4666 
L 5319 4666 
L 5319 4331 
L 4691 4331 
L 4691 -91 
L 4313 -91 
L 1325 3841 
L 1325 331 
L 1953 331 
L 1953 0 
L 313 0 
z
" transform="scale(0.015625)"/>
        <path id="DejaVuSerif-6f" d="M 1925 219 
Q 2388 219 2623 584 
Q 2859 950 2859 1663 
Q 2859 2375 2623 2739 
Q 2388 3103 1925 3103 
Q 1463 3103 1227 2739 
Q 991 2375 991 1663 
Q 991 950 1228 584 
Q 1466 219 1925 219 
z
M 1925 -91 
Q 1200 -91 759 389 
Q 319 869 319 1663 
Q 319 2456 758 2934 
Q 1197 3413 1925 3413 
Q 2653 3413 3092 2934 
Q 3531 2456 3531 1663 
Q 3531 869 3092 389 
Q 2653 -91 1925 -91 
z
" transform="scale(0.015625)"/>
        <path id="DejaVuSerif-76" d="M 1581 0 
L 359 2988 
L -19 2988 
L -19 3322 
L 1509 3322 
L 1509 2988 
L 978 2988 
L 1913 703 
L 2847 2988 
L 2350 2988 
L 2350 3322 
L 3597 3322 
L 3597 2988 
L 3225 2988 
L 2003 0 
L 1581 0 
z
" transform="scale(0.015625)"/>
       </defs>
       <use xlink:href="#DejaVuSerif-4e"/>
       <use xlink:href="#DejaVuSerif-6f" x="87.5"/>
       <use xlink:href="#DejaVuSerif-76" x="147.705078"/>
       <use xlink:href="#DejaVuSerif-2d" x="204.199219"/>
       <use xlink:href="#DejaVuSerif-32" x="237.988281"/>
       <use xlink:href="#DejaVuSerif-32" x="301.611328"/>
      </g>
     </g>
    </g>
    <g id="xtick_12">
     <g id="line2d_12">
      <g>
       <use xlink:href="#m25541ade17" x="1329.213048" y="388.842712" style="stroke: #000000; stroke-width: 0.8"/>
      </g>
     </g>
     <g id="text_12">
      <!-- Dec-22 -->
      <g transform="translate(1297.136485 406.0199)scale(0.18 -0.18)">
       <defs>
        <path id="DejaVuSerif-44" d="M 1581 331 
L 2163 331 
Q 3072 331 3558 850 
Q 4044 1369 4044 2338 
Q 4044 3306 3559 3818 
Q 3075 4331 2163 4331 
L 1581 4331 
L 1581 331 
z
M 353 0 
L 353 331 
L 947 331 
L 947 4331 
L 353 4331 
L 353 4666 
L 2209 4666 
Q 3416 4666 4089 4050 
Q 4763 3434 4763 2338 
Q 4763 1238 4088 619 
Q 3413 0 2209 0 
L 353 0 
z
" transform="scale(0.015625)"/>
       </defs>
       <use xlink:href="#DejaVuSerif-44"/>
       <use xlink:href="#DejaVuSerif-65" x="80.175781"/>
       <use xlink:href="#DejaVuSerif-63" x="139.355469"/>
       <use xlink:href="#DejaVuSerif-2d" x="195.361328"/>
       <use xlink:href="#DejaVuSerif-32" x="229.150391"/>
       <use xlink:href="#DejaVuSerif-32" x="292.773438"/>
      </g>
     </g>
    </g>
    <g id="xtick_13">
     <g id="line2d_13">
      <g>
       <use xlink:href="#m25541ade17" x="1447.6925" y="388.842712" style="stroke: #000000; stroke-width: 0.8"/>
      </g>
     </g>
     <g id="text_13">
      <!-- Jan-23 -->
      <g transform="translate(1389.161563 406.0199)scale(0.18 -0.18)">
       <defs>
        <path id="DejaVuSerif-33" d="M 622 4469 
Q 988 4606 1323 4678 
Q 1659 4750 1953 4750 
Q 2638 4750 3022 4454 
Q 3406 4159 3406 3634 
Q 3406 3213 3140 2930 
Q 2875 2647 2388 2547 
Q 2963 2466 3280 2130 
Q 3597 1794 3597 1259 
Q 3597 606 3158 257 
Q 2719 -91 1894 -91 
Q 1528 -91 1179 -12 
Q 831 66 488 225 
L 488 1131 
L 838 1131 
Q 869 681 1141 450 
Q 1413 219 1906 219 
Q 2384 219 2661 495 
Q 2938 772 2938 1253 
Q 2938 1803 2653 2086 
Q 2369 2369 1819 2369 
L 1522 2369 
L 1522 2688 
L 1678 2688 
Q 2225 2688 2498 2914 
Q 2772 3141 2772 3597 
Q 2772 4006 2547 4223 
Q 2322 4441 1900 4441 
Q 1478 4441 1245 4241 
Q 1013 4041 972 3647 
L 622 3647 
L 622 4469 
z
" transform="scale(0.015625)"/>
       </defs>
       <use xlink:href="#DejaVuSerif-4a"/>
       <use xlink:href="#DejaVuSerif-61" x="40.087891"/>
       <use xlink:href="#DejaVuSerif-6e" x="99.707031"/>
       <use xlink:href="#DejaVuSerif-2d" x="164.111328"/>
       <use xlink:href="#DejaVuSerif-32" x="197.900391"/>
       <use xlink:href="#DejaVuSerif-33" x="261.523438"/>
      </g>
     </g>
    </g>
   </g>
   <g id="matplotlib.axis_2">
    <g id="ytick_1">
     <g id="line2d_14">
      <defs>
       <path id="m56552109b9" d="M 0 0 
L 3.5 0 
" style="stroke: #000000; stroke-width: 0.8"/>
      </defs>
      <g>
       <use xlink:href="#m56552109b9" x="52.6925" y="388.842712" style="stroke: #000000; stroke-width: 0.8"/>
      </g>
     </g>
     <g id="text_14">
      <!-- 0 -->
      <g transform="translate(35.195 397.200994)scale(0.22 -0.22)">
       <defs>
        <path id="DejaVuSerif-30" d="M 2034 219 
Q 2513 219 2750 744 
Q 2988 1269 2988 2328 
Q 2988 3391 2750 3916 
Q 2513 4441 2034 4441 
Q 1556 4441 1318 3916 
Q 1081 3391 1081 2328 
Q 1081 1269 1318 744 
Q 1556 219 2034 219 
z
M 2034 -91 
Q 1275 -91 848 546 
Q 422 1184 422 2328 
Q 422 3475 848 4112 
Q 1275 4750 2034 4750 
Q 2797 4750 3222 4112 
Q 3647 3475 3647 2328 
Q 3647 1184 3222 546 
Q 2797 -91 2034 -91 
z
" transform="scale(0.015625)"/>
       </defs>
       <use xlink:href="#DejaVuSerif-30"/>
      </g>
     </g>
    </g>
    <g id="ytick_2">
     <g id="line2d_15">
      <g>
       <use xlink:href="#m56552109b9" x="52.6925" y="331.58722" style="stroke: #000000; stroke-width: 0.8"/>
      </g>
     </g>
     <g id="text_15">
      <!-- 25 -->
      <g transform="translate(21.1975 339.945502)scale(0.22 -0.22)">
       <defs>
        <path id="DejaVuSerif-35" d="M 3219 4666 
L 3219 4153 
L 1081 4153 
L 1081 2816 
Q 1244 2928 1461 2984 
Q 1678 3041 1947 3041 
Q 2703 3041 3140 2622 
Q 3578 2203 3578 1478 
Q 3578 738 3136 323 
Q 2694 -91 1894 -91 
Q 1572 -91 1234 -12 
Q 897 66 544 225 
L 544 1131 
L 897 1131 
Q 925 688 1179 453 
Q 1434 219 1894 219 
Q 2388 219 2653 544 
Q 2919 869 2919 1478 
Q 2919 2084 2655 2407 
Q 2391 2731 1894 2731 
Q 1613 2731 1398 2631 
Q 1184 2531 1019 2322 
L 750 2322 
L 750 4666 
L 3219 4666 
z
" transform="scale(0.015625)"/>
       </defs>
       <use xlink:href="#DejaVuSerif-32"/>
       <use xlink:href="#DejaVuSerif-35" x="63.623047"/>
      </g>
     </g>
    </g>
    <g id="ytick_3">
     <g id="line2d_16">
      <g>
       <use xlink:href="#m56552109b9" x="52.6925" y="274.331728" style="stroke: #000000; stroke-width: 0.8"/>
      </g>
     </g>
     <g id="text_16">
      <!-- 50 -->
      <g transform="translate(21.1975 282.69001)scale(0.22 -0.22)">
       <use xlink:href="#DejaVuSerif-35"/>
       <use xlink:href="#DejaVuSerif-30" x="63.623047"/>
      </g>
     </g>
    </g>
    <g id="ytick_4">
     <g id="line2d_17">
      <g>
       <use xlink:href="#m56552109b9" x="52.6925" y="217.076236" style="stroke: #000000; stroke-width: 0.8"/>
      </g>
     </g>
     <g id="text_17">
      <!-- 75 -->
      <g transform="translate(21.1975 225.434518)scale(0.22 -0.22)">
       <defs>
        <path id="DejaVuSerif-37" d="M 3609 4347 
L 1784 0 
L 1319 0 
L 3059 4153 
L 903 4153 
L 903 3578 
L 538 3578 
L 538 4666 
L 3609 4666 
L 3609 4347 
z
" transform="scale(0.015625)"/>
       </defs>
       <use xlink:href="#DejaVuSerif-37"/>
       <use xlink:href="#DejaVuSerif-35" x="63.623047"/>
      </g>
     </g>
    </g>
    <g id="ytick_5">
     <g id="line2d_18">
      <g>
       <use xlink:href="#m56552109b9" x="52.6925" y="159.820744" style="stroke: #000000; stroke-width: 0.8"/>
      </g>
     </g>
     <g id="text_18">
      <!-- 100 -->
      <g transform="translate(7.2 168.179026)scale(0.22 -0.22)">
       <defs>
        <path id="DejaVuSerif-31" d="M 909 0 
L 909 331 
L 1722 331 
L 1722 4213 
L 781 3603 
L 781 4013 
L 1919 4750 
L 2350 4750 
L 2350 331 
L 3163 331 
L 3163 0 
L 909 0 
z
" transform="scale(0.015625)"/>
       </defs>
       <use xlink:href="#DejaVuSerif-31"/>
       <use xlink:href="#DejaVuSerif-30" x="63.623047"/>
       <use xlink:href="#DejaVuSerif-30" x="127.246094"/>
      </g>
     </g>
    </g>
    <g id="ytick_6">
     <g id="line2d_19">
      <g>
       <use xlink:href="#m56552109b9" x="52.6925" y="102.565252" style="stroke: #000000; stroke-width: 0.8"/>
      </g>
     </g>
     <g id="text_19">
      <!-- 125 -->
      <g transform="translate(7.2 110.923534)scale(0.22 -0.22)">
       <use xlink:href="#DejaVuSerif-31"/>
       <use xlink:href="#DejaVuSerif-32" x="63.623047"/>
       <use xlink:href="#DejaVuSerif-35" x="127.246094"/>
      </g>
     </g>
    </g>
    <g id="ytick_7">
     <g id="line2d_20">
      <g>
       <use xlink:href="#m56552109b9" x="52.6925" y="45.30976" style="stroke: #000000; stroke-width: 0.8"/>
      </g>
     </g>
     <g id="text_20">
      <!-- 150 -->
      <g transform="translate(7.2 53.668041)scale(0.22 -0.22)">
       <use xlink:href="#DejaVuSerif-31"/>
       <use xlink:href="#DejaVuSerif-35" x="63.623047"/>
       <use xlink:href="#DejaVuSerif-30" x="127.246094"/>
      </g>
     </g>
    </g>
   </g>
   <g id="line2d_21">
    <path d="M -1 400.293811 
L 931.733596 400.293811 
L 931.733596 375.101394 
L 935.555514 375.101394 
L 935.555514 331.58722 
L 939.377432 331.58722 
L 939.377432 329.297001 
L 943.199349 329.297001 
L 943.199349 327.006781 
L 947.021267 327.006781 
L 947.021267 368.230735 
L 950.843185 368.230735 
L 950.843185 400.293811 
L 1443.870582 400.293811 
L 1443.870582 400.293811 
" clip-path="url(#pa13d7ee761)" style="fill: none; stroke: #b22222; stroke-linecap: square"/>
   </g>
   <g id="line2d_22">
    <path d="M -1 400.293811 
L 434.884281 400.293811 
L 434.884281 377.391614 
L 438.706199 377.391614 
L 438.706199 372.811175 
L 442.528116 372.811175 
L 442.528116 400.293811 
L 446.350034 400.293811 
L 446.350034 377.391614 
L 453.99387 377.391614 
L 453.99387 361.360076 
L 457.815788 361.360076 
L 457.815788 365.940516 
L 461.637705 365.940516 
L 461.637705 368.230735 
L 465.459623 368.230735 
L 465.459623 347.618758 
L 469.281541 347.618758 
L 469.281541 317.845902 
L 473.103459 317.845902 
L 473.103459 338.457879 
L 476.925377 338.457879 
L 476.925377 359.069857 
L 484.569212 359.069857 
L 484.569212 372.811175 
L 488.39113 372.811175 
L 488.39113 400.293811 
L 492.213048 400.293811 
L 492.213048 370.520955 
L 496.034966 370.520955 
L 496.034966 400.293811 
L 503.678801 400.293811 
L 503.678801 363.650296 
L 507.500719 363.650296 
L 507.500719 359.069857 
L 511.322637 359.069857 
L 511.322637 352.199197 
L 515.144555 352.199197 
L 515.144555 345.328538 
L 522.78839 345.328538 
L 522.78839 331.58722 
L 530.432226 331.58722 
L 530.432226 352.199197 
L 534.254144 352.199197 
L 534.254144 363.650296 
L 538.076062 363.650296 
L 538.076062 400.293811 
L 568.651404 400.293811 
L 568.651404 320.136122 
L 572.473322 320.136122 
L 572.473322 338.457879 
L 576.29524 338.457879 
L 576.29524 400.293811 
L 580.117158 400.293811 
L 580.117158 352.199197 
L 583.939075 352.199197 
L 583.939075 400.293811 
L 1443.870582 400.293811 
L 1443.870582 400.293811 
" clip-path="url(#pa13d7ee761)" style="fill: none; stroke: #ff0000; stroke-linecap: square"/>
   </g>
   <g id="line2d_23">
    <path d="M -1 400.293811 
L 840.007568 400.293811 
L 840.007568 363.650296 
L 843.829486 363.650296 
L 843.829486 354.489417 
L 847.651404 354.489417 
L 847.651404 400.293811 
L 969.952774 400.293811 
L 969.952774 345.328538 
L 973.774692 345.328538 
L 973.774692 400.293811 
L 1161.048664 400.293811 
L 1161.048664 345.328538 
L 1164.870582 345.328538 
L 1164.870582 400.293811 
L 1168.6925 400.293811 
L 1168.6925 354.489417 
L 1172.514418 354.489417 
L 1172.514418 356.779637 
L 1176.336336 356.779637 
L 1176.336336 400.293811 
L 1241.308938 400.293811 
L 1241.308938 343.038319 
L 1245.130856 343.038319 
L 1245.130856 324.716561 
L 1248.952774 324.716561 
L 1248.952774 320.136122 
L 1252.774692 320.136122 
L 1252.774692 331.58722 
L 1256.59661 331.58722 
L 1256.59661 343.038319 
L 1260.418527 343.038319 
L 1260.418527 345.328538 
L 1264.240445 345.328538 
L 1264.240445 400.293811 
L 1443.870582 400.293811 
L 1443.870582 400.293811 
" clip-path="url(#pa13d7ee761)" style="fill: none; stroke: #ff8c00; stroke-linecap: square"/>
   </g>
   <g id="line2d_24">
    <path d="M -1 400.293811 
L 396.665103 400.293811 
L 396.665103 372.811175 
L 400.487021 372.811175 
L 400.487021 288.073046 
L 404.308938 288.073046 
L 404.308938 196.464259 
L 411.952774 196.464259 
L 411.952774 294.943705 
L 415.774692 294.943705 
L 415.774692 315.555683 
L 419.59661 315.555683 
L 419.59661 301.814365 
L 423.418527 301.814365 
L 423.418527 363.650296 
L 427.240445 363.650296 
L 427.240445 368.230735 
L 431.062363 368.230735 
L 431.062363 375.101394 
L 434.884281 375.101394 
L 434.884281 372.811175 
L 438.706199 372.811175 
L 438.706199 370.520955 
L 442.528116 370.520955 
L 442.528116 400.293811 
L 1034.925377 400.293811 
L 1034.925377 340.748099 
L 1038.747295 340.748099 
L 1038.747295 400.293811 
L 1443.870582 400.293811 
L 1443.870582 400.293811 
" clip-path="url(#pa13d7ee761)" style="fill: none; stroke: #ffd700; stroke-linecap: square"/>
   </g>
   <g id="line2d_25">
    <path d="M -1 400.293811 
L 262.897979 400.293811 
L 262.897979 205.625138 
L 266.719897 205.625138 
L 266.719897 244.558872 
L 270.541815 244.558872 
L 270.541815 251.429532 
L 274.363733 251.429532 
L 274.363733 285.782827 
L 278.185651 285.782827 
L 278.185651 267.461069 
L 282.007568 267.461069 
L 282.007568 272.041509 
L 285.829486 272.041509 
L 285.829486 400.293811 
L 1443.870582 400.293811 
L 1443.870582 400.293811 
" clip-path="url(#pa13d7ee761)" style="fill: none; stroke: #9acd32; stroke-linecap: square"/>
   </g>
   <g id="line2d_26">
    <path d="M -1 400.293811 
L 282.007568 400.293811 
L 282.007568 361.360076 
L 285.829486 361.360076 
L 285.829486 221.656676 
L 289.651404 221.656676 
L 289.651404 375.101394 
L 293.473322 375.101394 
L 293.473322 372.811175 
L 297.29524 372.811175 
L 297.29524 370.520955 
L 301.117158 370.520955 
L 301.117158 400.293811 
L 304.939075 400.293811 
L 304.939075 340.748099 
L 308.760993 340.748099 
L 308.760993 372.811175 
L 312.582911 372.811175 
L 312.582911 356.779637 
L 316.404829 356.779637 
L 316.404829 400.293811 
L 885.870582 400.293811 
L 885.870582 331.58722 
L 889.6925 331.58722 
L 889.6925 400.293811 
L 897.336336 400.293811 
L 897.336336 359.069857 
L 901.158253 359.069857 
L 901.158253 400.293811 
L 924.08976 400.293811 
L 924.08976 345.328538 
L 927.911678 345.328538 
L 927.911678 331.58722 
L 931.733596 331.58722 
L 931.733596 400.293811 
L 950.843185 400.293811 
L 950.843185 345.328538 
L 954.665103 345.328538 
L 954.665103 338.457879 
L 958.487021 338.457879 
L 958.487021 400.293811 
L 966.130856 400.293811 
L 966.130856 338.457879 
L 969.952774 338.457879 
L 969.952774 400.293811 
L 977.59661 400.293811 
L 977.59661 285.782827 
L 981.418527 285.782827 
L 981.418527 336.16766 
L 985.240445 336.16766 
L 985.240445 400.293811 
L 1443.870582 400.293811 
L 1443.870582 400.293811 
" clip-path="url(#pa13d7ee761)" style="fill: none; stroke: #228b22; stroke-linecap: square"/>
   </g>
   <g id="line2d_27">
    <path d="M -1 400.293811 
L 725.350034 400.293811 
L 725.350034 340.748099 
L 729.171952 340.748099 
L 729.171952 320.136122 
L 732.99387 320.136122 
L 732.99387 361.360076 
L 736.815788 361.360076 
L 736.815788 400.293811 
L 740.637705 400.293811 
L 740.637705 356.779637 
L 744.459623 356.779637 
L 744.459623 400.293811 
L 790.322637 400.293811 
L 790.322637 356.779637 
L 794.144555 356.779637 
L 794.144555 354.489417 
L 797.966473 354.489417 
L 797.966473 400.293811 
L 1443.870582 400.293811 
L 1443.870582 400.293811 
" clip-path="url(#pa13d7ee761)" style="fill: none; stroke: #00ff7f; stroke-linecap: square"/>
   </g>
   <g id="line2d_28">
    <path d="M -1 400.293811 
L 1004.350034 400.293811 
L 1004.350034 347.618758 
L 1008.171952 347.618758 
L 1008.171952 331.58722 
L 1011.99387 331.58722 
L 1011.99387 347.618758 
L 1015.815788 347.618758 
L 1015.815788 329.297001 
L 1019.637705 329.297001 
L 1019.637705 288.073046 
L 1023.459623 288.073046 
L 1023.459623 338.457879 
L 1027.281541 338.457879 
L 1027.281541 317.845902 
L 1031.103459 317.845902 
L 1031.103459 356.779637 
L 1034.925377 356.779637 
L 1034.925377 365.940516 
L 1038.747295 365.940516 
L 1038.747295 400.293811 
L 1042.569212 400.293811 
L 1042.569212 375.101394 
L 1046.39113 375.101394 
L 1046.39113 400.293811 
L 1050.213048 400.293811 
L 1050.213048 370.520955 
L 1054.034966 370.520955 
L 1054.034966 400.293811 
L 1088.432226 400.293811 
L 1088.432226 372.811175 
L 1092.254144 372.811175 
L 1092.254144 356.779637 
L 1096.076062 356.779637 
L 1096.076062 359.069857 
L 1099.897979 359.069857 
L 1099.897979 365.940516 
L 1103.719897 365.940516 
L 1103.719897 372.811175 
L 1107.541815 372.811175 
L 1107.541815 361.360076 
L 1111.363733 361.360076 
L 1111.363733 400.293811 
L 1443.870582 400.293811 
L 1443.870582 400.293811 
" clip-path="url(#pa13d7ee761)" style="fill: none; stroke: #00bfff; stroke-linecap: square"/>
   </g>
   <g id="line2d_29">
    <path d="M -1 400.293811 
L 1126.651404 400.293811 
L 1126.651404 292.653486 
L 1130.473322 292.653486 
L 1130.473322 322.426342 
L 1134.29524 322.426342 
L 1134.29524 352.199197 
L 1138.117158 352.199197 
L 1138.117158 363.650296 
L 1141.939075 363.650296 
L 1141.939075 400.293811 
L 1153.404829 400.293811 
L 1153.404829 317.845902 
L 1157.226747 317.845902 
L 1157.226747 340.748099 
L 1161.048664 340.748099 
L 1161.048664 359.069857 
L 1164.870582 359.069857 
L 1164.870582 345.328538 
L 1168.6925 345.328538 
L 1168.6925 400.293811 
L 1443.870582 400.293811 
L 1443.870582 400.293811 
" clip-path="url(#pa13d7ee761)" style="fill: none; stroke: #0000ff; stroke-linecap: square"/>
   </g>
   <g id="line2d_30">
    <path d="M -1 400.293811 
L 1119.007568 400.293811 
L 1119.007568 329.297001 
L 1122.829486 329.297001 
L 1122.829486 336.16766 
L 1126.651404 336.16766 
L 1126.651404 345.328538 
L 1130.473322 345.328538 
L 1130.473322 400.293811 
L 1134.29524 400.293811 
L 1134.29524 365.940516 
L 1138.117158 365.940516 
L 1138.117158 400.293811 
L 1443.870582 400.293811 
L 1443.870582 400.293811 
" clip-path="url(#pa13d7ee761)" style="fill: none; stroke: #9400d3; stroke-linecap: square"/>
   </g>
   <g id="line2d_31">
    <path d="M -1 400.293811 
L 297.29524 400.293811 
L 297.29524 345.328538 
L 301.117158 345.328538 
L 301.117158 349.908978 
L 304.939075 349.908978 
L 304.939075 352.199197 
L 308.760993 352.199197 
L 308.760993 331.58722 
L 312.582911 331.58722 
L 312.582911 365.940516 
L 316.404829 365.940516 
L 316.404829 361.360076 
L 320.226747 361.360076 
L 320.226747 349.908978 
L 324.048664 349.908978 
L 324.048664 343.038319 
L 327.870582 343.038319 
L 327.870582 354.489417 
L 331.6925 354.489417 
L 331.6925 400.293811 
L 1443.870582 400.293811 
L 1443.870582 400.293811 
" clip-path="url(#pa13d7ee761)" style="fill: none; stroke: #ee82ee; stroke-linecap: square"/>
   </g>
   <g id="line2d_32">
    <path d="M -1 400.293811 
L 442.528116 400.293811 
L 442.528116 324.716561 
L 446.350034 324.716561 
L 446.350034 315.555683 
L 450.171952 315.555683 
L 450.171952 363.650296 
L 453.99387 363.650296 
L 453.99387 400.293811 
L 457.815788 400.293811 
L 457.815788 363.650296 
L 461.637705 363.650296 
L 461.637705 400.293811 
L 1443.870582 400.293811 
L 1443.870582 400.293811 
" clip-path="url(#pa13d7ee761)" style="fill: none; stroke: #ff1493; stroke-linecap: square"/>
   </g>
   <g id="line2d_33">
    <path d="M -1 400.293811 
L 461.637705 400.293811 
L 461.637705 329.297001 
L 465.459623 329.297001 
L 465.459623 400.293811 
L 515.144555 400.293811 
L 515.144555 375.101394 
L 518.966473 375.101394 
L 518.966473 400.293811 
L 587.760993 400.293811 
L 587.760993 372.811175 
L 591.582911 372.811175 
L 591.582911 400.293811 
L 599.226747 400.293811 
L 599.226747 372.811175 
L 603.048664 372.811175 
L 603.048664 365.940516 
L 606.870582 365.940516 
L 606.870582 363.650296 
L 610.6925 363.650296 
L 610.6925 354.489417 
L 614.514418 354.489417 
L 614.514418 365.940516 
L 618.336336 365.940516 
L 618.336336 352.199197 
L 622.158253 352.199197 
L 622.158253 349.908978 
L 625.980171 349.908978 
L 625.980171 345.328538 
L 629.802089 345.328538 
L 629.802089 359.069857 
L 633.624007 359.069857 
L 633.624007 368.230735 
L 637.445925 368.230735 
L 637.445925 400.293811 
L 641.267842 400.293811 
L 641.267842 359.069857 
L 648.911678 359.069857 
L 648.911678 363.650296 
L 652.733596 363.650296 
L 652.733596 400.293811 
L 656.555514 400.293811 
L 656.555514 361.360076 
L 660.377432 361.360076 
L 660.377432 400.293811 
L 671.843185 400.293811 
L 671.843185 359.069857 
L 675.665103 359.069857 
L 675.665103 345.328538 
L 679.487021 345.328538 
L 679.487021 400.293811 
L 710.062363 400.293811 
L 710.062363 361.360076 
L 713.884281 361.360076 
L 713.884281 352.199197 
L 717.706199 352.199197 
L 717.706199 359.069857 
L 721.528116 359.069857 
L 721.528116 400.293811 
L 748.281541 400.293811 
L 748.281541 354.489417 
L 752.103459 354.489417 
L 752.103459 400.293811 
L 1443.870582 400.293811 
L 1443.870582 400.293811 
" clip-path="url(#pa13d7ee761)" style="fill: none; stroke: #000000; stroke-linecap: square"/>
   </g>
   <g id="line2d_34">
    <path d="M -1 400.293811 
L 255.254144 400.293811 
L 255.254144 26.988003 
L 259.076062 26.988003 
L 259.076062 306.394804 
L 262.897979 306.394804 
L 262.897979 400.293811 
L 1443.870582 400.293811 
L 1443.870582 400.293811 
" clip-path="url(#pa13d7ee761)" style="fill: none; stroke: #808080; stroke-linecap: square"/>
   </g>
   <g id="line2d_35">
    <path d="M -1 400.293811 
L 282.007568 400.293811 
L 282.007568 365.940516 
L 285.829486 365.940516 
L 285.829486 372.811175 
L 289.651404 372.811175 
L 289.651404 349.908978 
L 293.473322 349.908978 
L 293.473322 352.199197 
L 297.29524 352.199197 
L 297.29524 310.975243 
L 301.117158 310.975243 
L 301.117158 306.394804 
L 304.939075 306.394804 
L 304.939075 290.363266 
L 308.760993 290.363266 
L 308.760993 313.265463 
L 312.582911 313.265463 
L 312.582911 354.489417 
L 316.404829 354.489417 
L 316.404829 359.069857 
L 320.226747 359.069857 
L 320.226747 352.199197 
L 324.048664 352.199197 
L 324.048664 349.908978 
L 327.870582 349.908978 
L 327.870582 354.489417 
L 331.6925 354.489417 
L 331.6925 336.16766 
L 335.514418 336.16766 
L 335.514418 338.457879 
L 339.336336 338.457879 
L 339.336336 359.069857 
L 343.158253 359.069857 
L 343.158253 352.199197 
L 346.980171 352.199197 
L 346.980171 313.265463 
L 350.802089 313.265463 
L 350.802089 340.748099 
L 354.624007 340.748099 
L 354.624007 343.038319 
L 358.445925 343.038319 
L 358.445925 354.489417 
L 362.267842 354.489417 
L 362.267842 400.293811 
L 366.08976 400.293811 
L 366.08976 338.457879 
L 369.911678 338.457879 
L 369.911678 400.293811 
L 1443.870582 400.293811 
L 1443.870582 400.293811 
" clip-path="url(#pa13d7ee761)" style="fill: none; stroke: #add8e6; stroke-linecap: square"/>
   </g>
   <g id="line2d_36">
    <path d="M -1 400.293811 
L 1264.240445 400.293811 
L 1264.240445 329.297001 
L 1268.062363 329.297001 
L 1268.062363 182.722941 
L 1271.884281 182.722941 
L 1271.884281 352.199197 
L 1275.706199 352.199197 
L 1275.706199 368.230735 
L 1279.528116 368.230735 
L 1279.528116 400.293811 
L 1443.870582 400.293811 
L 1443.870582 400.293811 
" clip-path="url(#pa13d7ee761)" style="fill: none; stroke: #bdb76b; stroke-linecap: square"/>
   </g>
   <g id="patch_3">
    <path d="M 52.6925 388.842712 
L 52.6925 8.322712 
" style="fill: none; stroke: #000000; stroke-width: 0.8; stroke-linejoin: miter; stroke-linecap: square"/>
   </g>
   <g id="patch_4">
    <path d="M 1447.6925 388.842712 
L 1447.6925 8.322712 
" style="fill: none; stroke: #000000; stroke-width: 0.8; stroke-linejoin: miter; stroke-linecap: square"/>
   </g>
   <g id="patch_5">
    <path d="M 52.6925 388.842712 
L 1447.6925 388.842712 
" style="fill: none; stroke: #000000; stroke-width: 0.8; stroke-linejoin: miter; stroke-linecap: square"/>
   </g>
   <g id="patch_6">
    <path d="M 52.6925 8.322712 
L 1447.6925 8.322712 
" style="fill: none; stroke: #000000; stroke-width: 0.8; stroke-linejoin: miter; stroke-linecap: square"/>
   </g>
   <g id="text_21">
    <!-- a -->
    <g transform="translate(251.432226 20.117344)scale(0.17 -0.17)">
     <use xlink:href="#DejaVuSerif-61"/>
    </g>
   </g>
   <g id="text_22">
    <!-- b -->
    <g transform="translate(259.076062 198.754479)scale(0.17 -0.17)">
     <use xlink:href="#DejaVuSerif-62"/>
    </g>
   </g>
   <g id="text_23">
    <!-- c -->
    <g transform="translate(282.007568 214.786017)scale(0.17 -0.17)">
     <use xlink:href="#DejaVuSerif-63"/>
    </g>
   </g>
   <g id="text_24">
    <!-- d -->
    <g transform="translate(301.117158 284.637717)scale(0.17 -0.17)">
     <defs>
      <path id="DejaVuSerif-64" d="M 3359 331 
L 3909 331 
L 3909 0 
L 2784 0 
L 2784 519 
Q 2616 206 2355 57 
Q 2094 -91 1709 -91 
Q 1097 -91 708 395 
Q 319 881 319 1663 
Q 319 2444 706 2928 
Q 1094 3413 1709 3413 
Q 2094 3413 2355 3264 
Q 2616 3116 2784 2803 
L 2784 4531 
L 2241 4531 
L 2241 4863 
L 3359 4863 
L 3359 331 
z
M 2784 1497 
L 2784 1825 
Q 2784 2422 2554 2737 
Q 2325 3053 1888 3053 
Q 1444 3053 1217 2703 
Q 991 2353 991 1663 
Q 991 975 1217 622 
Q 1444 269 1888 269 
Q 2325 269 2554 583 
Q 2784 897 2784 1497 
z
" transform="scale(0.015625)"/>
     </defs>
     <use xlink:href="#DejaVuSerif-64"/>
    </g>
   </g>
   <g id="text_25">
    <!-- e -->
    <g transform="translate(404.308938 189.5936)scale(0.17 -0.17)">
     <use xlink:href="#DejaVuSerif-65"/>
    </g>
   </g>
   <g id="text_26">
    <!-- f -->
    <g transform="translate(442.528116 306.394804)scale(0.17 -0.17)">
     <defs>
      <path id="DejaVuSerif-66" d="M 2753 4078 
L 2450 4078 
Q 2447 4313 2317 4434 
Q 2188 4556 1941 4556 
Q 1619 4556 1487 4379 
Q 1356 4203 1356 3750 
L 1356 3322 
L 2284 3322 
L 2284 2988 
L 1356 2988 
L 1356 331 
L 2094 331 
L 2094 0 
L 231 0 
L 231 331 
L 781 331 
L 781 2988 
L 231 2988 
L 231 3322 
L 781 3322 
L 781 3738 
Q 781 4294 1070 4578 
Q 1359 4863 1919 4863 
Q 2128 4863 2337 4825 
Q 2547 4788 2753 4709 
L 2753 4078 
z
" transform="scale(0.015625)"/>
     </defs>
     <use xlink:href="#DejaVuSerif-66"/>
    </g>
   </g>
   <g id="text_27">
    <!-- g -->
    <g transform="translate(453.99387 320.136122)scale(0.17 -0.17)">
     <use xlink:href="#DejaVuSerif-67"/>
    </g>
   </g>
   <g id="text_28">
    <!-- h -->
    <g transform="translate(469.281541 313.265463)scale(0.17 -0.17)">
     <defs>
      <path id="DejaVuSerif-68" d="M 263 0 
L 263 331 
L 781 331 
L 781 4531 
L 231 4531 
L 231 4863 
L 1356 4863 
L 1356 2731 
Q 1516 3069 1770 3241 
Q 2025 3413 2363 3413 
Q 2913 3413 3172 3097 
Q 3431 2781 3431 2113 
L 3431 331 
L 3944 331 
L 3944 0 
L 2356 0 
L 2356 331 
L 2853 331 
L 2853 1931 
Q 2853 2541 2704 2764 
Q 2556 2988 2175 2988 
Q 1775 2988 1565 2697 
Q 1356 2406 1356 1850 
L 1356 331 
L 1856 331 
L 1856 0 
L 263 0 
z
" transform="scale(0.015625)"/>
     </defs>
     <use xlink:href="#DejaVuSerif-68"/>
    </g>
   </g>
   <g id="text_29">
    <!-- i -->
    <g transform="translate(522.78839 327.006781)scale(0.17 -0.17)">
     <defs>
      <path id="DejaVuSerif-69" d="M 622 4353 
Q 622 4497 726 4603 
Q 831 4709 978 4709 
Q 1122 4709 1226 4603 
Q 1331 4497 1331 4353 
Q 1331 4206 1228 4103 
Q 1125 4000 978 4000 
Q 831 4000 726 4103 
Q 622 4206 622 4353 
z
M 1356 331 
L 1900 331 
L 1900 0 
L 231 0 
L 231 331 
L 781 331 
L 781 2988 
L 231 2988 
L 231 3322 
L 1356 3322 
L 1356 331 
z
" transform="scale(0.015625)"/>
     </defs>
     <use xlink:href="#DejaVuSerif-69"/>
    </g>
   </g>
   <g id="text_30">
    <!-- j -->
    <g transform="translate(568.651404 310.975243)scale(0.17 -0.17)">
     <defs>
      <path id="DejaVuSerif-6a" d="M 641 4353 
Q 641 4497 745 4603 
Q 850 4709 997 4709 
Q 1141 4709 1245 4603 
Q 1350 4497 1350 4353 
Q 1350 4206 1248 4103 
Q 1147 4000 997 4000 
Q 850 4000 745 4103 
Q 641 4206 641 4353 
z
M 781 2988 
L 238 2988 
L 238 3322 
L 1356 3322 
L 1356 -325 
Q 1356 -838 1051 -1130 
Q 747 -1422 213 -1422 
Q -13 -1422 -217 -1370 
Q -422 -1319 -616 -1216 
L -616 -531 
L -319 -531 
Q -297 -831 -164 -972 
Q -31 -1113 225 -1113 
Q 509 -1113 645 -920 
Q 781 -728 781 -325 
L 781 2988 
z
" transform="scale(0.015625)"/>
     </defs>
     <use xlink:href="#DejaVuSerif-6a"/>
    </g>
   </g>
   <g id="text_31">
    <!-- k -->
    <g transform="translate(725.350034 313.265463)scale(0.17 -0.17)">
     <defs>
      <path id="DejaVuSerif-6b" d="M 1831 0 
L 219 0 
L 219 331 
L 738 331 
L 738 4531 
L 184 4531 
L 184 4863 
L 1313 4863 
L 1313 1697 
L 2713 2988 
L 2234 2988 
L 2234 3322 
L 3738 3322 
L 3738 2988 
L 3169 2988 
L 2181 2075 
L 3444 331 
L 3922 331 
L 3922 0 
L 2284 0 
L 2284 331 
L 2759 331 
L 1766 1697 
L 1313 1275 
L 1313 331 
L 1831 331 
L 1831 0 
z
" transform="scale(0.015625)"/>
     </defs>
     <use xlink:href="#DejaVuSerif-6b"/>
    </g>
   </g>
   <g id="text_32">
    <!-- l -->
    <g transform="translate(840.007568 349.908978)scale(0.17 -0.17)">
     <use xlink:href="#DejaVuSerif-6c"/>
    </g>
   </g>
   <g id="text_33">
    <!-- m -->
    <g transform="translate(935.555514 320.136122)scale(0.17 -0.17)">
     <defs>
      <path id="DejaVuSerif-6d" d="M 3316 2675 
Q 3481 3041 3739 3227 
Q 3997 3413 4341 3413 
Q 4863 3413 5119 3089 
Q 5375 2766 5375 2113 
L 5375 331 
L 5894 331 
L 5894 0 
L 4300 0 
L 4300 331 
L 4800 331 
L 4800 2047 
Q 4800 2556 4650 2772 
Q 4500 2988 4153 2988 
Q 3769 2988 3567 2697 
Q 3366 2406 3366 1850 
L 3366 331 
L 3866 331 
L 3866 0 
L 2291 0 
L 2291 331 
L 2791 331 
L 2791 2069 
Q 2791 2566 2641 2777 
Q 2491 2988 2144 2988 
Q 1759 2988 1557 2697 
Q 1356 2406 1356 1850 
L 1356 331 
L 1856 331 
L 1856 0 
L 263 0 
L 263 331 
L 781 331 
L 781 2994 
L 231 2994 
L 231 3322 
L 1356 3322 
L 1356 2731 
Q 1516 3063 1762 3238 
Q 2009 3413 2322 3413 
Q 2709 3413 2968 3220 
Q 3228 3028 3316 2675 
z
" transform="scale(0.015625)"/>
     </defs>
     <use xlink:href="#DejaVuSerif-6d"/>
    </g>
   </g>
   <g id="text_34">
    <!-- n -->
    <g transform="translate(966.130856 336.16766)scale(0.17 -0.17)">
     <use xlink:href="#DejaVuSerif-6e"/>
    </g>
   </g>
   <g id="text_35">
    <!-- o -->
    <g transform="translate(973.774692 278.912168)scale(0.17 -0.17)">
     <use xlink:href="#DejaVuSerif-6f"/>
    </g>
   </g>
   <g id="text_36">
    <!-- p -->
    <g transform="translate(1019.637705 278.912168)scale(0.17 -0.17)">
     <use xlink:href="#DejaVuSerif-70"/>
    </g>
   </g>
   <g id="text_37">
    <!-- q -->
    <g transform="translate(1111.363733 322.426342)scale(0.17 -0.17)">
     <defs>
      <path id="DejaVuSerif-71" d="M 3359 2988 
L 3359 -997 
L 3909 -997 
L 3909 -1331 
L 2241 -1331 
L 2241 -997 
L 2784 -997 
L 2784 519 
Q 2616 206 2355 57 
Q 2094 -91 1709 -91 
Q 1097 -91 708 395 
Q 319 881 319 1663 
Q 319 2444 706 2928 
Q 1094 3413 1709 3413 
Q 2094 3413 2355 3264 
Q 2616 3116 2784 2803 
L 2784 3322 
L 3909 3322 
L 3909 2988 
L 3359 2988 
z
M 2784 1825 
Q 2784 2422 2554 2737 
Q 2325 3053 1888 3053 
Q 1444 3053 1217 2703 
Q 991 2353 991 1663 
Q 991 975 1217 622 
Q 1444 269 1888 269 
Q 2325 269 2554 583 
Q 2784 897 2784 1497 
L 2784 1825 
z
" transform="scale(0.015625)"/>
     </defs>
     <use xlink:href="#DejaVuSerif-71"/>
    </g>
   </g>
   <g id="text_38">
    <!-- r -->
    <g transform="translate(1126.651404 288.073046)scale(0.17 -0.17)">
     <use xlink:href="#DejaVuSerif-72"/>
    </g>
   </g>
   <g id="text_39">
    <!-- s -->
    <g transform="translate(1149.582911 314.639595)scale(0.17 -0.17)">
     <defs>
      <path id="DejaVuSerif-73" d="M 359 184 
L 359 959 
L 691 959 
Q 703 588 923 403 
Q 1144 219 1575 219 
Q 1963 219 2166 364 
Q 2369 509 2369 788 
Q 2369 1006 2220 1140 
Q 2072 1275 1594 1428 
L 1178 1569 
Q 750 1706 558 1912 
Q 366 2119 366 2438 
Q 366 2894 700 3153 
Q 1034 3413 1625 3413 
Q 1888 3413 2178 3344 
Q 2469 3275 2778 3144 
L 2778 2419 
L 2447 2419 
Q 2434 2741 2221 2922 
Q 2009 3103 1644 3103 
Q 1281 3103 1095 2975 
Q 909 2847 909 2591 
Q 909 2381 1050 2254 
Q 1191 2128 1613 1997 
L 2069 1856 
Q 2541 1709 2748 1489 
Q 2956 1269 2956 922 
Q 2956 450 2595 179 
Q 2234 -91 1600 -91 
Q 1278 -91 972 -22 
Q 666 47 359 184 
z
" transform="scale(0.015625)"/>
     </defs>
     <use xlink:href="#DejaVuSerif-73"/>
    </g>
   </g>
   <g id="text_40">
    <!-- t -->
    <g transform="translate(1164.870582 340.748099)scale(0.17 -0.17)">
     <use xlink:href="#DejaVuSerif-74"/>
    </g>
   </g>
   <g id="text_41">
    <!-- u -->
    <g transform="translate(1245.130856 315.555683)scale(0.17 -0.17)">
     <use xlink:href="#DejaVuSerif-75"/>
    </g>
   </g>
   <g id="text_42">
    <!-- v -->
    <g transform="translate(1264.240445 175.852282)scale(0.17 -0.17)">
     <use xlink:href="#DejaVuSerif-76"/>
    </g>
   </g>
   <g id="legend_1">
    <g id="patch_7">
     <path d="M 1142.56375 166.2049 
L 1435.7925 166.2049 
Q 1439.1925 166.2049 1439.1925 162.8049 
L 1439.1925 20.222712 
Q 1439.1925 16.822712 1435.7925 16.822712 
L 1142.56375 16.822712 
Q 1139.16375 16.822712 1139.16375 20.222712 
L 1139.16375 162.8049 
Q 1139.16375 166.2049 1142.56375 166.2049 
z
" style="fill: #ffffff; opacity: 0.8"/>
    </g>
    <g id="line2d_37">
     <path d="M 1145.96375 29.840994 
L 1145.96375 29.840994 
L 1162.96375 29.840994 
L 1162.96375 29.840994 
L 1179.96375 29.840994 
" style="fill: none; stroke: #b22222; stroke-width: 2; stroke-linecap: square"/>
    </g>
    <g id="text_43">
     <!-- 15 -->
     <g transform="translate(1193.56375 35.790994)scale(0.17 -0.17)">
      <defs>
       <path id="ArialMT-31" d="M 2384 0 
L 1822 0 
L 1822 3584 
Q 1619 3391 1289 3197 
Q 959 3003 697 2906 
L 697 3450 
Q 1169 3672 1522 3987 
Q 1875 4303 2022 4600 
L 2384 4600 
L 2384 0 
z
" transform="scale(0.015625)"/>
       <path id="ArialMT-35" d="M 266 1200 
L 856 1250 
Q 922 819 1161 601 
Q 1400 384 1738 384 
Q 2144 384 2425 690 
Q 2706 997 2706 1503 
Q 2706 1984 2436 2262 
Q 2166 2541 1728 2541 
Q 1456 2541 1237 2417 
Q 1019 2294 894 2097 
L 366 2166 
L 809 4519 
L 3088 4519 
L 3088 3981 
L 1259 3981 
L 1013 2750 
Q 1425 3038 1878 3038 
Q 2478 3038 2890 2622 
Q 3303 2206 3303 1553 
Q 3303 931 2941 478 
Q 2500 -78 1738 -78 
Q 1113 -78 717 272 
Q 322 622 266 1200 
z
" transform="scale(0.015625)"/>
      </defs>
      <use xlink:href="#ArialMT-31"/>
      <use xlink:href="#ArialMT-35" x="55.615234"/>
     </g>
    </g>
    <g id="line2d_38">
     <path d="M 1145.96375 53.888025 
L 1145.96375 53.888025 
L 1162.96375 53.888025 
L 1162.96375 53.888025 
L 1179.96375 53.888025 
" style="fill: none; stroke: #ff0000; stroke-width: 2; stroke-linecap: square"/>
    </g>
    <g id="text_44">
     <!-- 40 -->
     <g transform="translate(1193.56375 59.838025)scale(0.17 -0.17)">
      <defs>
       <path id="ArialMT-34" d="M 2069 0 
L 2069 1097 
L 81 1097 
L 81 1613 
L 2172 4581 
L 2631 4581 
L 2631 1613 
L 3250 1613 
L 3250 1097 
L 2631 1097 
L 2631 0 
L 2069 0 
z
M 2069 1613 
L 2069 3678 
L 634 1613 
L 2069 1613 
z
" transform="scale(0.015625)"/>
       <path id="ArialMT-30" d="M 266 2259 
Q 266 3072 433 3567 
Q 600 4063 929 4331 
Q 1259 4600 1759 4600 
Q 2128 4600 2406 4451 
Q 2684 4303 2865 4023 
Q 3047 3744 3150 3342 
Q 3253 2941 3253 2259 
Q 3253 1453 3087 958 
Q 2922 463 2592 192 
Q 2263 -78 1759 -78 
Q 1097 -78 719 397 
Q 266 969 266 2259 
z
M 844 2259 
Q 844 1131 1108 757 
Q 1372 384 1759 384 
Q 2147 384 2411 759 
Q 2675 1134 2675 2259 
Q 2675 3391 2411 3762 
Q 2147 4134 1753 4134 
Q 1366 4134 1134 3806 
Q 844 3388 844 2259 
z
" transform="scale(0.015625)"/>
      </defs>
      <use xlink:href="#ArialMT-34"/>
      <use xlink:href="#ArialMT-30" x="55.615234"/>
     </g>
    </g>
    <g id="line2d_39">
     <path d="M 1145.96375 77.935056 
L 1145.96375 77.935056 
L 1162.96375 77.935056 
L 1162.96375 77.935056 
L 1179.96375 77.935056 
" style="fill: none; stroke: #ff8c00; stroke-width: 2; stroke-linecap: square"/>
    </g>
    <g id="text_45">
     <!-- 49 -->
     <g transform="translate(1193.56375 83.885056)scale(0.17 -0.17)">
      <defs>
       <path id="ArialMT-39" d="M 350 1059 
L 891 1109 
Q 959 728 1153 556 
Q 1347 384 1650 384 
Q 1909 384 2104 503 
Q 2300 622 2425 820 
Q 2550 1019 2634 1356 
Q 2719 1694 2719 2044 
Q 2719 2081 2716 2156 
Q 2547 1888 2255 1720 
Q 1963 1553 1622 1553 
Q 1053 1553 659 1965 
Q 266 2378 266 3053 
Q 266 3750 677 4175 
Q 1088 4600 1706 4600 
Q 2153 4600 2523 4359 
Q 2894 4119 3086 3673 
Q 3278 3228 3278 2384 
Q 3278 1506 3087 986 
Q 2897 466 2520 194 
Q 2144 -78 1638 -78 
Q 1100 -78 759 220 
Q 419 519 350 1059 
z
M 2653 3081 
Q 2653 3566 2395 3850 
Q 2138 4134 1775 4134 
Q 1400 4134 1122 3828 
Q 844 3522 844 3034 
Q 844 2597 1108 2323 
Q 1372 2050 1759 2050 
Q 2150 2050 2401 2323 
Q 2653 2597 2653 3081 
z
" transform="scale(0.015625)"/>
      </defs>
      <use xlink:href="#ArialMT-34"/>
      <use xlink:href="#ArialMT-39" x="55.615234"/>
     </g>
    </g>
    <g id="line2d_40">
     <path d="M 1145.96375 101.982087 
L 1145.96375 101.982087 
L 1162.96375 101.982087 
L 1162.96375 101.982087 
L 1179.96375 101.982087 
" style="fill: none; stroke: #ffd700; stroke-width: 2; stroke-linecap: square"/>
    </g>
    <g id="text_46">
     <!-- 56 -->
     <g transform="translate(1193.56375 107.932087)scale(0.17 -0.17)">
      <defs>
       <path id="ArialMT-36" d="M 3184 3459 
L 2625 3416 
Q 2550 3747 2413 3897 
Q 2184 4138 1850 4138 
Q 1581 4138 1378 3988 
Q 1113 3794 959 3422 
Q 806 3050 800 2363 
Q 1003 2672 1297 2822 
Q 1591 2972 1913 2972 
Q 2475 2972 2870 2558 
Q 3266 2144 3266 1488 
Q 3266 1056 3080 686 
Q 2894 316 2569 119 
Q 2244 -78 1831 -78 
Q 1128 -78 684 439 
Q 241 956 241 2144 
Q 241 3472 731 4075 
Q 1159 4600 1884 4600 
Q 2425 4600 2770 4297 
Q 3116 3994 3184 3459 
z
M 888 1484 
Q 888 1194 1011 928 
Q 1134 663 1356 523 
Q 1578 384 1822 384 
Q 2178 384 2434 671 
Q 2691 959 2691 1453 
Q 2691 1928 2437 2201 
Q 2184 2475 1800 2475 
Q 1419 2475 1153 2201 
Q 888 1928 888 1484 
z
" transform="scale(0.015625)"/>
      </defs>
      <use xlink:href="#ArialMT-35"/>
      <use xlink:href="#ArialMT-36" x="55.615234"/>
     </g>
    </g>
    <g id="line2d_41">
     <path d="M 1145.96375 126.029119 
L 1145.96375 126.029119 
L 1162.96375 126.029119 
L 1162.96375 126.029119 
L 1179.96375 126.029119 
" style="fill: none; stroke: #9acd32; stroke-width: 2; stroke-linecap: square"/>
    </g>
    <g id="text_47">
     <!-- 61 -->
     <g transform="translate(1193.56375 131.979119)scale(0.17 -0.17)">
      <use xlink:href="#ArialMT-36"/>
      <use xlink:href="#ArialMT-31" x="55.615234"/>
     </g>
    </g>
    <g id="line2d_42">
     <path d="M 1145.96375 150.07615 
L 1145.96375 150.07615 
L 1162.96375 150.07615 
L 1162.96375 150.07615 
L 1179.96375 150.07615 
" style="fill: none; stroke: #228b22; stroke-width: 2; stroke-linecap: square"/>
    </g>
    <g id="text_48">
     <!-- 65 -->
     <g transform="translate(1193.56375 156.02615)scale(0.17 -0.17)">
      <use xlink:href="#ArialMT-36"/>
      <use xlink:href="#ArialMT-35" x="55.615234"/>
     </g>
    </g>
    <g id="line2d_43">
     <path d="M 1246.470938 29.840994 
L 1246.470938 29.840994 
L 1263.470938 29.840994 
L 1263.470938 29.840994 
L 1280.470938 29.840994 
" style="fill: none; stroke: #00ff7f; stroke-width: 2; stroke-linecap: square"/>
    </g>
    <g id="text_49">
     <!-- 68 -->
     <g transform="translate(1294.070938 35.790994)scale(0.17 -0.17)">
      <defs>
       <path id="ArialMT-38" d="M 1131 2484 
Q 781 2613 612 2850 
Q 444 3088 444 3419 
Q 444 3919 803 4259 
Q 1163 4600 1759 4600 
Q 2359 4600 2725 4251 
Q 3091 3903 3091 3403 
Q 3091 3084 2923 2848 
Q 2756 2613 2416 2484 
Q 2838 2347 3058 2040 
Q 3278 1734 3278 1309 
Q 3278 722 2862 322 
Q 2447 -78 1769 -78 
Q 1091 -78 675 323 
Q 259 725 259 1325 
Q 259 1772 486 2073 
Q 713 2375 1131 2484 
z
M 1019 3438 
Q 1019 3113 1228 2906 
Q 1438 2700 1772 2700 
Q 2097 2700 2305 2904 
Q 2513 3109 2513 3406 
Q 2513 3716 2298 3927 
Q 2084 4138 1766 4138 
Q 1444 4138 1231 3931 
Q 1019 3725 1019 3438 
z
M 838 1322 
Q 838 1081 952 856 
Q 1066 631 1291 507 
Q 1516 384 1775 384 
Q 2178 384 2440 643 
Q 2703 903 2703 1303 
Q 2703 1709 2433 1975 
Q 2163 2241 1756 2241 
Q 1359 2241 1098 1978 
Q 838 1716 838 1322 
z
" transform="scale(0.015625)"/>
      </defs>
      <use xlink:href="#ArialMT-36"/>
      <use xlink:href="#ArialMT-38" x="55.615234"/>
     </g>
    </g>
    <g id="line2d_44">
     <path d="M 1246.470938 53.888025 
L 1246.470938 53.888025 
L 1263.470938 53.888025 
L 1263.470938 53.888025 
L 1280.470938 53.888025 
" style="fill: none; stroke: #00bfff; stroke-width: 2; stroke-linecap: square"/>
    </g>
    <g id="text_50">
     <!-- 72 -->
     <g transform="translate(1294.070938 59.838025)scale(0.17 -0.17)">
      <defs>
       <path id="ArialMT-37" d="M 303 3981 
L 303 4522 
L 3269 4522 
L 3269 4084 
Q 2831 3619 2401 2847 
Q 1972 2075 1738 1259 
Q 1569 684 1522 0 
L 944 0 
Q 953 541 1156 1306 
Q 1359 2072 1739 2783 
Q 2119 3494 2547 3981 
L 303 3981 
z
" transform="scale(0.015625)"/>
       <path id="ArialMT-32" d="M 3222 541 
L 3222 0 
L 194 0 
Q 188 203 259 391 
Q 375 700 629 1000 
Q 884 1300 1366 1694 
Q 2113 2306 2375 2664 
Q 2638 3022 2638 3341 
Q 2638 3675 2398 3904 
Q 2159 4134 1775 4134 
Q 1369 4134 1125 3890 
Q 881 3647 878 3216 
L 300 3275 
Q 359 3922 746 4261 
Q 1134 4600 1788 4600 
Q 2447 4600 2831 4234 
Q 3216 3869 3216 3328 
Q 3216 3053 3103 2787 
Q 2991 2522 2730 2228 
Q 2469 1934 1863 1422 
Q 1356 997 1212 845 
Q 1069 694 975 541 
L 3222 541 
z
" transform="scale(0.015625)"/>
      </defs>
      <use xlink:href="#ArialMT-37"/>
      <use xlink:href="#ArialMT-32" x="55.615234"/>
     </g>
    </g>
    <g id="line2d_45">
     <path d="M 1246.470938 77.935056 
L 1246.470938 77.935056 
L 1263.470938 77.935056 
L 1263.470938 77.935056 
L 1280.470938 77.935056 
" style="fill: none; stroke: #0000ff; stroke-width: 2; stroke-linecap: square"/>
    </g>
    <g id="text_51">
     <!-- 97 -->
     <g transform="translate(1294.070938 83.885056)scale(0.17 -0.17)">
      <use xlink:href="#ArialMT-39"/>
      <use xlink:href="#ArialMT-37" x="55.615234"/>
     </g>
    </g>
    <g id="line2d_46">
     <path d="M 1246.470938 101.982087 
L 1246.470938 101.982087 
L 1263.470938 101.982087 
L 1263.470938 101.982087 
L 1280.470938 101.982087 
" style="fill: none; stroke: #9400d3; stroke-width: 2; stroke-linecap: square"/>
    </g>
    <g id="text_52">
     <!-- 107 -->
     <g transform="translate(1294.070938 107.932087)scale(0.17 -0.17)">
      <use xlink:href="#ArialMT-31"/>
      <use xlink:href="#ArialMT-30" x="55.615234"/>
      <use xlink:href="#ArialMT-37" x="111.230469"/>
     </g>
    </g>
    <g id="line2d_47">
     <path d="M 1246.470938 126.029119 
L 1246.470938 126.029119 
L 1263.470938 126.029119 
L 1263.470938 126.029119 
L 1280.470938 126.029119 
" style="fill: none; stroke: #ee82ee; stroke-width: 2; stroke-linecap: square"/>
    </g>
    <g id="text_53">
     <!-- 114 -->
     <g transform="translate(1294.070938 131.979119)scale(0.17 -0.17)">
      <use xlink:href="#ArialMT-31"/>
      <use xlink:href="#ArialMT-31" x="48.240234"/>
      <use xlink:href="#ArialMT-34" x="103.855469"/>
     </g>
    </g>
    <g id="line2d_48">
     <path d="M 1356.431719 29.840994 
L 1356.431719 29.840994 
L 1373.431719 29.840994 
L 1373.431719 29.840994 
L 1390.431719 29.840994 
" style="fill: none; stroke: #ff1493; stroke-width: 2; stroke-linecap: square"/>
    </g>
    <g id="text_54">
     <!-- 159 -->
     <g transform="translate(1404.031719 35.790994)scale(0.17 -0.17)">
      <use xlink:href="#ArialMT-31"/>
      <use xlink:href="#ArialMT-35" x="55.615234"/>
      <use xlink:href="#ArialMT-39" x="111.230469"/>
     </g>
    </g>
    <g id="line2d_49">
     <path d="M 1356.431719 53.888025 
L 1356.431719 53.888025 
L 1373.431719 53.888025 
L 1373.431719 53.888025 
L 1390.431719 53.888025 
" style="fill: none; stroke: #000000; stroke-width: 2; stroke-linecap: square"/>
    </g>
    <g id="text_55">
     <!-- 177 -->
     <g transform="translate(1404.031719 59.838025)scale(0.17 -0.17)">
      <use xlink:href="#ArialMT-31"/>
      <use xlink:href="#ArialMT-37" x="55.615234"/>
      <use xlink:href="#ArialMT-37" x="111.230469"/>
     </g>
    </g>
    <g id="line2d_50">
     <path d="M 1356.431719 77.935056 
L 1356.431719 77.935056 
L 1373.431719 77.935056 
L 1373.431719 77.935056 
L 1390.431719 77.935056 
" style="fill: none; stroke: #808080; stroke-width: 2; stroke-linecap: square"/>
    </g>
    <g id="text_56">
     <!-- 180 -->
     <g transform="translate(1404.031719 83.885056)scale(0.17 -0.17)">
      <use xlink:href="#ArialMT-31"/>
      <use xlink:href="#ArialMT-38" x="55.615234"/>
      <use xlink:href="#ArialMT-30" x="111.230469"/>
     </g>
    </g>
    <g id="line2d_51">
     <path d="M 1356.431719 101.982087 
L 1356.431719 101.982087 
L 1373.431719 101.982087 
L 1373.431719 101.982087 
L 1390.431719 101.982087 
" style="fill: none; stroke: #add8e6; stroke-width: 2; stroke-linecap: square"/>
    </g>
    <g id="text_57">
     <!-- 181 -->
     <g transform="translate(1404.031719 107.932087)scale(0.17 -0.17)">
      <use xlink:href="#ArialMT-31"/>
      <use xlink:href="#ArialMT-38" x="55.615234"/>
      <use xlink:href="#ArialMT-31" x="111.230469"/>
     </g>
    </g>
    <g id="line2d_52">
     <path d="M 1356.431719 126.029119 
L 1356.431719 126.029119 
L 1373.431719 126.029119 
L 1373.431719 126.029119 
L 1390.431719 126.029119 
" style="fill: none; stroke: #bdb76b; stroke-width: 2; stroke-linecap: square"/>
    </g>
    <g id="text_58">
     <!-- 185 -->
     <g transform="translate(1404.031719 131.979119)scale(0.17 -0.17)">
      <use xlink:href="#ArialMT-31"/>
      <use xlink:href="#ArialMT-38" x="55.615234"/>
      <use xlink:href="#ArialMT-35" x="111.230469"/>
     </g>
    </g>
   </g>
  </g>
 </g>
 <defs>
  <clipPath id="pa13d7ee761">
   <rect x="52.6925" y="8.322712" width="1395" height="380.52"/>
  </clipPath>
 </defs>
</svg>
