<?xml version="1.0" encoding="utf-8" standalone="no"?>
<!DOCTYPE svg PUBLIC "-//W3C//DTD SVG 1.1//EN"
  "http://www.w3.org/Graphics/SVG/1.1/DTD/svg11.dtd">
<svg xmlns:xlink="http://www.w3.org/1999/xlink" width="1454.8925pt" height="440.076875pt" viewBox="0 0 1454.8925 440.076875" xmlns="http://www.w3.org/2000/svg" version="1.1">
 <metadata>
  <rdf:RDF xmlns:dc="http://purl.org/dc/elements/1.1/" xmlns:cc="http://creativecommons.org/ns#" xmlns:rdf="http://www.w3.org/1999/02/22-rdf-syntax-ns#">
   <cc:Work>
    <dc:type rdf:resource="http://purl.org/dc/dcmitype/StillImage"/>
    <dc:date>2023-02-07T22:09:30.477194</dc:date>
    <dc:format>image/svg+xml</dc:format>
    <dc:creator>
     <cc:Agent>
      <dc:title>Matplotlib v3.5.2, https://matplotlib.org/</dc:title>
     </cc:Agent>
    </dc:creator>
   </cc:Work>
  </rdf:RDF>
 </metadata>
 <defs>
  <style type="text/css">*{stroke-linejoin: round; stroke-linecap: butt}</style>
 </defs>
 <g id="figure_1">
  <g id="patch_1">
   <path d="M 0 440.076875 
L 1454.8925 440.076875 
L 1454.8925 0 
L 0 0 
L 0 440.076875 
z
" style="fill: none"/>
  </g>
  <g id="axes_1">
   <g id="patch_2">
    <path d="M 52.6925 411.95625 
L 1447.6925 411.95625 
L 1447.6925 31.43625 
L 52.6925 31.43625 
z
" style="fill: #ffffff"/>
   </g>
   <g id="matplotlib.axis_1">
    <g id="xtick_1">
     <g id="line2d_1">
      <defs>
       <path id="m43d37b4859" d="M 0 0 
L 0 -3.5 
" style="stroke: #000000; stroke-width: 0.8"/>
      </defs>
      <g>
       <use xlink:href="#m43d37b4859" x="52.6925" y="411.95625" style="stroke: #000000; stroke-width: 0.8"/>
      </g>
     </g>
     <g id="text_1">
      <!-- Jan-22 -->
      <g transform="translate(52.6925 429.133437)scale(0.18 -0.18)">
       <defs>
        <path id="DejaVuSerif-4a" d="M -538 -1119 
L -538 -384 
L -181 -384 
Q -172 -694 -34 -845 
Q 103 -997 378 -997 
Q 750 -997 897 -762 
Q 1044 -528 1044 153 
L 1044 4331 
L 319 4331 
L 319 4666 
L 2272 4666 
L 2272 4331 
L 1678 4331 
L 1678 128 
Q 1678 -644 1368 -987 
Q 1059 -1331 372 -1331 
Q 150 -1331 -79 -1278 
Q -309 -1225 -538 -1119 
z
" transform="scale(0.015625)"/>
        <path id="DejaVuSerif-61" d="M 2547 1044 
L 2547 1747 
L 1806 1747 
Q 1378 1747 1168 1562 
Q 959 1378 959 997 
Q 959 650 1171 447 
Q 1384 244 1747 244 
Q 2106 244 2326 466 
Q 2547 688 2547 1044 
z
M 3122 2075 
L 3122 331 
L 3634 331 
L 3634 0 
L 2547 0 
L 2547 359 
Q 2356 128 2106 18 
Q 1856 -91 1522 -91 
Q 969 -91 644 203 
Q 319 497 319 997 
Q 319 1513 691 1797 
Q 1063 2081 1741 2081 
L 2547 2081 
L 2547 2309 
Q 2547 2688 2317 2895 
Q 2088 3103 1672 3103 
Q 1328 3103 1125 2947 
Q 922 2791 872 2484 
L 575 2484 
L 575 3156 
Q 875 3284 1158 3348 
Q 1441 3413 1709 3413 
Q 2400 3413 2761 3070 
Q 3122 2728 3122 2075 
z
" transform="scale(0.015625)"/>
        <path id="DejaVuSerif-6e" d="M 263 0 
L 263 331 
L 781 331 
L 781 2988 
L 231 2988 
L 231 3322 
L 1356 3322 
L 1356 2731 
Q 1516 3069 1770 3241 
Q 2025 3413 2363 3413 
Q 2913 3413 3172 3097 
Q 3431 2781 3431 2113 
L 3431 331 
L 3944 331 
L 3944 0 
L 2356 0 
L 2356 331 
L 2853 331 
L 2853 1931 
Q 2853 2541 2703 2767 
Q 2553 2994 2175 2994 
Q 1775 2994 1565 2701 
Q 1356 2409 1356 1850 
L 1356 331 
L 1856 331 
L 1856 0 
L 263 0 
z
" transform="scale(0.015625)"/>
        <path id="DejaVuSerif-2d" d="M 281 1959 
L 1881 1959 
L 1881 1472 
L 281 1472 
L 281 1959 
z
" transform="scale(0.015625)"/>
        <path id="DejaVuSerif-32" d="M 819 3553 
L 469 3553 
L 469 4384 
Q 803 4563 1142 4656 
Q 1481 4750 1806 4750 
Q 2534 4750 2956 4397 
Q 3378 4044 3378 3438 
Q 3378 2753 2422 1800 
Q 2347 1728 2309 1691 
L 1131 513 
L 3078 513 
L 3078 1088 
L 3444 1088 
L 3444 0 
L 434 0 
L 434 341 
L 1850 1753 
Q 2319 2222 2519 2614 
Q 2719 3006 2719 3438 
Q 2719 3909 2473 4175 
Q 2228 4441 1797 4441 
Q 1350 4441 1106 4219 
Q 863 3997 819 3553 
z
" transform="scale(0.015625)"/>
       </defs>
       <use xlink:href="#DejaVuSerif-4a"/>
       <use xlink:href="#DejaVuSerif-61" x="40.087891"/>
       <use xlink:href="#DejaVuSerif-6e" x="99.707031"/>
       <use xlink:href="#DejaVuSerif-2d" x="164.111328"/>
       <use xlink:href="#DejaVuSerif-32" x="197.900391"/>
       <use xlink:href="#DejaVuSerif-32" x="261.523438"/>
      </g>
     </g>
    </g>
    <g id="xtick_2">
     <g id="line2d_2">
      <g>
       <use xlink:href="#m43d37b4859" x="171.171952" y="411.95625" style="stroke: #000000; stroke-width: 0.8"/>
      </g>
     </g>
     <g id="text_2">
      <!-- Feb-22 -->
      <g transform="translate(139.839296 429.133437)scale(0.18 -0.18)">
       <defs>
        <path id="DejaVuSerif-46" d="M 353 0 
L 353 331 
L 947 331 
L 947 4331 
L 353 4331 
L 353 4666 
L 4172 4666 
L 4172 3628 
L 3788 3628 
L 3788 4281 
L 1581 4281 
L 1581 2719 
L 3175 2719 
L 3175 3303 
L 3559 3303 
L 3559 1753 
L 3175 1753 
L 3175 2338 
L 1581 2338 
L 1581 331 
L 2328 331 
L 2328 0 
L 353 0 
z
" transform="scale(0.015625)"/>
        <path id="DejaVuSerif-65" d="M 3469 1600 
L 991 1600 
L 991 1575 
Q 991 903 1244 561 
Q 1497 219 1991 219 
Q 2369 219 2611 417 
Q 2853 616 2950 1006 
L 3413 1006 
Q 3275 459 2904 184 
Q 2534 -91 1931 -91 
Q 1203 -91 761 389 
Q 319 869 319 1663 
Q 319 2450 753 2931 
Q 1188 3413 1894 3413 
Q 2647 3413 3050 2948 
Q 3453 2484 3469 1600 
z
M 2791 1931 
Q 2772 2513 2545 2808 
Q 2319 3103 1894 3103 
Q 1497 3103 1269 2806 
Q 1041 2509 991 1931 
L 2791 1931 
z
" transform="scale(0.015625)"/>
        <path id="DejaVuSerif-62" d="M 738 331 
L 738 4531 
L 184 4531 
L 184 4863 
L 1313 4863 
L 1313 2803 
Q 1481 3116 1742 3264 
Q 2003 3413 2388 3413 
Q 3000 3413 3387 2928 
Q 3775 2444 3775 1663 
Q 3775 881 3387 395 
Q 3000 -91 2388 -91 
Q 2003 -91 1742 57 
Q 1481 206 1313 519 
L 1313 0 
L 184 0 
L 184 331 
L 738 331 
z
M 1313 1497 
Q 1313 897 1542 583 
Q 1772 269 2209 269 
Q 2650 269 2876 622 
Q 3103 975 3103 1663 
Q 3103 2353 2876 2703 
Q 2650 3053 2209 3053 
Q 1772 3053 1542 2737 
Q 1313 2422 1313 1825 
L 1313 1497 
z
" transform="scale(0.015625)"/>
       </defs>
       <use xlink:href="#DejaVuSerif-46"/>
       <use xlink:href="#DejaVuSerif-65" x="63.884766"/>
       <use xlink:href="#DejaVuSerif-62" x="123.064453"/>
       <use xlink:href="#DejaVuSerif-2d" x="187.078125"/>
       <use xlink:href="#DejaVuSerif-32" x="220.867188"/>
       <use xlink:href="#DejaVuSerif-32" x="284.490234"/>
      </g>
     </g>
    </g>
    <g id="xtick_3">
     <g id="line2d_3">
      <g>
       <use xlink:href="#m43d37b4859" x="278.185651" y="411.95625" style="stroke: #000000; stroke-width: 0.8"/>
      </g>
     </g>
     <g id="text_3">
      <!-- Mar-22 -->
      <g transform="translate(244.808307 429.133437)scale(0.18 -0.18)">
       <defs>
        <path id="DejaVuSerif-4d" d="M 353 0 
L 353 331 
L 947 331 
L 947 4331 
L 319 4331 
L 319 4666 
L 1678 4666 
L 3316 1344 
L 4953 4666 
L 6228 4666 
L 6228 4331 
L 5606 4331 
L 5606 331 
L 6203 331 
L 6203 0 
L 4378 0 
L 4378 331 
L 4972 331 
L 4972 3938 
L 3372 684 
L 2931 684 
L 1331 3938 
L 1331 331 
L 1925 331 
L 1925 0 
L 353 0 
z
" transform="scale(0.015625)"/>
        <path id="DejaVuSerif-72" d="M 3059 3328 
L 3059 2497 
L 2728 2497 
Q 2713 2744 2591 2866 
Q 2469 2988 2234 2988 
Q 1809 2988 1582 2694 
Q 1356 2400 1356 1850 
L 1356 331 
L 2022 331 
L 2022 0 
L 263 0 
L 263 331 
L 781 331 
L 781 2994 
L 231 2994 
L 231 3322 
L 1356 3322 
L 1356 2731 
Q 1525 3078 1790 3245 
Q 2056 3413 2438 3413 
Q 2578 3413 2733 3391 
Q 2888 3369 3059 3328 
z
" transform="scale(0.015625)"/>
       </defs>
       <use xlink:href="#DejaVuSerif-4d"/>
       <use xlink:href="#DejaVuSerif-61" x="102.392578"/>
       <use xlink:href="#DejaVuSerif-72" x="162.011719"/>
       <use xlink:href="#DejaVuSerif-2d" x="209.814453"/>
       <use xlink:href="#DejaVuSerif-32" x="243.603516"/>
       <use xlink:href="#DejaVuSerif-32" x="307.226562"/>
      </g>
     </g>
    </g>
    <g id="xtick_4">
     <g id="line2d_4">
      <g>
       <use xlink:href="#m43d37b4859" x="396.665103" y="411.95625" style="stroke: #000000; stroke-width: 0.8"/>
      </g>
     </g>
     <g id="text_4">
      <!-- Apr-22 -->
      <g transform="translate(365.608071 429.133437)scale(0.18 -0.18)">
       <defs>
        <path id="DejaVuSerif-41" d="M 1281 1691 
L 2994 1691 
L 2138 3909 
L 1281 1691 
z
M -38 0 
L -38 331 
L 372 331 
L 2034 4666 
L 2559 4666 
L 4225 331 
L 4684 331 
L 4684 0 
L 2988 0 
L 2988 331 
L 3506 331 
L 3116 1356 
L 1153 1356 
L 763 331 
L 1275 331 
L 1275 0 
L -38 0 
z
" transform="scale(0.015625)"/>
        <path id="DejaVuSerif-70" d="M 1313 1825 
L 1313 1497 
Q 1313 897 1542 583 
Q 1772 269 2209 269 
Q 2650 269 2876 622 
Q 3103 975 3103 1663 
Q 3103 2353 2876 2703 
Q 2650 3053 2209 3053 
Q 1772 3053 1542 2737 
Q 1313 2422 1313 1825 
z
M 738 2988 
L 184 2988 
L 184 3322 
L 1313 3322 
L 1313 2803 
Q 1481 3116 1742 3264 
Q 2003 3413 2388 3413 
Q 3000 3413 3387 2928 
Q 3775 2444 3775 1663 
Q 3775 881 3387 395 
Q 3000 -91 2388 -91 
Q 2003 -91 1742 57 
Q 1481 206 1313 519 
L 1313 -997 
L 1856 -997 
L 1856 -1331 
L 184 -1331 
L 184 -997 
L 738 -997 
L 738 2988 
z
" transform="scale(0.015625)"/>
       </defs>
       <use xlink:href="#DejaVuSerif-41"/>
       <use xlink:href="#DejaVuSerif-70" x="72.216797"/>
       <use xlink:href="#DejaVuSerif-72" x="136.230469"/>
       <use xlink:href="#DejaVuSerif-2d" x="184.033203"/>
       <use xlink:href="#DejaVuSerif-32" x="217.822266"/>
       <use xlink:href="#DejaVuSerif-32" x="281.445312"/>
      </g>
     </g>
    </g>
    <g id="xtick_5">
     <g id="line2d_5">
      <g>
       <use xlink:href="#m43d37b4859" x="511.322637" y="411.95625" style="stroke: #000000; stroke-width: 0.8"/>
      </g>
     </g>
     <g id="text_5">
      <!-- May-22 -->
      <g transform="translate(477.162012 428.8775)scale(0.18 -0.18)">
       <defs>
        <path id="DejaVuSerif-79" d="M 1381 -609 
L 1600 -56 
L 359 2988 
L -19 2988 
L -19 3322 
L 1509 3322 
L 1509 2988 
L 978 2988 
L 1913 703 
L 2847 2988 
L 2350 2988 
L 2350 3322 
L 3597 3322 
L 3597 2988 
L 3225 2988 
L 1703 -750 
Q 1547 -1138 1356 -1280 
Q 1166 -1422 819 -1422 
Q 672 -1422 517 -1397 
Q 363 -1372 206 -1325 
L 206 -691 
L 500 -691 
Q 519 -903 608 -995 
Q 697 -1088 884 -1088 
Q 1056 -1088 1161 -992 
Q 1266 -897 1381 -609 
z
" transform="scale(0.015625)"/>
       </defs>
       <use xlink:href="#DejaVuSerif-4d"/>
       <use xlink:href="#DejaVuSerif-61" x="102.392578"/>
       <use xlink:href="#DejaVuSerif-79" x="162.011719"/>
       <use xlink:href="#DejaVuSerif-2d" x="218.505859"/>
       <use xlink:href="#DejaVuSerif-32" x="252.294922"/>
       <use xlink:href="#DejaVuSerif-32" x="315.917969"/>
      </g>
     </g>
    </g>
    <g id="xtick_6">
     <g id="line2d_6">
      <g>
       <use xlink:href="#m43d37b4859" x="629.802089" y="411.95625" style="stroke: #000000; stroke-width: 0.8"/>
      </g>
     </g>
     <g id="text_6">
      <!-- Jun-22 -->
      <g transform="translate(600.106308 429.133437)scale(0.18 -0.18)">
       <defs>
        <path id="DejaVuSerif-75" d="M 2266 3322 
L 3341 3322 
L 3341 331 
L 3884 331 
L 3884 0 
L 2766 0 
L 2766 588 
Q 2606 256 2353 82 
Q 2100 -91 1766 -91 
Q 1213 -91 952 223 
Q 691 538 691 1209 
L 691 2988 
L 172 2988 
L 172 3322 
L 1269 3322 
L 1269 1388 
Q 1269 781 1417 556 
Q 1566 331 1947 331 
Q 2347 331 2556 625 
Q 2766 919 2766 1478 
L 2766 2988 
L 2266 2988 
L 2266 3322 
z
" transform="scale(0.015625)"/>
       </defs>
       <use xlink:href="#DejaVuSerif-4a"/>
       <use xlink:href="#DejaVuSerif-75" x="40.087891"/>
       <use xlink:href="#DejaVuSerif-6e" x="104.492188"/>
       <use xlink:href="#DejaVuSerif-2d" x="168.896484"/>
       <use xlink:href="#DejaVuSerif-32" x="202.685547"/>
       <use xlink:href="#DejaVuSerif-32" x="266.308594"/>
      </g>
     </g>
    </g>
    <g id="xtick_7">
     <g id="line2d_7">
      <g>
       <use xlink:href="#m43d37b4859" x="744.459623" y="411.95625" style="stroke: #000000; stroke-width: 0.8"/>
      </g>
     </g>
     <g id="text_7">
      <!-- Jul-22 -->
      <g transform="translate(717.681811 429.133437)scale(0.18 -0.18)">
       <defs>
        <path id="DejaVuSerif-6c" d="M 1313 331 
L 1856 331 
L 1856 0 
L 184 0 
L 184 331 
L 738 331 
L 738 4531 
L 184 4531 
L 184 4863 
L 1313 4863 
L 1313 331 
z
" transform="scale(0.015625)"/>
       </defs>
       <use xlink:href="#DejaVuSerif-4a"/>
       <use xlink:href="#DejaVuSerif-75" x="40.087891"/>
       <use xlink:href="#DejaVuSerif-6c" x="104.492188"/>
       <use xlink:href="#DejaVuSerif-2d" x="136.474609"/>
       <use xlink:href="#DejaVuSerif-32" x="170.263672"/>
       <use xlink:href="#DejaVuSerif-32" x="233.886719"/>
      </g>
     </g>
    </g>
    <g id="xtick_8">
     <g id="line2d_8">
      <g>
       <use xlink:href="#m43d37b4859" x="862.939075" y="411.95625" style="stroke: #000000; stroke-width: 0.8"/>
      </g>
     </g>
     <g id="text_8">
      <!-- Aug-22 -->
      <g transform="translate(830.3872 428.8775)scale(0.18 -0.18)">
       <defs>
        <path id="DejaVuSerif-67" d="M 3359 2988 
L 3359 72 
Q 3359 -644 2965 -1033 
Q 2572 -1422 1844 -1422 
Q 1516 -1422 1216 -1362 
Q 916 -1303 641 -1184 
L 641 -488 
L 941 -488 
Q 997 -813 1206 -963 
Q 1416 -1113 1806 -1113 
Q 2313 -1113 2548 -827 
Q 2784 -541 2784 72 
L 2784 519 
Q 2616 206 2355 57 
Q 2094 -91 1709 -91 
Q 1097 -91 708 395 
Q 319 881 319 1663 
Q 319 2444 706 2928 
Q 1094 3413 1709 3413 
Q 2094 3413 2355 3264 
Q 2616 3116 2784 2803 
L 2784 3322 
L 3909 3322 
L 3909 2988 
L 3359 2988 
z
M 2784 1825 
Q 2784 2422 2554 2737 
Q 2325 3053 1888 3053 
Q 1444 3053 1217 2703 
Q 991 2353 991 1663 
Q 991 975 1217 622 
Q 1444 269 1888 269 
Q 2325 269 2554 583 
Q 2784 897 2784 1497 
L 2784 1825 
z
" transform="scale(0.015625)"/>
       </defs>
       <use xlink:href="#DejaVuSerif-41"/>
       <use xlink:href="#DejaVuSerif-75" x="72.216797"/>
       <use xlink:href="#DejaVuSerif-67" x="136.621094"/>
       <use xlink:href="#DejaVuSerif-2d" x="200.634766"/>
       <use xlink:href="#DejaVuSerif-32" x="234.423828"/>
       <use xlink:href="#DejaVuSerif-32" x="298.046875"/>
      </g>
     </g>
    </g>
    <g id="xtick_9">
     <g id="line2d_9">
      <g>
       <use xlink:href="#m43d37b4859" x="981.418527" y="411.95625" style="stroke: #000000; stroke-width: 0.8"/>
      </g>
     </g>
     <g id="text_9">
      <!-- Sep-22 -->
      <g transform="translate(949.671027 429.133437)scale(0.18 -0.18)">
       <defs>
        <path id="DejaVuSerif-53" d="M 594 225 
L 594 1288 
L 953 1284 
Q 969 753 1261 498 
Q 1553 244 2150 244 
Q 2706 244 2998 464 
Q 3291 684 3291 1106 
Q 3291 1444 3114 1625 
Q 2938 1806 2369 1978 
L 1753 2163 
Q 1084 2366 811 2669 
Q 538 2972 538 3500 
Q 538 4094 959 4422 
Q 1381 4750 2144 4750 
Q 2469 4750 2856 4679 
Q 3244 4609 3681 4475 
L 3681 3481 
L 3328 3481 
Q 3275 3975 2998 4195 
Q 2722 4416 2156 4416 
Q 1663 4416 1405 4214 
Q 1147 4013 1147 3628 
Q 1147 3294 1340 3103 
Q 1534 2913 2163 2725 
L 2741 2553 
Q 3375 2363 3645 2067 
Q 3916 1772 3916 1275 
Q 3916 597 3481 253 
Q 3047 -91 2188 -91 
Q 1803 -91 1404 -12 
Q 1006 66 594 225 
z
" transform="scale(0.015625)"/>
       </defs>
       <use xlink:href="#DejaVuSerif-53"/>
       <use xlink:href="#DejaVuSerif-65" x="68.505859"/>
       <use xlink:href="#DejaVuSerif-70" x="127.685547"/>
       <use xlink:href="#DejaVuSerif-2d" x="191.699219"/>
       <use xlink:href="#DejaVuSerif-32" x="225.488281"/>
       <use xlink:href="#DejaVuSerif-32" x="289.111328"/>
      </g>
     </g>
    </g>
    <g id="xtick_10">
     <g id="line2d_10">
      <g>
       <use xlink:href="#m43d37b4859" x="1096.076062" y="411.95625" style="stroke: #000000; stroke-width: 0.8"/>
      </g>
     </g>
     <g id="text_10">
      <!-- Oct-22 -->
      <g transform="translate(1065.546374 429.133437)scale(0.18 -0.18)">
       <defs>
        <path id="DejaVuSerif-4f" d="M 2625 244 
Q 3391 244 3781 770 
Q 4172 1297 4172 2328 
Q 4172 3363 3781 3889 
Q 3391 4416 2625 4416 
Q 1856 4416 1465 3889 
Q 1075 3363 1075 2328 
Q 1075 1297 1465 770 
Q 1856 244 2625 244 
z
M 2625 -91 
Q 2150 -91 1751 65 
Q 1353 222 1050 525 
Q 700 875 529 1319 
Q 359 1763 359 2328 
Q 359 2894 529 3339 
Q 700 3784 1050 4134 
Q 1356 4441 1750 4595 
Q 2144 4750 2625 4750 
Q 3641 4750 4266 4084 
Q 4891 3419 4891 2328 
Q 4891 1769 4719 1320 
Q 4547 872 4197 525 
Q 3891 219 3497 64 
Q 3103 -91 2625 -91 
z
" transform="scale(0.015625)"/>
        <path id="DejaVuSerif-63" d="M 3291 997 
Q 3169 466 2822 187 
Q 2475 -91 1925 -91 
Q 1200 -91 759 389 
Q 319 869 319 1663 
Q 319 2459 759 2936 
Q 1200 3413 1925 3413 
Q 2241 3413 2553 3339 
Q 2866 3266 3181 3116 
L 3181 2266 
L 2847 2266 
Q 2781 2703 2561 2903 
Q 2341 3103 1931 3103 
Q 1466 3103 1228 2742 
Q 991 2381 991 1663 
Q 991 944 1227 581 
Q 1463 219 1931 219 
Q 2303 219 2525 412 
Q 2747 606 2828 997 
L 3291 997 
z
" transform="scale(0.015625)"/>
        <path id="DejaVuSerif-74" d="M 691 2988 
L 184 2988 
L 184 3322 
L 691 3322 
L 691 4353 
L 1269 4353 
L 1269 3322 
L 2350 3322 
L 2350 2988 
L 1269 2988 
L 1269 878 
Q 1269 456 1350 337 
Q 1431 219 1650 219 
Q 1875 219 1978 351 
Q 2081 484 2088 781 
L 2522 781 
Q 2497 328 2275 118 
Q 2053 -91 1600 -91 
Q 1103 -91 897 129 
Q 691 350 691 878 
L 691 2988 
z
" transform="scale(0.015625)"/>
       </defs>
       <use xlink:href="#DejaVuSerif-4f"/>
       <use xlink:href="#DejaVuSerif-63" x="81.982422"/>
       <use xlink:href="#DejaVuSerif-74" x="137.988281"/>
       <use xlink:href="#DejaVuSerif-2d" x="178.173828"/>
       <use xlink:href="#DejaVuSerif-32" x="211.962891"/>
       <use xlink:href="#DejaVuSerif-32" x="275.585938"/>
      </g>
     </g>
    </g>
    <g id="xtick_11">
     <g id="line2d_11">
      <g>
       <use xlink:href="#m43d37b4859" x="1214.555514" y="411.95625" style="stroke: #000000; stroke-width: 0.8"/>
      </g>
     </g>
     <g id="text_11">
      <!-- Nov-22 -->
      <g transform="translate(1181.683014 429.133437)scale(0.18 -0.18)">
       <defs>
        <path id="DejaVuSerif-4e" d="M 313 0 
L 313 331 
L 941 331 
L 941 4331 
L 313 4331 
L 313 4666 
L 1509 4666 
L 4306 984 
L 4306 4331 
L 3681 4331 
L 3681 4666 
L 5319 4666 
L 5319 4331 
L 4691 4331 
L 4691 -91 
L 4313 -91 
L 1325 3841 
L 1325 331 
L 1953 331 
L 1953 0 
L 313 0 
z
" transform="scale(0.015625)"/>
        <path id="DejaVuSerif-6f" d="M 1925 219 
Q 2388 219 2623 584 
Q 2859 950 2859 1663 
Q 2859 2375 2623 2739 
Q 2388 3103 1925 3103 
Q 1463 3103 1227 2739 
Q 991 2375 991 1663 
Q 991 950 1228 584 
Q 1466 219 1925 219 
z
M 1925 -91 
Q 1200 -91 759 389 
Q 319 869 319 1663 
Q 319 2456 758 2934 
Q 1197 3413 1925 3413 
Q 2653 3413 3092 2934 
Q 3531 2456 3531 1663 
Q 3531 869 3092 389 
Q 2653 -91 1925 -91 
z
" transform="scale(0.015625)"/>
        <path id="DejaVuSerif-76" d="M 1581 0 
L 359 2988 
L -19 2988 
L -19 3322 
L 1509 3322 
L 1509 2988 
L 978 2988 
L 1913 703 
L 2847 2988 
L 2350 2988 
L 2350 3322 
L 3597 3322 
L 3597 2988 
L 3225 2988 
L 2003 0 
L 1581 0 
z
" transform="scale(0.015625)"/>
       </defs>
       <use xlink:href="#DejaVuSerif-4e"/>
       <use xlink:href="#DejaVuSerif-6f" x="87.5"/>
       <use xlink:href="#DejaVuSerif-76" x="147.705078"/>
       <use xlink:href="#DejaVuSerif-2d" x="204.199219"/>
       <use xlink:href="#DejaVuSerif-32" x="237.988281"/>
       <use xlink:href="#DejaVuSerif-32" x="301.611328"/>
      </g>
     </g>
    </g>
    <g id="xtick_12">
     <g id="line2d_12">
      <g>
       <use xlink:href="#m43d37b4859" x="1329.213048" y="411.95625" style="stroke: #000000; stroke-width: 0.8"/>
      </g>
     </g>
     <g id="text_12">
      <!-- Dec-22 -->
      <g transform="translate(1297.136485 429.133437)scale(0.18 -0.18)">
       <defs>
        <path id="DejaVuSerif-44" d="M 1581 331 
L 2163 331 
Q 3072 331 3558 850 
Q 4044 1369 4044 2338 
Q 4044 3306 3559 3818 
Q 3075 4331 2163 4331 
L 1581 4331 
L 1581 331 
z
M 353 0 
L 353 331 
L 947 331 
L 947 4331 
L 353 4331 
L 353 4666 
L 2209 4666 
Q 3416 4666 4089 4050 
Q 4763 3434 4763 2338 
Q 4763 1238 4088 619 
Q 3413 0 2209 0 
L 353 0 
z
" transform="scale(0.015625)"/>
       </defs>
       <use xlink:href="#DejaVuSerif-44"/>
       <use xlink:href="#DejaVuSerif-65" x="80.175781"/>
       <use xlink:href="#DejaVuSerif-63" x="139.355469"/>
       <use xlink:href="#DejaVuSerif-2d" x="195.361328"/>
       <use xlink:href="#DejaVuSerif-32" x="229.150391"/>
       <use xlink:href="#DejaVuSerif-32" x="292.773438"/>
      </g>
     </g>
    </g>
    <g id="xtick_13">
     <g id="line2d_13">
      <g>
       <use xlink:href="#m43d37b4859" x="1447.6925" y="411.95625" style="stroke: #000000; stroke-width: 0.8"/>
      </g>
     </g>
     <g id="text_13">
      <!-- Jan-23 -->
      <g transform="translate(1389.161563 429.133437)scale(0.18 -0.18)">
       <defs>
        <path id="DejaVuSerif-33" d="M 622 4469 
Q 988 4606 1323 4678 
Q 1659 4750 1953 4750 
Q 2638 4750 3022 4454 
Q 3406 4159 3406 3634 
Q 3406 3213 3140 2930 
Q 2875 2647 2388 2547 
Q 2963 2466 3280 2130 
Q 3597 1794 3597 1259 
Q 3597 606 3158 257 
Q 2719 -91 1894 -91 
Q 1528 -91 1179 -12 
Q 831 66 488 225 
L 488 1131 
L 838 1131 
Q 869 681 1141 450 
Q 1413 219 1906 219 
Q 2384 219 2661 495 
Q 2938 772 2938 1253 
Q 2938 1803 2653 2086 
Q 2369 2369 1819 2369 
L 1522 2369 
L 1522 2688 
L 1678 2688 
Q 2225 2688 2498 2914 
Q 2772 3141 2772 3597 
Q 2772 4006 2547 4223 
Q 2322 4441 1900 4441 
Q 1478 4441 1245 4241 
Q 1013 4041 972 3647 
L 622 3647 
L 622 4469 
z
" transform="scale(0.015625)"/>
       </defs>
       <use xlink:href="#DejaVuSerif-4a"/>
       <use xlink:href="#DejaVuSerif-61" x="40.087891"/>
       <use xlink:href="#DejaVuSerif-6e" x="99.707031"/>
       <use xlink:href="#DejaVuSerif-2d" x="164.111328"/>
       <use xlink:href="#DejaVuSerif-32" x="197.900391"/>
       <use xlink:href="#DejaVuSerif-33" x="261.523438"/>
      </g>
     </g>
    </g>
   </g>
   <g id="matplotlib.axis_2">
    <g id="ytick_1">
     <g id="line2d_14">
      <defs>
       <path id="mb52dc29b4c" d="M 0 0 
L 3.5 0 
" style="stroke: #000000; stroke-width: 0.8"/>
      </defs>
      <g>
       <use xlink:href="#mb52dc29b4c" x="52.6925" y="411.95625" style="stroke: #000000; stroke-width: 0.8"/>
      </g>
     </g>
     <g id="text_14">
      <!-- 0 -->
      <g transform="translate(35.195 420.314531)scale(0.22 -0.22)">
       <defs>
        <path id="DejaVuSerif-30" d="M 2034 219 
Q 2513 219 2750 744 
Q 2988 1269 2988 2328 
Q 2988 3391 2750 3916 
Q 2513 4441 2034 4441 
Q 1556 4441 1318 3916 
Q 1081 3391 1081 2328 
Q 1081 1269 1318 744 
Q 1556 219 2034 219 
z
M 2034 -91 
Q 1275 -91 848 546 
Q 422 1184 422 2328 
Q 422 3475 848 4112 
Q 1275 4750 2034 4750 
Q 2797 4750 3222 4112 
Q 3647 3475 3647 2328 
Q 3647 1184 3222 546 
Q 2797 -91 2034 -91 
z
" transform="scale(0.015625)"/>
       </defs>
       <use xlink:href="#DejaVuSerif-30"/>
      </g>
     </g>
    </g>
    <g id="ytick_2">
     <g id="line2d_15">
      <g>
       <use xlink:href="#mb52dc29b4c" x="52.6925" y="354.700758" style="stroke: #000000; stroke-width: 0.8"/>
      </g>
     </g>
     <g id="text_15">
      <!-- 25 -->
      <g transform="translate(21.1975 363.059039)scale(0.22 -0.22)">
       <defs>
        <path id="DejaVuSerif-35" d="M 3219 4666 
L 3219 4153 
L 1081 4153 
L 1081 2816 
Q 1244 2928 1461 2984 
Q 1678 3041 1947 3041 
Q 2703 3041 3140 2622 
Q 3578 2203 3578 1478 
Q 3578 738 3136 323 
Q 2694 -91 1894 -91 
Q 1572 -91 1234 -12 
Q 897 66 544 225 
L 544 1131 
L 897 1131 
Q 925 688 1179 453 
Q 1434 219 1894 219 
Q 2388 219 2653 544 
Q 2919 869 2919 1478 
Q 2919 2084 2655 2407 
Q 2391 2731 1894 2731 
Q 1613 2731 1398 2631 
Q 1184 2531 1019 2322 
L 750 2322 
L 750 4666 
L 3219 4666 
z
" transform="scale(0.015625)"/>
       </defs>
       <use xlink:href="#DejaVuSerif-32"/>
       <use xlink:href="#DejaVuSerif-35" x="63.623047"/>
      </g>
     </g>
    </g>
    <g id="ytick_3">
     <g id="line2d_16">
      <g>
       <use xlink:href="#mb52dc29b4c" x="52.6925" y="297.445266" style="stroke: #000000; stroke-width: 0.8"/>
      </g>
     </g>
     <g id="text_16">
      <!-- 50 -->
      <g transform="translate(21.1975 305.803547)scale(0.22 -0.22)">
       <use xlink:href="#DejaVuSerif-35"/>
       <use xlink:href="#DejaVuSerif-30" x="63.623047"/>
      </g>
     </g>
    </g>
    <g id="ytick_4">
     <g id="line2d_17">
      <g>
       <use xlink:href="#mb52dc29b4c" x="52.6925" y="240.189774" style="stroke: #000000; stroke-width: 0.8"/>
      </g>
     </g>
     <g id="text_17">
      <!-- 75 -->
      <g transform="translate(21.1975 248.548055)scale(0.22 -0.22)">
       <defs>
        <path id="DejaVuSerif-37" d="M 3609 4347 
L 1784 0 
L 1319 0 
L 3059 4153 
L 903 4153 
L 903 3578 
L 538 3578 
L 538 4666 
L 3609 4666 
L 3609 4347 
z
" transform="scale(0.015625)"/>
       </defs>
       <use xlink:href="#DejaVuSerif-37"/>
       <use xlink:href="#DejaVuSerif-35" x="63.623047"/>
      </g>
     </g>
    </g>
    <g id="ytick_5">
     <g id="line2d_18">
      <g>
       <use xlink:href="#mb52dc29b4c" x="52.6925" y="182.934282" style="stroke: #000000; stroke-width: 0.8"/>
      </g>
     </g>
     <g id="text_18">
      <!-- 100 -->
      <g transform="translate(7.2 191.292563)scale(0.22 -0.22)">
       <defs>
        <path id="DejaVuSerif-31" d="M 909 0 
L 909 331 
L 1722 331 
L 1722 4213 
L 781 3603 
L 781 4013 
L 1919 4750 
L 2350 4750 
L 2350 331 
L 3163 331 
L 3163 0 
L 909 0 
z
" transform="scale(0.015625)"/>
       </defs>
       <use xlink:href="#DejaVuSerif-31"/>
       <use xlink:href="#DejaVuSerif-30" x="63.623047"/>
       <use xlink:href="#DejaVuSerif-30" x="127.246094"/>
      </g>
     </g>
    </g>
    <g id="ytick_6">
     <g id="line2d_19">
      <g>
       <use xlink:href="#mb52dc29b4c" x="52.6925" y="125.67879" style="stroke: #000000; stroke-width: 0.8"/>
      </g>
     </g>
     <g id="text_19">
      <!-- 125 -->
      <g transform="translate(7.2 134.037071)scale(0.22 -0.22)">
       <use xlink:href="#DejaVuSerif-31"/>
       <use xlink:href="#DejaVuSerif-32" x="63.623047"/>
       <use xlink:href="#DejaVuSerif-35" x="127.246094"/>
      </g>
     </g>
    </g>
    <g id="ytick_7">
     <g id="line2d_20">
      <g>
       <use xlink:href="#mb52dc29b4c" x="52.6925" y="68.423298" style="stroke: #000000; stroke-width: 0.8"/>
      </g>
     </g>
     <g id="text_20">
      <!-- 150 -->
      <g transform="translate(7.2 76.781579)scale(0.22 -0.22)">
       <use xlink:href="#DejaVuSerif-31"/>
       <use xlink:href="#DejaVuSerif-35" x="63.623047"/>
       <use xlink:href="#DejaVuSerif-30" x="127.246094"/>
      </g>
     </g>
    </g>
   </g>
   <g id="line2d_21">
    <path d="M -1 423.407348 
L 545.719897 423.407348 
L 545.719897 368.442076 
L 549.541815 368.442076 
L 549.541815 322.637682 
L 553.363733 322.637682 
L 553.363733 368.442076 
L 557.185651 368.442076 
L 557.185651 373.022515 
L 561.007568 373.022515 
L 561.007568 361.571417 
L 564.829486 361.571417 
L 564.829486 345.539879 
L 568.651404 345.539879 
L 568.651404 366.151856 
L 576.29524 366.151856 
L 576.29524 363.861637 
L 580.117158 363.861637 
L 580.117158 423.407348 
L 1443.870582 423.407348 
L 1443.870582 423.407348 
" clip-path="url(#pc09253125b)" style="fill: none; stroke: #0000ff; stroke-width: 0.8; stroke-linecap: square"/>
   </g>
   <g id="line2d_22">
    <path d="M -1 423.407348 
L 820.897979 423.407348 
L 820.897979 352.410538 
L 824.719897 352.410538 
L 824.719897 368.442076 
L 828.541815 368.442076 
L 828.541815 379.893174 
L 836.185651 379.893174 
L 836.185651 423.407348 
L 859.117158 423.407348 
L 859.117158 368.442076 
L 862.939075 368.442076 
L 862.939075 423.407348 
L 1206.911678 423.407348 
L 1206.911678 363.861637 
L 1210.733596 363.861637 
L 1210.733596 423.407348 
L 1214.555514 423.407348 
L 1214.555514 373.022515 
L 1218.377432 373.022515 
L 1218.377432 423.407348 
L 1443.870582 423.407348 
L 1443.870582 423.407348 
" clip-path="url(#pc09253125b)" style="fill: none; stroke: #ff00ff; stroke-width: 0.8; stroke-linecap: square"/>
   </g>
   <g id="line2d_23">
    <path d="M -1 423.407348 
L 518.966473 423.407348 
L 518.966473 398.214932 
L 522.78839 398.214932 
L 522.78839 402.795371 
L 526.610308 402.795371 
L 526.610308 391.344273 
L 530.432226 391.344273 
L 530.432226 400.505152 
L 534.254144 400.505152 
L 534.254144 382.183394 
L 538.076062 382.183394 
L 538.076062 334.088781 
L 541.897979 334.088781 
L 541.897979 400.505152 
L 545.719897 400.505152 
L 545.719897 423.407348 
L 947.021267 423.407348 
L 947.021267 382.183394 
L 950.843185 382.183394 
L 950.843185 423.407348 
L 1443.870582 423.407348 
L 1443.870582 423.407348 
" clip-path="url(#pc09253125b)" style="fill: none; stroke: #0000ff; stroke-width: 0.8; stroke-linecap: square"/>
   </g>
   <g id="line2d_24">
    <path d="M -1 423.407348 
L 931.733596 423.407348 
L 931.733596 398.214932 
L 935.555514 398.214932 
L 935.555514 354.700758 
L 939.377432 354.700758 
L 939.377432 352.410538 
L 943.199349 352.410538 
L 943.199349 350.120319 
L 947.021267 350.120319 
L 947.021267 391.344273 
L 950.843185 391.344273 
L 950.843185 423.407348 
L 1443.870582 423.407348 
L 1443.870582 423.407348 
" clip-path="url(#pc09253125b)" style="fill: none; stroke: #ff0000; stroke-width: 0.8; stroke-linecap: square"/>
   </g>
   <g id="line2d_25">
    <path d="M -1 423.407348 
L 625.980171 423.407348 
L 625.980171 324.927902 
L 629.802089 324.927902 
L 629.802089 373.022515 
L 633.624007 373.022515 
L 633.624007 423.407348 
L 679.487021 423.407348 
L 679.487021 366.151856 
L 683.308938 366.151856 
L 683.308938 423.407348 
L 1443.870582 423.407348 
L 1443.870582 423.407348 
" clip-path="url(#pc09253125b)" style="fill: none; stroke: #008000; stroke-width: 0.8; stroke-linecap: square"/>
   </g>
   <g id="line2d_26">
    <path d="M -1 423.407348 
L 1076.966473 423.407348 
L 1076.966473 361.571417 
L 1080.78839 361.571417 
L 1080.78839 338.66922 
L 1084.610308 338.66922 
L 1084.610308 356.990978 
L 1088.432226 356.990978 
L 1088.432226 379.893174 
L 1092.254144 379.893174 
L 1092.254144 423.407348 
L 1443.870582 423.407348 
L 1443.870582 423.407348 
" clip-path="url(#pc09253125b)" style="fill: none; stroke: #ff00ff; stroke-width: 0.8; stroke-linecap: square"/>
   </g>
   <g id="line2d_27">
    <path d="M -1 423.407348 
L 652.733596 423.407348 
L 652.733596 395.924712 
L 656.555514 395.924712 
L 656.555514 361.571417 
L 660.377432 361.571417 
L 660.377432 359.281197 
L 664.199349 359.281197 
L 664.199349 386.763834 
L 668.021267 386.763834 
L 668.021267 423.407348 
L 794.144555 423.407348 
L 794.144555 389.054053 
L 797.966473 389.054053 
L 797.966473 423.407348 
L 1054.034966 423.407348 
L 1054.034966 389.054053 
L 1057.856884 389.054053 
L 1057.856884 352.410538 
L 1061.678801 352.410538 
L 1061.678801 423.407348 
L 1443.870582 423.407348 
L 1443.870582 423.407348 
" clip-path="url(#pc09253125b)" style="fill: none; stroke: #0000ff; stroke-width: 0.8; stroke-linecap: square"/>
   </g>
   <g id="line2d_28">
    <path d="M -1 423.407348 
L 110.021267 423.407348 
L 110.021267 382.183394 
L 113.843185 382.183394 
L 113.843185 361.571417 
L 117.665103 361.571417 
L 117.665103 366.151856 
L 121.487021 366.151856 
L 121.487021 322.637682 
L 125.308938 322.637682 
L 125.308938 347.830099 
L 129.130856 347.830099 
L 129.130856 373.022515 
L 132.952774 373.022515 
L 132.952774 368.442076 
L 136.774692 368.442076 
L 136.774692 331.798561 
L 140.59661 331.798561 
L 140.59661 302.025705 
L 144.418527 302.025705 
L 144.418527 334.088781 
L 148.240445 334.088781 
L 148.240445 423.407348 
L 152.062363 423.407348 
L 152.062363 334.088781 
L 155.884281 334.088781 
L 155.884281 361.571417 
L 159.706199 361.571417 
L 159.706199 377.602955 
L 163.528116 377.602955 
L 163.528116 368.442076 
L 167.350034 368.442076 
L 167.350034 366.151856 
L 171.171952 366.151856 
L 171.171952 384.473614 
L 174.99387 384.473614 
L 174.99387 379.893174 
L 178.815788 379.893174 
L 178.815788 423.407348 
L 186.459623 423.407348 
L 186.459623 361.571417 
L 190.281541 361.571417 
L 190.281541 368.442076 
L 194.103459 368.442076 
L 194.103459 350.120319 
L 197.925377 350.120319 
L 197.925377 368.442076 
L 201.747295 368.442076 
L 201.747295 336.379001 
L 209.39113 336.379001 
L 209.39113 343.24966 
L 213.213048 343.24966 
L 213.213048 336.379001 
L 217.034966 336.379001 
L 217.034966 313.476804 
L 220.856884 313.476804 
L 220.856884 283.703948 
L 224.678801 283.703948 
L 224.678801 324.927902 
L 228.500719 324.927902 
L 228.500719 315.767023 
L 232.322637 315.767023 
L 232.322637 322.637682 
L 236.144555 322.637682 
L 236.144555 345.539879 
L 239.966473 345.539879 
L 239.966473 318.057243 
L 247.610308 318.057243 
L 247.610308 373.022515 
L 251.432226 373.022515 
L 251.432226 379.893174 
L 255.254144 379.893174 
L 255.254144 423.407348 
L 1359.78839 423.407348 
L 1359.78839 409.66603 
L 1363.610308 409.66603 
L 1363.610308 423.407348 
L 1443.870582 423.407348 
L 1443.870582 423.407348 
" clip-path="url(#pc09253125b)" style="fill: none; stroke: #0000ff; stroke-width: 0.8; stroke-linecap: square"/>
   </g>
   <g id="line2d_29">
    <path d="M -1 423.407348 
L 434.884281 423.407348 
L 434.884281 400.505152 
L 438.706199 400.505152 
L 438.706199 395.924712 
L 442.528116 395.924712 
L 442.528116 423.407348 
L 446.350034 423.407348 
L 446.350034 400.505152 
L 453.99387 400.505152 
L 453.99387 384.473614 
L 457.815788 384.473614 
L 457.815788 389.054053 
L 461.637705 389.054053 
L 461.637705 391.344273 
L 465.459623 391.344273 
L 465.459623 370.732296 
L 469.281541 370.732296 
L 469.281541 340.95944 
L 473.103459 340.95944 
L 473.103459 361.571417 
L 476.925377 361.571417 
L 476.925377 382.183394 
L 484.569212 382.183394 
L 484.569212 395.924712 
L 488.39113 395.924712 
L 488.39113 423.407348 
L 492.213048 423.407348 
L 492.213048 393.634493 
L 496.034966 393.634493 
L 496.034966 423.407348 
L 503.678801 423.407348 
L 503.678801 386.763834 
L 507.500719 386.763834 
L 507.500719 382.183394 
L 511.322637 382.183394 
L 511.322637 375.312735 
L 515.144555 375.312735 
L 515.144555 368.442076 
L 522.78839 368.442076 
L 522.78839 354.700758 
L 530.432226 354.700758 
L 530.432226 375.312735 
L 534.254144 375.312735 
L 534.254144 386.763834 
L 538.076062 386.763834 
L 538.076062 423.407348 
L 568.651404 423.407348 
L 568.651404 343.24966 
L 572.473322 343.24966 
L 572.473322 361.571417 
L 576.29524 361.571417 
L 576.29524 423.407348 
L 580.117158 423.407348 
L 580.117158 375.312735 
L 583.939075 375.312735 
L 583.939075 423.407348 
L 1443.870582 423.407348 
L 1443.870582 423.407348 
" clip-path="url(#pc09253125b)" style="fill: none; stroke: #ff0000; stroke-width: 0.8; stroke-linecap: square"/>
   </g>
   <g id="line2d_30">
    <path d="M -1 423.407348 
L 262.897979 423.407348 
L 262.897979 395.924712 
L 270.541815 395.924712 
L 270.541815 363.861637 
L 274.363733 363.861637 
L 274.363733 352.410538 
L 278.185651 352.410538 
L 278.185651 393.634493 
L 282.007568 393.634493 
L 282.007568 391.344273 
L 285.829486 391.344273 
L 285.829486 329.508341 
L 289.651404 329.508341 
L 289.651404 423.407348 
L 297.29524 423.407348 
L 297.29524 391.344273 
L 301.117158 391.344273 
L 301.117158 423.407348 
L 308.760993 423.407348 
L 308.760993 389.054053 
L 312.582911 389.054053 
L 312.582911 366.151856 
L 316.404829 366.151856 
L 316.404829 423.407348 
L 1443.870582 423.407348 
L 1443.870582 423.407348 
" clip-path="url(#pc09253125b)" style="fill: none; stroke: #0000ff; stroke-width: 0.8; stroke-linecap: square"/>
   </g>
   <g id="line2d_31">
    <path d="M -1 423.407348 
L 266.719897 423.407348 
L 266.719897 393.634493 
L 270.541815 393.634493 
L 270.541815 389.054053 
L 274.363733 389.054053 
L 274.363733 377.602955 
L 278.185651 377.602955 
L 278.185651 368.442076 
L 282.007568 368.442076 
L 282.007568 382.183394 
L 289.651404 382.183394 
L 289.651404 423.407348 
L 308.760993 423.407348 
L 308.760993 345.539879 
L 312.582911 345.539879 
L 312.582911 379.893174 
L 316.404829 379.893174 
L 316.404829 395.924712 
L 324.048664 395.924712 
L 324.048664 373.022515 
L 327.870582 373.022515 
L 327.870582 382.183394 
L 331.6925 382.183394 
L 331.6925 391.344273 
L 335.514418 391.344273 
L 335.514418 423.407348 
L 1443.870582 423.407348 
L 1443.870582 423.407348 
" clip-path="url(#pc09253125b)" style="fill: none; stroke: #ff00ff; stroke-width: 0.8; stroke-linecap: square"/>
   </g>
   <g id="line2d_32">
    <path d="M -1 423.407348 
L 840.007568 423.407348 
L 840.007568 386.763834 
L 843.829486 386.763834 
L 843.829486 377.602955 
L 847.651404 377.602955 
L 847.651404 423.407348 
L 969.952774 423.407348 
L 969.952774 368.442076 
L 973.774692 368.442076 
L 973.774692 423.407348 
L 1161.048664 423.407348 
L 1161.048664 368.442076 
L 1164.870582 368.442076 
L 1164.870582 423.407348 
L 1168.6925 423.407348 
L 1168.6925 377.602955 
L 1172.514418 377.602955 
L 1172.514418 379.893174 
L 1176.336336 379.893174 
L 1176.336336 423.407348 
L 1241.308938 423.407348 
L 1241.308938 366.151856 
L 1245.130856 366.151856 
L 1245.130856 347.830099 
L 1248.952774 347.830099 
L 1248.952774 343.24966 
L 1252.774692 343.24966 
L 1252.774692 354.700758 
L 1256.59661 354.700758 
L 1256.59661 366.151856 
L 1260.418527 366.151856 
L 1260.418527 368.442076 
L 1264.240445 368.442076 
L 1264.240445 423.407348 
L 1443.870582 423.407348 
L 1443.870582 423.407348 
" clip-path="url(#pc09253125b)" style="fill: none; stroke: #ff0000; stroke-width: 0.8; stroke-linecap: square"/>
   </g>
   <g id="line2d_33">
    <path d="M -1 423.407348 
L 274.363733 423.407348 
L 274.363733 391.344273 
L 278.185651 391.344273 
L 278.185651 375.312735 
L 282.007568 375.312735 
L 282.007568 400.505152 
L 285.829486 400.505152 
L 285.829486 382.183394 
L 289.651404 382.183394 
L 289.651404 354.700758 
L 293.473322 354.700758 
L 293.473322 350.120319 
L 297.29524 350.120319 
L 297.29524 366.151856 
L 301.117158 366.151856 
L 301.117158 350.120319 
L 304.939075 350.120319 
L 304.939075 311.186584 
L 308.760993 311.186584 
L 308.760993 368.442076 
L 312.582911 368.442076 
L 312.582911 393.634493 
L 316.404829 393.634493 
L 316.404829 391.344273 
L 320.226747 391.344273 
L 320.226747 393.634493 
L 324.048664 393.634493 
L 324.048664 379.893174 
L 331.6925 379.893174 
L 331.6925 350.120319 
L 335.514418 350.120319 
L 335.514418 379.893174 
L 339.336336 379.893174 
L 339.336336 423.407348 
L 1443.870582 423.407348 
L 1443.870582 423.407348 
" clip-path="url(#pc09253125b)" style="fill: none; stroke: #0000ff; stroke-width: 0.8; stroke-linecap: square"/>
   </g>
   <g id="line2d_34">
    <path d="M -1 423.407348 
L 396.665103 423.407348 
L 396.665103 395.924712 
L 400.487021 395.924712 
L 400.487021 311.186584 
L 404.308938 311.186584 
L 404.308938 219.577797 
L 411.952774 219.577797 
L 411.952774 318.057243 
L 415.774692 318.057243 
L 415.774692 338.66922 
L 419.59661 338.66922 
L 419.59661 324.927902 
L 423.418527 324.927902 
L 423.418527 386.763834 
L 427.240445 386.763834 
L 427.240445 391.344273 
L 431.062363 391.344273 
L 431.062363 398.214932 
L 434.884281 398.214932 
L 434.884281 395.924712 
L 438.706199 395.924712 
L 438.706199 393.634493 
L 442.528116 393.634493 
L 442.528116 423.407348 
L 1034.925377 423.407348 
L 1034.925377 363.861637 
L 1038.747295 363.861637 
L 1038.747295 423.407348 
L 1443.870582 423.407348 
L 1443.870582 423.407348 
" clip-path="url(#pc09253125b)" style="fill: none; stroke: #ff0000; stroke-width: 0.8; stroke-linecap: square"/>
   </g>
   <g id="line2d_35">
    <path d="M -1 423.407348 
L 262.897979 423.407348 
L 262.897979 228.738676 
L 266.719897 228.738676 
L 266.719897 267.67241 
L 270.541815 267.67241 
L 270.541815 274.543069 
L 274.363733 274.543069 
L 274.363733 308.896364 
L 278.185651 308.896364 
L 278.185651 290.574607 
L 282.007568 290.574607 
L 282.007568 295.155046 
L 285.829486 295.155046 
L 285.829486 423.407348 
L 1443.870582 423.407348 
L 1443.870582 423.407348 
" clip-path="url(#pc09253125b)" style="fill: none; stroke: #ff0000; stroke-width: 0.8; stroke-linecap: square"/>
   </g>
   <g id="line2d_36">
    <path d="M -1 423.407348 
L 282.007568 423.407348 
L 282.007568 384.473614 
L 285.829486 384.473614 
L 285.829486 244.770213 
L 289.651404 244.770213 
L 289.651404 398.214932 
L 293.473322 398.214932 
L 293.473322 395.924712 
L 297.29524 395.924712 
L 297.29524 393.634493 
L 301.117158 393.634493 
L 301.117158 423.407348 
L 304.939075 423.407348 
L 304.939075 363.861637 
L 308.760993 363.861637 
L 308.760993 395.924712 
L 312.582911 395.924712 
L 312.582911 379.893174 
L 316.404829 379.893174 
L 316.404829 423.407348 
L 885.870582 423.407348 
L 885.870582 354.700758 
L 889.6925 354.700758 
L 889.6925 423.407348 
L 897.336336 423.407348 
L 897.336336 382.183394 
L 901.158253 382.183394 
L 901.158253 423.407348 
L 924.08976 423.407348 
L 924.08976 368.442076 
L 927.911678 368.442076 
L 927.911678 354.700758 
L 931.733596 354.700758 
L 931.733596 423.407348 
L 950.843185 423.407348 
L 950.843185 368.442076 
L 954.665103 368.442076 
L 954.665103 361.571417 
L 958.487021 361.571417 
L 958.487021 423.407348 
L 966.130856 423.407348 
L 966.130856 361.571417 
L 969.952774 361.571417 
L 969.952774 423.407348 
L 977.59661 423.407348 
L 977.59661 308.896364 
L 981.418527 308.896364 
L 981.418527 359.281197 
L 985.240445 359.281197 
L 985.240445 423.407348 
L 1443.870582 423.407348 
L 1443.870582 423.407348 
" clip-path="url(#pc09253125b)" style="fill: none; stroke: #ff0000; stroke-width: 0.8; stroke-linecap: square"/>
   </g>
   <g id="line2d_37">
    <path d="M -1 423.407348 
L 725.350034 423.407348 
L 725.350034 363.861637 
L 729.171952 363.861637 
L 729.171952 343.24966 
L 732.99387 343.24966 
L 732.99387 384.473614 
L 736.815788 384.473614 
L 736.815788 423.407348 
L 740.637705 423.407348 
L 740.637705 379.893174 
L 744.459623 379.893174 
L 744.459623 423.407348 
L 790.322637 423.407348 
L 790.322637 379.893174 
L 794.144555 379.893174 
L 794.144555 377.602955 
L 797.966473 377.602955 
L 797.966473 423.407348 
L 1443.870582 423.407348 
L 1443.870582 423.407348 
" clip-path="url(#pc09253125b)" style="fill: none; stroke: #ff0000; stroke-width: 0.8; stroke-linecap: square"/>
   </g>
   <g id="line2d_38">
    <path d="M -1 423.407348 
L 1004.350034 423.407348 
L 1004.350034 370.732296 
L 1008.171952 370.732296 
L 1008.171952 354.700758 
L 1011.99387 354.700758 
L 1011.99387 370.732296 
L 1015.815788 370.732296 
L 1015.815788 352.410538 
L 1019.637705 352.410538 
L 1019.637705 311.186584 
L 1023.459623 311.186584 
L 1023.459623 361.571417 
L 1027.281541 361.571417 
L 1027.281541 340.95944 
L 1031.103459 340.95944 
L 1031.103459 379.893174 
L 1034.925377 379.893174 
L 1034.925377 389.054053 
L 1038.747295 389.054053 
L 1038.747295 423.407348 
L 1042.569212 423.407348 
L 1042.569212 398.214932 
L 1046.39113 398.214932 
L 1046.39113 423.407348 
L 1050.213048 423.407348 
L 1050.213048 393.634493 
L 1054.034966 393.634493 
L 1054.034966 423.407348 
L 1088.432226 423.407348 
L 1088.432226 395.924712 
L 1092.254144 395.924712 
L 1092.254144 379.893174 
L 1096.076062 379.893174 
L 1096.076062 382.183394 
L 1099.897979 382.183394 
L 1099.897979 389.054053 
L 1103.719897 389.054053 
L 1103.719897 395.924712 
L 1107.541815 395.924712 
L 1107.541815 384.473614 
L 1111.363733 384.473614 
L 1111.363733 423.407348 
L 1443.870582 423.407348 
L 1443.870582 423.407348 
" clip-path="url(#pc09253125b)" style="fill: none; stroke: #ff0000; stroke-width: 0.8; stroke-linecap: square"/>
   </g>
   <g id="line2d_39">
    <path d="M -1 423.407348 
L 243.78839 423.407348 
L 243.78839 356.990978 
L 247.610308 356.990978 
L 247.610308 352.410538 
L 251.432226 352.410538 
L 251.432226 423.407348 
L 1443.870582 423.407348 
L 1443.870582 423.407348 
" clip-path="url(#pc09253125b)" style="fill: none; stroke: #0000ff; stroke-width: 0.8; stroke-linecap: square"/>
   </g>
   <g id="line2d_40">
    <path d="M -1 423.407348 
L 266.719897 423.407348 
L 266.719897 375.312735 
L 270.541815 375.312735 
L 270.541815 356.990978 
L 274.363733 356.990978 
L 274.363733 386.763834 
L 278.185651 386.763834 
L 278.185651 375.312735 
L 282.007568 375.312735 
L 282.007568 393.634493 
L 285.829486 393.634493 
L 285.829486 423.407348 
L 308.760993 423.407348 
L 308.760993 393.634493 
L 312.582911 393.634493 
L 312.582911 423.407348 
L 1054.034966 423.407348 
L 1054.034966 336.379001 
L 1057.856884 336.379001 
L 1057.856884 423.407348 
L 1115.185651 423.407348 
L 1115.185651 352.410538 
L 1119.007568 352.410538 
L 1119.007568 423.407348 
L 1443.870582 423.407348 
L 1443.870582 423.407348 
" clip-path="url(#pc09253125b)" style="fill: none; stroke: #008000; stroke-width: 0.8; stroke-linecap: square"/>
   </g>
   <g id="line2d_41">
    <path d="M -1 423.407348 
L 492.213048 423.407348 
L 492.213048 354.700758 
L 496.034966 354.700758 
L 496.034966 423.407348 
L 1443.870582 423.407348 
L 1443.870582 423.407348 
" clip-path="url(#pc09253125b)" style="fill: none; stroke: #ff00ff; stroke-width: 0.8; stroke-linecap: square"/>
   </g>
   <g id="line2d_42">
    <path d="M -1 423.407348 
L 270.541815 423.407348 
L 270.541815 368.442076 
L 274.363733 368.442076 
L 274.363733 370.732296 
L 278.185651 370.732296 
L 278.185651 377.602955 
L 282.007568 377.602955 
L 282.007568 347.830099 
L 285.829486 347.830099 
L 285.829486 423.407348 
L 1443.870582 423.407348 
L 1443.870582 423.407348 
" clip-path="url(#pc09253125b)" style="fill: none; stroke: #ff00ff; stroke-width: 0.8; stroke-linecap: square"/>
   </g>
   <g id="line2d_43">
    <path d="M -1 423.407348 
L 1126.651404 423.407348 
L 1126.651404 315.767023 
L 1130.473322 315.767023 
L 1130.473322 345.539879 
L 1134.29524 345.539879 
L 1134.29524 375.312735 
L 1138.117158 375.312735 
L 1138.117158 386.763834 
L 1141.939075 386.763834 
L 1141.939075 423.407348 
L 1153.404829 423.407348 
L 1153.404829 340.95944 
L 1157.226747 340.95944 
L 1157.226747 363.861637 
L 1161.048664 363.861637 
L 1161.048664 382.183394 
L 1164.870582 382.183394 
L 1164.870582 368.442076 
L 1168.6925 368.442076 
L 1168.6925 423.407348 
L 1443.870582 423.407348 
L 1443.870582 423.407348 
" clip-path="url(#pc09253125b)" style="fill: none; stroke: #ff0000; stroke-width: 0.8; stroke-linecap: square"/>
   </g>
   <g id="line2d_44">
    <path d="M -1 423.407348 
L 1119.007568 423.407348 
L 1119.007568 352.410538 
L 1122.829486 352.410538 
L 1122.829486 359.281197 
L 1126.651404 359.281197 
L 1126.651404 368.442076 
L 1130.473322 368.442076 
L 1130.473322 423.407348 
L 1134.29524 423.407348 
L 1134.29524 389.054053 
L 1138.117158 389.054053 
L 1138.117158 423.407348 
L 1443.870582 423.407348 
L 1443.870582 423.407348 
" clip-path="url(#pc09253125b)" style="fill: none; stroke: #ff0000; stroke-width: 0.8; stroke-linecap: square"/>
   </g>
   <g id="line2d_45">
    <path d="M -1 423.407348 
L 297.29524 423.407348 
L 297.29524 368.442076 
L 301.117158 368.442076 
L 301.117158 373.022515 
L 304.939075 373.022515 
L 304.939075 375.312735 
L 308.760993 375.312735 
L 308.760993 354.700758 
L 312.582911 354.700758 
L 312.582911 389.054053 
L 316.404829 389.054053 
L 316.404829 384.473614 
L 320.226747 384.473614 
L 320.226747 373.022515 
L 324.048664 373.022515 
L 324.048664 366.151856 
L 327.870582 366.151856 
L 327.870582 377.602955 
L 331.6925 377.602955 
L 331.6925 423.407348 
L 1443.870582 423.407348 
L 1443.870582 423.407348 
" clip-path="url(#pc09253125b)" style="fill: none; stroke: #ff0000; stroke-width: 0.8; stroke-linecap: square"/>
   </g>
   <g id="line2d_46">
    <path d="M -1 423.407348 
L 243.78839 423.407348 
L 243.78839 354.700758 
L 247.610308 354.700758 
L 247.610308 295.155046 
L 251.432226 295.155046 
L 251.432226 363.861637 
L 255.254144 363.861637 
L 255.254144 398.214932 
L 259.076062 398.214932 
L 259.076062 423.407348 
L 1050.213048 423.407348 
L 1050.213048 356.990978 
L 1054.034966 356.990978 
L 1054.034966 382.183394 
L 1057.856884 382.183394 
L 1057.856884 384.473614 
L 1061.678801 384.473614 
L 1061.678801 366.151856 
L 1065.500719 366.151856 
L 1065.500719 423.407348 
L 1076.966473 423.407348 
L 1076.966473 366.151856 
L 1080.78839 366.151856 
L 1080.78839 363.861637 
L 1084.610308 363.861637 
L 1084.610308 345.539879 
L 1088.432226 345.539879 
L 1088.432226 285.994168 
L 1092.254144 285.994168 
L 1092.254144 423.407348 
L 1443.870582 423.407348 
L 1443.870582 423.407348 
" clip-path="url(#pc09253125b)" style="fill: none; stroke: #0000ff; stroke-width: 0.8; stroke-linecap: square"/>
   </g>
   <g id="line2d_47">
    <path d="M -1 423.407348 
L 1054.034966 423.407348 
L 1054.034966 331.798561 
L 1057.856884 331.798561 
L 1057.856884 347.830099 
L 1061.678801 347.830099 
L 1061.678801 373.022515 
L 1065.500719 373.022515 
L 1065.500719 377.602955 
L 1069.322637 377.602955 
L 1069.322637 379.893174 
L 1073.144555 379.893174 
L 1073.144555 354.700758 
L 1076.966473 354.700758 
L 1076.966473 368.442076 
L 1080.78839 368.442076 
L 1080.78839 386.763834 
L 1084.610308 386.763834 
L 1084.610308 382.183394 
L 1088.432226 382.183394 
L 1088.432226 423.407348 
L 1443.870582 423.407348 
L 1443.870582 423.407348 
" clip-path="url(#pc09253125b)" style="fill: none; stroke: #008000; stroke-width: 0.8; stroke-linecap: square"/>
   </g>
   <g id="line2d_48">
    <path d="M -1 423.407348 
L 369.911678 423.407348 
L 369.911678 386.763834 
L 373.733596 386.763834 
L 373.733596 359.281197 
L 377.555514 359.281197 
L 377.555514 340.95944 
L 381.377432 340.95944 
L 381.377432 423.407348 
L 385.199349 423.407348 
L 385.199349 386.763834 
L 389.021267 386.763834 
L 389.021267 423.407348 
L 1443.870582 423.407348 
L 1443.870582 423.407348 
" clip-path="url(#pc09253125b)" style="fill: none; stroke: #0000ff; stroke-width: 0.8; stroke-linecap: square"/>
   </g>
   <g id="line2d_49">
    <path d="M -1 423.407348 
L 262.897979 423.407348 
L 262.897979 398.214932 
L 266.719897 398.214932 
L 266.719897 400.505152 
L 270.541815 400.505152 
L 270.541815 391.344273 
L 274.363733 391.344273 
L 274.363733 322.637682 
L 278.185651 322.637682 
L 278.185651 370.732296 
L 282.007568 370.732296 
L 282.007568 386.763834 
L 285.829486 386.763834 
L 285.829486 377.602955 
L 289.651404 377.602955 
L 289.651404 423.407348 
L 1443.870582 423.407348 
L 1443.870582 423.407348 
" clip-path="url(#pc09253125b)" style="fill: none; stroke: #008000; stroke-width: 0.8; stroke-linecap: square"/>
   </g>
   <g id="line2d_50">
    <path d="M -1 423.407348 
L 969.952774 423.407348 
L 969.952774 363.861637 
L 973.774692 363.861637 
L 973.774692 334.088781 
L 977.59661 334.088781 
L 977.59661 382.183394 
L 981.418527 382.183394 
L 981.418527 391.344273 
L 985.240445 391.344273 
L 985.240445 386.763834 
L 989.062363 386.763834 
L 989.062363 423.407348 
L 1443.870582 423.407348 
L 1443.870582 423.407348 
" clip-path="url(#pc09253125b)" style="fill: none; stroke: #0000ff; stroke-width: 0.8; stroke-linecap: square"/>
   </g>
   <g id="line2d_51">
    <path d="M -1 423.407348 
L 304.939075 423.407348 
L 304.939075 375.312735 
L 308.760993 375.312735 
L 308.760993 379.893174 
L 312.582911 379.893174 
L 312.582911 345.539879 
L 316.404829 345.539879 
L 316.404829 423.407348 
L 320.226747 423.407348 
L 320.226747 391.344273 
L 324.048664 391.344273 
L 324.048664 423.407348 
L 434.884281 423.407348 
L 434.884281 336.379001 
L 438.706199 336.379001 
L 438.706199 423.407348 
L 1443.870582 423.407348 
L 1443.870582 423.407348 
" clip-path="url(#pc09253125b)" style="fill: none; stroke: #008000; stroke-width: 0.8; stroke-linecap: square"/>
   </g>
   <g id="line2d_52">
    <path d="M -1 423.407348 
L 442.528116 423.407348 
L 442.528116 347.830099 
L 446.350034 347.830099 
L 446.350034 338.66922 
L 450.171952 338.66922 
L 450.171952 386.763834 
L 453.99387 386.763834 
L 453.99387 423.407348 
L 457.815788 423.407348 
L 457.815788 386.763834 
L 461.637705 386.763834 
L 461.637705 423.407348 
L 1443.870582 423.407348 
L 1443.870582 423.407348 
" clip-path="url(#pc09253125b)" style="fill: none; stroke: #ff0000; stroke-width: 0.8; stroke-linecap: square"/>
   </g>
   <g id="line2d_53">
    <path d="M -1 423.407348 
L 381.377432 423.407348 
L 381.377432 345.539879 
L 385.199349 345.539879 
L 385.199349 361.571417 
L 389.021267 361.571417 
L 389.021267 423.407348 
L 1443.870582 423.407348 
L 1443.870582 423.407348 
" clip-path="url(#pc09253125b)" style="fill: none; stroke: #0000ff; stroke-width: 0.8; stroke-linecap: square"/>
   </g>
   <g id="line2d_54">
    <path d="M -1 423.407348 
L 327.870582 423.407348 
L 327.870582 343.24966 
L 331.6925 343.24966 
L 331.6925 386.763834 
L 335.514418 386.763834 
L 335.514418 423.407348 
L 1443.870582 423.407348 
L 1443.870582 423.407348 
" clip-path="url(#pc09253125b)" style="fill: none; stroke: #0000ff; stroke-width: 0.8; stroke-linecap: square"/>
   </g>
   <g id="line2d_55">
    <path d="M -1 423.407348 
L 297.29524 423.407348 
L 297.29524 382.183394 
L 301.117158 382.183394 
L 301.117158 347.830099 
L 304.939075 347.830099 
L 304.939075 423.407348 
L 1443.870582 423.407348 
L 1443.870582 423.407348 
" clip-path="url(#pc09253125b)" style="fill: none; stroke: #ff00ff; stroke-width: 0.8; stroke-linecap: square"/>
   </g>
   <g id="line2d_56">
    <path d="M -1 423.407348 
L 1352.144555 423.407348 
L 1352.144555 265.38219 
L 1355.966473 265.38219 
L 1355.966473 313.476804 
L 1359.78839 313.476804 
L 1359.78839 423.407348 
L 1443.870582 423.407348 
L 1443.870582 423.407348 
" clip-path="url(#pc09253125b)" style="fill: none; stroke: #0000ff; stroke-width: 0.8; stroke-linecap: square"/>
   </g>
   <g id="line2d_57">
    <path d="M -1 423.407348 
L 251.432226 423.407348 
L 251.432226 327.218122 
L 255.254144 327.218122 
L 255.254144 272.252849 
L 259.076062 272.252849 
L 259.076062 281.413728 
L 262.897979 281.413728 
L 262.897979 327.218122 
L 266.719897 327.218122 
L 266.719897 331.798561 
L 270.541815 331.798561 
L 270.541815 334.088781 
L 274.363733 334.088781 
L 274.363733 423.407348 
L 1443.870582 423.407348 
L 1443.870582 423.407348 
" clip-path="url(#pc09253125b)" style="fill: none; stroke: #ff00ff; stroke-width: 0.8; stroke-linecap: square"/>
   </g>
   <g id="line2d_58">
    <path d="M -1 423.407348 
L 461.637705 423.407348 
L 461.637705 352.410538 
L 465.459623 352.410538 
L 465.459623 423.407348 
L 515.144555 423.407348 
L 515.144555 398.214932 
L 518.966473 398.214932 
L 518.966473 423.407348 
L 587.760993 423.407348 
L 587.760993 395.924712 
L 591.582911 395.924712 
L 591.582911 423.407348 
L 599.226747 423.407348 
L 599.226747 395.924712 
L 603.048664 395.924712 
L 603.048664 389.054053 
L 606.870582 389.054053 
L 606.870582 386.763834 
L 610.6925 386.763834 
L 610.6925 377.602955 
L 614.514418 377.602955 
L 614.514418 389.054053 
L 618.336336 389.054053 
L 618.336336 375.312735 
L 622.158253 375.312735 
L 622.158253 373.022515 
L 625.980171 373.022515 
L 625.980171 368.442076 
L 629.802089 368.442076 
L 629.802089 382.183394 
L 633.624007 382.183394 
L 633.624007 391.344273 
L 637.445925 391.344273 
L 637.445925 423.407348 
L 641.267842 423.407348 
L 641.267842 382.183394 
L 648.911678 382.183394 
L 648.911678 386.763834 
L 652.733596 386.763834 
L 652.733596 423.407348 
L 656.555514 423.407348 
L 656.555514 384.473614 
L 660.377432 384.473614 
L 660.377432 423.407348 
L 671.843185 423.407348 
L 671.843185 382.183394 
L 675.665103 382.183394 
L 675.665103 368.442076 
L 679.487021 368.442076 
L 679.487021 423.407348 
L 710.062363 423.407348 
L 710.062363 384.473614 
L 713.884281 384.473614 
L 713.884281 375.312735 
L 717.706199 375.312735 
L 717.706199 382.183394 
L 721.528116 382.183394 
L 721.528116 423.407348 
L 748.281541 423.407348 
L 748.281541 377.602955 
L 752.103459 377.602955 
L 752.103459 423.407348 
L 1443.870582 423.407348 
L 1443.870582 423.407348 
" clip-path="url(#pc09253125b)" style="fill: none; stroke: #ff0000; stroke-width: 0.8; stroke-linecap: square"/>
   </g>
   <g id="line2d_59">
    <path d="M -1 423.407348 
L 255.254144 423.407348 
L 255.254144 50.10154 
L 259.076062 50.10154 
L 259.076062 329.508341 
L 262.897979 329.508341 
L 262.897979 423.407348 
L 1443.870582 423.407348 
L 1443.870582 423.407348 
" clip-path="url(#pc09253125b)" style="fill: none; stroke: #ff0000; stroke-width: 0.8; stroke-linecap: square"/>
   </g>
   <g id="line2d_60">
    <path d="M -1 423.407348 
L 282.007568 423.407348 
L 282.007568 389.054053 
L 285.829486 389.054053 
L 285.829486 395.924712 
L 289.651404 395.924712 
L 289.651404 373.022515 
L 293.473322 373.022515 
L 293.473322 375.312735 
L 297.29524 375.312735 
L 297.29524 334.088781 
L 301.117158 334.088781 
L 301.117158 329.508341 
L 304.939075 329.508341 
L 304.939075 313.476804 
L 308.760993 313.476804 
L 308.760993 336.379001 
L 312.582911 336.379001 
L 312.582911 377.602955 
L 316.404829 377.602955 
L 316.404829 382.183394 
L 320.226747 382.183394 
L 320.226747 375.312735 
L 324.048664 375.312735 
L 324.048664 373.022515 
L 327.870582 373.022515 
L 327.870582 377.602955 
L 331.6925 377.602955 
L 331.6925 359.281197 
L 335.514418 359.281197 
L 335.514418 361.571417 
L 339.336336 361.571417 
L 339.336336 382.183394 
L 343.158253 382.183394 
L 343.158253 375.312735 
L 346.980171 375.312735 
L 346.980171 336.379001 
L 350.802089 336.379001 
L 350.802089 363.861637 
L 354.624007 363.861637 
L 354.624007 366.151856 
L 358.445925 366.151856 
L 358.445925 377.602955 
L 362.267842 377.602955 
L 362.267842 423.407348 
L 366.08976 423.407348 
L 366.08976 361.571417 
L 369.911678 361.571417 
L 369.911678 423.407348 
L 1443.870582 423.407348 
L 1443.870582 423.407348 
" clip-path="url(#pc09253125b)" style="fill: none; stroke: #ff0000; stroke-width: 0.8; stroke-linecap: square"/>
   </g>
   <g id="line2d_61">
    <path d="M -1 423.407348 
L 1264.240445 423.407348 
L 1264.240445 352.410538 
L 1268.062363 352.410538 
L 1268.062363 205.836479 
L 1271.884281 205.836479 
L 1271.884281 375.312735 
L 1275.706199 375.312735 
L 1275.706199 391.344273 
L 1279.528116 391.344273 
L 1279.528116 423.407348 
L 1443.870582 423.407348 
L 1443.870582 423.407348 
" clip-path="url(#pc09253125b)" style="fill: none; stroke: #ff0000; stroke-width: 0.8; stroke-linecap: square"/>
   </g>
   <g id="line2d_62">
    <path d="M -1 423.407348 
L 297.29524 423.407348 
L 297.29524 361.571417 
L 301.117158 361.571417 
L 301.117158 331.798561 
L 304.939075 331.798561 
L 304.939075 361.571417 
L 308.760993 361.571417 
L 308.760993 370.732296 
L 312.582911 370.732296 
L 312.582911 384.473614 
L 316.404829 384.473614 
L 316.404829 423.407348 
L 1443.870582 423.407348 
L 1443.870582 423.407348 
" clip-path="url(#pc09253125b)" style="fill: none; stroke: #ff00ff; stroke-width: 0.8; stroke-linecap: square"/>
   </g>
   <g id="patch_3">
    <path d="M 52.6925 411.95625 
L 52.6925 31.43625 
" style="fill: none; stroke: #000000; stroke-width: 0.8; stroke-linejoin: miter; stroke-linecap: square"/>
   </g>
   <g id="patch_4">
    <path d="M 1447.6925 411.95625 
L 1447.6925 31.43625 
" style="fill: none; stroke: #000000; stroke-width: 0.8; stroke-linejoin: miter; stroke-linecap: square"/>
   </g>
   <g id="patch_5">
    <path d="M 52.6925 411.95625 
L 1447.6925 411.95625 
" style="fill: none; stroke: #000000; stroke-width: 0.8; stroke-linejoin: miter; stroke-linecap: square"/>
   </g>
   <g id="patch_6">
    <path d="M 52.6925 31.43625 
L 1447.6925 31.43625 
" style="fill: none; stroke: #000000; stroke-width: 0.8; stroke-linejoin: miter; stroke-linecap: square"/>
   </g>
   <g id="text_21">
    <!-- Filtered Topic Peaks -->
    <g transform="translate(626.358125 25.43625)scale(0.24 -0.24)">
     <defs>
      <path id="DejaVuSerif-69" d="M 622 4353 
Q 622 4497 726 4603 
Q 831 4709 978 4709 
Q 1122 4709 1226 4603 
Q 1331 4497 1331 4353 
Q 1331 4206 1228 4103 
Q 1125 4000 978 4000 
Q 831 4000 726 4103 
Q 622 4206 622 4353 
z
M 1356 331 
L 1900 331 
L 1900 0 
L 231 0 
L 231 331 
L 781 331 
L 781 2988 
L 231 2988 
L 231 3322 
L 1356 3322 
L 1356 331 
z
" transform="scale(0.015625)"/>
      <path id="DejaVuSerif-64" d="M 3359 331 
L 3909 331 
L 3909 0 
L 2784 0 
L 2784 519 
Q 2616 206 2355 57 
Q 2094 -91 1709 -91 
Q 1097 -91 708 395 
Q 319 881 319 1663 
Q 319 2444 706 2928 
Q 1094 3413 1709 3413 
Q 2094 3413 2355 3264 
Q 2616 3116 2784 2803 
L 2784 4531 
L 2241 4531 
L 2241 4863 
L 3359 4863 
L 3359 331 
z
M 2784 1497 
L 2784 1825 
Q 2784 2422 2554 2737 
Q 2325 3053 1888 3053 
Q 1444 3053 1217 2703 
Q 991 2353 991 1663 
Q 991 975 1217 622 
Q 1444 269 1888 269 
Q 2325 269 2554 583 
Q 2784 897 2784 1497 
z
" transform="scale(0.015625)"/>
      <path id="DejaVuSerif-20" transform="scale(0.015625)"/>
      <path id="DejaVuSerif-54" d="M 1222 0 
L 1222 331 
L 1819 331 
L 1819 4294 
L 447 4294 
L 447 3566 
L 63 3566 
L 63 4666 
L 4206 4666 
L 4206 3566 
L 3822 3566 
L 3822 4294 
L 2450 4294 
L 2450 331 
L 3047 331 
L 3047 0 
L 1222 0 
z
" transform="scale(0.015625)"/>
      <path id="DejaVuSerif-50" d="M 1581 2375 
L 2406 2375 
Q 2872 2375 3115 2626 
Q 3359 2878 3359 3353 
Q 3359 3831 3115 4081 
Q 2872 4331 2406 4331 
L 1581 4331 
L 1581 2375 
z
M 353 0 
L 353 331 
L 947 331 
L 947 4331 
L 353 4331 
L 353 4666 
L 2559 4666 
Q 3259 4666 3668 4311 
Q 4078 3956 4078 3353 
Q 4078 2753 3668 2397 
Q 3259 2041 2559 2041 
L 1581 2041 
L 1581 331 
L 2303 331 
L 2303 0 
L 353 0 
z
" transform="scale(0.015625)"/>
      <path id="DejaVuSerif-6b" d="M 1831 0 
L 219 0 
L 219 331 
L 738 331 
L 738 4531 
L 184 4531 
L 184 4863 
L 1313 4863 
L 1313 1697 
L 2713 2988 
L 2234 2988 
L 2234 3322 
L 3738 3322 
L 3738 2988 
L 3169 2988 
L 2181 2075 
L 3444 331 
L 3922 331 
L 3922 0 
L 2284 0 
L 2284 331 
L 2759 331 
L 1766 1697 
L 1313 1275 
L 1313 331 
L 1831 331 
L 1831 0 
z
" transform="scale(0.015625)"/>
      <path id="DejaVuSerif-73" d="M 359 184 
L 359 959 
L 691 959 
Q 703 588 923 403 
Q 1144 219 1575 219 
Q 1963 219 2166 364 
Q 2369 509 2369 788 
Q 2369 1006 2220 1140 
Q 2072 1275 1594 1428 
L 1178 1569 
Q 750 1706 558 1912 
Q 366 2119 366 2438 
Q 366 2894 700 3153 
Q 1034 3413 1625 3413 
Q 1888 3413 2178 3344 
Q 2469 3275 2778 3144 
L 2778 2419 
L 2447 2419 
Q 2434 2741 2221 2922 
Q 2009 3103 1644 3103 
Q 1281 3103 1095 2975 
Q 909 2847 909 2591 
Q 909 2381 1050 2254 
Q 1191 2128 1613 1997 
L 2069 1856 
Q 2541 1709 2748 1489 
Q 2956 1269 2956 922 
Q 2956 450 2595 179 
Q 2234 -91 1600 -91 
Q 1278 -91 972 -22 
Q 666 47 359 184 
z
" transform="scale(0.015625)"/>
     </defs>
     <use xlink:href="#DejaVuSerif-46"/>
     <use xlink:href="#DejaVuSerif-69" x="69.384766"/>
     <use xlink:href="#DejaVuSerif-6c" x="101.367188"/>
     <use xlink:href="#DejaVuSerif-74" x="133.349609"/>
     <use xlink:href="#DejaVuSerif-65" x="173.535156"/>
     <use xlink:href="#DejaVuSerif-72" x="232.714844"/>
     <use xlink:href="#DejaVuSerif-65" x="280.517578"/>
     <use xlink:href="#DejaVuSerif-64" x="339.697266"/>
     <use xlink:href="#DejaVuSerif-20" x="403.710938"/>
     <use xlink:href="#DejaVuSerif-54" x="435.498047"/>
     <use xlink:href="#DejaVuSerif-6f" x="494.447266"/>
     <use xlink:href="#DejaVuSerif-70" x="554.652344"/>
     <use xlink:href="#DejaVuSerif-69" x="618.666016"/>
     <use xlink:href="#DejaVuSerif-63" x="650.648438"/>
     <use xlink:href="#DejaVuSerif-20" x="706.654297"/>
     <use xlink:href="#DejaVuSerif-50" x="738.441406"/>
     <use xlink:href="#DejaVuSerif-65" x="801.226562"/>
     <use xlink:href="#DejaVuSerif-61" x="860.40625"/>
     <use xlink:href="#DejaVuSerif-6b" x="920.025391"/>
     <use xlink:href="#DejaVuSerif-73" x="980.621094"/>
    </g>
   </g>
   <g id="legend_1">
    <g id="patch_7">
     <path d="M 1037.458594 141.83 
L 1435.7925 141.83 
Q 1439.1925 141.83 1439.1925 138.43 
L 1439.1925 43.33625 
Q 1439.1925 39.93625 1435.7925 39.93625 
L 1037.458594 39.93625 
Q 1034.058594 39.93625 1034.058594 43.33625 
L 1034.058594 138.43 
Q 1034.058594 141.83 1037.458594 141.83 
z
" style="fill: #ffffff; opacity: 0.8"/>
    </g>
    <g id="line2d_63">
     <path d="M 1040.858594 52.954531 
L 1040.858594 52.954531 
L 1057.858594 52.954531 
L 1057.858594 52.954531 
L 1074.858594 52.954531 
" style="fill: none; stroke: #ff0000; stroke-width: 2; stroke-linecap: square"/>
    </g>
    <g id="text_22">
     <!-- Advances, Battles, Attacks and Effects of War -->
     <g transform="translate(1088.458594 58.904531)scale(0.17 -0.17)">
      <defs>
       <path id="ArialMT-41" d="M -9 0 
L 1750 4581 
L 2403 4581 
L 4278 0 
L 3588 0 
L 3053 1388 
L 1138 1388 
L 634 0 
L -9 0 
z
M 1313 1881 
L 2866 1881 
L 2388 3150 
Q 2169 3728 2063 4100 
Q 1975 3659 1816 3225 
L 1313 1881 
z
" transform="scale(0.015625)"/>
       <path id="ArialMT-64" d="M 2575 0 
L 2575 419 
Q 2259 -75 1647 -75 
Q 1250 -75 917 144 
Q 584 363 401 755 
Q 219 1147 219 1656 
Q 219 2153 384 2558 
Q 550 2963 881 3178 
Q 1213 3394 1622 3394 
Q 1922 3394 2156 3267 
Q 2391 3141 2538 2938 
L 2538 4581 
L 3097 4581 
L 3097 0 
L 2575 0 
z
M 797 1656 
Q 797 1019 1065 703 
Q 1334 388 1700 388 
Q 2069 388 2326 689 
Q 2584 991 2584 1609 
Q 2584 2291 2321 2609 
Q 2059 2928 1675 2928 
Q 1300 2928 1048 2622 
Q 797 2316 797 1656 
z
" transform="scale(0.015625)"/>
       <path id="ArialMT-76" d="M 1344 0 
L 81 3319 
L 675 3319 
L 1388 1331 
Q 1503 1009 1600 663 
Q 1675 925 1809 1294 
L 2547 3319 
L 3125 3319 
L 1869 0 
L 1344 0 
z
" transform="scale(0.015625)"/>
       <path id="ArialMT-61" d="M 2588 409 
Q 2275 144 1986 34 
Q 1697 -75 1366 -75 
Q 819 -75 525 192 
Q 231 459 231 875 
Q 231 1119 342 1320 
Q 453 1522 633 1644 
Q 813 1766 1038 1828 
Q 1203 1872 1538 1913 
Q 2219 1994 2541 2106 
Q 2544 2222 2544 2253 
Q 2544 2597 2384 2738 
Q 2169 2928 1744 2928 
Q 1347 2928 1158 2789 
Q 969 2650 878 2297 
L 328 2372 
Q 403 2725 575 2942 
Q 747 3159 1072 3276 
Q 1397 3394 1825 3394 
Q 2250 3394 2515 3294 
Q 2781 3194 2906 3042 
Q 3031 2891 3081 2659 
Q 3109 2516 3109 2141 
L 3109 1391 
Q 3109 606 3145 398 
Q 3181 191 3288 0 
L 2700 0 
Q 2613 175 2588 409 
z
M 2541 1666 
Q 2234 1541 1622 1453 
Q 1275 1403 1131 1340 
Q 988 1278 909 1158 
Q 831 1038 831 891 
Q 831 666 1001 516 
Q 1172 366 1500 366 
Q 1825 366 2078 508 
Q 2331 650 2450 897 
Q 2541 1088 2541 1459 
L 2541 1666 
z
" transform="scale(0.015625)"/>
       <path id="ArialMT-6e" d="M 422 0 
L 422 3319 
L 928 3319 
L 928 2847 
Q 1294 3394 1984 3394 
Q 2284 3394 2536 3286 
Q 2788 3178 2913 3003 
Q 3038 2828 3088 2588 
Q 3119 2431 3119 2041 
L 3119 0 
L 2556 0 
L 2556 2019 
Q 2556 2363 2490 2533 
Q 2425 2703 2258 2804 
Q 2091 2906 1866 2906 
Q 1506 2906 1245 2678 
Q 984 2450 984 1813 
L 984 0 
L 422 0 
z
" transform="scale(0.015625)"/>
       <path id="ArialMT-63" d="M 2588 1216 
L 3141 1144 
Q 3050 572 2676 248 
Q 2303 -75 1759 -75 
Q 1078 -75 664 370 
Q 250 816 250 1647 
Q 250 2184 428 2587 
Q 606 2991 970 3192 
Q 1334 3394 1763 3394 
Q 2303 3394 2647 3120 
Q 2991 2847 3088 2344 
L 2541 2259 
Q 2463 2594 2264 2762 
Q 2066 2931 1784 2931 
Q 1359 2931 1093 2626 
Q 828 2322 828 1663 
Q 828 994 1084 691 
Q 1341 388 1753 388 
Q 2084 388 2306 591 
Q 2528 794 2588 1216 
z
" transform="scale(0.015625)"/>
       <path id="ArialMT-65" d="M 2694 1069 
L 3275 997 
Q 3138 488 2766 206 
Q 2394 -75 1816 -75 
Q 1088 -75 661 373 
Q 234 822 234 1631 
Q 234 2469 665 2931 
Q 1097 3394 1784 3394 
Q 2450 3394 2872 2941 
Q 3294 2488 3294 1666 
Q 3294 1616 3291 1516 
L 816 1516 
Q 847 969 1125 678 
Q 1403 388 1819 388 
Q 2128 388 2347 550 
Q 2566 713 2694 1069 
z
M 847 1978 
L 2700 1978 
Q 2663 2397 2488 2606 
Q 2219 2931 1791 2931 
Q 1403 2931 1139 2672 
Q 875 2413 847 1978 
z
" transform="scale(0.015625)"/>
       <path id="ArialMT-73" d="M 197 991 
L 753 1078 
Q 800 744 1014 566 
Q 1228 388 1613 388 
Q 2000 388 2187 545 
Q 2375 703 2375 916 
Q 2375 1106 2209 1216 
Q 2094 1291 1634 1406 
Q 1016 1563 777 1677 
Q 538 1791 414 1992 
Q 291 2194 291 2438 
Q 291 2659 392 2848 
Q 494 3038 669 3163 
Q 800 3259 1026 3326 
Q 1253 3394 1513 3394 
Q 1903 3394 2198 3281 
Q 2494 3169 2634 2976 
Q 2775 2784 2828 2463 
L 2278 2388 
Q 2241 2644 2061 2787 
Q 1881 2931 1553 2931 
Q 1166 2931 1000 2803 
Q 834 2675 834 2503 
Q 834 2394 903 2306 
Q 972 2216 1119 2156 
Q 1203 2125 1616 2013 
Q 2213 1853 2448 1751 
Q 2684 1650 2818 1456 
Q 2953 1263 2953 975 
Q 2953 694 2789 445 
Q 2625 197 2315 61 
Q 2006 -75 1616 -75 
Q 969 -75 630 194 
Q 291 463 197 991 
z
" transform="scale(0.015625)"/>
       <path id="ArialMT-2c" d="M 569 0 
L 569 641 
L 1209 641 
L 1209 0 
Q 1209 -353 1084 -570 
Q 959 -788 688 -906 
L 531 -666 
Q 709 -588 793 -436 
Q 878 -284 888 0 
L 569 0 
z
" transform="scale(0.015625)"/>
       <path id="ArialMT-20" transform="scale(0.015625)"/>
       <path id="ArialMT-42" d="M 469 0 
L 469 4581 
L 2188 4581 
Q 2713 4581 3030 4442 
Q 3347 4303 3526 4014 
Q 3706 3725 3706 3409 
Q 3706 3116 3547 2856 
Q 3388 2597 3066 2438 
Q 3481 2316 3704 2022 
Q 3928 1728 3928 1328 
Q 3928 1006 3792 729 
Q 3656 453 3456 303 
Q 3256 153 2954 76 
Q 2653 0 2216 0 
L 469 0 
z
M 1075 2656 
L 2066 2656 
Q 2469 2656 2644 2709 
Q 2875 2778 2992 2937 
Q 3109 3097 3109 3338 
Q 3109 3566 3000 3739 
Q 2891 3913 2687 3977 
Q 2484 4041 1991 4041 
L 1075 4041 
L 1075 2656 
z
M 1075 541 
L 2216 541 
Q 2509 541 2628 563 
Q 2838 600 2978 687 
Q 3119 775 3209 942 
Q 3300 1109 3300 1328 
Q 3300 1584 3169 1773 
Q 3038 1963 2805 2039 
Q 2572 2116 2134 2116 
L 1075 2116 
L 1075 541 
z
" transform="scale(0.015625)"/>
       <path id="ArialMT-74" d="M 1650 503 
L 1731 6 
Q 1494 -44 1306 -44 
Q 1000 -44 831 53 
Q 663 150 594 308 
Q 525 466 525 972 
L 525 2881 
L 113 2881 
L 113 3319 
L 525 3319 
L 525 4141 
L 1084 4478 
L 1084 3319 
L 1650 3319 
L 1650 2881 
L 1084 2881 
L 1084 941 
Q 1084 700 1114 631 
Q 1144 563 1211 522 
Q 1278 481 1403 481 
Q 1497 481 1650 503 
z
" transform="scale(0.015625)"/>
       <path id="ArialMT-6c" d="M 409 0 
L 409 4581 
L 972 4581 
L 972 0 
L 409 0 
z
" transform="scale(0.015625)"/>
       <path id="ArialMT-6b" d="M 425 0 
L 425 4581 
L 988 4581 
L 988 1969 
L 2319 3319 
L 3047 3319 
L 1778 2088 
L 3175 0 
L 2481 0 
L 1384 1697 
L 988 1316 
L 988 0 
L 425 0 
z
" transform="scale(0.015625)"/>
       <path id="ArialMT-45" d="M 506 0 
L 506 4581 
L 3819 4581 
L 3819 4041 
L 1113 4041 
L 1113 2638 
L 3647 2638 
L 3647 2100 
L 1113 2100 
L 1113 541 
L 3925 541 
L 3925 0 
L 506 0 
z
" transform="scale(0.015625)"/>
       <path id="ArialMT-66" d="M 556 0 
L 556 2881 
L 59 2881 
L 59 3319 
L 556 3319 
L 556 3672 
Q 556 4006 616 4169 
Q 697 4388 901 4523 
Q 1106 4659 1475 4659 
Q 1713 4659 2000 4603 
L 1916 4113 
Q 1741 4144 1584 4144 
Q 1328 4144 1222 4034 
Q 1116 3925 1116 3625 
L 1116 3319 
L 1763 3319 
L 1763 2881 
L 1116 2881 
L 1116 0 
L 556 0 
z
" transform="scale(0.015625)"/>
       <path id="ArialMT-6f" d="M 213 1659 
Q 213 2581 725 3025 
Q 1153 3394 1769 3394 
Q 2453 3394 2887 2945 
Q 3322 2497 3322 1706 
Q 3322 1066 3130 698 
Q 2938 331 2570 128 
Q 2203 -75 1769 -75 
Q 1072 -75 642 372 
Q 213 819 213 1659 
z
M 791 1659 
Q 791 1022 1069 705 
Q 1347 388 1769 388 
Q 2188 388 2466 706 
Q 2744 1025 2744 1678 
Q 2744 2294 2464 2611 
Q 2184 2928 1769 2928 
Q 1347 2928 1069 2612 
Q 791 2297 791 1659 
z
" transform="scale(0.015625)"/>
       <path id="ArialMT-57" d="M 1294 0 
L 78 4581 
L 700 4581 
L 1397 1578 
Q 1509 1106 1591 641 
Q 1766 1375 1797 1488 
L 2669 4581 
L 3400 4581 
L 4056 2263 
Q 4303 1400 4413 641 
Q 4500 1075 4641 1638 
L 5359 4581 
L 5969 4581 
L 4713 0 
L 4128 0 
L 3163 3491 
Q 3041 3928 3019 4028 
Q 2947 3713 2884 3491 
L 1913 0 
L 1294 0 
z
" transform="scale(0.015625)"/>
       <path id="ArialMT-72" d="M 416 0 
L 416 3319 
L 922 3319 
L 922 2816 
Q 1116 3169 1280 3281 
Q 1444 3394 1641 3394 
Q 1925 3394 2219 3213 
L 2025 2691 
Q 1819 2813 1613 2813 
Q 1428 2813 1281 2702 
Q 1134 2591 1072 2394 
Q 978 2094 978 1738 
L 978 0 
L 416 0 
z
" transform="scale(0.015625)"/>
      </defs>
      <use xlink:href="#ArialMT-41"/>
      <use xlink:href="#ArialMT-64" x="66.699219"/>
      <use xlink:href="#ArialMT-76" x="122.314453"/>
      <use xlink:href="#ArialMT-61" x="172.314453"/>
      <use xlink:href="#ArialMT-6e" x="227.929688"/>
      <use xlink:href="#ArialMT-63" x="283.544922"/>
      <use xlink:href="#ArialMT-65" x="333.544922"/>
      <use xlink:href="#ArialMT-73" x="389.160156"/>
      <use xlink:href="#ArialMT-2c" x="439.160156"/>
      <use xlink:href="#ArialMT-20" x="466.943359"/>
      <use xlink:href="#ArialMT-42" x="494.726562"/>
      <use xlink:href="#ArialMT-61" x="561.425781"/>
      <use xlink:href="#ArialMT-74" x="617.041016"/>
      <use xlink:href="#ArialMT-74" x="644.824219"/>
      <use xlink:href="#ArialMT-6c" x="672.607422"/>
      <use xlink:href="#ArialMT-65" x="694.824219"/>
      <use xlink:href="#ArialMT-73" x="750.439453"/>
      <use xlink:href="#ArialMT-2c" x="800.439453"/>
      <use xlink:href="#ArialMT-20" x="828.222656"/>
      <use xlink:href="#ArialMT-41" x="850.505859"/>
      <use xlink:href="#ArialMT-74" x="917.205078"/>
      <use xlink:href="#ArialMT-74" x="944.988281"/>
      <use xlink:href="#ArialMT-61" x="972.771484"/>
      <use xlink:href="#ArialMT-63" x="1028.386719"/>
      <use xlink:href="#ArialMT-6b" x="1078.386719"/>
      <use xlink:href="#ArialMT-73" x="1128.386719"/>
      <use xlink:href="#ArialMT-20" x="1178.386719"/>
      <use xlink:href="#ArialMT-61" x="1206.169922"/>
      <use xlink:href="#ArialMT-6e" x="1261.785156"/>
      <use xlink:href="#ArialMT-64" x="1317.400391"/>
      <use xlink:href="#ArialMT-20" x="1373.015625"/>
      <use xlink:href="#ArialMT-45" x="1400.798828"/>
      <use xlink:href="#ArialMT-66" x="1467.498047"/>
      <use xlink:href="#ArialMT-66" x="1493.53125"/>
      <use xlink:href="#ArialMT-65" x="1521.314453"/>
      <use xlink:href="#ArialMT-63" x="1576.929688"/>
      <use xlink:href="#ArialMT-74" x="1626.929688"/>
      <use xlink:href="#ArialMT-73" x="1654.712891"/>
      <use xlink:href="#ArialMT-20" x="1704.712891"/>
      <use xlink:href="#ArialMT-6f" x="1732.496094"/>
      <use xlink:href="#ArialMT-66" x="1788.111328"/>
      <use xlink:href="#ArialMT-20" x="1815.894531"/>
      <use xlink:href="#ArialMT-57" x="1843.677734"/>
      <use xlink:href="#ArialMT-61" x="1934.3125"/>
      <use xlink:href="#ArialMT-72" x="1989.927734"/>
     </g>
    </g>
    <g id="line2d_64">
     <path d="M 1040.858594 77.20875 
L 1040.858594 77.20875 
L 1057.858594 77.20875 
L 1057.858594 77.20875 
L 1074.858594 77.20875 
" style="fill: none; stroke: #ff00ff; stroke-width: 2; stroke-linecap: square"/>
    </g>
    <g id="text_23">
     <!-- Prices, Supply Chain and Sanctions -->
     <g transform="translate(1088.458594 83.15875)scale(0.17 -0.17)">
      <defs>
       <path id="ArialMT-50" d="M 494 0 
L 494 4581 
L 2222 4581 
Q 2678 4581 2919 4538 
Q 3256 4481 3484 4323 
Q 3713 4166 3852 3881 
Q 3991 3597 3991 3256 
Q 3991 2672 3619 2267 
Q 3247 1863 2275 1863 
L 1100 1863 
L 1100 0 
L 494 0 
z
M 1100 2403 
L 2284 2403 
Q 2872 2403 3119 2622 
Q 3366 2841 3366 3238 
Q 3366 3525 3220 3729 
Q 3075 3934 2838 4000 
Q 2684 4041 2272 4041 
L 1100 4041 
L 1100 2403 
z
" transform="scale(0.015625)"/>
       <path id="ArialMT-69" d="M 425 3934 
L 425 4581 
L 988 4581 
L 988 3934 
L 425 3934 
z
M 425 0 
L 425 3319 
L 988 3319 
L 988 0 
L 425 0 
z
" transform="scale(0.015625)"/>
       <path id="ArialMT-53" d="M 288 1472 
L 859 1522 
Q 900 1178 1048 958 
Q 1197 738 1509 602 
Q 1822 466 2213 466 
Q 2559 466 2825 569 
Q 3091 672 3220 851 
Q 3350 1031 3350 1244 
Q 3350 1459 3225 1620 
Q 3100 1781 2813 1891 
Q 2628 1963 1997 2114 
Q 1366 2266 1113 2400 
Q 784 2572 623 2826 
Q 463 3081 463 3397 
Q 463 3744 659 4045 
Q 856 4347 1234 4503 
Q 1613 4659 2075 4659 
Q 2584 4659 2973 4495 
Q 3363 4331 3572 4012 
Q 3781 3694 3797 3291 
L 3216 3247 
Q 3169 3681 2898 3903 
Q 2628 4125 2100 4125 
Q 1550 4125 1298 3923 
Q 1047 3722 1047 3438 
Q 1047 3191 1225 3031 
Q 1400 2872 2139 2705 
Q 2878 2538 3153 2413 
Q 3553 2228 3743 1945 
Q 3934 1663 3934 1294 
Q 3934 928 3725 604 
Q 3516 281 3123 101 
Q 2731 -78 2241 -78 
Q 1619 -78 1198 103 
Q 778 284 539 648 
Q 300 1013 288 1472 
z
" transform="scale(0.015625)"/>
       <path id="ArialMT-75" d="M 2597 0 
L 2597 488 
Q 2209 -75 1544 -75 
Q 1250 -75 995 37 
Q 741 150 617 320 
Q 494 491 444 738 
Q 409 903 409 1263 
L 409 3319 
L 972 3319 
L 972 1478 
Q 972 1038 1006 884 
Q 1059 663 1231 536 
Q 1403 409 1656 409 
Q 1909 409 2131 539 
Q 2353 669 2445 892 
Q 2538 1116 2538 1541 
L 2538 3319 
L 3100 3319 
L 3100 0 
L 2597 0 
z
" transform="scale(0.015625)"/>
       <path id="ArialMT-70" d="M 422 -1272 
L 422 3319 
L 934 3319 
L 934 2888 
Q 1116 3141 1344 3267 
Q 1572 3394 1897 3394 
Q 2322 3394 2647 3175 
Q 2972 2956 3137 2557 
Q 3303 2159 3303 1684 
Q 3303 1175 3120 767 
Q 2938 359 2589 142 
Q 2241 -75 1856 -75 
Q 1575 -75 1351 44 
Q 1128 163 984 344 
L 984 -1272 
L 422 -1272 
z
M 931 1641 
Q 931 1000 1190 694 
Q 1450 388 1819 388 
Q 2194 388 2461 705 
Q 2728 1022 2728 1688 
Q 2728 2322 2467 2637 
Q 2206 2953 1844 2953 
Q 1484 2953 1207 2617 
Q 931 2281 931 1641 
z
" transform="scale(0.015625)"/>
       <path id="ArialMT-79" d="M 397 -1278 
L 334 -750 
Q 519 -800 656 -800 
Q 844 -800 956 -737 
Q 1069 -675 1141 -563 
Q 1194 -478 1313 -144 
Q 1328 -97 1363 -6 
L 103 3319 
L 709 3319 
L 1400 1397 
Q 1534 1031 1641 628 
Q 1738 1016 1872 1384 
L 2581 3319 
L 3144 3319 
L 1881 -56 
Q 1678 -603 1566 -809 
Q 1416 -1088 1222 -1217 
Q 1028 -1347 759 -1347 
Q 597 -1347 397 -1278 
z
" transform="scale(0.015625)"/>
       <path id="ArialMT-43" d="M 3763 1606 
L 4369 1453 
Q 4178 706 3683 314 
Q 3188 -78 2472 -78 
Q 1731 -78 1267 223 
Q 803 525 561 1097 
Q 319 1669 319 2325 
Q 319 3041 592 3573 
Q 866 4106 1370 4382 
Q 1875 4659 2481 4659 
Q 3169 4659 3637 4309 
Q 4106 3959 4291 3325 
L 3694 3184 
Q 3534 3684 3231 3912 
Q 2928 4141 2469 4141 
Q 1941 4141 1586 3887 
Q 1231 3634 1087 3207 
Q 944 2781 944 2328 
Q 944 1744 1114 1308 
Q 1284 872 1643 656 
Q 2003 441 2422 441 
Q 2931 441 3284 734 
Q 3638 1028 3763 1606 
z
" transform="scale(0.015625)"/>
       <path id="ArialMT-68" d="M 422 0 
L 422 4581 
L 984 4581 
L 984 2938 
Q 1378 3394 1978 3394 
Q 2347 3394 2619 3248 
Q 2891 3103 3008 2847 
Q 3125 2591 3125 2103 
L 3125 0 
L 2563 0 
L 2563 2103 
Q 2563 2525 2380 2717 
Q 2197 2909 1863 2909 
Q 1613 2909 1392 2779 
Q 1172 2650 1078 2428 
Q 984 2206 984 1816 
L 984 0 
L 422 0 
z
" transform="scale(0.015625)"/>
      </defs>
      <use xlink:href="#ArialMT-50"/>
      <use xlink:href="#ArialMT-72" x="66.699219"/>
      <use xlink:href="#ArialMT-69" x="100"/>
      <use xlink:href="#ArialMT-63" x="122.216797"/>
      <use xlink:href="#ArialMT-65" x="172.216797"/>
      <use xlink:href="#ArialMT-73" x="227.832031"/>
      <use xlink:href="#ArialMT-2c" x="277.832031"/>
      <use xlink:href="#ArialMT-20" x="305.615234"/>
      <use xlink:href="#ArialMT-53" x="333.398438"/>
      <use xlink:href="#ArialMT-75" x="400.097656"/>
      <use xlink:href="#ArialMT-70" x="455.712891"/>
      <use xlink:href="#ArialMT-70" x="511.328125"/>
      <use xlink:href="#ArialMT-6c" x="566.943359"/>
      <use xlink:href="#ArialMT-79" x="589.160156"/>
      <use xlink:href="#ArialMT-20" x="639.160156"/>
      <use xlink:href="#ArialMT-43" x="666.943359"/>
      <use xlink:href="#ArialMT-68" x="739.160156"/>
      <use xlink:href="#ArialMT-61" x="794.775391"/>
      <use xlink:href="#ArialMT-69" x="850.390625"/>
      <use xlink:href="#ArialMT-6e" x="872.607422"/>
      <use xlink:href="#ArialMT-20" x="928.222656"/>
      <use xlink:href="#ArialMT-61" x="956.005859"/>
      <use xlink:href="#ArialMT-6e" x="1011.621094"/>
      <use xlink:href="#ArialMT-64" x="1067.236328"/>
      <use xlink:href="#ArialMT-20" x="1122.851562"/>
      <use xlink:href="#ArialMT-53" x="1150.634766"/>
      <use xlink:href="#ArialMT-61" x="1217.333984"/>
      <use xlink:href="#ArialMT-6e" x="1272.949219"/>
      <use xlink:href="#ArialMT-63" x="1328.564453"/>
      <use xlink:href="#ArialMT-74" x="1378.564453"/>
      <use xlink:href="#ArialMT-69" x="1406.347656"/>
      <use xlink:href="#ArialMT-6f" x="1428.564453"/>
      <use xlink:href="#ArialMT-6e" x="1484.179688"/>
      <use xlink:href="#ArialMT-73" x="1539.794922"/>
     </g>
    </g>
    <g id="line2d_65">
     <path d="M 1040.858594 101.455 
L 1040.858594 101.455 
L 1057.858594 101.455 
L 1057.858594 101.455 
L 1074.858594 101.455 
" style="fill: none; stroke: #008000; stroke-width: 2; stroke-linecap: square"/>
    </g>
    <g id="text_24">
     <!-- Artillery and Troops -->
     <g transform="translate(1088.458594 107.405)scale(0.17 -0.17)">
      <defs>
       <path id="ArialMT-54" d="M 1659 0 
L 1659 4041 
L 150 4041 
L 150 4581 
L 3781 4581 
L 3781 4041 
L 2266 4041 
L 2266 0 
L 1659 0 
z
" transform="scale(0.015625)"/>
      </defs>
      <use xlink:href="#ArialMT-41"/>
      <use xlink:href="#ArialMT-72" x="66.699219"/>
      <use xlink:href="#ArialMT-74" x="100"/>
      <use xlink:href="#ArialMT-69" x="127.783203"/>
      <use xlink:href="#ArialMT-6c" x="150"/>
      <use xlink:href="#ArialMT-6c" x="172.216797"/>
      <use xlink:href="#ArialMT-65" x="194.433594"/>
      <use xlink:href="#ArialMT-72" x="250.048828"/>
      <use xlink:href="#ArialMT-79" x="283.349609"/>
      <use xlink:href="#ArialMT-20" x="333.349609"/>
      <use xlink:href="#ArialMT-61" x="361.132812"/>
      <use xlink:href="#ArialMT-6e" x="416.748047"/>
      <use xlink:href="#ArialMT-64" x="472.363281"/>
      <use xlink:href="#ArialMT-20" x="527.978516"/>
      <use xlink:href="#ArialMT-54" x="554.011719"/>
      <use xlink:href="#ArialMT-72" x="611.345703"/>
      <use xlink:href="#ArialMT-6f" x="644.646484"/>
      <use xlink:href="#ArialMT-6f" x="700.261719"/>
      <use xlink:href="#ArialMT-70" x="755.876953"/>
      <use xlink:href="#ArialMT-73" x="811.492188"/>
     </g>
    </g>
    <g id="line2d_66">
     <path d="M 1040.858594 125.70125 
L 1040.858594 125.70125 
L 1057.858594 125.70125 
L 1057.858594 125.70125 
L 1074.858594 125.70125 
" style="fill: none; stroke: #0000ff; stroke-width: 2; stroke-linecap: square"/>
    </g>
    <g id="text_25">
     <!-- Politics -->
     <g transform="translate(1088.458594 131.65125)scale(0.17 -0.17)">
      <use xlink:href="#ArialMT-50"/>
      <use xlink:href="#ArialMT-6f" x="66.699219"/>
      <use xlink:href="#ArialMT-6c" x="122.314453"/>
      <use xlink:href="#ArialMT-69" x="144.53125"/>
      <use xlink:href="#ArialMT-74" x="166.748047"/>
      <use xlink:href="#ArialMT-69" x="194.53125"/>
      <use xlink:href="#ArialMT-63" x="216.748047"/>
      <use xlink:href="#ArialMT-73" x="266.748047"/>
     </g>
    </g>
   </g>
  </g>
 </g>
 <defs>
  <clipPath id="pc09253125b">
   <rect x="52.6925" y="31.43625" width="1395" height="380.52"/>
  </clipPath>
 </defs>
</svg>
