<?xml version="1.0" encoding="utf-8" standalone="no"?>
<!DOCTYPE svg PUBLIC "-//W3C//DTD SVG 1.1//EN"
  "http://www.w3.org/Graphics/SVG/1.1/DTD/svg11.dtd">
<svg xmlns:xlink="http://www.w3.org/1999/xlink" width="1565.7725pt" height="249.816875pt" viewBox="0 0 1565.7725 249.816875" xmlns="http://www.w3.org/2000/svg" version="1.1">
 <metadata>
  <rdf:RDF xmlns:dc="http://purl.org/dc/elements/1.1/" xmlns:cc="http://creativecommons.org/ns#" xmlns:rdf="http://www.w3.org/1999/02/22-rdf-syntax-ns#">
   <cc:Work>
    <dc:type rdf:resource="http://purl.org/dc/dcmitype/StillImage"/>
    <dc:date>2023-01-23T02:32:48.206322</dc:date>
    <dc:format>image/svg+xml</dc:format>
    <dc:creator>
     <cc:Agent>
      <dc:title>Matplotlib v3.5.2, https://matplotlib.org/</dc:title>
     </cc:Agent>
    </dc:creator>
   </cc:Work>
  </rdf:RDF>
 </metadata>
 <defs>
  <style type="text/css">*{stroke-linejoin: round; stroke-linecap: butt}</style>
 </defs>
 <g id="figure_1">
  <g id="patch_1">
   <path d="M 0 249.816875 
L 1565.7725 249.816875 
L 1565.7725 0 
L 0 0 
L 0 249.816875 
z
" style="fill: none"/>
  </g>
  <g id="axes_1">
   <g id="patch_2">
    <path d="M 65.9225 221.69625 
L 1460.9225 221.69625 
L 1460.9225 31.43625 
L 65.9225 31.43625 
z
" style="fill: #ffffff"/>
   </g>
   <g id="matplotlib.axis_1">
    <g id="xtick_1">
     <g id="line2d_1">
      <defs>
       <path id="m5e03523a52" d="M 0 0 
L 0 -3.5 
" style="stroke: #000000; stroke-width: 0.8"/>
      </defs>
      <g>
       <use xlink:href="#m5e03523a52" x="65.9225" y="221.69625" style="stroke: #000000; stroke-width: 0.8"/>
      </g>
     </g>
     <g id="text_1">
      <!-- Jan-22 -->
      <g transform="translate(65.9225 238.873437)scale(0.18 -0.18)">
       <defs>
        <path id="DejaVuSerif-4a" d="M -538 -1119 
L -538 -384 
L -181 -384 
Q -172 -694 -34 -845 
Q 103 -997 378 -997 
Q 750 -997 897 -762 
Q 1044 -528 1044 153 
L 1044 4331 
L 319 4331 
L 319 4666 
L 2272 4666 
L 2272 4331 
L 1678 4331 
L 1678 128 
Q 1678 -644 1368 -987 
Q 1059 -1331 372 -1331 
Q 150 -1331 -79 -1278 
Q -309 -1225 -538 -1119 
z
" transform="scale(0.015625)"/>
        <path id="DejaVuSerif-61" d="M 2547 1044 
L 2547 1747 
L 1806 1747 
Q 1378 1747 1168 1562 
Q 959 1378 959 997 
Q 959 650 1171 447 
Q 1384 244 1747 244 
Q 2106 244 2326 466 
Q 2547 688 2547 1044 
z
M 3122 2075 
L 3122 331 
L 3634 331 
L 3634 0 
L 2547 0 
L 2547 359 
Q 2356 128 2106 18 
Q 1856 -91 1522 -91 
Q 969 -91 644 203 
Q 319 497 319 997 
Q 319 1513 691 1797 
Q 1063 2081 1741 2081 
L 2547 2081 
L 2547 2309 
Q 2547 2688 2317 2895 
Q 2088 3103 1672 3103 
Q 1328 3103 1125 2947 
Q 922 2791 872 2484 
L 575 2484 
L 575 3156 
Q 875 3284 1158 3348 
Q 1441 3413 1709 3413 
Q 2400 3413 2761 3070 
Q 3122 2728 3122 2075 
z
" transform="scale(0.015625)"/>
        <path id="DejaVuSerif-6e" d="M 263 0 
L 263 331 
L 781 331 
L 781 2988 
L 231 2988 
L 231 3322 
L 1356 3322 
L 1356 2731 
Q 1516 3069 1770 3241 
Q 2025 3413 2363 3413 
Q 2913 3413 3172 3097 
Q 3431 2781 3431 2113 
L 3431 331 
L 3944 331 
L 3944 0 
L 2356 0 
L 2356 331 
L 2853 331 
L 2853 1931 
Q 2853 2541 2703 2767 
Q 2553 2994 2175 2994 
Q 1775 2994 1565 2701 
Q 1356 2409 1356 1850 
L 1356 331 
L 1856 331 
L 1856 0 
L 263 0 
z
" transform="scale(0.015625)"/>
        <path id="DejaVuSerif-2d" d="M 281 1959 
L 1881 1959 
L 1881 1472 
L 281 1472 
L 281 1959 
z
" transform="scale(0.015625)"/>
        <path id="DejaVuSerif-32" d="M 819 3553 
L 469 3553 
L 469 4384 
Q 803 4563 1142 4656 
Q 1481 4750 1806 4750 
Q 2534 4750 2956 4397 
Q 3378 4044 3378 3438 
Q 3378 2753 2422 1800 
Q 2347 1728 2309 1691 
L 1131 513 
L 3078 513 
L 3078 1088 
L 3444 1088 
L 3444 0 
L 434 0 
L 434 341 
L 1850 1753 
Q 2319 2222 2519 2614 
Q 2719 3006 2719 3438 
Q 2719 3909 2473 4175 
Q 2228 4441 1797 4441 
Q 1350 4441 1106 4219 
Q 863 3997 819 3553 
z
" transform="scale(0.015625)"/>
       </defs>
       <use xlink:href="#DejaVuSerif-4a"/>
       <use xlink:href="#DejaVuSerif-61" x="40.087891"/>
       <use xlink:href="#DejaVuSerif-6e" x="99.707031"/>
       <use xlink:href="#DejaVuSerif-2d" x="164.111328"/>
       <use xlink:href="#DejaVuSerif-32" x="197.900391"/>
       <use xlink:href="#DejaVuSerif-32" x="261.523438"/>
      </g>
     </g>
    </g>
    <g id="xtick_2">
     <g id="line2d_2">
      <g>
       <use xlink:href="#m5e03523a52" x="184.401952" y="221.69625" style="stroke: #000000; stroke-width: 0.8"/>
      </g>
     </g>
     <g id="text_2">
      <!-- Feb-22 -->
      <g transform="translate(153.069296 238.873437)scale(0.18 -0.18)">
       <defs>
        <path id="DejaVuSerif-46" d="M 353 0 
L 353 331 
L 947 331 
L 947 4331 
L 353 4331 
L 353 4666 
L 4172 4666 
L 4172 3628 
L 3788 3628 
L 3788 4281 
L 1581 4281 
L 1581 2719 
L 3175 2719 
L 3175 3303 
L 3559 3303 
L 3559 1753 
L 3175 1753 
L 3175 2338 
L 1581 2338 
L 1581 331 
L 2328 331 
L 2328 0 
L 353 0 
z
" transform="scale(0.015625)"/>
        <path id="DejaVuSerif-65" d="M 3469 1600 
L 991 1600 
L 991 1575 
Q 991 903 1244 561 
Q 1497 219 1991 219 
Q 2369 219 2611 417 
Q 2853 616 2950 1006 
L 3413 1006 
Q 3275 459 2904 184 
Q 2534 -91 1931 -91 
Q 1203 -91 761 389 
Q 319 869 319 1663 
Q 319 2450 753 2931 
Q 1188 3413 1894 3413 
Q 2647 3413 3050 2948 
Q 3453 2484 3469 1600 
z
M 2791 1931 
Q 2772 2513 2545 2808 
Q 2319 3103 1894 3103 
Q 1497 3103 1269 2806 
Q 1041 2509 991 1931 
L 2791 1931 
z
" transform="scale(0.015625)"/>
        <path id="DejaVuSerif-62" d="M 738 331 
L 738 4531 
L 184 4531 
L 184 4863 
L 1313 4863 
L 1313 2803 
Q 1481 3116 1742 3264 
Q 2003 3413 2388 3413 
Q 3000 3413 3387 2928 
Q 3775 2444 3775 1663 
Q 3775 881 3387 395 
Q 3000 -91 2388 -91 
Q 2003 -91 1742 57 
Q 1481 206 1313 519 
L 1313 0 
L 184 0 
L 184 331 
L 738 331 
z
M 1313 1497 
Q 1313 897 1542 583 
Q 1772 269 2209 269 
Q 2650 269 2876 622 
Q 3103 975 3103 1663 
Q 3103 2353 2876 2703 
Q 2650 3053 2209 3053 
Q 1772 3053 1542 2737 
Q 1313 2422 1313 1825 
L 1313 1497 
z
" transform="scale(0.015625)"/>
       </defs>
       <use xlink:href="#DejaVuSerif-46"/>
       <use xlink:href="#DejaVuSerif-65" x="63.884766"/>
       <use xlink:href="#DejaVuSerif-62" x="123.064453"/>
       <use xlink:href="#DejaVuSerif-2d" x="187.078125"/>
       <use xlink:href="#DejaVuSerif-32" x="220.867188"/>
       <use xlink:href="#DejaVuSerif-32" x="284.490234"/>
      </g>
     </g>
    </g>
    <g id="xtick_3">
     <g id="line2d_3">
      <g>
       <use xlink:href="#m5e03523a52" x="291.415651" y="221.69625" style="stroke: #000000; stroke-width: 0.8"/>
      </g>
     </g>
     <g id="text_3">
      <!-- Mar-22 -->
      <g transform="translate(258.038307 238.873437)scale(0.18 -0.18)">
       <defs>
        <path id="DejaVuSerif-4d" d="M 353 0 
L 353 331 
L 947 331 
L 947 4331 
L 319 4331 
L 319 4666 
L 1678 4666 
L 3316 1344 
L 4953 4666 
L 6228 4666 
L 6228 4331 
L 5606 4331 
L 5606 331 
L 6203 331 
L 6203 0 
L 4378 0 
L 4378 331 
L 4972 331 
L 4972 3938 
L 3372 684 
L 2931 684 
L 1331 3938 
L 1331 331 
L 1925 331 
L 1925 0 
L 353 0 
z
" transform="scale(0.015625)"/>
        <path id="DejaVuSerif-72" d="M 3059 3328 
L 3059 2497 
L 2728 2497 
Q 2713 2744 2591 2866 
Q 2469 2988 2234 2988 
Q 1809 2988 1582 2694 
Q 1356 2400 1356 1850 
L 1356 331 
L 2022 331 
L 2022 0 
L 263 0 
L 263 331 
L 781 331 
L 781 2994 
L 231 2994 
L 231 3322 
L 1356 3322 
L 1356 2731 
Q 1525 3078 1790 3245 
Q 2056 3413 2438 3413 
Q 2578 3413 2733 3391 
Q 2888 3369 3059 3328 
z
" transform="scale(0.015625)"/>
       </defs>
       <use xlink:href="#DejaVuSerif-4d"/>
       <use xlink:href="#DejaVuSerif-61" x="102.392578"/>
       <use xlink:href="#DejaVuSerif-72" x="162.011719"/>
       <use xlink:href="#DejaVuSerif-2d" x="209.814453"/>
       <use xlink:href="#DejaVuSerif-32" x="243.603516"/>
       <use xlink:href="#DejaVuSerif-32" x="307.226562"/>
      </g>
     </g>
    </g>
    <g id="xtick_4">
     <g id="line2d_4">
      <g>
       <use xlink:href="#m5e03523a52" x="409.895103" y="221.69625" style="stroke: #000000; stroke-width: 0.8"/>
      </g>
     </g>
     <g id="text_4">
      <!-- Apr-22 -->
      <g transform="translate(378.838071 238.873437)scale(0.18 -0.18)">
       <defs>
        <path id="DejaVuSerif-41" d="M 1281 1691 
L 2994 1691 
L 2138 3909 
L 1281 1691 
z
M -38 0 
L -38 331 
L 372 331 
L 2034 4666 
L 2559 4666 
L 4225 331 
L 4684 331 
L 4684 0 
L 2988 0 
L 2988 331 
L 3506 331 
L 3116 1356 
L 1153 1356 
L 763 331 
L 1275 331 
L 1275 0 
L -38 0 
z
" transform="scale(0.015625)"/>
        <path id="DejaVuSerif-70" d="M 1313 1825 
L 1313 1497 
Q 1313 897 1542 583 
Q 1772 269 2209 269 
Q 2650 269 2876 622 
Q 3103 975 3103 1663 
Q 3103 2353 2876 2703 
Q 2650 3053 2209 3053 
Q 1772 3053 1542 2737 
Q 1313 2422 1313 1825 
z
M 738 2988 
L 184 2988 
L 184 3322 
L 1313 3322 
L 1313 2803 
Q 1481 3116 1742 3264 
Q 2003 3413 2388 3413 
Q 3000 3413 3387 2928 
Q 3775 2444 3775 1663 
Q 3775 881 3387 395 
Q 3000 -91 2388 -91 
Q 2003 -91 1742 57 
Q 1481 206 1313 519 
L 1313 -997 
L 1856 -997 
L 1856 -1331 
L 184 -1331 
L 184 -997 
L 738 -997 
L 738 2988 
z
" transform="scale(0.015625)"/>
       </defs>
       <use xlink:href="#DejaVuSerif-41"/>
       <use xlink:href="#DejaVuSerif-70" x="72.216797"/>
       <use xlink:href="#DejaVuSerif-72" x="136.230469"/>
       <use xlink:href="#DejaVuSerif-2d" x="184.033203"/>
       <use xlink:href="#DejaVuSerif-32" x="217.822266"/>
       <use xlink:href="#DejaVuSerif-32" x="281.445312"/>
      </g>
     </g>
    </g>
    <g id="xtick_5">
     <g id="line2d_5">
      <g>
       <use xlink:href="#m5e03523a52" x="524.552637" y="221.69625" style="stroke: #000000; stroke-width: 0.8"/>
      </g>
     </g>
     <g id="text_5">
      <!-- May-22 -->
      <g transform="translate(490.392012 238.6175)scale(0.18 -0.18)">
       <defs>
        <path id="DejaVuSerif-79" d="M 1381 -609 
L 1600 -56 
L 359 2988 
L -19 2988 
L -19 3322 
L 1509 3322 
L 1509 2988 
L 978 2988 
L 1913 703 
L 2847 2988 
L 2350 2988 
L 2350 3322 
L 3597 3322 
L 3597 2988 
L 3225 2988 
L 1703 -750 
Q 1547 -1138 1356 -1280 
Q 1166 -1422 819 -1422 
Q 672 -1422 517 -1397 
Q 363 -1372 206 -1325 
L 206 -691 
L 500 -691 
Q 519 -903 608 -995 
Q 697 -1088 884 -1088 
Q 1056 -1088 1161 -992 
Q 1266 -897 1381 -609 
z
" transform="scale(0.015625)"/>
       </defs>
       <use xlink:href="#DejaVuSerif-4d"/>
       <use xlink:href="#DejaVuSerif-61" x="102.392578"/>
       <use xlink:href="#DejaVuSerif-79" x="162.011719"/>
       <use xlink:href="#DejaVuSerif-2d" x="218.505859"/>
       <use xlink:href="#DejaVuSerif-32" x="252.294922"/>
       <use xlink:href="#DejaVuSerif-32" x="315.917969"/>
      </g>
     </g>
    </g>
    <g id="xtick_6">
     <g id="line2d_6">
      <g>
       <use xlink:href="#m5e03523a52" x="643.032089" y="221.69625" style="stroke: #000000; stroke-width: 0.8"/>
      </g>
     </g>
     <g id="text_6">
      <!-- Jun-22 -->
      <g transform="translate(613.336308 238.873437)scale(0.18 -0.18)">
       <defs>
        <path id="DejaVuSerif-75" d="M 2266 3322 
L 3341 3322 
L 3341 331 
L 3884 331 
L 3884 0 
L 2766 0 
L 2766 588 
Q 2606 256 2353 82 
Q 2100 -91 1766 -91 
Q 1213 -91 952 223 
Q 691 538 691 1209 
L 691 2988 
L 172 2988 
L 172 3322 
L 1269 3322 
L 1269 1388 
Q 1269 781 1417 556 
Q 1566 331 1947 331 
Q 2347 331 2556 625 
Q 2766 919 2766 1478 
L 2766 2988 
L 2266 2988 
L 2266 3322 
z
" transform="scale(0.015625)"/>
       </defs>
       <use xlink:href="#DejaVuSerif-4a"/>
       <use xlink:href="#DejaVuSerif-75" x="40.087891"/>
       <use xlink:href="#DejaVuSerif-6e" x="104.492188"/>
       <use xlink:href="#DejaVuSerif-2d" x="168.896484"/>
       <use xlink:href="#DejaVuSerif-32" x="202.685547"/>
       <use xlink:href="#DejaVuSerif-32" x="266.308594"/>
      </g>
     </g>
    </g>
    <g id="xtick_7">
     <g id="line2d_7">
      <g>
       <use xlink:href="#m5e03523a52" x="757.689623" y="221.69625" style="stroke: #000000; stroke-width: 0.8"/>
      </g>
     </g>
     <g id="text_7">
      <!-- Jul-22 -->
      <g transform="translate(730.911811 238.873437)scale(0.18 -0.18)">
       <defs>
        <path id="DejaVuSerif-6c" d="M 1313 331 
L 1856 331 
L 1856 0 
L 184 0 
L 184 331 
L 738 331 
L 738 4531 
L 184 4531 
L 184 4863 
L 1313 4863 
L 1313 331 
z
" transform="scale(0.015625)"/>
       </defs>
       <use xlink:href="#DejaVuSerif-4a"/>
       <use xlink:href="#DejaVuSerif-75" x="40.087891"/>
       <use xlink:href="#DejaVuSerif-6c" x="104.492188"/>
       <use xlink:href="#DejaVuSerif-2d" x="136.474609"/>
       <use xlink:href="#DejaVuSerif-32" x="170.263672"/>
       <use xlink:href="#DejaVuSerif-32" x="233.886719"/>
      </g>
     </g>
    </g>
    <g id="xtick_8">
     <g id="line2d_8">
      <g>
       <use xlink:href="#m5e03523a52" x="876.169075" y="221.69625" style="stroke: #000000; stroke-width: 0.8"/>
      </g>
     </g>
     <g id="text_8">
      <!-- Aug-22 -->
      <g transform="translate(843.6172 238.6175)scale(0.18 -0.18)">
       <defs>
        <path id="DejaVuSerif-67" d="M 3359 2988 
L 3359 72 
Q 3359 -644 2965 -1033 
Q 2572 -1422 1844 -1422 
Q 1516 -1422 1216 -1362 
Q 916 -1303 641 -1184 
L 641 -488 
L 941 -488 
Q 997 -813 1206 -963 
Q 1416 -1113 1806 -1113 
Q 2313 -1113 2548 -827 
Q 2784 -541 2784 72 
L 2784 519 
Q 2616 206 2355 57 
Q 2094 -91 1709 -91 
Q 1097 -91 708 395 
Q 319 881 319 1663 
Q 319 2444 706 2928 
Q 1094 3413 1709 3413 
Q 2094 3413 2355 3264 
Q 2616 3116 2784 2803 
L 2784 3322 
L 3909 3322 
L 3909 2988 
L 3359 2988 
z
M 2784 1825 
Q 2784 2422 2554 2737 
Q 2325 3053 1888 3053 
Q 1444 3053 1217 2703 
Q 991 2353 991 1663 
Q 991 975 1217 622 
Q 1444 269 1888 269 
Q 2325 269 2554 583 
Q 2784 897 2784 1497 
L 2784 1825 
z
" transform="scale(0.015625)"/>
       </defs>
       <use xlink:href="#DejaVuSerif-41"/>
       <use xlink:href="#DejaVuSerif-75" x="72.216797"/>
       <use xlink:href="#DejaVuSerif-67" x="136.621094"/>
       <use xlink:href="#DejaVuSerif-2d" x="200.634766"/>
       <use xlink:href="#DejaVuSerif-32" x="234.423828"/>
       <use xlink:href="#DejaVuSerif-32" x="298.046875"/>
      </g>
     </g>
    </g>
    <g id="xtick_9">
     <g id="line2d_9">
      <g>
       <use xlink:href="#m5e03523a52" x="994.648527" y="221.69625" style="stroke: #000000; stroke-width: 0.8"/>
      </g>
     </g>
     <g id="text_9">
      <!-- Sep-22 -->
      <g transform="translate(962.901027 238.873437)scale(0.18 -0.18)">
       <defs>
        <path id="DejaVuSerif-53" d="M 594 225 
L 594 1288 
L 953 1284 
Q 969 753 1261 498 
Q 1553 244 2150 244 
Q 2706 244 2998 464 
Q 3291 684 3291 1106 
Q 3291 1444 3114 1625 
Q 2938 1806 2369 1978 
L 1753 2163 
Q 1084 2366 811 2669 
Q 538 2972 538 3500 
Q 538 4094 959 4422 
Q 1381 4750 2144 4750 
Q 2469 4750 2856 4679 
Q 3244 4609 3681 4475 
L 3681 3481 
L 3328 3481 
Q 3275 3975 2998 4195 
Q 2722 4416 2156 4416 
Q 1663 4416 1405 4214 
Q 1147 4013 1147 3628 
Q 1147 3294 1340 3103 
Q 1534 2913 2163 2725 
L 2741 2553 
Q 3375 2363 3645 2067 
Q 3916 1772 3916 1275 
Q 3916 597 3481 253 
Q 3047 -91 2188 -91 
Q 1803 -91 1404 -12 
Q 1006 66 594 225 
z
" transform="scale(0.015625)"/>
       </defs>
       <use xlink:href="#DejaVuSerif-53"/>
       <use xlink:href="#DejaVuSerif-65" x="68.505859"/>
       <use xlink:href="#DejaVuSerif-70" x="127.685547"/>
       <use xlink:href="#DejaVuSerif-2d" x="191.699219"/>
       <use xlink:href="#DejaVuSerif-32" x="225.488281"/>
       <use xlink:href="#DejaVuSerif-32" x="289.111328"/>
      </g>
     </g>
    </g>
    <g id="xtick_10">
     <g id="line2d_10">
      <g>
       <use xlink:href="#m5e03523a52" x="1109.306062" y="221.69625" style="stroke: #000000; stroke-width: 0.8"/>
      </g>
     </g>
     <g id="text_10">
      <!-- Oct-22 -->
      <g transform="translate(1078.776374 238.873437)scale(0.18 -0.18)">
       <defs>
        <path id="DejaVuSerif-4f" d="M 2625 244 
Q 3391 244 3781 770 
Q 4172 1297 4172 2328 
Q 4172 3363 3781 3889 
Q 3391 4416 2625 4416 
Q 1856 4416 1465 3889 
Q 1075 3363 1075 2328 
Q 1075 1297 1465 770 
Q 1856 244 2625 244 
z
M 2625 -91 
Q 2150 -91 1751 65 
Q 1353 222 1050 525 
Q 700 875 529 1319 
Q 359 1763 359 2328 
Q 359 2894 529 3339 
Q 700 3784 1050 4134 
Q 1356 4441 1750 4595 
Q 2144 4750 2625 4750 
Q 3641 4750 4266 4084 
Q 4891 3419 4891 2328 
Q 4891 1769 4719 1320 
Q 4547 872 4197 525 
Q 3891 219 3497 64 
Q 3103 -91 2625 -91 
z
" transform="scale(0.015625)"/>
        <path id="DejaVuSerif-63" d="M 3291 997 
Q 3169 466 2822 187 
Q 2475 -91 1925 -91 
Q 1200 -91 759 389 
Q 319 869 319 1663 
Q 319 2459 759 2936 
Q 1200 3413 1925 3413 
Q 2241 3413 2553 3339 
Q 2866 3266 3181 3116 
L 3181 2266 
L 2847 2266 
Q 2781 2703 2561 2903 
Q 2341 3103 1931 3103 
Q 1466 3103 1228 2742 
Q 991 2381 991 1663 
Q 991 944 1227 581 
Q 1463 219 1931 219 
Q 2303 219 2525 412 
Q 2747 606 2828 997 
L 3291 997 
z
" transform="scale(0.015625)"/>
        <path id="DejaVuSerif-74" d="M 691 2988 
L 184 2988 
L 184 3322 
L 691 3322 
L 691 4353 
L 1269 4353 
L 1269 3322 
L 2350 3322 
L 2350 2988 
L 1269 2988 
L 1269 878 
Q 1269 456 1350 337 
Q 1431 219 1650 219 
Q 1875 219 1978 351 
Q 2081 484 2088 781 
L 2522 781 
Q 2497 328 2275 118 
Q 2053 -91 1600 -91 
Q 1103 -91 897 129 
Q 691 350 691 878 
L 691 2988 
z
" transform="scale(0.015625)"/>
       </defs>
       <use xlink:href="#DejaVuSerif-4f"/>
       <use xlink:href="#DejaVuSerif-63" x="81.982422"/>
       <use xlink:href="#DejaVuSerif-74" x="137.988281"/>
       <use xlink:href="#DejaVuSerif-2d" x="178.173828"/>
       <use xlink:href="#DejaVuSerif-32" x="211.962891"/>
       <use xlink:href="#DejaVuSerif-32" x="275.585938"/>
      </g>
     </g>
    </g>
    <g id="xtick_11">
     <g id="line2d_11">
      <g>
       <use xlink:href="#m5e03523a52" x="1227.785514" y="221.69625" style="stroke: #000000; stroke-width: 0.8"/>
      </g>
     </g>
     <g id="text_11">
      <!-- Nov-22 -->
      <g transform="translate(1194.913014 238.873437)scale(0.18 -0.18)">
       <defs>
        <path id="DejaVuSerif-4e" d="M 313 0 
L 313 331 
L 941 331 
L 941 4331 
L 313 4331 
L 313 4666 
L 1509 4666 
L 4306 984 
L 4306 4331 
L 3681 4331 
L 3681 4666 
L 5319 4666 
L 5319 4331 
L 4691 4331 
L 4691 -91 
L 4313 -91 
L 1325 3841 
L 1325 331 
L 1953 331 
L 1953 0 
L 313 0 
z
" transform="scale(0.015625)"/>
        <path id="DejaVuSerif-6f" d="M 1925 219 
Q 2388 219 2623 584 
Q 2859 950 2859 1663 
Q 2859 2375 2623 2739 
Q 2388 3103 1925 3103 
Q 1463 3103 1227 2739 
Q 991 2375 991 1663 
Q 991 950 1228 584 
Q 1466 219 1925 219 
z
M 1925 -91 
Q 1200 -91 759 389 
Q 319 869 319 1663 
Q 319 2456 758 2934 
Q 1197 3413 1925 3413 
Q 2653 3413 3092 2934 
Q 3531 2456 3531 1663 
Q 3531 869 3092 389 
Q 2653 -91 1925 -91 
z
" transform="scale(0.015625)"/>
        <path id="DejaVuSerif-76" d="M 1581 0 
L 359 2988 
L -19 2988 
L -19 3322 
L 1509 3322 
L 1509 2988 
L 978 2988 
L 1913 703 
L 2847 2988 
L 2350 2988 
L 2350 3322 
L 3597 3322 
L 3597 2988 
L 3225 2988 
L 2003 0 
L 1581 0 
z
" transform="scale(0.015625)"/>
       </defs>
       <use xlink:href="#DejaVuSerif-4e"/>
       <use xlink:href="#DejaVuSerif-6f" x="87.5"/>
       <use xlink:href="#DejaVuSerif-76" x="147.705078"/>
       <use xlink:href="#DejaVuSerif-2d" x="204.199219"/>
       <use xlink:href="#DejaVuSerif-32" x="237.988281"/>
       <use xlink:href="#DejaVuSerif-32" x="301.611328"/>
      </g>
     </g>
    </g>
    <g id="xtick_12">
     <g id="line2d_12">
      <g>
       <use xlink:href="#m5e03523a52" x="1342.443048" y="221.69625" style="stroke: #000000; stroke-width: 0.8"/>
      </g>
     </g>
     <g id="text_12">
      <!-- Dec-22 -->
      <g transform="translate(1310.366485 238.873437)scale(0.18 -0.18)">
       <defs>
        <path id="DejaVuSerif-44" d="M 1581 331 
L 2163 331 
Q 3072 331 3558 850 
Q 4044 1369 4044 2338 
Q 4044 3306 3559 3818 
Q 3075 4331 2163 4331 
L 1581 4331 
L 1581 331 
z
M 353 0 
L 353 331 
L 947 331 
L 947 4331 
L 353 4331 
L 353 4666 
L 2209 4666 
Q 3416 4666 4089 4050 
Q 4763 3434 4763 2338 
Q 4763 1238 4088 619 
Q 3413 0 2209 0 
L 353 0 
z
" transform="scale(0.015625)"/>
       </defs>
       <use xlink:href="#DejaVuSerif-44"/>
       <use xlink:href="#DejaVuSerif-65" x="80.175781"/>
       <use xlink:href="#DejaVuSerif-63" x="139.355469"/>
       <use xlink:href="#DejaVuSerif-2d" x="195.361328"/>
       <use xlink:href="#DejaVuSerif-32" x="229.150391"/>
       <use xlink:href="#DejaVuSerif-32" x="292.773438"/>
      </g>
     </g>
    </g>
    <g id="xtick_13">
     <g id="line2d_13">
      <g>
       <use xlink:href="#m5e03523a52" x="1460.9225" y="221.69625" style="stroke: #000000; stroke-width: 0.8"/>
      </g>
     </g>
     <g id="text_13">
      <!-- Jan-23 -->
      <g transform="translate(1402.391563 238.873437)scale(0.18 -0.18)">
       <defs>
        <path id="DejaVuSerif-33" d="M 622 4469 
Q 988 4606 1323 4678 
Q 1659 4750 1953 4750 
Q 2638 4750 3022 4454 
Q 3406 4159 3406 3634 
Q 3406 3213 3140 2930 
Q 2875 2647 2388 2547 
Q 2963 2466 3280 2130 
Q 3597 1794 3597 1259 
Q 3597 606 3158 257 
Q 2719 -91 1894 -91 
Q 1528 -91 1179 -12 
Q 831 66 488 225 
L 488 1131 
L 838 1131 
Q 869 681 1141 450 
Q 1413 219 1906 219 
Q 2384 219 2661 495 
Q 2938 772 2938 1253 
Q 2938 1803 2653 2086 
Q 2369 2369 1819 2369 
L 1522 2369 
L 1522 2688 
L 1678 2688 
Q 2225 2688 2498 2914 
Q 2772 3141 2772 3597 
Q 2772 4006 2547 4223 
Q 2322 4441 1900 4441 
Q 1478 4441 1245 4241 
Q 1013 4041 972 3647 
L 622 3647 
L 622 4469 
z
" transform="scale(0.015625)"/>
       </defs>
       <use xlink:href="#DejaVuSerif-4a"/>
       <use xlink:href="#DejaVuSerif-61" x="40.087891"/>
       <use xlink:href="#DejaVuSerif-6e" x="99.707031"/>
       <use xlink:href="#DejaVuSerif-2d" x="164.111328"/>
       <use xlink:href="#DejaVuSerif-32" x="197.900391"/>
       <use xlink:href="#DejaVuSerif-33" x="261.523438"/>
      </g>
     </g>
    </g>
   </g>
   <g id="matplotlib.axis_2">
    <g id="ytick_1">
     <g id="line2d_14">
      <defs>
       <path id="m0b385b8e26" d="M 0 0 
L 3.5 0 
" style="stroke: #000000; stroke-width: 0.8"/>
      </defs>
      <g>
       <use xlink:href="#m0b385b8e26" x="65.9225" y="213.048068" style="stroke: #000000; stroke-width: 0.8"/>
      </g>
     </g>
     <g id="text_14">
      <!-- 0 -->
      <g transform="translate(48.425 221.406349)scale(0.22 -0.22)">
       <defs>
        <path id="DejaVuSerif-30" d="M 2034 219 
Q 2513 219 2750 744 
Q 2988 1269 2988 2328 
Q 2988 3391 2750 3916 
Q 2513 4441 2034 4441 
Q 1556 4441 1318 3916 
Q 1081 3391 1081 2328 
Q 1081 1269 1318 744 
Q 1556 219 2034 219 
z
M 2034 -91 
Q 1275 -91 848 546 
Q 422 1184 422 2328 
Q 422 3475 848 4112 
Q 1275 4750 2034 4750 
Q 2797 4750 3222 4112 
Q 3647 3475 3647 2328 
Q 3647 1184 3222 546 
Q 2797 -91 2034 -91 
z
" transform="scale(0.015625)"/>
       </defs>
       <use xlink:href="#DejaVuSerif-30"/>
      </g>
     </g>
    </g>
    <g id="ytick_2">
     <g id="line2d_15">
      <g>
       <use xlink:href="#m0b385b8e26" x="65.9225" y="174.13125" style="stroke: #000000; stroke-width: 0.8"/>
      </g>
     </g>
     <g id="text_15">
      <!-- 16 -->
      <g transform="translate(34.4275 182.489531)scale(0.22 -0.22)">
       <defs>
        <path id="DejaVuSerif-31" d="M 909 0 
L 909 331 
L 1722 331 
L 1722 4213 
L 781 3603 
L 781 4013 
L 1919 4750 
L 2350 4750 
L 2350 331 
L 3163 331 
L 3163 0 
L 909 0 
z
" transform="scale(0.015625)"/>
        <path id="DejaVuSerif-36" d="M 2094 219 
Q 2534 219 2771 542 
Q 3009 866 3009 1472 
Q 3009 2078 2771 2401 
Q 2534 2725 2094 2725 
Q 1647 2725 1412 2412 
Q 1178 2100 1178 1509 
Q 1178 888 1415 553 
Q 1653 219 2094 219 
z
M 1075 2569 
Q 1288 2803 1556 2918 
Q 1825 3034 2163 3034 
Q 2859 3034 3264 2615 
Q 3669 2197 3669 1472 
Q 3669 763 3233 336 
Q 2797 -91 2069 -91 
Q 1278 -91 853 498 
Q 428 1088 428 2181 
Q 428 3406 931 4078 
Q 1434 4750 2350 4750 
Q 2597 4750 2869 4703 
Q 3141 4656 3425 4563 
L 3425 3794 
L 3072 3794 
Q 3034 4109 2831 4275 
Q 2628 4441 2284 4441 
Q 1678 4441 1381 3981 
Q 1084 3522 1075 2569 
z
" transform="scale(0.015625)"/>
       </defs>
       <use xlink:href="#DejaVuSerif-31"/>
       <use xlink:href="#DejaVuSerif-36" x="63.623047"/>
      </g>
     </g>
    </g>
    <g id="ytick_3">
     <g id="line2d_16">
      <g>
       <use xlink:href="#m0b385b8e26" x="65.9225" y="126.56625" style="stroke: #000000; stroke-width: 0.8"/>
      </g>
     </g>
     <g id="text_16">
      <!-- 36 -->
      <g transform="translate(34.4275 134.924531)scale(0.22 -0.22)">
       <use xlink:href="#DejaVuSerif-33"/>
       <use xlink:href="#DejaVuSerif-36" x="63.623047"/>
      </g>
     </g>
    </g>
    <g id="ytick_4">
     <g id="line2d_17">
      <g>
       <use xlink:href="#m0b385b8e26" x="65.9225" y="79.00125" style="stroke: #000000; stroke-width: 0.8"/>
      </g>
     </g>
     <g id="text_17">
      <!-- 55 -->
      <g transform="translate(34.4275 87.359531)scale(0.22 -0.22)">
       <defs>
        <path id="DejaVuSerif-35" d="M 3219 4666 
L 3219 4153 
L 1081 4153 
L 1081 2816 
Q 1244 2928 1461 2984 
Q 1678 3041 1947 3041 
Q 2703 3041 3140 2622 
Q 3578 2203 3578 1478 
Q 3578 738 3136 323 
Q 2694 -91 1894 -91 
Q 1572 -91 1234 -12 
Q 897 66 544 225 
L 544 1131 
L 897 1131 
Q 925 688 1179 453 
Q 1434 219 1894 219 
Q 2388 219 2653 544 
Q 2919 869 2919 1478 
Q 2919 2084 2655 2407 
Q 2391 2731 1894 2731 
Q 1613 2731 1398 2631 
Q 1184 2531 1019 2322 
L 750 2322 
L 750 4666 
L 3219 4666 
z
" transform="scale(0.015625)"/>
       </defs>
       <use xlink:href="#DejaVuSerif-35"/>
       <use xlink:href="#DejaVuSerif-35" x="63.623047"/>
      </g>
     </g>
    </g>
    <g id="ytick_5">
     <g id="line2d_18">
      <g>
       <use xlink:href="#m0b385b8e26" x="65.9225" y="31.43625" style="stroke: #000000; stroke-width: 0.8"/>
      </g>
     </g>
     <g id="text_18">
      <!-- 75 -->
      <g transform="translate(34.4275 39.794531)scale(0.22 -0.22)">
       <defs>
        <path id="DejaVuSerif-37" d="M 3609 4347 
L 1784 0 
L 1319 0 
L 3059 4153 
L 903 4153 
L 903 3578 
L 538 3578 
L 538 4666 
L 3609 4666 
L 3609 4347 
z
" transform="scale(0.015625)"/>
       </defs>
       <use xlink:href="#DejaVuSerif-37"/>
       <use xlink:href="#DejaVuSerif-35" x="63.623047"/>
      </g>
     </g>
    </g>
    <g id="text_19">
     <!-- Topic Counts -->
     <g transform="translate(25.43625 205.7625)rotate(-90)scale(0.24 -0.24)">
      <defs>
       <path id="DejaVuSerif-54" d="M 1222 0 
L 1222 331 
L 1819 331 
L 1819 4294 
L 447 4294 
L 447 3566 
L 63 3566 
L 63 4666 
L 4206 4666 
L 4206 3566 
L 3822 3566 
L 3822 4294 
L 2450 4294 
L 2450 331 
L 3047 331 
L 3047 0 
L 1222 0 
z
" transform="scale(0.015625)"/>
       <path id="DejaVuSerif-69" d="M 622 4353 
Q 622 4497 726 4603 
Q 831 4709 978 4709 
Q 1122 4709 1226 4603 
Q 1331 4497 1331 4353 
Q 1331 4206 1228 4103 
Q 1125 4000 978 4000 
Q 831 4000 726 4103 
Q 622 4206 622 4353 
z
M 1356 331 
L 1900 331 
L 1900 0 
L 231 0 
L 231 331 
L 781 331 
L 781 2988 
L 231 2988 
L 231 3322 
L 1356 3322 
L 1356 331 
z
" transform="scale(0.015625)"/>
       <path id="DejaVuSerif-20" transform="scale(0.015625)"/>
       <path id="DejaVuSerif-43" d="M 4513 1234 
Q 4306 581 3820 245 
Q 3334 -91 2591 -91 
Q 2134 -91 1743 65 
Q 1353 222 1050 525 
Q 700 875 529 1320 
Q 359 1766 359 2328 
Q 359 3416 987 4083 
Q 1616 4750 2644 4750 
Q 3025 4750 3456 4650 
Q 3888 4550 4384 4347 
L 4384 3272 
L 4031 3272 
Q 3916 3859 3567 4137 
Q 3219 4416 2591 4416 
Q 1844 4416 1459 3886 
Q 1075 3356 1075 2328 
Q 1075 1303 1459 773 
Q 1844 244 2591 244 
Q 3113 244 3450 492 
Q 3788 741 3938 1234 
L 4513 1234 
z
" transform="scale(0.015625)"/>
       <path id="DejaVuSerif-73" d="M 359 184 
L 359 959 
L 691 959 
Q 703 588 923 403 
Q 1144 219 1575 219 
Q 1963 219 2166 364 
Q 2369 509 2369 788 
Q 2369 1006 2220 1140 
Q 2072 1275 1594 1428 
L 1178 1569 
Q 750 1706 558 1912 
Q 366 2119 366 2438 
Q 366 2894 700 3153 
Q 1034 3413 1625 3413 
Q 1888 3413 2178 3344 
Q 2469 3275 2778 3144 
L 2778 2419 
L 2447 2419 
Q 2434 2741 2221 2922 
Q 2009 3103 1644 3103 
Q 1281 3103 1095 2975 
Q 909 2847 909 2591 
Q 909 2381 1050 2254 
Q 1191 2128 1613 1997 
L 2069 1856 
Q 2541 1709 2748 1489 
Q 2956 1269 2956 922 
Q 2956 450 2595 179 
Q 2234 -91 1600 -91 
Q 1278 -91 972 -22 
Q 666 47 359 184 
z
" transform="scale(0.015625)"/>
      </defs>
      <use xlink:href="#DejaVuSerif-54"/>
      <use xlink:href="#DejaVuSerif-6f" x="58.949219"/>
      <use xlink:href="#DejaVuSerif-70" x="119.154297"/>
      <use xlink:href="#DejaVuSerif-69" x="183.167969"/>
      <use xlink:href="#DejaVuSerif-63" x="215.150391"/>
      <use xlink:href="#DejaVuSerif-20" x="271.15625"/>
      <use xlink:href="#DejaVuSerif-43" x="302.943359"/>
      <use xlink:href="#DejaVuSerif-6f" x="379.457031"/>
      <use xlink:href="#DejaVuSerif-75" x="439.662109"/>
      <use xlink:href="#DejaVuSerif-6e" x="504.066406"/>
      <use xlink:href="#DejaVuSerif-74" x="568.470703"/>
      <use xlink:href="#DejaVuSerif-73" x="608.65625"/>
     </g>
    </g>
   </g>
   <g id="line2d_19">
    <path d="M -1 213.048068 
L 138.538938 213.048068 
L 142.360856 210.611961 
L 157.648527 210.611961 
L 161.470445 213.048068 
L 176.758116 213.048068 
L 180.580034 210.611961 
L 184.401952 213.048068 
L 188.22387 210.611961 
L 199.689623 210.611961 
L 203.511541 213.048068 
L 268.484144 213.048068 
L 272.306062 191.1231 
L 276.127979 191.1231 
L 279.949897 205.739746 
L 283.771815 210.611961 
L 287.593733 210.611961 
L 291.415651 208.175853 
L 295.237568 203.303638 
L 299.059486 181.37867 
L 302.881404 40.084432 
L 306.703322 198.431423 
L 310.52524 191.1231 
L 314.347158 193.559208 
L 318.169075 203.303638 
L 321.990993 161.88981 
L 325.812911 195.995315 
L 329.634829 178.942562 
L 333.456747 203.303638 
L 337.278664 203.303638 
L 341.100582 200.86753 
L 344.9225 208.175853 
L 348.744418 205.739746 
L 352.566336 210.611961 
L 356.388253 213.048068 
L 360.210171 213.048068 
L 364.032089 208.175853 
L 367.854007 205.739746 
L 371.675925 208.175853 
L 375.497842 208.175853 
L 383.141678 203.303638 
L 386.963596 203.303638 
L 390.785514 208.175853 
L 394.607432 198.431423 
L 398.429349 198.431423 
L 402.251267 205.739746 
L 406.073185 193.559208 
L 409.895103 193.559208 
L 413.717021 210.611961 
L 417.538938 210.611961 
L 421.360856 208.175853 
L 425.182774 210.611961 
L 429.004692 210.611961 
L 432.82661 213.048068 
L 436.648527 203.303638 
L 440.470445 205.739746 
L 444.292363 205.739746 
L 448.114281 208.175853 
L 451.936199 213.048068 
L 474.867705 213.048068 
L 482.511541 208.175853 
L 486.333459 213.048068 
L 490.155377 210.611961 
L 493.977295 210.611961 
L 497.799212 213.048068 
L 501.62113 213.048068 
L 505.443048 198.431423 
L 509.264966 195.995315 
L 513.086884 205.739746 
L 516.908801 213.048068 
L 520.730719 210.611961 
L 528.374555 210.611961 
L 532.196473 213.048068 
L 558.949897 213.048068 
L 562.771815 210.611961 
L 566.593733 213.048068 
L 585.703322 213.048068 
L 589.52524 208.175853 
L 593.347158 208.175853 
L 597.169075 213.048068 
L 620.100582 213.048068 
L 623.9225 208.175853 
L 627.744418 213.048068 
L 643.032089 213.048068 
L 646.854007 208.175853 
L 650.675925 208.175853 
L 658.31976 213.048068 
L 665.963596 208.175853 
L 673.607432 213.048068 
L 677.429349 213.048068 
L 681.251267 210.611961 
L 685.073185 213.048068 
L 723.292363 213.048068 
L 727.114281 205.739746 
L 730.936199 210.611961 
L 734.758116 210.611961 
L 738.580034 213.048068 
L 746.22387 213.048068 
L 750.045788 210.611961 
L 753.867705 213.048068 
L 757.689623 210.611961 
L 761.511541 213.048068 
L 765.333459 208.175853 
L 769.155377 213.048068 
L 788.264966 213.048068 
L 792.086884 210.611961 
L 795.908801 213.048068 
L 803.552637 213.048068 
L 807.374555 210.611961 
L 811.196473 210.611961 
L 815.01839 213.048068 
L 822.662226 213.048068 
L 826.484144 205.739746 
L 834.127979 210.611961 
L 841.771815 210.611961 
L 845.593733 213.048068 
L 860.881404 213.048068 
L 864.703322 210.611961 
L 868.52524 213.048068 
L 872.347158 213.048068 
L 876.169075 205.739746 
L 879.990993 213.048068 
L 883.812911 205.739746 
L 887.634829 205.739746 
L 895.278664 195.995315 
L 899.100582 198.431423 
L 902.9225 159.453702 
L 906.744418 193.559208 
L 910.566336 195.995315 
L 918.210171 181.37867 
L 922.032089 200.86753 
L 925.854007 198.431423 
L 929.675925 193.559208 
L 933.497842 193.559208 
L 937.31976 208.175853 
L 941.141678 169.198132 
L 944.963596 152.145379 
L 948.785514 200.86753 
L 952.607432 205.739746 
L 956.429349 188.686993 
L 964.073185 193.559208 
L 967.895103 166.762025 
L 971.717021 157.017594 
L 975.538938 171.63424 
L 979.360856 193.559208 
L 983.182774 154.581487 
L 987.004692 191.1231 
L 990.82661 169.198132 
L 994.648527 110.731551 
L 998.470445 164.325917 
L 1002.292363 186.250885 
L 1006.114281 198.431423 
L 1009.936199 193.559208 
L 1013.758116 176.506455 
L 1017.580034 181.37867 
L 1021.401952 200.86753 
L 1025.22387 195.995315 
L 1029.045788 205.739746 
L 1032.867705 193.559208 
L 1036.689623 200.86753 
L 1040.511541 210.611961 
L 1044.333459 210.611961 
L 1048.155377 203.303638 
L 1051.977295 210.611961 
L 1059.62113 210.611961 
L 1063.443048 200.86753 
L 1067.264966 210.611961 
L 1071.086884 205.739746 
L 1074.908801 203.303638 
L 1078.730719 213.048068 
L 1086.374555 213.048068 
L 1090.196473 210.611961 
L 1094.01839 210.611961 
L 1097.840308 213.048068 
L 1101.662226 210.611961 
L 1105.484144 213.048068 
L 1109.306062 198.431423 
L 1113.127979 205.739746 
L 1120.771815 205.739746 
L 1124.593733 198.431423 
L 1128.415651 200.86753 
L 1132.237568 208.175853 
L 1136.059486 203.303638 
L 1139.881404 200.86753 
L 1143.703322 210.611961 
L 1147.52524 203.303638 
L 1151.347158 186.250885 
L 1155.169075 205.739746 
L 1158.990993 210.611961 
L 1162.812911 210.611961 
L 1166.634829 213.048068 
L 1170.456747 208.175853 
L 1174.278664 208.175853 
L 1181.9225 213.048068 
L 1185.744418 210.611961 
L 1189.566336 213.048068 
L 1193.388253 208.175853 
L 1197.210171 210.611961 
L 1208.675925 210.611961 
L 1212.497842 213.048068 
L 1220.141678 213.048068 
L 1223.963596 210.611961 
L 1227.785514 213.048068 
L 1231.607432 213.048068 
L 1235.429349 208.175853 
L 1239.251267 213.048068 
L 1243.073185 210.611961 
L 1246.895103 213.048068 
L 1254.538938 213.048068 
L 1258.360856 210.611961 
L 1262.182774 213.048068 
L 1273.648527 213.048068 
L 1277.470445 210.611961 
L 1281.292363 210.611961 
L 1285.114281 213.048068 
L 1288.936199 208.175853 
L 1292.758116 213.048068 
L 1296.580034 213.048068 
L 1300.401952 195.995315 
L 1304.22387 188.686993 
L 1308.045788 208.175853 
L 1311.867705 205.739746 
L 1315.689623 208.175853 
L 1319.511541 208.175853 
L 1323.333459 210.611961 
L 1327.155377 208.175853 
L 1330.977295 208.175853 
L 1334.799212 210.611961 
L 1338.62113 208.175853 
L 1342.443048 210.611961 
L 1346.264966 203.303638 
L 1350.086884 213.048068 
L 1357.730719 213.048068 
L 1361.552637 210.611961 
L 1365.374555 213.048068 
L 1369.196473 210.611961 
L 1373.01839 210.611961 
L 1376.840308 213.048068 
L 1380.662226 213.048068 
L 1384.484144 210.611961 
L 1392.127979 210.611961 
L 1395.949897 213.048068 
L 1399.771815 213.048068 
L 1403.593733 210.611961 
L 1407.415651 213.048068 
L 1411.237568 208.175853 
L 1418.881404 213.048068 
L 1422.703322 208.175853 
L 1430.347158 213.048068 
L 1441.812911 213.048068 
L 1445.634829 210.611961 
L 1449.456747 213.048068 
L 1457.100582 213.048068 
L 1457.100582 213.048068 
" clip-path="url(#p0e46323f9b)" style="fill: none; stroke: #808080; stroke-linecap: square"/>
   </g>
   <g id="patch_3">
    <path d="M 65.9225 221.69625 
L 65.9225 31.43625 
" style="fill: none; stroke: #000000; stroke-width: 0.8; stroke-linejoin: miter; stroke-linecap: square"/>
   </g>
   <g id="patch_4">
    <path d="M 1460.9225 221.69625 
L 1460.9225 31.43625 
" style="fill: none; stroke: #000000; stroke-width: 0.8; stroke-linejoin: miter; stroke-linecap: square"/>
   </g>
   <g id="patch_5">
    <path d="M 65.9225 221.69625 
L 1460.9225 221.69625 
" style="fill: none; stroke: #000000; stroke-width: 0.8; stroke-linejoin: miter; stroke-linecap: square"/>
   </g>
   <g id="patch_6">
    <path d="M 65.9225 31.43625 
L 1460.9225 31.43625 
" style="fill: none; stroke: #000000; stroke-width: 0.8; stroke-linejoin: miter; stroke-linecap: square"/>
   </g>
   <g id="text_20">
    <!-- Transience And Novelty Around Peaks - Topic 17 -->
    <g transform="translate(466.47875 25.43625)scale(0.24 -0.24)">
     <defs>
      <path id="DejaVuSerif-64" d="M 3359 331 
L 3909 331 
L 3909 0 
L 2784 0 
L 2784 519 
Q 2616 206 2355 57 
Q 2094 -91 1709 -91 
Q 1097 -91 708 395 
Q 319 881 319 1663 
Q 319 2444 706 2928 
Q 1094 3413 1709 3413 
Q 2094 3413 2355 3264 
Q 2616 3116 2784 2803 
L 2784 4531 
L 2241 4531 
L 2241 4863 
L 3359 4863 
L 3359 331 
z
M 2784 1497 
L 2784 1825 
Q 2784 2422 2554 2737 
Q 2325 3053 1888 3053 
Q 1444 3053 1217 2703 
Q 991 2353 991 1663 
Q 991 975 1217 622 
Q 1444 269 1888 269 
Q 2325 269 2554 583 
Q 2784 897 2784 1497 
z
" transform="scale(0.015625)"/>
      <path id="DejaVuSerif-50" d="M 1581 2375 
L 2406 2375 
Q 2872 2375 3115 2626 
Q 3359 2878 3359 3353 
Q 3359 3831 3115 4081 
Q 2872 4331 2406 4331 
L 1581 4331 
L 1581 2375 
z
M 353 0 
L 353 331 
L 947 331 
L 947 4331 
L 353 4331 
L 353 4666 
L 2559 4666 
Q 3259 4666 3668 4311 
Q 4078 3956 4078 3353 
Q 4078 2753 3668 2397 
Q 3259 2041 2559 2041 
L 1581 2041 
L 1581 331 
L 2303 331 
L 2303 0 
L 353 0 
z
" transform="scale(0.015625)"/>
      <path id="DejaVuSerif-6b" d="M 1831 0 
L 219 0 
L 219 331 
L 738 331 
L 738 4531 
L 184 4531 
L 184 4863 
L 1313 4863 
L 1313 1697 
L 2713 2988 
L 2234 2988 
L 2234 3322 
L 3738 3322 
L 3738 2988 
L 3169 2988 
L 2181 2075 
L 3444 331 
L 3922 331 
L 3922 0 
L 2284 0 
L 2284 331 
L 2759 331 
L 1766 1697 
L 1313 1275 
L 1313 331 
L 1831 331 
L 1831 0 
z
" transform="scale(0.015625)"/>
     </defs>
     <use xlink:href="#DejaVuSerif-54"/>
     <use xlink:href="#DejaVuSerif-72" x="66.699219"/>
     <use xlink:href="#DejaVuSerif-61" x="114.501953"/>
     <use xlink:href="#DejaVuSerif-6e" x="174.121094"/>
     <use xlink:href="#DejaVuSerif-73" x="238.525391"/>
     <use xlink:href="#DejaVuSerif-69" x="289.84375"/>
     <use xlink:href="#DejaVuSerif-65" x="321.826172"/>
     <use xlink:href="#DejaVuSerif-6e" x="381.005859"/>
     <use xlink:href="#DejaVuSerif-63" x="445.410156"/>
     <use xlink:href="#DejaVuSerif-65" x="501.416016"/>
     <use xlink:href="#DejaVuSerif-20" x="560.595703"/>
     <use xlink:href="#DejaVuSerif-41" x="592.382812"/>
     <use xlink:href="#DejaVuSerif-6e" x="664.599609"/>
     <use xlink:href="#DejaVuSerif-64" x="729.003906"/>
     <use xlink:href="#DejaVuSerif-20" x="793.017578"/>
     <use xlink:href="#DejaVuSerif-4e" x="824.804688"/>
     <use xlink:href="#DejaVuSerif-6f" x="912.304688"/>
     <use xlink:href="#DejaVuSerif-76" x="972.509766"/>
     <use xlink:href="#DejaVuSerif-65" x="1029.003906"/>
     <use xlink:href="#DejaVuSerif-6c" x="1088.183594"/>
     <use xlink:href="#DejaVuSerif-74" x="1120.166016"/>
     <use xlink:href="#DejaVuSerif-79" x="1160.351562"/>
     <use xlink:href="#DejaVuSerif-20" x="1216.845703"/>
     <use xlink:href="#DejaVuSerif-41" x="1248.632812"/>
     <use xlink:href="#DejaVuSerif-72" x="1320.849609"/>
     <use xlink:href="#DejaVuSerif-6f" x="1368.652344"/>
     <use xlink:href="#DejaVuSerif-75" x="1428.857422"/>
     <use xlink:href="#DejaVuSerif-6e" x="1493.261719"/>
     <use xlink:href="#DejaVuSerif-64" x="1557.666016"/>
     <use xlink:href="#DejaVuSerif-20" x="1621.679688"/>
     <use xlink:href="#DejaVuSerif-50" x="1653.466797"/>
     <use xlink:href="#DejaVuSerif-65" x="1716.251953"/>
     <use xlink:href="#DejaVuSerif-61" x="1775.431641"/>
     <use xlink:href="#DejaVuSerif-6b" x="1835.050781"/>
     <use xlink:href="#DejaVuSerif-73" x="1895.646484"/>
     <use xlink:href="#DejaVuSerif-20" x="1946.964844"/>
     <use xlink:href="#DejaVuSerif-2d" x="1978.751953"/>
     <use xlink:href="#DejaVuSerif-20" x="2012.541016"/>
     <use xlink:href="#DejaVuSerif-54" x="2044.328125"/>
     <use xlink:href="#DejaVuSerif-6f" x="2103.277344"/>
     <use xlink:href="#DejaVuSerif-70" x="2163.482422"/>
     <use xlink:href="#DejaVuSerif-69" x="2227.496094"/>
     <use xlink:href="#DejaVuSerif-63" x="2259.478516"/>
     <use xlink:href="#DejaVuSerif-20" x="2315.484375"/>
     <use xlink:href="#DejaVuSerif-31" x="2347.271484"/>
     <use xlink:href="#DejaVuSerif-37" x="2410.894531"/>
    </g>
   </g>
   <g id="text_21">
    <!-- Transience -->
    <g style="fill: #ff0000" transform="translate(1540.33625 63.244095)rotate(-270)scale(0.24 -0.24)">
     <use xlink:href="#DejaVuSerif-54"/>
     <use xlink:href="#DejaVuSerif-72" x="66.699219"/>
     <use xlink:href="#DejaVuSerif-61" x="114.501953"/>
     <use xlink:href="#DejaVuSerif-6e" x="174.121094"/>
     <use xlink:href="#DejaVuSerif-73" x="238.525391"/>
     <use xlink:href="#DejaVuSerif-69" x="289.84375"/>
     <use xlink:href="#DejaVuSerif-65" x="321.826172"/>
     <use xlink:href="#DejaVuSerif-6e" x="381.005859"/>
     <use xlink:href="#DejaVuSerif-63" x="445.410156"/>
     <use xlink:href="#DejaVuSerif-65" x="501.416016"/>
    </g>
   </g>
   <g id="text_22">
    <!-- Novelty -->
    <g style="fill: #008000" transform="translate(1512.43625 83.12847)rotate(-270)scale(0.24 -0.24)">
     <use xlink:href="#DejaVuSerif-4e"/>
     <use xlink:href="#DejaVuSerif-6f" x="87.5"/>
     <use xlink:href="#DejaVuSerif-76" x="147.705078"/>
     <use xlink:href="#DejaVuSerif-65" x="204.199219"/>
     <use xlink:href="#DejaVuSerif-6c" x="263.378906"/>
     <use xlink:href="#DejaVuSerif-74" x="295.361328"/>
     <use xlink:href="#DejaVuSerif-79" x="335.546875"/>
    </g>
   </g>
  </g>
  <g id="axes_2">
   <g id="matplotlib.axis_3">
    <g id="ytick_6">
     <g id="line2d_20">
      <defs>
       <path id="m7d52703bec" d="M 0 0 
L -3.5 0 
" style="stroke: #000000; stroke-width: 0.8"/>
      </defs>
      <g>
       <use xlink:href="#m7d52703bec" x="1460.9225" y="221.69625" style="stroke: #000000; stroke-width: 0.8"/>
      </g>
     </g>
     <g id="text_23">
      <!-- 5.6 -->
      <g transform="translate(1464.4225 230.054531)scale(0.22 -0.22)">
       <defs>
        <path id="DejaVuSerif-2e" d="M 603 325 
Q 603 500 722 622 
Q 841 744 1019 744 
Q 1191 744 1312 622 
Q 1434 500 1434 325 
Q 1434 153 1312 31 
Q 1191 -91 1019 -91 
Q 841 -91 722 29 
Q 603 150 603 325 
z
" transform="scale(0.015625)"/>
       </defs>
       <use xlink:href="#DejaVuSerif-35"/>
       <use xlink:href="#DejaVuSerif-2e" x="63.623047"/>
       <use xlink:href="#DejaVuSerif-36" x="95.410156"/>
      </g>
     </g>
    </g>
    <g id="ytick_7">
     <g id="line2d_21">
      <g>
       <use xlink:href="#m7d52703bec" x="1460.9225" y="174.13125" style="stroke: #000000; stroke-width: 0.8"/>
      </g>
     </g>
     <g id="text_24">
      <!-- 6.3 -->
      <g transform="translate(1464.4225 182.489531)scale(0.22 -0.22)">
       <use xlink:href="#DejaVuSerif-36"/>
       <use xlink:href="#DejaVuSerif-2e" x="63.623047"/>
       <use xlink:href="#DejaVuSerif-33" x="95.410156"/>
      </g>
     </g>
    </g>
    <g id="ytick_8">
     <g id="line2d_22">
      <g>
       <use xlink:href="#m7d52703bec" x="1460.9225" y="126.56625" style="stroke: #000000; stroke-width: 0.8"/>
      </g>
     </g>
     <g id="text_25">
      <!-- 6.9 -->
      <g transform="translate(1464.4225 134.924531)scale(0.22 -0.22)">
       <defs>
        <path id="DejaVuSerif-39" d="M 2994 2091 
Q 2784 1856 2512 1740 
Q 2241 1625 1900 1625 
Q 1206 1625 804 2044 
Q 403 2463 403 3188 
Q 403 3897 839 4323 
Q 1275 4750 2003 4750 
Q 2794 4750 3217 4161 
Q 3641 3572 3641 2478 
Q 3641 1253 3137 581 
Q 2634 -91 1722 -91 
Q 1475 -91 1203 -44 
Q 931 3 647 97 
L 647 872 
L 997 872 
Q 1038 556 1241 387 
Q 1444 219 1784 219 
Q 2391 219 2687 676 
Q 2984 1134 2994 2091 
z
M 1978 4441 
Q 1534 4441 1298 4117 
Q 1063 3794 1063 3188 
Q 1063 2581 1298 2256 
Q 1534 1931 1978 1931 
Q 2422 1931 2658 2245 
Q 2894 2559 2894 3150 
Q 2894 3772 2656 4106 
Q 2419 4441 1978 4441 
z
" transform="scale(0.015625)"/>
       </defs>
       <use xlink:href="#DejaVuSerif-36"/>
       <use xlink:href="#DejaVuSerif-2e" x="63.623047"/>
       <use xlink:href="#DejaVuSerif-39" x="95.410156"/>
      </g>
     </g>
    </g>
    <g id="ytick_9">
     <g id="line2d_23">
      <g>
       <use xlink:href="#m7d52703bec" x="1460.9225" y="79.00125" style="stroke: #000000; stroke-width: 0.8"/>
      </g>
     </g>
     <g id="text_26">
      <!-- 7.6 -->
      <g transform="translate(1464.4225 87.359531)scale(0.22 -0.22)">
       <use xlink:href="#DejaVuSerif-37"/>
       <use xlink:href="#DejaVuSerif-2e" x="63.623047"/>
       <use xlink:href="#DejaVuSerif-36" x="95.410156"/>
      </g>
     </g>
    </g>
    <g id="ytick_10">
     <g id="line2d_24">
      <g>
       <use xlink:href="#m7d52703bec" x="1460.9225" y="31.43625" style="stroke: #000000; stroke-width: 0.8"/>
      </g>
     </g>
     <g id="text_27">
      <!-- 8.2 -->
      <g transform="translate(1464.4225 39.794531)scale(0.22 -0.22)">
       <defs>
        <path id="DejaVuSerif-38" d="M 2981 1275 
Q 2981 1775 2732 2051 
Q 2484 2328 2034 2328 
Q 1584 2328 1336 2051 
Q 1088 1775 1088 1275 
Q 1088 772 1336 495 
Q 1584 219 2034 219 
Q 2484 219 2732 495 
Q 2981 772 2981 1275 
z
M 2853 3541 
Q 2853 3966 2637 4203 
Q 2422 4441 2034 4441 
Q 1650 4441 1433 4203 
Q 1216 3966 1216 3541 
Q 1216 3113 1433 2875 
Q 1650 2638 2034 2638 
Q 2422 2638 2637 2875 
Q 2853 3113 2853 3541 
z
M 2516 2484 
Q 3047 2413 3344 2092 
Q 3641 1772 3641 1275 
Q 3641 619 3225 264 
Q 2809 -91 2034 -91 
Q 1263 -91 845 264 
Q 428 619 428 1275 
Q 428 1772 725 2092 
Q 1022 2413 1556 2484 
Q 1084 2569 832 2842 
Q 581 3116 581 3541 
Q 581 4103 968 4426 
Q 1356 4750 2034 4750 
Q 2713 4750 3100 4426 
Q 3488 4103 3488 3541 
Q 3488 3116 3236 2842 
Q 2984 2569 2516 2484 
z
" transform="scale(0.015625)"/>
       </defs>
       <use xlink:href="#DejaVuSerif-38"/>
       <use xlink:href="#DejaVuSerif-2e" x="63.623047"/>
       <use xlink:href="#DejaVuSerif-32" x="95.410156"/>
      </g>
     </g>
    </g>
   </g>
   <g id="line2d_25">
    <path d="M 272.306062 151.071262 
L 276.127979 151.071262 
L 276.127979 181.573471 
L 279.949897 181.573471 
L 279.949897 106.869089 
L 283.771815 106.869089 
L 283.771815 131.860359 
L 287.593733 131.860359 
L 287.593733 117.539643 
L 291.415651 117.539643 
L 291.415651 132.842219 
L 295.237568 132.842219 
L 295.237568 147.280448 
L 299.059486 147.280448 
L 299.059486 181.025341 
L 302.881404 181.025341 
L 302.881404 172.667955 
L 306.703322 172.667955 
L 306.703322 137.673021 
L 310.52524 137.673021 
L 310.52524 118.976084 
L 314.347158 118.976084 
L 314.347158 97.216655 
L 318.169075 97.216655 
L 318.169075 101.193678 
L 321.990993 101.193678 
L 321.990993 106.964676 
L 325.812911 106.964676 
L 325.812911 112.068385 
L 329.634829 112.068385 
L 329.634829 100.138902 
L 333.456747 100.138902 
L 333.456747 53.626547 
L 337.278664 53.626547 
L 337.278664 68.234758 
L 341.100582 68.234758 
L 341.100582 79.826118 
L 344.9225 79.826118 
L 344.9225 114.388748 
L 348.744418 114.388748 
L 348.744418 89.537545 
L 352.566336 89.537545 
M 879.990993 78.137172 
L 883.812911 78.137172 
L 883.812911 83.221057 
L 887.634829 83.221057 
L 887.634829 160.616235 
L 891.456747 160.616235 
L 891.456747 168.194425 
L 895.278664 168.194425 
L 895.278664 165.764743 
L 899.100582 165.764743 
L 899.100582 169.962741 
L 902.9225 169.962741 
L 902.9225 157.288656 
L 906.744418 157.288656 
L 906.744418 157.064037 
L 910.566336 157.064037 
L 910.566336 136.318677 
L 914.388253 136.318677 
L 914.388253 164.305843 
L 918.210171 164.305843 
L 918.210171 135.489918 
L 922.032089 135.489918 
L 922.032089 166.932 
L 925.854007 166.932 
L 925.854007 168.859091 
L 929.675925 168.859091 
L 929.675925 142.528384 
L 933.497842 142.528384 
L 933.497842 168.915848 
L 937.31976 168.915848 
L 937.31976 201.138909 
L 941.141678 201.138909 
L 941.141678 193.776899 
L 944.963596 193.776899 
L 944.963596 168.960797 
L 948.785514 168.960797 
L 948.785514 156.870287 
L 952.607432 156.870287 
L 952.607432 178.196225 
L 956.429349 178.196225 
L 956.429349 135.161663 
L 960.251267 135.161663 
L 960.251267 156.421503 
L 964.073185 156.421503 
L 964.073185 155.389443 
L 967.895103 155.389443 
L 967.895103 174.102244 
L 971.717021 174.102244 
L 971.717021 189.482345 
L 975.538938 189.482345 
L 975.538938 204.480471 
L 979.360856 204.480471 
L 979.360856 168.601671 
L 983.182774 168.601671 
L 983.182774 146.691405 
L 987.004692 146.691405 
L 987.004692 139.594614 
L 990.82661 139.594614 
L 990.82661 197.435107 
L 994.648527 197.435107 
L 994.648527 142.089888 
L 1002.292363 142.007772 
L 1002.292363 129.913841 
L 1006.114281 129.913841 
L 1006.114281 115.850364 
L 1009.936199 115.850364 
L 1009.936199 108.936508 
L 1013.758116 108.936508 
L 1013.758116 118.647068 
L 1017.580034 118.647068 
L 1017.580034 140.066385 
L 1021.401952 140.066385 
L 1021.401952 140.066385 
" clip-path="url(#p0e46323f9b)" style="fill: none; stroke: #008000; stroke-width: 0.8; stroke-linecap: square"/>
   </g>
   <g id="line2d_26">
    <path d="M 272.306062 154.616676 
L 276.127979 154.616676 
L 276.127979 162.617793 
L 279.949897 162.617793 
L 279.949897 60.639405 
L 283.771815 60.639405 
L 283.771815 157.417077 
L 287.593733 157.417077 
L 287.593733 101.619383 
L 291.415651 101.619383 
L 291.415651 128.523346 
L 295.237568 128.523346 
L 295.237568 148.163485 
L 299.059486 148.163485 
L 299.059486 174.792639 
L 302.881404 174.792639 
L 302.881404 188.070698 
L 306.703322 188.070698 
L 306.703322 144.792399 
L 310.52524 144.792399 
L 310.52524 116.01547 
L 314.347158 116.01547 
L 314.347158 72.950616 
L 318.169075 72.950616 
L 318.169075 95.496803 
L 321.990993 95.496803 
L 321.990993 101.441298 
L 325.812911 101.441298 
L 325.812911 108.008695 
L 329.634829 108.008695 
L 329.634829 108.818344 
L 333.456747 108.818344 
L 333.456747 40.084432 
L 337.278664 40.084432 
L 337.278664 73.76684 
L 341.100582 73.76684 
L 341.100582 80.705112 
L 344.9225 80.705112 
L 344.9225 129.14469 
L 348.744418 129.14469 
L 348.744418 79.192891 
L 352.566336 79.192891 
M 879.990993 97.364438 
L 883.812911 97.364438 
L 883.812911 69.926603 
L 887.634829 69.926603 
L 887.634829 122.216092 
L 891.456747 122.216092 
L 891.456747 100.007714 
L 895.278664 100.007714 
L 895.278664 135.608368 
L 899.100582 135.608368 
L 899.100582 176.92072 
L 902.9225 176.92072 
L 902.9225 173.802916 
L 906.744418 173.802916 
L 906.744418 153.704776 
L 910.566336 153.704776 
L 910.566336 144.857422 
L 914.388253 144.857422 
L 914.388253 155.738798 
L 918.210171 155.738798 
L 918.210171 156.037853 
L 922.032089 156.037853 
L 922.032089 177.202483 
L 925.854007 177.202483 
L 925.854007 155.688608 
L 929.675925 155.688608 
L 929.675925 158.932436 
L 933.497842 158.932436 
L 933.497842 131.020747 
L 937.31976 131.020747 
L 937.31976 147.76324 
L 941.141678 147.76324 
L 941.141678 197.394147 
L 944.963596 197.394147 
L 944.963596 213.048068 
L 948.785514 213.048068 
L 948.785514 192.634342 
L 952.607432 192.634342 
L 952.607432 168.677376 
L 956.429349 168.677376 
L 956.429349 156.450092 
L 960.251267 156.450092 
L 960.251267 146.829501 
L 964.073185 146.829501 
L 964.073185 126.364716 
L 967.895103 126.364716 
L 967.895103 156.091881 
L 971.717021 156.091881 
L 971.717021 174.015111 
L 975.538938 174.015111 
L 975.538938 191.20056 
L 979.360856 191.20056 
L 979.360856 192.133042 
L 983.182774 192.133042 
L 983.182774 176.109138 
L 987.004692 176.109138 
L 987.004692 138.319714 
L 990.82661 138.319714 
L 990.82661 174.18365 
L 994.648527 174.18365 
L 994.648527 204.118853 
L 998.470445 204.118853 
L 998.470445 161.06746 
L 1002.292363 161.06746 
L 1002.292363 124.380521 
L 1006.114281 124.380521 
L 1006.114281 118.612932 
L 1009.936199 118.612932 
L 1009.936199 91.755592 
L 1013.758116 91.755592 
L 1013.758116 128.130292 
L 1017.580034 128.130292 
L 1017.580034 144.228492 
L 1021.401952 144.228492 
L 1021.401952 144.228492 
" clip-path="url(#p0e46323f9b)" style="fill: none; stroke: #ff0000; stroke-width: 0.8; stroke-linecap: square"/>
   </g>
   <g id="patch_7">
    <path d="M 65.9225 221.69625 
L 65.9225 31.43625 
" style="fill: none; stroke: #000000; stroke-width: 0.8; stroke-linejoin: miter; stroke-linecap: square"/>
   </g>
   <g id="patch_8">
    <path d="M 1460.9225 221.69625 
L 1460.9225 31.43625 
" style="fill: none; stroke: #000000; stroke-width: 0.8; stroke-linejoin: miter; stroke-linecap: square"/>
   </g>
   <g id="patch_9">
    <path d="M 65.9225 221.69625 
L 1460.9225 221.69625 
" style="fill: none; stroke: #000000; stroke-width: 0.8; stroke-linejoin: miter; stroke-linecap: square"/>
   </g>
   <g id="patch_10">
    <path d="M 65.9225 31.43625 
L 1460.9225 31.43625 
" style="fill: none; stroke: #000000; stroke-width: 0.8; stroke-linejoin: miter; stroke-linecap: square"/>
   </g>
  </g>
 </g>
 <defs>
  <clipPath id="p0e46323f9b">
   <rect x="65.9225" y="31.43625" width="1395" height="190.26"/>
  </clipPath>
 </defs>
</svg>
