<?xml version="1.0" encoding="utf-8" standalone="no"?>
<!DOCTYPE svg PUBLIC "-//W3C//DTD SVG 1.1//EN"
  "http://www.w3.org/Graphics/SVG/1.1/DTD/svg11.dtd">
<svg xmlns:xlink="http://www.w3.org/1999/xlink" width="1470.160469pt" height="249.816875pt" viewBox="0 0 1470.160469 249.816875" xmlns="http://www.w3.org/2000/svg" version="1.1">
 <metadata>
  <rdf:RDF xmlns:dc="http://purl.org/dc/elements/1.1/" xmlns:cc="http://creativecommons.org/ns#" xmlns:rdf="http://www.w3.org/1999/02/22-rdf-syntax-ns#">
   <cc:Work>
    <dc:type rdf:resource="http://purl.org/dc/dcmitype/StillImage"/>
    <dc:date>2023-01-23T02:30:17.253000</dc:date>
    <dc:format>image/svg+xml</dc:format>
    <dc:creator>
     <cc:Agent>
      <dc:title>Matplotlib v3.5.2, https://matplotlib.org/</dc:title>
     </cc:Agent>
    </dc:creator>
   </cc:Work>
  </rdf:RDF>
 </metadata>
 <defs>
  <style type="text/css">*{stroke-linejoin: round; stroke-linecap: butt}</style>
 </defs>
 <g id="figure_1">
  <g id="patch_1">
   <path d="M 0 249.816875 
L 1470.160469 249.816875 
L 1470.160469 0 
L 0 0 
L 0 249.816875 
z
" style="fill: none"/>
  </g>
  <g id="axes_1">
   <g id="patch_2">
    <path d="M 38.695 221.69625 
L 1433.695 221.69625 
L 1433.695 31.43625 
L 38.695 31.43625 
z
" style="fill: #ffffff"/>
   </g>
   <g id="PathCollection_1">
    <defs>
     <path id="me557fec9a6" d="M 0 1.581139 
C 0.419323 1.581139 0.821528 1.41454 1.118034 1.118034 
C 1.41454 0.821528 1.581139 0.419323 1.581139 0 
C 1.581139 -0.419323 1.41454 -0.821528 1.118034 -1.118034 
C 0.821528 -1.41454 0.419323 -1.581139 0 -1.581139 
C -0.419323 -1.581139 -0.821528 -1.41454 -1.118034 -1.118034 
C -1.41454 -0.821528 -1.581139 -0.419323 -1.581139 0 
C -1.581139 0.419323 -1.41454 0.821528 -1.118034 1.118034 
C -0.821528 1.41454 -0.419323 1.581139 0 1.581139 
z
" style="stroke: #ff0000"/>
    </defs>
    <g clip-path="url(#pa799e6549a)">
     <use xlink:href="#me557fec9a6" x="-1" y="248.158002" style="fill: #ff0000; stroke: #ff0000"/>
     <use xlink:href="#me557fec9a6" x="0.475822" y="248.158002" style="fill: #ff0000; stroke: #ff0000"/>
     <use xlink:href="#me557fec9a6" x="4.29774" y="248.158002" style="fill: #ff0000; stroke: #ff0000"/>
     <use xlink:href="#me557fec9a6" x="8.119658" y="248.158002" style="fill: #ff0000; stroke: #ff0000"/>
     <use xlink:href="#me557fec9a6" x="11.941575" y="248.158002" style="fill: #ff0000; stroke: #ff0000"/>
     <use xlink:href="#me557fec9a6" x="15.763493" y="248.158002" style="fill: #ff0000; stroke: #ff0000"/>
     <use xlink:href="#me557fec9a6" x="19.585411" y="248.158002" style="fill: #ff0000; stroke: #ff0000"/>
     <use xlink:href="#me557fec9a6" x="23.407329" y="248.158002" style="fill: #ff0000; stroke: #ff0000"/>
     <use xlink:href="#me557fec9a6" x="27.229247" y="248.158002" style="fill: #ff0000; stroke: #ff0000"/>
     <use xlink:href="#me557fec9a6" x="31.051164" y="248.158002" style="fill: #ff0000; stroke: #ff0000"/>
     <use xlink:href="#me557fec9a6" x="34.873082" y="248.158002" style="fill: #ff0000; stroke: #ff0000"/>
     <use xlink:href="#me557fec9a6" x="38.695" y="248.158002" style="fill: #ff0000; stroke: #ff0000"/>
     <use xlink:href="#me557fec9a6" x="42.516918" y="248.158002" style="fill: #ff0000; stroke: #ff0000"/>
     <use xlink:href="#me557fec9a6" x="46.338836" y="248.158002" style="fill: #ff0000; stroke: #ff0000"/>
     <use xlink:href="#me557fec9a6" x="50.160753" y="248.158002" style="fill: #ff0000; stroke: #ff0000"/>
     <use xlink:href="#me557fec9a6" x="53.982671" y="248.158002" style="fill: #ff0000; stroke: #ff0000"/>
     <use xlink:href="#me557fec9a6" x="57.804589" y="248.158002" style="fill: #ff0000; stroke: #ff0000"/>
     <use xlink:href="#me557fec9a6" x="61.626507" y="248.158002" style="fill: #ff0000; stroke: #ff0000"/>
     <use xlink:href="#me557fec9a6" x="65.448425" y="248.158002" style="fill: #ff0000; stroke: #ff0000"/>
     <use xlink:href="#me557fec9a6" x="69.270342" y="248.158002" style="fill: #ff0000; stroke: #ff0000"/>
     <use xlink:href="#me557fec9a6" x="73.09226" y="248.158002" style="fill: #ff0000; stroke: #ff0000"/>
     <use xlink:href="#me557fec9a6" x="76.914178" y="248.158002" style="fill: #ff0000; stroke: #ff0000"/>
     <use xlink:href="#me557fec9a6" x="80.736096" y="248.158002" style="fill: #ff0000; stroke: #ff0000"/>
     <use xlink:href="#me557fec9a6" x="84.558014" y="248.158002" style="fill: #ff0000; stroke: #ff0000"/>
     <use xlink:href="#me557fec9a6" x="88.379932" y="248.158002" style="fill: #ff0000; stroke: #ff0000"/>
     <use xlink:href="#me557fec9a6" x="92.201849" y="248.158002" style="fill: #ff0000; stroke: #ff0000"/>
     <use xlink:href="#me557fec9a6" x="96.023767" y="248.158002" style="fill: #ff0000; stroke: #ff0000"/>
     <use xlink:href="#me557fec9a6" x="99.845685" y="248.158002" style="fill: #ff0000; stroke: #ff0000"/>
     <use xlink:href="#me557fec9a6" x="103.667603" y="248.158002" style="fill: #ff0000; stroke: #ff0000"/>
     <use xlink:href="#me557fec9a6" x="107.489521" y="248.158002" style="fill: #ff0000; stroke: #ff0000"/>
     <use xlink:href="#me557fec9a6" x="111.311438" y="248.158002" style="fill: #ff0000; stroke: #ff0000"/>
     <use xlink:href="#me557fec9a6" x="115.133356" y="248.158002" style="fill: #ff0000; stroke: #ff0000"/>
     <use xlink:href="#me557fec9a6" x="118.955274" y="248.158002" style="fill: #ff0000; stroke: #ff0000"/>
     <use xlink:href="#me557fec9a6" x="122.777192" y="248.158002" style="fill: #ff0000; stroke: #ff0000"/>
     <use xlink:href="#me557fec9a6" x="126.59911" y="248.158002" style="fill: #ff0000; stroke: #ff0000"/>
     <use xlink:href="#me557fec9a6" x="130.421027" y="248.158002" style="fill: #ff0000; stroke: #ff0000"/>
     <use xlink:href="#me557fec9a6" x="134.242945" y="248.158002" style="fill: #ff0000; stroke: #ff0000"/>
     <use xlink:href="#me557fec9a6" x="138.064863" y="248.158002" style="fill: #ff0000; stroke: #ff0000"/>
     <use xlink:href="#me557fec9a6" x="141.886781" y="248.158002" style="fill: #ff0000; stroke: #ff0000"/>
     <use xlink:href="#me557fec9a6" x="145.708699" y="248.158002" style="fill: #ff0000; stroke: #ff0000"/>
     <use xlink:href="#me557fec9a6" x="149.530616" y="248.158002" style="fill: #ff0000; stroke: #ff0000"/>
     <use xlink:href="#me557fec9a6" x="153.352534" y="248.158002" style="fill: #ff0000; stroke: #ff0000"/>
     <use xlink:href="#me557fec9a6" x="157.174452" y="248.158002" style="fill: #ff0000; stroke: #ff0000"/>
     <use xlink:href="#me557fec9a6" x="160.99637" y="248.158002" style="fill: #ff0000; stroke: #ff0000"/>
     <use xlink:href="#me557fec9a6" x="164.818288" y="248.158002" style="fill: #ff0000; stroke: #ff0000"/>
     <use xlink:href="#me557fec9a6" x="168.640205" y="248.158002" style="fill: #ff0000; stroke: #ff0000"/>
     <use xlink:href="#me557fec9a6" x="172.462123" y="248.158002" style="fill: #ff0000; stroke: #ff0000"/>
     <use xlink:href="#me557fec9a6" x="176.284041" y="248.158002" style="fill: #ff0000; stroke: #ff0000"/>
     <use xlink:href="#me557fec9a6" x="180.105959" y="248.158002" style="fill: #ff0000; stroke: #ff0000"/>
     <use xlink:href="#me557fec9a6" x="183.927877" y="248.158002" style="fill: #ff0000; stroke: #ff0000"/>
     <use xlink:href="#me557fec9a6" x="187.749795" y="248.158002" style="fill: #ff0000; stroke: #ff0000"/>
     <use xlink:href="#me557fec9a6" x="191.571712" y="248.158002" style="fill: #ff0000; stroke: #ff0000"/>
     <use xlink:href="#me557fec9a6" x="195.39363" y="248.158002" style="fill: #ff0000; stroke: #ff0000"/>
     <use xlink:href="#me557fec9a6" x="199.215548" y="248.158002" style="fill: #ff0000; stroke: #ff0000"/>
     <use xlink:href="#me557fec9a6" x="203.037466" y="248.158002" style="fill: #ff0000; stroke: #ff0000"/>
     <use xlink:href="#me557fec9a6" x="206.859384" y="248.158002" style="fill: #ff0000; stroke: #ff0000"/>
     <use xlink:href="#me557fec9a6" x="210.681301" y="248.158002" style="fill: #ff0000; stroke: #ff0000"/>
     <use xlink:href="#me557fec9a6" x="214.503219" y="248.158002" style="fill: #ff0000; stroke: #ff0000"/>
     <use xlink:href="#me557fec9a6" x="218.325137" y="248.158002" style="fill: #ff0000; stroke: #ff0000"/>
     <use xlink:href="#me557fec9a6" x="222.147055" y="248.158002" style="fill: #ff0000; stroke: #ff0000"/>
     <use xlink:href="#me557fec9a6" x="225.968973" y="248.158002" style="fill: #ff0000; stroke: #ff0000"/>
     <use xlink:href="#me557fec9a6" x="229.79089" y="248.158002" style="fill: #ff0000; stroke: #ff0000"/>
     <use xlink:href="#me557fec9a6" x="233.612808" y="248.158002" style="fill: #ff0000; stroke: #ff0000"/>
     <use xlink:href="#me557fec9a6" x="237.434726" y="248.158002" style="fill: #ff0000; stroke: #ff0000"/>
     <use xlink:href="#me557fec9a6" x="241.256644" y="248.158002" style="fill: #ff0000; stroke: #ff0000"/>
     <use xlink:href="#me557fec9a6" x="245.078562" y="248.158002" style="fill: #ff0000; stroke: #ff0000"/>
     <use xlink:href="#me557fec9a6" x="248.900479" y="248.158002" style="fill: #ff0000; stroke: #ff0000"/>
     <use xlink:href="#me557fec9a6" x="252.722397" y="248.158002" style="fill: #ff0000; stroke: #ff0000"/>
     <use xlink:href="#me557fec9a6" x="256.544315" y="248.158002" style="fill: #ff0000; stroke: #ff0000"/>
     <use xlink:href="#me557fec9a6" x="260.366233" y="248.158002" style="fill: #ff0000; stroke: #ff0000"/>
     <use xlink:href="#me557fec9a6" x="264.188151" y="248.158002" style="fill: #ff0000; stroke: #ff0000"/>
     <use xlink:href="#me557fec9a6" x="268.010068" y="248.158002" style="fill: #ff0000; stroke: #ff0000"/>
     <use xlink:href="#me557fec9a6" x="271.831986" y="248.158002" style="fill: #ff0000; stroke: #ff0000"/>
     <use xlink:href="#me557fec9a6" x="275.653904" y="248.158002" style="fill: #ff0000; stroke: #ff0000"/>
     <use xlink:href="#me557fec9a6" x="279.475822" y="248.158002" style="fill: #ff0000; stroke: #ff0000"/>
     <use xlink:href="#me557fec9a6" x="283.29774" y="248.158002" style="fill: #ff0000; stroke: #ff0000"/>
     <use xlink:href="#me557fec9a6" x="287.119658" y="248.158002" style="fill: #ff0000; stroke: #ff0000"/>
     <use xlink:href="#me557fec9a6" x="290.941575" y="248.158002" style="fill: #ff0000; stroke: #ff0000"/>
     <use xlink:href="#me557fec9a6" x="294.763493" y="248.158002" style="fill: #ff0000; stroke: #ff0000"/>
     <use xlink:href="#me557fec9a6" x="298.585411" y="248.158002" style="fill: #ff0000; stroke: #ff0000"/>
     <use xlink:href="#me557fec9a6" x="302.407329" y="248.158002" style="fill: #ff0000; stroke: #ff0000"/>
     <use xlink:href="#me557fec9a6" x="306.229247" y="248.158002" style="fill: #ff0000; stroke: #ff0000"/>
     <use xlink:href="#me557fec9a6" x="310.051164" y="248.158002" style="fill: #ff0000; stroke: #ff0000"/>
     <use xlink:href="#me557fec9a6" x="313.873082" y="248.158002" style="fill: #ff0000; stroke: #ff0000"/>
     <use xlink:href="#me557fec9a6" x="317.695" y="248.158002" style="fill: #ff0000; stroke: #ff0000"/>
     <use xlink:href="#me557fec9a6" x="321.516918" y="248.158002" style="fill: #ff0000; stroke: #ff0000"/>
     <use xlink:href="#me557fec9a6" x="325.338836" y="248.158002" style="fill: #ff0000; stroke: #ff0000"/>
     <use xlink:href="#me557fec9a6" x="329.160753" y="248.158002" style="fill: #ff0000; stroke: #ff0000"/>
     <use xlink:href="#me557fec9a6" x="332.982671" y="248.158002" style="fill: #ff0000; stroke: #ff0000"/>
     <use xlink:href="#me557fec9a6" x="336.804589" y="248.158002" style="fill: #ff0000; stroke: #ff0000"/>
     <use xlink:href="#me557fec9a6" x="340.626507" y="248.158002" style="fill: #ff0000; stroke: #ff0000"/>
     <use xlink:href="#me557fec9a6" x="344.448425" y="248.158002" style="fill: #ff0000; stroke: #ff0000"/>
     <use xlink:href="#me557fec9a6" x="348.270342" y="248.158002" style="fill: #ff0000; stroke: #ff0000"/>
     <use xlink:href="#me557fec9a6" x="352.09226" y="248.158002" style="fill: #ff0000; stroke: #ff0000"/>
     <use xlink:href="#me557fec9a6" x="355.914178" y="248.158002" style="fill: #ff0000; stroke: #ff0000"/>
     <use xlink:href="#me557fec9a6" x="359.736096" y="248.158002" style="fill: #ff0000; stroke: #ff0000"/>
     <use xlink:href="#me557fec9a6" x="363.558014" y="248.158002" style="fill: #ff0000; stroke: #ff0000"/>
     <use xlink:href="#me557fec9a6" x="367.379932" y="248.158002" style="fill: #ff0000; stroke: #ff0000"/>
     <use xlink:href="#me557fec9a6" x="371.201849" y="248.158002" style="fill: #ff0000; stroke: #ff0000"/>
     <use xlink:href="#me557fec9a6" x="375.023767" y="248.158002" style="fill: #ff0000; stroke: #ff0000"/>
     <use xlink:href="#me557fec9a6" x="378.845685" y="248.158002" style="fill: #ff0000; stroke: #ff0000"/>
     <use xlink:href="#me557fec9a6" x="382.667603" y="248.158002" style="fill: #ff0000; stroke: #ff0000"/>
     <use xlink:href="#me557fec9a6" x="386.489521" y="248.158002" style="fill: #ff0000; stroke: #ff0000"/>
     <use xlink:href="#me557fec9a6" x="390.311438" y="248.158002" style="fill: #ff0000; stroke: #ff0000"/>
     <use xlink:href="#me557fec9a6" x="394.133356" y="248.158002" style="fill: #ff0000; stroke: #ff0000"/>
     <use xlink:href="#me557fec9a6" x="397.955274" y="248.158002" style="fill: #ff0000; stroke: #ff0000"/>
     <use xlink:href="#me557fec9a6" x="401.777192" y="248.158002" style="fill: #ff0000; stroke: #ff0000"/>
     <use xlink:href="#me557fec9a6" x="405.59911" y="248.158002" style="fill: #ff0000; stroke: #ff0000"/>
     <use xlink:href="#me557fec9a6" x="409.421027" y="248.158002" style="fill: #ff0000; stroke: #ff0000"/>
     <use xlink:href="#me557fec9a6" x="413.242945" y="248.158002" style="fill: #ff0000; stroke: #ff0000"/>
     <use xlink:href="#me557fec9a6" x="417.064863" y="248.158002" style="fill: #ff0000; stroke: #ff0000"/>
     <use xlink:href="#me557fec9a6" x="420.886781" y="248.158002" style="fill: #ff0000; stroke: #ff0000"/>
     <use xlink:href="#me557fec9a6" x="424.708699" y="248.158002" style="fill: #ff0000; stroke: #ff0000"/>
     <use xlink:href="#me557fec9a6" x="428.530616" y="248.158002" style="fill: #ff0000; stroke: #ff0000"/>
     <use xlink:href="#me557fec9a6" x="432.352534" y="248.158002" style="fill: #ff0000; stroke: #ff0000"/>
     <use xlink:href="#me557fec9a6" x="436.174452" y="248.158002" style="fill: #ff0000; stroke: #ff0000"/>
     <use xlink:href="#me557fec9a6" x="439.99637" y="248.158002" style="fill: #ff0000; stroke: #ff0000"/>
     <use xlink:href="#me557fec9a6" x="443.818288" y="248.158002" style="fill: #ff0000; stroke: #ff0000"/>
     <use xlink:href="#me557fec9a6" x="447.640205" y="248.158002" style="fill: #ff0000; stroke: #ff0000"/>
     <use xlink:href="#me557fec9a6" x="451.462123" y="248.158002" style="fill: #ff0000; stroke: #ff0000"/>
     <use xlink:href="#me557fec9a6" x="455.284041" y="248.158002" style="fill: #ff0000; stroke: #ff0000"/>
     <use xlink:href="#me557fec9a6" x="459.105959" y="248.158002" style="fill: #ff0000; stroke: #ff0000"/>
     <use xlink:href="#me557fec9a6" x="462.927877" y="248.158002" style="fill: #ff0000; stroke: #ff0000"/>
     <use xlink:href="#me557fec9a6" x="466.749795" y="248.158002" style="fill: #ff0000; stroke: #ff0000"/>
     <use xlink:href="#me557fec9a6" x="470.571712" y="248.158002" style="fill: #ff0000; stroke: #ff0000"/>
     <use xlink:href="#me557fec9a6" x="474.39363" y="248.158002" style="fill: #ff0000; stroke: #ff0000"/>
     <use xlink:href="#me557fec9a6" x="478.215548" y="248.158002" style="fill: #ff0000; stroke: #ff0000"/>
     <use xlink:href="#me557fec9a6" x="482.037466" y="248.158002" style="fill: #ff0000; stroke: #ff0000"/>
     <use xlink:href="#me557fec9a6" x="485.859384" y="248.158002" style="fill: #ff0000; stroke: #ff0000"/>
     <use xlink:href="#me557fec9a6" x="489.681301" y="248.158002" style="fill: #ff0000; stroke: #ff0000"/>
     <use xlink:href="#me557fec9a6" x="493.503219" y="248.158002" style="fill: #ff0000; stroke: #ff0000"/>
     <use xlink:href="#me557fec9a6" x="497.325137" y="248.158002" style="fill: #ff0000; stroke: #ff0000"/>
     <use xlink:href="#me557fec9a6" x="501.147055" y="174.065096" style="fill: #ff0000; stroke: #ff0000"/>
     <use xlink:href="#me557fec9a6" x="504.968973" y="248.158002" style="fill: #ff0000; stroke: #ff0000"/>
     <use xlink:href="#me557fec9a6" x="508.79089" y="248.158002" style="fill: #ff0000; stroke: #ff0000"/>
     <use xlink:href="#me557fec9a6" x="512.612808" y="179.357446" style="fill: #ff0000; stroke: #ff0000"/>
     <use xlink:href="#me557fec9a6" x="516.434726" y="174.065096" style="fill: #ff0000; stroke: #ff0000"/>
     <use xlink:href="#me557fec9a6" x="520.256644" y="248.158002" style="fill: #ff0000; stroke: #ff0000"/>
     <use xlink:href="#me557fec9a6" x="524.078562" y="184.649797" style="fill: #ff0000; stroke: #ff0000"/>
     <use xlink:href="#me557fec9a6" x="527.900479" y="110.55689" style="fill: #ff0000; stroke: #ff0000"/>
     <use xlink:href="#me557fec9a6" x="531.722397" y="195.234498" style="fill: #ff0000; stroke: #ff0000"/>
     <use xlink:href="#me557fec9a6" x="535.544315" y="248.158002" style="fill: #ff0000; stroke: #ff0000"/>
     <use xlink:href="#me557fec9a6" x="539.366233" y="248.158002" style="fill: #ff0000; stroke: #ff0000"/>
     <use xlink:href="#me557fec9a6" x="543.188151" y="248.158002" style="fill: #ff0000; stroke: #ff0000"/>
     <use xlink:href="#me557fec9a6" x="547.010068" y="248.158002" style="fill: #ff0000; stroke: #ff0000"/>
     <use xlink:href="#me557fec9a6" x="550.831986" y="248.158002" style="fill: #ff0000; stroke: #ff0000"/>
     <use xlink:href="#me557fec9a6" x="554.653904" y="248.158002" style="fill: #ff0000; stroke: #ff0000"/>
     <use xlink:href="#me557fec9a6" x="558.475822" y="248.158002" style="fill: #ff0000; stroke: #ff0000"/>
     <use xlink:href="#me557fec9a6" x="562.29774" y="248.158002" style="fill: #ff0000; stroke: #ff0000"/>
     <use xlink:href="#me557fec9a6" x="566.119658" y="248.158002" style="fill: #ff0000; stroke: #ff0000"/>
     <use xlink:href="#me557fec9a6" x="569.941575" y="248.158002" style="fill: #ff0000; stroke: #ff0000"/>
     <use xlink:href="#me557fec9a6" x="573.763493" y="248.158002" style="fill: #ff0000; stroke: #ff0000"/>
     <use xlink:href="#me557fec9a6" x="577.585411" y="248.158002" style="fill: #ff0000; stroke: #ff0000"/>
     <use xlink:href="#me557fec9a6" x="581.407329" y="248.158002" style="fill: #ff0000; stroke: #ff0000"/>
     <use xlink:href="#me557fec9a6" x="585.229247" y="248.158002" style="fill: #ff0000; stroke: #ff0000"/>
     <use xlink:href="#me557fec9a6" x="589.051164" y="248.158002" style="fill: #ff0000; stroke: #ff0000"/>
     <use xlink:href="#me557fec9a6" x="592.873082" y="248.158002" style="fill: #ff0000; stroke: #ff0000"/>
     <use xlink:href="#me557fec9a6" x="596.695" y="248.158002" style="fill: #ff0000; stroke: #ff0000"/>
     <use xlink:href="#me557fec9a6" x="600.516918" y="248.158002" style="fill: #ff0000; stroke: #ff0000"/>
     <use xlink:href="#me557fec9a6" x="604.338836" y="248.158002" style="fill: #ff0000; stroke: #ff0000"/>
     <use xlink:href="#me557fec9a6" x="608.160753" y="248.158002" style="fill: #ff0000; stroke: #ff0000"/>
     <use xlink:href="#me557fec9a6" x="611.982671" y="248.158002" style="fill: #ff0000; stroke: #ff0000"/>
     <use xlink:href="#me557fec9a6" x="615.804589" y="248.158002" style="fill: #ff0000; stroke: #ff0000"/>
     <use xlink:href="#me557fec9a6" x="619.626507" y="248.158002" style="fill: #ff0000; stroke: #ff0000"/>
     <use xlink:href="#me557fec9a6" x="623.448425" y="248.158002" style="fill: #ff0000; stroke: #ff0000"/>
     <use xlink:href="#me557fec9a6" x="627.270342" y="248.158002" style="fill: #ff0000; stroke: #ff0000"/>
     <use xlink:href="#me557fec9a6" x="631.09226" y="248.158002" style="fill: #ff0000; stroke: #ff0000"/>
     <use xlink:href="#me557fec9a6" x="634.914178" y="248.158002" style="fill: #ff0000; stroke: #ff0000"/>
     <use xlink:href="#me557fec9a6" x="638.736096" y="248.158002" style="fill: #ff0000; stroke: #ff0000"/>
     <use xlink:href="#me557fec9a6" x="642.558014" y="248.158002" style="fill: #ff0000; stroke: #ff0000"/>
     <use xlink:href="#me557fec9a6" x="646.379932" y="248.158002" style="fill: #ff0000; stroke: #ff0000"/>
     <use xlink:href="#me557fec9a6" x="650.201849" y="248.158002" style="fill: #ff0000; stroke: #ff0000"/>
     <use xlink:href="#me557fec9a6" x="654.023767" y="248.158002" style="fill: #ff0000; stroke: #ff0000"/>
     <use xlink:href="#me557fec9a6" x="657.845685" y="248.158002" style="fill: #ff0000; stroke: #ff0000"/>
     <use xlink:href="#me557fec9a6" x="661.667603" y="248.158002" style="fill: #ff0000; stroke: #ff0000"/>
     <use xlink:href="#me557fec9a6" x="665.489521" y="248.158002" style="fill: #ff0000; stroke: #ff0000"/>
     <use xlink:href="#me557fec9a6" x="669.311438" y="248.158002" style="fill: #ff0000; stroke: #ff0000"/>
     <use xlink:href="#me557fec9a6" x="673.133356" y="248.158002" style="fill: #ff0000; stroke: #ff0000"/>
     <use xlink:href="#me557fec9a6" x="676.955274" y="248.158002" style="fill: #ff0000; stroke: #ff0000"/>
     <use xlink:href="#me557fec9a6" x="680.777192" y="248.158002" style="fill: #ff0000; stroke: #ff0000"/>
     <use xlink:href="#me557fec9a6" x="684.59911" y="248.158002" style="fill: #ff0000; stroke: #ff0000"/>
     <use xlink:href="#me557fec9a6" x="688.421027" y="248.158002" style="fill: #ff0000; stroke: #ff0000"/>
     <use xlink:href="#me557fec9a6" x="692.242945" y="248.158002" style="fill: #ff0000; stroke: #ff0000"/>
     <use xlink:href="#me557fec9a6" x="696.064863" y="248.158002" style="fill: #ff0000; stroke: #ff0000"/>
     <use xlink:href="#me557fec9a6" x="699.886781" y="248.158002" style="fill: #ff0000; stroke: #ff0000"/>
     <use xlink:href="#me557fec9a6" x="703.708699" y="248.158002" style="fill: #ff0000; stroke: #ff0000"/>
     <use xlink:href="#me557fec9a6" x="707.530616" y="248.158002" style="fill: #ff0000; stroke: #ff0000"/>
     <use xlink:href="#me557fec9a6" x="711.352534" y="248.158002" style="fill: #ff0000; stroke: #ff0000"/>
     <use xlink:href="#me557fec9a6" x="715.174452" y="248.158002" style="fill: #ff0000; stroke: #ff0000"/>
     <use xlink:href="#me557fec9a6" x="718.99637" y="248.158002" style="fill: #ff0000; stroke: #ff0000"/>
     <use xlink:href="#me557fec9a6" x="722.818288" y="248.158002" style="fill: #ff0000; stroke: #ff0000"/>
     <use xlink:href="#me557fec9a6" x="726.640205" y="248.158002" style="fill: #ff0000; stroke: #ff0000"/>
     <use xlink:href="#me557fec9a6" x="730.462123" y="248.158002" style="fill: #ff0000; stroke: #ff0000"/>
     <use xlink:href="#me557fec9a6" x="734.284041" y="248.158002" style="fill: #ff0000; stroke: #ff0000"/>
     <use xlink:href="#me557fec9a6" x="738.105959" y="248.158002" style="fill: #ff0000; stroke: #ff0000"/>
     <use xlink:href="#me557fec9a6" x="741.927877" y="248.158002" style="fill: #ff0000; stroke: #ff0000"/>
     <use xlink:href="#me557fec9a6" x="745.749795" y="248.158002" style="fill: #ff0000; stroke: #ff0000"/>
     <use xlink:href="#me557fec9a6" x="749.571712" y="248.158002" style="fill: #ff0000; stroke: #ff0000"/>
     <use xlink:href="#me557fec9a6" x="753.39363" y="248.158002" style="fill: #ff0000; stroke: #ff0000"/>
     <use xlink:href="#me557fec9a6" x="757.215548" y="248.158002" style="fill: #ff0000; stroke: #ff0000"/>
     <use xlink:href="#me557fec9a6" x="761.037466" y="248.158002" style="fill: #ff0000; stroke: #ff0000"/>
     <use xlink:href="#me557fec9a6" x="764.859384" y="248.158002" style="fill: #ff0000; stroke: #ff0000"/>
     <use xlink:href="#me557fec9a6" x="768.681301" y="248.158002" style="fill: #ff0000; stroke: #ff0000"/>
     <use xlink:href="#me557fec9a6" x="772.503219" y="248.158002" style="fill: #ff0000; stroke: #ff0000"/>
     <use xlink:href="#me557fec9a6" x="776.325137" y="248.158002" style="fill: #ff0000; stroke: #ff0000"/>
     <use xlink:href="#me557fec9a6" x="780.147055" y="248.158002" style="fill: #ff0000; stroke: #ff0000"/>
     <use xlink:href="#me557fec9a6" x="783.968973" y="248.158002" style="fill: #ff0000; stroke: #ff0000"/>
     <use xlink:href="#me557fec9a6" x="787.79089" y="248.158002" style="fill: #ff0000; stroke: #ff0000"/>
     <use xlink:href="#me557fec9a6" x="791.612808" y="248.158002" style="fill: #ff0000; stroke: #ff0000"/>
     <use xlink:href="#me557fec9a6" x="795.434726" y="248.158002" style="fill: #ff0000; stroke: #ff0000"/>
     <use xlink:href="#me557fec9a6" x="799.256644" y="248.158002" style="fill: #ff0000; stroke: #ff0000"/>
     <use xlink:href="#me557fec9a6" x="803.078562" y="248.158002" style="fill: #ff0000; stroke: #ff0000"/>
     <use xlink:href="#me557fec9a6" x="806.900479" y="248.158002" style="fill: #ff0000; stroke: #ff0000"/>
     <use xlink:href="#me557fec9a6" x="810.722397" y="248.158002" style="fill: #ff0000; stroke: #ff0000"/>
     <use xlink:href="#me557fec9a6" x="814.544315" y="248.158002" style="fill: #ff0000; stroke: #ff0000"/>
     <use xlink:href="#me557fec9a6" x="818.366233" y="248.158002" style="fill: #ff0000; stroke: #ff0000"/>
     <use xlink:href="#me557fec9a6" x="822.188151" y="248.158002" style="fill: #ff0000; stroke: #ff0000"/>
     <use xlink:href="#me557fec9a6" x="826.010068" y="248.158002" style="fill: #ff0000; stroke: #ff0000"/>
     <use xlink:href="#me557fec9a6" x="829.831986" y="248.158002" style="fill: #ff0000; stroke: #ff0000"/>
     <use xlink:href="#me557fec9a6" x="833.653904" y="248.158002" style="fill: #ff0000; stroke: #ff0000"/>
     <use xlink:href="#me557fec9a6" x="837.475822" y="248.158002" style="fill: #ff0000; stroke: #ff0000"/>
     <use xlink:href="#me557fec9a6" x="841.29774" y="248.158002" style="fill: #ff0000; stroke: #ff0000"/>
     <use xlink:href="#me557fec9a6" x="845.119658" y="248.158002" style="fill: #ff0000; stroke: #ff0000"/>
     <use xlink:href="#me557fec9a6" x="848.941575" y="248.158002" style="fill: #ff0000; stroke: #ff0000"/>
     <use xlink:href="#me557fec9a6" x="852.763493" y="248.158002" style="fill: #ff0000; stroke: #ff0000"/>
     <use xlink:href="#me557fec9a6" x="856.585411" y="248.158002" style="fill: #ff0000; stroke: #ff0000"/>
     <use xlink:href="#me557fec9a6" x="860.407329" y="248.158002" style="fill: #ff0000; stroke: #ff0000"/>
     <use xlink:href="#me557fec9a6" x="864.229247" y="248.158002" style="fill: #ff0000; stroke: #ff0000"/>
     <use xlink:href="#me557fec9a6" x="868.051164" y="248.158002" style="fill: #ff0000; stroke: #ff0000"/>
     <use xlink:href="#me557fec9a6" x="871.873082" y="248.158002" style="fill: #ff0000; stroke: #ff0000"/>
     <use xlink:href="#me557fec9a6" x="875.695" y="248.158002" style="fill: #ff0000; stroke: #ff0000"/>
     <use xlink:href="#me557fec9a6" x="879.516918" y="248.158002" style="fill: #ff0000; stroke: #ff0000"/>
     <use xlink:href="#me557fec9a6" x="883.338836" y="248.158002" style="fill: #ff0000; stroke: #ff0000"/>
     <use xlink:href="#me557fec9a6" x="887.160753" y="248.158002" style="fill: #ff0000; stroke: #ff0000"/>
     <use xlink:href="#me557fec9a6" x="890.982671" y="248.158002" style="fill: #ff0000; stroke: #ff0000"/>
     <use xlink:href="#me557fec9a6" x="894.804589" y="248.158002" style="fill: #ff0000; stroke: #ff0000"/>
     <use xlink:href="#me557fec9a6" x="898.626507" y="248.158002" style="fill: #ff0000; stroke: #ff0000"/>
     <use xlink:href="#me557fec9a6" x="902.448425" y="248.158002" style="fill: #ff0000; stroke: #ff0000"/>
     <use xlink:href="#me557fec9a6" x="906.270342" y="248.158002" style="fill: #ff0000; stroke: #ff0000"/>
     <use xlink:href="#me557fec9a6" x="910.09226" y="248.158002" style="fill: #ff0000; stroke: #ff0000"/>
     <use xlink:href="#me557fec9a6" x="913.914178" y="248.158002" style="fill: #ff0000; stroke: #ff0000"/>
     <use xlink:href="#me557fec9a6" x="917.736096" y="248.158002" style="fill: #ff0000; stroke: #ff0000"/>
     <use xlink:href="#me557fec9a6" x="921.558014" y="248.158002" style="fill: #ff0000; stroke: #ff0000"/>
     <use xlink:href="#me557fec9a6" x="925.379932" y="248.158002" style="fill: #ff0000; stroke: #ff0000"/>
     <use xlink:href="#me557fec9a6" x="929.201849" y="248.158002" style="fill: #ff0000; stroke: #ff0000"/>
     <use xlink:href="#me557fec9a6" x="933.023767" y="248.158002" style="fill: #ff0000; stroke: #ff0000"/>
     <use xlink:href="#me557fec9a6" x="936.845685" y="189.942147" style="fill: #ff0000; stroke: #ff0000"/>
     <use xlink:href="#me557fec9a6" x="940.667603" y="248.158002" style="fill: #ff0000; stroke: #ff0000"/>
     <use xlink:href="#me557fec9a6" x="944.489521" y="248.158002" style="fill: #ff0000; stroke: #ff0000"/>
     <use xlink:href="#me557fec9a6" x="948.311438" y="248.158002" style="fill: #ff0000; stroke: #ff0000"/>
     <use xlink:href="#me557fec9a6" x="952.133356" y="248.158002" style="fill: #ff0000; stroke: #ff0000"/>
     <use xlink:href="#me557fec9a6" x="955.955274" y="248.158002" style="fill: #ff0000; stroke: #ff0000"/>
     <use xlink:href="#me557fec9a6" x="959.777192" y="110.55689" style="fill: #ff0000; stroke: #ff0000"/>
     <use xlink:href="#me557fec9a6" x="963.59911" y="41.756333" style="fill: #ff0000; stroke: #ff0000"/>
     <use xlink:href="#me557fec9a6" x="967.421027" y="158.188044" style="fill: #ff0000; stroke: #ff0000"/>
     <use xlink:href="#me557fec9a6" x="971.242945" y="179.357446" style="fill: #ff0000; stroke: #ff0000"/>
     <use xlink:href="#me557fec9a6" x="975.064863" y="163.480395" style="fill: #ff0000; stroke: #ff0000"/>
     <use xlink:href="#me557fec9a6" x="978.886781" y="248.158002" style="fill: #ff0000; stroke: #ff0000"/>
     <use xlink:href="#me557fec9a6" x="982.708699" y="248.158002" style="fill: #ff0000; stroke: #ff0000"/>
     <use xlink:href="#me557fec9a6" x="986.530616" y="248.158002" style="fill: #ff0000; stroke: #ff0000"/>
     <use xlink:href="#me557fec9a6" x="990.352534" y="248.158002" style="fill: #ff0000; stroke: #ff0000"/>
     <use xlink:href="#me557fec9a6" x="994.174452" y="248.158002" style="fill: #ff0000; stroke: #ff0000"/>
     <use xlink:href="#me557fec9a6" x="997.99637" y="248.158002" style="fill: #ff0000; stroke: #ff0000"/>
     <use xlink:href="#me557fec9a6" x="1001.818288" y="248.158002" style="fill: #ff0000; stroke: #ff0000"/>
     <use xlink:href="#me557fec9a6" x="1005.640205" y="248.158002" style="fill: #ff0000; stroke: #ff0000"/>
     <use xlink:href="#me557fec9a6" x="1009.462123" y="248.158002" style="fill: #ff0000; stroke: #ff0000"/>
     <use xlink:href="#me557fec9a6" x="1013.284041" y="248.158002" style="fill: #ff0000; stroke: #ff0000"/>
     <use xlink:href="#me557fec9a6" x="1017.105959" y="248.158002" style="fill: #ff0000; stroke: #ff0000"/>
     <use xlink:href="#me557fec9a6" x="1020.927877" y="248.158002" style="fill: #ff0000; stroke: #ff0000"/>
     <use xlink:href="#me557fec9a6" x="1024.749795" y="248.158002" style="fill: #ff0000; stroke: #ff0000"/>
     <use xlink:href="#me557fec9a6" x="1028.571712" y="248.158002" style="fill: #ff0000; stroke: #ff0000"/>
     <use xlink:href="#me557fec9a6" x="1032.39363" y="248.158002" style="fill: #ff0000; stroke: #ff0000"/>
     <use xlink:href="#me557fec9a6" x="1036.215548" y="248.158002" style="fill: #ff0000; stroke: #ff0000"/>
     <use xlink:href="#me557fec9a6" x="1040.037466" y="248.158002" style="fill: #ff0000; stroke: #ff0000"/>
     <use xlink:href="#me557fec9a6" x="1043.859384" y="248.158002" style="fill: #ff0000; stroke: #ff0000"/>
     <use xlink:href="#me557fec9a6" x="1047.681301" y="248.158002" style="fill: #ff0000; stroke: #ff0000"/>
     <use xlink:href="#me557fec9a6" x="1051.503219" y="248.158002" style="fill: #ff0000; stroke: #ff0000"/>
     <use xlink:href="#me557fec9a6" x="1055.325137" y="248.158002" style="fill: #ff0000; stroke: #ff0000"/>
     <use xlink:href="#me557fec9a6" x="1059.147055" y="248.158002" style="fill: #ff0000; stroke: #ff0000"/>
     <use xlink:href="#me557fec9a6" x="1062.968973" y="248.158002" style="fill: #ff0000; stroke: #ff0000"/>
     <use xlink:href="#me557fec9a6" x="1066.79089" y="248.158002" style="fill: #ff0000; stroke: #ff0000"/>
     <use xlink:href="#me557fec9a6" x="1070.612808" y="248.158002" style="fill: #ff0000; stroke: #ff0000"/>
     <use xlink:href="#me557fec9a6" x="1074.434726" y="248.158002" style="fill: #ff0000; stroke: #ff0000"/>
     <use xlink:href="#me557fec9a6" x="1078.256644" y="248.158002" style="fill: #ff0000; stroke: #ff0000"/>
     <use xlink:href="#me557fec9a6" x="1082.078562" y="248.158002" style="fill: #ff0000; stroke: #ff0000"/>
     <use xlink:href="#me557fec9a6" x="1085.900479" y="248.158002" style="fill: #ff0000; stroke: #ff0000"/>
     <use xlink:href="#me557fec9a6" x="1089.722397" y="248.158002" style="fill: #ff0000; stroke: #ff0000"/>
     <use xlink:href="#me557fec9a6" x="1093.544315" y="248.158002" style="fill: #ff0000; stroke: #ff0000"/>
     <use xlink:href="#me557fec9a6" x="1097.366233" y="248.158002" style="fill: #ff0000; stroke: #ff0000"/>
     <use xlink:href="#me557fec9a6" x="1101.188151" y="248.158002" style="fill: #ff0000; stroke: #ff0000"/>
     <use xlink:href="#me557fec9a6" x="1105.010068" y="248.158002" style="fill: #ff0000; stroke: #ff0000"/>
     <use xlink:href="#me557fec9a6" x="1108.831986" y="248.158002" style="fill: #ff0000; stroke: #ff0000"/>
     <use xlink:href="#me557fec9a6" x="1112.653904" y="248.158002" style="fill: #ff0000; stroke: #ff0000"/>
     <use xlink:href="#me557fec9a6" x="1116.475822" y="248.158002" style="fill: #ff0000; stroke: #ff0000"/>
     <use xlink:href="#me557fec9a6" x="1120.29774" y="248.158002" style="fill: #ff0000; stroke: #ff0000"/>
     <use xlink:href="#me557fec9a6" x="1124.119658" y="248.158002" style="fill: #ff0000; stroke: #ff0000"/>
     <use xlink:href="#me557fec9a6" x="1127.941575" y="248.158002" style="fill: #ff0000; stroke: #ff0000"/>
     <use xlink:href="#me557fec9a6" x="1131.763493" y="248.158002" style="fill: #ff0000; stroke: #ff0000"/>
     <use xlink:href="#me557fec9a6" x="1135.585411" y="248.158002" style="fill: #ff0000; stroke: #ff0000"/>
     <use xlink:href="#me557fec9a6" x="1139.407329" y="248.158002" style="fill: #ff0000; stroke: #ff0000"/>
     <use xlink:href="#me557fec9a6" x="1143.229247" y="248.158002" style="fill: #ff0000; stroke: #ff0000"/>
     <use xlink:href="#me557fec9a6" x="1147.051164" y="248.158002" style="fill: #ff0000; stroke: #ff0000"/>
     <use xlink:href="#me557fec9a6" x="1150.873082" y="248.158002" style="fill: #ff0000; stroke: #ff0000"/>
     <use xlink:href="#me557fec9a6" x="1154.695" y="248.158002" style="fill: #ff0000; stroke: #ff0000"/>
     <use xlink:href="#me557fec9a6" x="1158.516918" y="248.158002" style="fill: #ff0000; stroke: #ff0000"/>
     <use xlink:href="#me557fec9a6" x="1162.338836" y="248.158002" style="fill: #ff0000; stroke: #ff0000"/>
     <use xlink:href="#me557fec9a6" x="1166.160753" y="248.158002" style="fill: #ff0000; stroke: #ff0000"/>
     <use xlink:href="#me557fec9a6" x="1169.982671" y="248.158002" style="fill: #ff0000; stroke: #ff0000"/>
     <use xlink:href="#me557fec9a6" x="1173.804589" y="248.158002" style="fill: #ff0000; stroke: #ff0000"/>
     <use xlink:href="#me557fec9a6" x="1177.626507" y="248.158002" style="fill: #ff0000; stroke: #ff0000"/>
     <use xlink:href="#me557fec9a6" x="1181.448425" y="248.158002" style="fill: #ff0000; stroke: #ff0000"/>
     <use xlink:href="#me557fec9a6" x="1185.270342" y="248.158002" style="fill: #ff0000; stroke: #ff0000"/>
     <use xlink:href="#me557fec9a6" x="1189.09226" y="248.158002" style="fill: #ff0000; stroke: #ff0000"/>
     <use xlink:href="#me557fec9a6" x="1192.914178" y="248.158002" style="fill: #ff0000; stroke: #ff0000"/>
     <use xlink:href="#me557fec9a6" x="1196.736096" y="248.158002" style="fill: #ff0000; stroke: #ff0000"/>
     <use xlink:href="#me557fec9a6" x="1200.558014" y="248.158002" style="fill: #ff0000; stroke: #ff0000"/>
     <use xlink:href="#me557fec9a6" x="1204.379932" y="248.158002" style="fill: #ff0000; stroke: #ff0000"/>
     <use xlink:href="#me557fec9a6" x="1208.201849" y="248.158002" style="fill: #ff0000; stroke: #ff0000"/>
     <use xlink:href="#me557fec9a6" x="1212.023767" y="248.158002" style="fill: #ff0000; stroke: #ff0000"/>
     <use xlink:href="#me557fec9a6" x="1215.845685" y="248.158002" style="fill: #ff0000; stroke: #ff0000"/>
     <use xlink:href="#me557fec9a6" x="1219.667603" y="248.158002" style="fill: #ff0000; stroke: #ff0000"/>
     <use xlink:href="#me557fec9a6" x="1223.489521" y="248.158002" style="fill: #ff0000; stroke: #ff0000"/>
     <use xlink:href="#me557fec9a6" x="1227.311438" y="248.158002" style="fill: #ff0000; stroke: #ff0000"/>
     <use xlink:href="#me557fec9a6" x="1231.133356" y="248.158002" style="fill: #ff0000; stroke: #ff0000"/>
     <use xlink:href="#me557fec9a6" x="1234.955274" y="248.158002" style="fill: #ff0000; stroke: #ff0000"/>
     <use xlink:href="#me557fec9a6" x="1238.777192" y="248.158002" style="fill: #ff0000; stroke: #ff0000"/>
     <use xlink:href="#me557fec9a6" x="1242.59911" y="248.158002" style="fill: #ff0000; stroke: #ff0000"/>
     <use xlink:href="#me557fec9a6" x="1246.421027" y="248.158002" style="fill: #ff0000; stroke: #ff0000"/>
     <use xlink:href="#me557fec9a6" x="1250.242945" y="248.158002" style="fill: #ff0000; stroke: #ff0000"/>
     <use xlink:href="#me557fec9a6" x="1254.064863" y="248.158002" style="fill: #ff0000; stroke: #ff0000"/>
     <use xlink:href="#me557fec9a6" x="1257.886781" y="248.158002" style="fill: #ff0000; stroke: #ff0000"/>
     <use xlink:href="#me557fec9a6" x="1261.708699" y="248.158002" style="fill: #ff0000; stroke: #ff0000"/>
     <use xlink:href="#me557fec9a6" x="1265.530616" y="248.158002" style="fill: #ff0000; stroke: #ff0000"/>
     <use xlink:href="#me557fec9a6" x="1269.352534" y="248.158002" style="fill: #ff0000; stroke: #ff0000"/>
     <use xlink:href="#me557fec9a6" x="1273.174452" y="248.158002" style="fill: #ff0000; stroke: #ff0000"/>
     <use xlink:href="#me557fec9a6" x="1276.99637" y="248.158002" style="fill: #ff0000; stroke: #ff0000"/>
     <use xlink:href="#me557fec9a6" x="1280.818288" y="248.158002" style="fill: #ff0000; stroke: #ff0000"/>
     <use xlink:href="#me557fec9a6" x="1284.640205" y="248.158002" style="fill: #ff0000; stroke: #ff0000"/>
     <use xlink:href="#me557fec9a6" x="1288.462123" y="248.158002" style="fill: #ff0000; stroke: #ff0000"/>
     <use xlink:href="#me557fec9a6" x="1292.284041" y="248.158002" style="fill: #ff0000; stroke: #ff0000"/>
     <use xlink:href="#me557fec9a6" x="1296.105959" y="248.158002" style="fill: #ff0000; stroke: #ff0000"/>
     <use xlink:href="#me557fec9a6" x="1299.927877" y="248.158002" style="fill: #ff0000; stroke: #ff0000"/>
     <use xlink:href="#me557fec9a6" x="1303.749795" y="248.158002" style="fill: #ff0000; stroke: #ff0000"/>
     <use xlink:href="#me557fec9a6" x="1307.571712" y="248.158002" style="fill: #ff0000; stroke: #ff0000"/>
     <use xlink:href="#me557fec9a6" x="1311.39363" y="248.158002" style="fill: #ff0000; stroke: #ff0000"/>
     <use xlink:href="#me557fec9a6" x="1315.215548" y="248.158002" style="fill: #ff0000; stroke: #ff0000"/>
     <use xlink:href="#me557fec9a6" x="1319.037466" y="248.158002" style="fill: #ff0000; stroke: #ff0000"/>
     <use xlink:href="#me557fec9a6" x="1322.859384" y="248.158002" style="fill: #ff0000; stroke: #ff0000"/>
     <use xlink:href="#me557fec9a6" x="1326.681301" y="248.158002" style="fill: #ff0000; stroke: #ff0000"/>
     <use xlink:href="#me557fec9a6" x="1330.503219" y="248.158002" style="fill: #ff0000; stroke: #ff0000"/>
     <use xlink:href="#me557fec9a6" x="1334.325137" y="248.158002" style="fill: #ff0000; stroke: #ff0000"/>
     <use xlink:href="#me557fec9a6" x="1338.147055" y="248.158002" style="fill: #ff0000; stroke: #ff0000"/>
     <use xlink:href="#me557fec9a6" x="1341.968973" y="248.158002" style="fill: #ff0000; stroke: #ff0000"/>
     <use xlink:href="#me557fec9a6" x="1345.79089" y="248.158002" style="fill: #ff0000; stroke: #ff0000"/>
     <use xlink:href="#me557fec9a6" x="1349.612808" y="248.158002" style="fill: #ff0000; stroke: #ff0000"/>
     <use xlink:href="#me557fec9a6" x="1353.434726" y="248.158002" style="fill: #ff0000; stroke: #ff0000"/>
     <use xlink:href="#me557fec9a6" x="1357.256644" y="248.158002" style="fill: #ff0000; stroke: #ff0000"/>
     <use xlink:href="#me557fec9a6" x="1361.078562" y="248.158002" style="fill: #ff0000; stroke: #ff0000"/>
     <use xlink:href="#me557fec9a6" x="1364.900479" y="248.158002" style="fill: #ff0000; stroke: #ff0000"/>
     <use xlink:href="#me557fec9a6" x="1368.722397" y="248.158002" style="fill: #ff0000; stroke: #ff0000"/>
     <use xlink:href="#me557fec9a6" x="1372.544315" y="248.158002" style="fill: #ff0000; stroke: #ff0000"/>
     <use xlink:href="#me557fec9a6" x="1376.366233" y="248.158002" style="fill: #ff0000; stroke: #ff0000"/>
     <use xlink:href="#me557fec9a6" x="1380.188151" y="248.158002" style="fill: #ff0000; stroke: #ff0000"/>
     <use xlink:href="#me557fec9a6" x="1384.010068" y="248.158002" style="fill: #ff0000; stroke: #ff0000"/>
     <use xlink:href="#me557fec9a6" x="1387.831986" y="248.158002" style="fill: #ff0000; stroke: #ff0000"/>
     <use xlink:href="#me557fec9a6" x="1391.653904" y="248.158002" style="fill: #ff0000; stroke: #ff0000"/>
     <use xlink:href="#me557fec9a6" x="1395.475822" y="248.158002" style="fill: #ff0000; stroke: #ff0000"/>
     <use xlink:href="#me557fec9a6" x="1399.29774" y="248.158002" style="fill: #ff0000; stroke: #ff0000"/>
     <use xlink:href="#me557fec9a6" x="1403.119658" y="248.158002" style="fill: #ff0000; stroke: #ff0000"/>
     <use xlink:href="#me557fec9a6" x="1406.941575" y="248.158002" style="fill: #ff0000; stroke: #ff0000"/>
     <use xlink:href="#me557fec9a6" x="1410.763493" y="248.158002" style="fill: #ff0000; stroke: #ff0000"/>
     <use xlink:href="#me557fec9a6" x="1414.585411" y="248.158002" style="fill: #ff0000; stroke: #ff0000"/>
     <use xlink:href="#me557fec9a6" x="1418.407329" y="248.158002" style="fill: #ff0000; stroke: #ff0000"/>
     <use xlink:href="#me557fec9a6" x="1422.229247" y="248.158002" style="fill: #ff0000; stroke: #ff0000"/>
     <use xlink:href="#me557fec9a6" x="1426.051164" y="248.158002" style="fill: #ff0000; stroke: #ff0000"/>
     <use xlink:href="#me557fec9a6" x="1429.873082" y="248.158002" style="fill: #ff0000; stroke: #ff0000"/>
    </g>
   </g>
   <g id="matplotlib.axis_1">
    <g id="xtick_1">
     <g id="line2d_1">
      <defs>
       <path id="m1edde15a84" d="M 0 0 
L 0 -3.5 
" style="stroke: #000000; stroke-width: 0.8"/>
      </defs>
      <g>
       <use xlink:href="#m1edde15a84" x="38.695" y="221.69625" style="stroke: #000000; stroke-width: 0.8"/>
      </g>
     </g>
     <g id="text_1">
      <!-- Jan-22 -->
      <g transform="translate(38.695 238.873437)scale(0.18 -0.18)">
       <defs>
        <path id="DejaVuSerif-4a" d="M -538 -1119 
L -538 -384 
L -181 -384 
Q -172 -694 -34 -845 
Q 103 -997 378 -997 
Q 750 -997 897 -762 
Q 1044 -528 1044 153 
L 1044 4331 
L 319 4331 
L 319 4666 
L 2272 4666 
L 2272 4331 
L 1678 4331 
L 1678 128 
Q 1678 -644 1368 -987 
Q 1059 -1331 372 -1331 
Q 150 -1331 -79 -1278 
Q -309 -1225 -538 -1119 
z
" transform="scale(0.015625)"/>
        <path id="DejaVuSerif-61" d="M 2547 1044 
L 2547 1747 
L 1806 1747 
Q 1378 1747 1168 1562 
Q 959 1378 959 997 
Q 959 650 1171 447 
Q 1384 244 1747 244 
Q 2106 244 2326 466 
Q 2547 688 2547 1044 
z
M 3122 2075 
L 3122 331 
L 3634 331 
L 3634 0 
L 2547 0 
L 2547 359 
Q 2356 128 2106 18 
Q 1856 -91 1522 -91 
Q 969 -91 644 203 
Q 319 497 319 997 
Q 319 1513 691 1797 
Q 1063 2081 1741 2081 
L 2547 2081 
L 2547 2309 
Q 2547 2688 2317 2895 
Q 2088 3103 1672 3103 
Q 1328 3103 1125 2947 
Q 922 2791 872 2484 
L 575 2484 
L 575 3156 
Q 875 3284 1158 3348 
Q 1441 3413 1709 3413 
Q 2400 3413 2761 3070 
Q 3122 2728 3122 2075 
z
" transform="scale(0.015625)"/>
        <path id="DejaVuSerif-6e" d="M 263 0 
L 263 331 
L 781 331 
L 781 2988 
L 231 2988 
L 231 3322 
L 1356 3322 
L 1356 2731 
Q 1516 3069 1770 3241 
Q 2025 3413 2363 3413 
Q 2913 3413 3172 3097 
Q 3431 2781 3431 2113 
L 3431 331 
L 3944 331 
L 3944 0 
L 2356 0 
L 2356 331 
L 2853 331 
L 2853 1931 
Q 2853 2541 2703 2767 
Q 2553 2994 2175 2994 
Q 1775 2994 1565 2701 
Q 1356 2409 1356 1850 
L 1356 331 
L 1856 331 
L 1856 0 
L 263 0 
z
" transform="scale(0.015625)"/>
        <path id="DejaVuSerif-2d" d="M 281 1959 
L 1881 1959 
L 1881 1472 
L 281 1472 
L 281 1959 
z
" transform="scale(0.015625)"/>
        <path id="DejaVuSerif-32" d="M 819 3553 
L 469 3553 
L 469 4384 
Q 803 4563 1142 4656 
Q 1481 4750 1806 4750 
Q 2534 4750 2956 4397 
Q 3378 4044 3378 3438 
Q 3378 2753 2422 1800 
Q 2347 1728 2309 1691 
L 1131 513 
L 3078 513 
L 3078 1088 
L 3444 1088 
L 3444 0 
L 434 0 
L 434 341 
L 1850 1753 
Q 2319 2222 2519 2614 
Q 2719 3006 2719 3438 
Q 2719 3909 2473 4175 
Q 2228 4441 1797 4441 
Q 1350 4441 1106 4219 
Q 863 3997 819 3553 
z
" transform="scale(0.015625)"/>
       </defs>
       <use xlink:href="#DejaVuSerif-4a"/>
       <use xlink:href="#DejaVuSerif-61" x="40.087891"/>
       <use xlink:href="#DejaVuSerif-6e" x="99.707031"/>
       <use xlink:href="#DejaVuSerif-2d" x="164.111328"/>
       <use xlink:href="#DejaVuSerif-32" x="197.900391"/>
       <use xlink:href="#DejaVuSerif-32" x="261.523438"/>
      </g>
     </g>
    </g>
    <g id="xtick_2">
     <g id="line2d_2">
      <g>
       <use xlink:href="#m1edde15a84" x="157.174452" y="221.69625" style="stroke: #000000; stroke-width: 0.8"/>
      </g>
     </g>
     <g id="text_2">
      <!-- Feb-22 -->
      <g transform="translate(125.841796 238.873437)scale(0.18 -0.18)">
       <defs>
        <path id="DejaVuSerif-46" d="M 353 0 
L 353 331 
L 947 331 
L 947 4331 
L 353 4331 
L 353 4666 
L 4172 4666 
L 4172 3628 
L 3788 3628 
L 3788 4281 
L 1581 4281 
L 1581 2719 
L 3175 2719 
L 3175 3303 
L 3559 3303 
L 3559 1753 
L 3175 1753 
L 3175 2338 
L 1581 2338 
L 1581 331 
L 2328 331 
L 2328 0 
L 353 0 
z
" transform="scale(0.015625)"/>
        <path id="DejaVuSerif-65" d="M 3469 1600 
L 991 1600 
L 991 1575 
Q 991 903 1244 561 
Q 1497 219 1991 219 
Q 2369 219 2611 417 
Q 2853 616 2950 1006 
L 3413 1006 
Q 3275 459 2904 184 
Q 2534 -91 1931 -91 
Q 1203 -91 761 389 
Q 319 869 319 1663 
Q 319 2450 753 2931 
Q 1188 3413 1894 3413 
Q 2647 3413 3050 2948 
Q 3453 2484 3469 1600 
z
M 2791 1931 
Q 2772 2513 2545 2808 
Q 2319 3103 1894 3103 
Q 1497 3103 1269 2806 
Q 1041 2509 991 1931 
L 2791 1931 
z
" transform="scale(0.015625)"/>
        <path id="DejaVuSerif-62" d="M 738 331 
L 738 4531 
L 184 4531 
L 184 4863 
L 1313 4863 
L 1313 2803 
Q 1481 3116 1742 3264 
Q 2003 3413 2388 3413 
Q 3000 3413 3387 2928 
Q 3775 2444 3775 1663 
Q 3775 881 3387 395 
Q 3000 -91 2388 -91 
Q 2003 -91 1742 57 
Q 1481 206 1313 519 
L 1313 0 
L 184 0 
L 184 331 
L 738 331 
z
M 1313 1497 
Q 1313 897 1542 583 
Q 1772 269 2209 269 
Q 2650 269 2876 622 
Q 3103 975 3103 1663 
Q 3103 2353 2876 2703 
Q 2650 3053 2209 3053 
Q 1772 3053 1542 2737 
Q 1313 2422 1313 1825 
L 1313 1497 
z
" transform="scale(0.015625)"/>
       </defs>
       <use xlink:href="#DejaVuSerif-46"/>
       <use xlink:href="#DejaVuSerif-65" x="63.884766"/>
       <use xlink:href="#DejaVuSerif-62" x="123.064453"/>
       <use xlink:href="#DejaVuSerif-2d" x="187.078125"/>
       <use xlink:href="#DejaVuSerif-32" x="220.867188"/>
       <use xlink:href="#DejaVuSerif-32" x="284.490234"/>
      </g>
     </g>
    </g>
    <g id="xtick_3">
     <g id="line2d_3">
      <g>
       <use xlink:href="#m1edde15a84" x="264.188151" y="221.69625" style="stroke: #000000; stroke-width: 0.8"/>
      </g>
     </g>
     <g id="text_3">
      <!-- Mar-22 -->
      <g transform="translate(230.810807 238.873437)scale(0.18 -0.18)">
       <defs>
        <path id="DejaVuSerif-4d" d="M 353 0 
L 353 331 
L 947 331 
L 947 4331 
L 319 4331 
L 319 4666 
L 1678 4666 
L 3316 1344 
L 4953 4666 
L 6228 4666 
L 6228 4331 
L 5606 4331 
L 5606 331 
L 6203 331 
L 6203 0 
L 4378 0 
L 4378 331 
L 4972 331 
L 4972 3938 
L 3372 684 
L 2931 684 
L 1331 3938 
L 1331 331 
L 1925 331 
L 1925 0 
L 353 0 
z
" transform="scale(0.015625)"/>
        <path id="DejaVuSerif-72" d="M 3059 3328 
L 3059 2497 
L 2728 2497 
Q 2713 2744 2591 2866 
Q 2469 2988 2234 2988 
Q 1809 2988 1582 2694 
Q 1356 2400 1356 1850 
L 1356 331 
L 2022 331 
L 2022 0 
L 263 0 
L 263 331 
L 781 331 
L 781 2994 
L 231 2994 
L 231 3322 
L 1356 3322 
L 1356 2731 
Q 1525 3078 1790 3245 
Q 2056 3413 2438 3413 
Q 2578 3413 2733 3391 
Q 2888 3369 3059 3328 
z
" transform="scale(0.015625)"/>
       </defs>
       <use xlink:href="#DejaVuSerif-4d"/>
       <use xlink:href="#DejaVuSerif-61" x="102.392578"/>
       <use xlink:href="#DejaVuSerif-72" x="162.011719"/>
       <use xlink:href="#DejaVuSerif-2d" x="209.814453"/>
       <use xlink:href="#DejaVuSerif-32" x="243.603516"/>
       <use xlink:href="#DejaVuSerif-32" x="307.226562"/>
      </g>
     </g>
    </g>
    <g id="xtick_4">
     <g id="line2d_4">
      <g>
       <use xlink:href="#m1edde15a84" x="382.667603" y="221.69625" style="stroke: #000000; stroke-width: 0.8"/>
      </g>
     </g>
     <g id="text_4">
      <!-- Apr-22 -->
      <g transform="translate(351.610571 238.873437)scale(0.18 -0.18)">
       <defs>
        <path id="DejaVuSerif-41" d="M 1281 1691 
L 2994 1691 
L 2138 3909 
L 1281 1691 
z
M -38 0 
L -38 331 
L 372 331 
L 2034 4666 
L 2559 4666 
L 4225 331 
L 4684 331 
L 4684 0 
L 2988 0 
L 2988 331 
L 3506 331 
L 3116 1356 
L 1153 1356 
L 763 331 
L 1275 331 
L 1275 0 
L -38 0 
z
" transform="scale(0.015625)"/>
        <path id="DejaVuSerif-70" d="M 1313 1825 
L 1313 1497 
Q 1313 897 1542 583 
Q 1772 269 2209 269 
Q 2650 269 2876 622 
Q 3103 975 3103 1663 
Q 3103 2353 2876 2703 
Q 2650 3053 2209 3053 
Q 1772 3053 1542 2737 
Q 1313 2422 1313 1825 
z
M 738 2988 
L 184 2988 
L 184 3322 
L 1313 3322 
L 1313 2803 
Q 1481 3116 1742 3264 
Q 2003 3413 2388 3413 
Q 3000 3413 3387 2928 
Q 3775 2444 3775 1663 
Q 3775 881 3387 395 
Q 3000 -91 2388 -91 
Q 2003 -91 1742 57 
Q 1481 206 1313 519 
L 1313 -997 
L 1856 -997 
L 1856 -1331 
L 184 -1331 
L 184 -997 
L 738 -997 
L 738 2988 
z
" transform="scale(0.015625)"/>
       </defs>
       <use xlink:href="#DejaVuSerif-41"/>
       <use xlink:href="#DejaVuSerif-70" x="72.216797"/>
       <use xlink:href="#DejaVuSerif-72" x="136.230469"/>
       <use xlink:href="#DejaVuSerif-2d" x="184.033203"/>
       <use xlink:href="#DejaVuSerif-32" x="217.822266"/>
       <use xlink:href="#DejaVuSerif-32" x="281.445312"/>
      </g>
     </g>
    </g>
    <g id="xtick_5">
     <g id="line2d_5">
      <g>
       <use xlink:href="#m1edde15a84" x="497.325137" y="221.69625" style="stroke: #000000; stroke-width: 0.8"/>
      </g>
     </g>
     <g id="text_5">
      <!-- May-22 -->
      <g transform="translate(463.164512 238.6175)scale(0.18 -0.18)">
       <defs>
        <path id="DejaVuSerif-79" d="M 1381 -609 
L 1600 -56 
L 359 2988 
L -19 2988 
L -19 3322 
L 1509 3322 
L 1509 2988 
L 978 2988 
L 1913 703 
L 2847 2988 
L 2350 2988 
L 2350 3322 
L 3597 3322 
L 3597 2988 
L 3225 2988 
L 1703 -750 
Q 1547 -1138 1356 -1280 
Q 1166 -1422 819 -1422 
Q 672 -1422 517 -1397 
Q 363 -1372 206 -1325 
L 206 -691 
L 500 -691 
Q 519 -903 608 -995 
Q 697 -1088 884 -1088 
Q 1056 -1088 1161 -992 
Q 1266 -897 1381 -609 
z
" transform="scale(0.015625)"/>
       </defs>
       <use xlink:href="#DejaVuSerif-4d"/>
       <use xlink:href="#DejaVuSerif-61" x="102.392578"/>
       <use xlink:href="#DejaVuSerif-79" x="162.011719"/>
       <use xlink:href="#DejaVuSerif-2d" x="218.505859"/>
       <use xlink:href="#DejaVuSerif-32" x="252.294922"/>
       <use xlink:href="#DejaVuSerif-32" x="315.917969"/>
      </g>
     </g>
    </g>
    <g id="xtick_6">
     <g id="line2d_6">
      <g>
       <use xlink:href="#m1edde15a84" x="615.804589" y="221.69625" style="stroke: #000000; stroke-width: 0.8"/>
      </g>
     </g>
     <g id="text_6">
      <!-- Jun-22 -->
      <g transform="translate(586.108808 238.873437)scale(0.18 -0.18)">
       <defs>
        <path id="DejaVuSerif-75" d="M 2266 3322 
L 3341 3322 
L 3341 331 
L 3884 331 
L 3884 0 
L 2766 0 
L 2766 588 
Q 2606 256 2353 82 
Q 2100 -91 1766 -91 
Q 1213 -91 952 223 
Q 691 538 691 1209 
L 691 2988 
L 172 2988 
L 172 3322 
L 1269 3322 
L 1269 1388 
Q 1269 781 1417 556 
Q 1566 331 1947 331 
Q 2347 331 2556 625 
Q 2766 919 2766 1478 
L 2766 2988 
L 2266 2988 
L 2266 3322 
z
" transform="scale(0.015625)"/>
       </defs>
       <use xlink:href="#DejaVuSerif-4a"/>
       <use xlink:href="#DejaVuSerif-75" x="40.087891"/>
       <use xlink:href="#DejaVuSerif-6e" x="104.492188"/>
       <use xlink:href="#DejaVuSerif-2d" x="168.896484"/>
       <use xlink:href="#DejaVuSerif-32" x="202.685547"/>
       <use xlink:href="#DejaVuSerif-32" x="266.308594"/>
      </g>
     </g>
    </g>
    <g id="xtick_7">
     <g id="line2d_7">
      <g>
       <use xlink:href="#m1edde15a84" x="730.462123" y="221.69625" style="stroke: #000000; stroke-width: 0.8"/>
      </g>
     </g>
     <g id="text_7">
      <!-- Jul-22 -->
      <g transform="translate(703.684311 238.873437)scale(0.18 -0.18)">
       <defs>
        <path id="DejaVuSerif-6c" d="M 1313 331 
L 1856 331 
L 1856 0 
L 184 0 
L 184 331 
L 738 331 
L 738 4531 
L 184 4531 
L 184 4863 
L 1313 4863 
L 1313 331 
z
" transform="scale(0.015625)"/>
       </defs>
       <use xlink:href="#DejaVuSerif-4a"/>
       <use xlink:href="#DejaVuSerif-75" x="40.087891"/>
       <use xlink:href="#DejaVuSerif-6c" x="104.492188"/>
       <use xlink:href="#DejaVuSerif-2d" x="136.474609"/>
       <use xlink:href="#DejaVuSerif-32" x="170.263672"/>
       <use xlink:href="#DejaVuSerif-32" x="233.886719"/>
      </g>
     </g>
    </g>
    <g id="xtick_8">
     <g id="line2d_8">
      <g>
       <use xlink:href="#m1edde15a84" x="848.941575" y="221.69625" style="stroke: #000000; stroke-width: 0.8"/>
      </g>
     </g>
     <g id="text_8">
      <!-- Aug-22 -->
      <g transform="translate(816.3897 238.6175)scale(0.18 -0.18)">
       <defs>
        <path id="DejaVuSerif-67" d="M 3359 2988 
L 3359 72 
Q 3359 -644 2965 -1033 
Q 2572 -1422 1844 -1422 
Q 1516 -1422 1216 -1362 
Q 916 -1303 641 -1184 
L 641 -488 
L 941 -488 
Q 997 -813 1206 -963 
Q 1416 -1113 1806 -1113 
Q 2313 -1113 2548 -827 
Q 2784 -541 2784 72 
L 2784 519 
Q 2616 206 2355 57 
Q 2094 -91 1709 -91 
Q 1097 -91 708 395 
Q 319 881 319 1663 
Q 319 2444 706 2928 
Q 1094 3413 1709 3413 
Q 2094 3413 2355 3264 
Q 2616 3116 2784 2803 
L 2784 3322 
L 3909 3322 
L 3909 2988 
L 3359 2988 
z
M 2784 1825 
Q 2784 2422 2554 2737 
Q 2325 3053 1888 3053 
Q 1444 3053 1217 2703 
Q 991 2353 991 1663 
Q 991 975 1217 622 
Q 1444 269 1888 269 
Q 2325 269 2554 583 
Q 2784 897 2784 1497 
L 2784 1825 
z
" transform="scale(0.015625)"/>
       </defs>
       <use xlink:href="#DejaVuSerif-41"/>
       <use xlink:href="#DejaVuSerif-75" x="72.216797"/>
       <use xlink:href="#DejaVuSerif-67" x="136.621094"/>
       <use xlink:href="#DejaVuSerif-2d" x="200.634766"/>
       <use xlink:href="#DejaVuSerif-32" x="234.423828"/>
       <use xlink:href="#DejaVuSerif-32" x="298.046875"/>
      </g>
     </g>
    </g>
    <g id="xtick_9">
     <g id="line2d_9">
      <g>
       <use xlink:href="#m1edde15a84" x="967.421027" y="221.69625" style="stroke: #000000; stroke-width: 0.8"/>
      </g>
     </g>
     <g id="text_9">
      <!-- Sep-22 -->
      <g transform="translate(935.673527 238.873437)scale(0.18 -0.18)">
       <defs>
        <path id="DejaVuSerif-53" d="M 594 225 
L 594 1288 
L 953 1284 
Q 969 753 1261 498 
Q 1553 244 2150 244 
Q 2706 244 2998 464 
Q 3291 684 3291 1106 
Q 3291 1444 3114 1625 
Q 2938 1806 2369 1978 
L 1753 2163 
Q 1084 2366 811 2669 
Q 538 2972 538 3500 
Q 538 4094 959 4422 
Q 1381 4750 2144 4750 
Q 2469 4750 2856 4679 
Q 3244 4609 3681 4475 
L 3681 3481 
L 3328 3481 
Q 3275 3975 2998 4195 
Q 2722 4416 2156 4416 
Q 1663 4416 1405 4214 
Q 1147 4013 1147 3628 
Q 1147 3294 1340 3103 
Q 1534 2913 2163 2725 
L 2741 2553 
Q 3375 2363 3645 2067 
Q 3916 1772 3916 1275 
Q 3916 597 3481 253 
Q 3047 -91 2188 -91 
Q 1803 -91 1404 -12 
Q 1006 66 594 225 
z
" transform="scale(0.015625)"/>
       </defs>
       <use xlink:href="#DejaVuSerif-53"/>
       <use xlink:href="#DejaVuSerif-65" x="68.505859"/>
       <use xlink:href="#DejaVuSerif-70" x="127.685547"/>
       <use xlink:href="#DejaVuSerif-2d" x="191.699219"/>
       <use xlink:href="#DejaVuSerif-32" x="225.488281"/>
       <use xlink:href="#DejaVuSerif-32" x="289.111328"/>
      </g>
     </g>
    </g>
    <g id="xtick_10">
     <g id="line2d_10">
      <g>
       <use xlink:href="#m1edde15a84" x="1082.078562" y="221.69625" style="stroke: #000000; stroke-width: 0.8"/>
      </g>
     </g>
     <g id="text_10">
      <!-- Oct-22 -->
      <g transform="translate(1051.548874 238.873437)scale(0.18 -0.18)">
       <defs>
        <path id="DejaVuSerif-4f" d="M 2625 244 
Q 3391 244 3781 770 
Q 4172 1297 4172 2328 
Q 4172 3363 3781 3889 
Q 3391 4416 2625 4416 
Q 1856 4416 1465 3889 
Q 1075 3363 1075 2328 
Q 1075 1297 1465 770 
Q 1856 244 2625 244 
z
M 2625 -91 
Q 2150 -91 1751 65 
Q 1353 222 1050 525 
Q 700 875 529 1319 
Q 359 1763 359 2328 
Q 359 2894 529 3339 
Q 700 3784 1050 4134 
Q 1356 4441 1750 4595 
Q 2144 4750 2625 4750 
Q 3641 4750 4266 4084 
Q 4891 3419 4891 2328 
Q 4891 1769 4719 1320 
Q 4547 872 4197 525 
Q 3891 219 3497 64 
Q 3103 -91 2625 -91 
z
" transform="scale(0.015625)"/>
        <path id="DejaVuSerif-63" d="M 3291 997 
Q 3169 466 2822 187 
Q 2475 -91 1925 -91 
Q 1200 -91 759 389 
Q 319 869 319 1663 
Q 319 2459 759 2936 
Q 1200 3413 1925 3413 
Q 2241 3413 2553 3339 
Q 2866 3266 3181 3116 
L 3181 2266 
L 2847 2266 
Q 2781 2703 2561 2903 
Q 2341 3103 1931 3103 
Q 1466 3103 1228 2742 
Q 991 2381 991 1663 
Q 991 944 1227 581 
Q 1463 219 1931 219 
Q 2303 219 2525 412 
Q 2747 606 2828 997 
L 3291 997 
z
" transform="scale(0.015625)"/>
        <path id="DejaVuSerif-74" d="M 691 2988 
L 184 2988 
L 184 3322 
L 691 3322 
L 691 4353 
L 1269 4353 
L 1269 3322 
L 2350 3322 
L 2350 2988 
L 1269 2988 
L 1269 878 
Q 1269 456 1350 337 
Q 1431 219 1650 219 
Q 1875 219 1978 351 
Q 2081 484 2088 781 
L 2522 781 
Q 2497 328 2275 118 
Q 2053 -91 1600 -91 
Q 1103 -91 897 129 
Q 691 350 691 878 
L 691 2988 
z
" transform="scale(0.015625)"/>
       </defs>
       <use xlink:href="#DejaVuSerif-4f"/>
       <use xlink:href="#DejaVuSerif-63" x="81.982422"/>
       <use xlink:href="#DejaVuSerif-74" x="137.988281"/>
       <use xlink:href="#DejaVuSerif-2d" x="178.173828"/>
       <use xlink:href="#DejaVuSerif-32" x="211.962891"/>
       <use xlink:href="#DejaVuSerif-32" x="275.585938"/>
      </g>
     </g>
    </g>
    <g id="xtick_11">
     <g id="line2d_11">
      <g>
       <use xlink:href="#m1edde15a84" x="1200.558014" y="221.69625" style="stroke: #000000; stroke-width: 0.8"/>
      </g>
     </g>
     <g id="text_11">
      <!-- Nov-22 -->
      <g transform="translate(1167.685514 238.873437)scale(0.18 -0.18)">
       <defs>
        <path id="DejaVuSerif-4e" d="M 313 0 
L 313 331 
L 941 331 
L 941 4331 
L 313 4331 
L 313 4666 
L 1509 4666 
L 4306 984 
L 4306 4331 
L 3681 4331 
L 3681 4666 
L 5319 4666 
L 5319 4331 
L 4691 4331 
L 4691 -91 
L 4313 -91 
L 1325 3841 
L 1325 331 
L 1953 331 
L 1953 0 
L 313 0 
z
" transform="scale(0.015625)"/>
        <path id="DejaVuSerif-6f" d="M 1925 219 
Q 2388 219 2623 584 
Q 2859 950 2859 1663 
Q 2859 2375 2623 2739 
Q 2388 3103 1925 3103 
Q 1463 3103 1227 2739 
Q 991 2375 991 1663 
Q 991 950 1228 584 
Q 1466 219 1925 219 
z
M 1925 -91 
Q 1200 -91 759 389 
Q 319 869 319 1663 
Q 319 2456 758 2934 
Q 1197 3413 1925 3413 
Q 2653 3413 3092 2934 
Q 3531 2456 3531 1663 
Q 3531 869 3092 389 
Q 2653 -91 1925 -91 
z
" transform="scale(0.015625)"/>
        <path id="DejaVuSerif-76" d="M 1581 0 
L 359 2988 
L -19 2988 
L -19 3322 
L 1509 3322 
L 1509 2988 
L 978 2988 
L 1913 703 
L 2847 2988 
L 2350 2988 
L 2350 3322 
L 3597 3322 
L 3597 2988 
L 3225 2988 
L 2003 0 
L 1581 0 
z
" transform="scale(0.015625)"/>
       </defs>
       <use xlink:href="#DejaVuSerif-4e"/>
       <use xlink:href="#DejaVuSerif-6f" x="87.5"/>
       <use xlink:href="#DejaVuSerif-76" x="147.705078"/>
       <use xlink:href="#DejaVuSerif-2d" x="204.199219"/>
       <use xlink:href="#DejaVuSerif-32" x="237.988281"/>
       <use xlink:href="#DejaVuSerif-32" x="301.611328"/>
      </g>
     </g>
    </g>
    <g id="xtick_12">
     <g id="line2d_12">
      <g>
       <use xlink:href="#m1edde15a84" x="1315.215548" y="221.69625" style="stroke: #000000; stroke-width: 0.8"/>
      </g>
     </g>
     <g id="text_12">
      <!-- Dec-22 -->
      <g transform="translate(1283.138985 238.873437)scale(0.18 -0.18)">
       <defs>
        <path id="DejaVuSerif-44" d="M 1581 331 
L 2163 331 
Q 3072 331 3558 850 
Q 4044 1369 4044 2338 
Q 4044 3306 3559 3818 
Q 3075 4331 2163 4331 
L 1581 4331 
L 1581 331 
z
M 353 0 
L 353 331 
L 947 331 
L 947 4331 
L 353 4331 
L 353 4666 
L 2209 4666 
Q 3416 4666 4089 4050 
Q 4763 3434 4763 2338 
Q 4763 1238 4088 619 
Q 3413 0 2209 0 
L 353 0 
z
" transform="scale(0.015625)"/>
       </defs>
       <use xlink:href="#DejaVuSerif-44"/>
       <use xlink:href="#DejaVuSerif-65" x="80.175781"/>
       <use xlink:href="#DejaVuSerif-63" x="139.355469"/>
       <use xlink:href="#DejaVuSerif-2d" x="195.361328"/>
       <use xlink:href="#DejaVuSerif-32" x="229.150391"/>
       <use xlink:href="#DejaVuSerif-32" x="292.773438"/>
      </g>
     </g>
    </g>
    <g id="xtick_13">
     <g id="line2d_13">
      <g>
       <use xlink:href="#m1edde15a84" x="1433.695" y="221.69625" style="stroke: #000000; stroke-width: 0.8"/>
      </g>
     </g>
     <g id="text_13">
      <!-- Jan-23 -->
      <g transform="translate(1404.429531 238.873437)scale(0.18 -0.18)">
       <defs>
        <path id="DejaVuSerif-33" d="M 622 4469 
Q 988 4606 1323 4678 
Q 1659 4750 1953 4750 
Q 2638 4750 3022 4454 
Q 3406 4159 3406 3634 
Q 3406 3213 3140 2930 
Q 2875 2647 2388 2547 
Q 2963 2466 3280 2130 
Q 3597 1794 3597 1259 
Q 3597 606 3158 257 
Q 2719 -91 1894 -91 
Q 1528 -91 1179 -12 
Q 831 66 488 225 
L 488 1131 
L 838 1131 
Q 869 681 1141 450 
Q 1413 219 1906 219 
Q 2384 219 2661 495 
Q 2938 772 2938 1253 
Q 2938 1803 2653 2086 
Q 2369 2369 1819 2369 
L 1522 2369 
L 1522 2688 
L 1678 2688 
Q 2225 2688 2498 2914 
Q 2772 3141 2772 3597 
Q 2772 4006 2547 4223 
Q 2322 4441 1900 4441 
Q 1478 4441 1245 4241 
Q 1013 4041 972 3647 
L 622 3647 
L 622 4469 
z
" transform="scale(0.015625)"/>
       </defs>
       <use xlink:href="#DejaVuSerif-4a"/>
       <use xlink:href="#DejaVuSerif-61" x="40.087891"/>
       <use xlink:href="#DejaVuSerif-6e" x="99.707031"/>
       <use xlink:href="#DejaVuSerif-2d" x="164.111328"/>
       <use xlink:href="#DejaVuSerif-32" x="197.900391"/>
       <use xlink:href="#DejaVuSerif-33" x="261.523438"/>
      </g>
     </g>
    </g>
   </g>
   <g id="matplotlib.axis_2">
    <g id="ytick_1">
     <g id="line2d_14">
      <defs>
       <path id="mdce46586ad" d="M 0 0 
L 3.5 0 
" style="stroke: #000000; stroke-width: 0.8"/>
      </defs>
      <g>
       <use xlink:href="#mdce46586ad" x="38.695" y="221.69625" style="stroke: #000000; stroke-width: 0.8"/>
      </g>
     </g>
     <g id="text_14">
      <!-- 0 -->
      <g transform="translate(21.1975 230.054531)scale(0.22 -0.22)">
       <defs>
        <path id="DejaVuSerif-30" d="M 2034 219 
Q 2513 219 2750 744 
Q 2988 1269 2988 2328 
Q 2988 3391 2750 3916 
Q 2513 4441 2034 4441 
Q 1556 4441 1318 3916 
Q 1081 3391 1081 2328 
Q 1081 1269 1318 744 
Q 1556 219 2034 219 
z
M 2034 -91 
Q 1275 -91 848 546 
Q 422 1184 422 2328 
Q 422 3475 848 4112 
Q 1275 4750 2034 4750 
Q 2797 4750 3222 4112 
Q 3647 3475 3647 2328 
Q 3647 1184 3222 546 
Q 2797 -91 2034 -91 
z
" transform="scale(0.015625)"/>
       </defs>
       <use xlink:href="#DejaVuSerif-30"/>
      </g>
     </g>
    </g>
    <g id="ytick_2">
     <g id="line2d_15">
      <g>
       <use xlink:href="#mdce46586ad" x="38.695" y="174.13125" style="stroke: #000000; stroke-width: 0.8"/>
      </g>
     </g>
     <g id="text_15">
      <!-- 9 -->
      <g transform="translate(21.1975 182.489531)scale(0.22 -0.22)">
       <defs>
        <path id="DejaVuSerif-39" d="M 2994 2091 
Q 2784 1856 2512 1740 
Q 2241 1625 1900 1625 
Q 1206 1625 804 2044 
Q 403 2463 403 3188 
Q 403 3897 839 4323 
Q 1275 4750 2003 4750 
Q 2794 4750 3217 4161 
Q 3641 3572 3641 2478 
Q 3641 1253 3137 581 
Q 2634 -91 1722 -91 
Q 1475 -91 1203 -44 
Q 931 3 647 97 
L 647 872 
L 997 872 
Q 1038 556 1241 387 
Q 1444 219 1784 219 
Q 2391 219 2687 676 
Q 2984 1134 2994 2091 
z
M 1978 4441 
Q 1534 4441 1298 4117 
Q 1063 3794 1063 3188 
Q 1063 2581 1298 2256 
Q 1534 1931 1978 1931 
Q 2422 1931 2658 2245 
Q 2894 2559 2894 3150 
Q 2894 3772 2656 4106 
Q 2419 4441 1978 4441 
z
" transform="scale(0.015625)"/>
       </defs>
       <use xlink:href="#DejaVuSerif-39"/>
      </g>
     </g>
    </g>
    <g id="ytick_3">
     <g id="line2d_16">
      <g>
       <use xlink:href="#mdce46586ad" x="38.695" y="126.56625" style="stroke: #000000; stroke-width: 0.8"/>
      </g>
     </g>
     <g id="text_16">
      <!-- 18 -->
      <g transform="translate(7.2 134.924531)scale(0.22 -0.22)">
       <defs>
        <path id="DejaVuSerif-31" d="M 909 0 
L 909 331 
L 1722 331 
L 1722 4213 
L 781 3603 
L 781 4013 
L 1919 4750 
L 2350 4750 
L 2350 331 
L 3163 331 
L 3163 0 
L 909 0 
z
" transform="scale(0.015625)"/>
        <path id="DejaVuSerif-38" d="M 2981 1275 
Q 2981 1775 2732 2051 
Q 2484 2328 2034 2328 
Q 1584 2328 1336 2051 
Q 1088 1775 1088 1275 
Q 1088 772 1336 495 
Q 1584 219 2034 219 
Q 2484 219 2732 495 
Q 2981 772 2981 1275 
z
M 2853 3541 
Q 2853 3966 2637 4203 
Q 2422 4441 2034 4441 
Q 1650 4441 1433 4203 
Q 1216 3966 1216 3541 
Q 1216 3113 1433 2875 
Q 1650 2638 2034 2638 
Q 2422 2638 2637 2875 
Q 2853 3113 2853 3541 
z
M 2516 2484 
Q 3047 2413 3344 2092 
Q 3641 1772 3641 1275 
Q 3641 619 3225 264 
Q 2809 -91 2034 -91 
Q 1263 -91 845 264 
Q 428 619 428 1275 
Q 428 1772 725 2092 
Q 1022 2413 1556 2484 
Q 1084 2569 832 2842 
Q 581 3116 581 3541 
Q 581 4103 968 4426 
Q 1356 4750 2034 4750 
Q 2713 4750 3100 4426 
Q 3488 4103 3488 3541 
Q 3488 3116 3236 2842 
Q 2984 2569 2516 2484 
z
" transform="scale(0.015625)"/>
       </defs>
       <use xlink:href="#DejaVuSerif-31"/>
       <use xlink:href="#DejaVuSerif-38" x="63.623047"/>
      </g>
     </g>
    </g>
    <g id="ytick_4">
     <g id="line2d_17">
      <g>
       <use xlink:href="#mdce46586ad" x="38.695" y="79.00125" style="stroke: #000000; stroke-width: 0.8"/>
      </g>
     </g>
     <g id="text_17">
      <!-- 27 -->
      <g transform="translate(7.2 87.359531)scale(0.22 -0.22)">
       <defs>
        <path id="DejaVuSerif-37" d="M 3609 4347 
L 1784 0 
L 1319 0 
L 3059 4153 
L 903 4153 
L 903 3578 
L 538 3578 
L 538 4666 
L 3609 4666 
L 3609 4347 
z
" transform="scale(0.015625)"/>
       </defs>
       <use xlink:href="#DejaVuSerif-32"/>
       <use xlink:href="#DejaVuSerif-37" x="63.623047"/>
      </g>
     </g>
    </g>
    <g id="ytick_5">
     <g id="line2d_18">
      <g>
       <use xlink:href="#mdce46586ad" x="38.695" y="31.43625" style="stroke: #000000; stroke-width: 0.8"/>
      </g>
     </g>
     <g id="text_18">
      <!-- 36 -->
      <g transform="translate(7.2 39.794531)scale(0.22 -0.22)">
       <defs>
        <path id="DejaVuSerif-36" d="M 2094 219 
Q 2534 219 2771 542 
Q 3009 866 3009 1472 
Q 3009 2078 2771 2401 
Q 2534 2725 2094 2725 
Q 1647 2725 1412 2412 
Q 1178 2100 1178 1509 
Q 1178 888 1415 553 
Q 1653 219 2094 219 
z
M 1075 2569 
Q 1288 2803 1556 2918 
Q 1825 3034 2163 3034 
Q 2859 3034 3264 2615 
Q 3669 2197 3669 1472 
Q 3669 763 3233 336 
Q 2797 -91 2069 -91 
Q 1278 -91 853 498 
Q 428 1088 428 2181 
Q 428 3406 931 4078 
Q 1434 4750 2350 4750 
Q 2597 4750 2869 4703 
Q 3141 4656 3425 4563 
L 3425 3794 
L 3072 3794 
Q 3034 4109 2831 4275 
Q 2628 4441 2284 4441 
Q 1678 4441 1381 3981 
Q 1084 3522 1075 2569 
z
" transform="scale(0.015625)"/>
       </defs>
       <use xlink:href="#DejaVuSerif-33"/>
       <use xlink:href="#DejaVuSerif-36" x="63.623047"/>
      </g>
     </g>
    </g>
   </g>
   <g id="line2d_19">
    <path d="M -1 221.69625 
L 474.39363 221.69625 
L 478.215548 219.755721 
L 501.147055 219.649874 
L 527.900479 219.297051 
L 550.831986 219.085357 
L 619.626507 218.997151 
L 631.09226 218.961869 
L 642.558014 218.944228 
L 665.489521 218.803098 
L 692.242945 218.82074 
L 810.722397 218.714893 
L 829.831986 218.732534 
L 848.941575 218.714893 
L 860.407329 218.714893 
L 929.201849 218.626687 
L 952.133356 218.503199 
L 994.174452 218.397352 
L 1028.571712 218.344428 
L 1105.010068 218.238581 
L 1131.763493 218.22094 
L 1173.804589 218.309146 
L 1181.448425 218.326787 
L 1192.914178 218.273863 
L 1219.667603 218.309146 
L 1246.421027 218.291505 
L 1334.325137 218.185658 
L 1353.434726 218.168016 
L 1376.366233 218.273863 
L 1406.941575 218.37971 
L 1418.407329 218.538481 
L 1426.051164 218.591404 
L 1429.873082 221.69625 
L 1429.873082 221.69625 
" clip-path="url(#pa799e6549a)" style="fill: none; stroke: #00ffff; stroke-linecap: square"/>
   </g>
   <g id="line2d_20">
    <path d="M -1 221.69625 
L 474.39363 221.69625 
L 478.215548 198.826574 
L 485.859384 198.794254 
L 489.681301 198.042528 
L 497.325137 198.042528 
L 504.968973 197.708977 
L 524.078562 195.778872 
L 535.544315 194.709355 
L 539.366233 194.065833 
L 547.010068 194.065833 
L 550.831986 193.935708 
L 554.653904 193.935708 
L 558.475822 193.807172 
L 566.119658 193.789685 
L 573.763493 193.680208 
L 619.626507 193.663334 
L 623.448425 193.538534 
L 642.558014 193.522576 
L 646.379932 193.399914 
L 650.201849 193.082553 
L 711.352534 192.964088 
L 768.681301 192.924257 
L 772.503219 192.809019 
L 913.914178 192.773658 
L 917.736096 192.471907 
L 933.023767 192.362363 
L 978.886781 192.227479 
L 982.708699 191.937999 
L 994.174452 191.828352 
L 1078.256644 191.788012 
L 1181.448425 191.891657 
L 1185.270342 191.35099 
L 1265.530616 191.356063 
L 1273.174452 191.259614 
L 1311.39363 191.164454 
L 1319.037466 191.070574 
L 1361.078562 191.156791 
L 1368.722397 191.255089 
L 1380.188151 191.35099 
L 1387.831986 191.448186 
L 1391.653904 191.442858 
L 1395.475822 192.354353 
L 1414.585411 192.464289 
L 1418.407329 193.894615 
L 1422.229247 194.495867 
L 1426.051164 194.495867 
L 1429.873082 221.69625 
L 1429.873082 221.69625 
" clip-path="url(#pa799e6549a)" style="fill: none; stroke: #00ff00; stroke-linecap: square"/>
   </g>
   <g id="line2d_21">
    <path d="M -1 219.652625 
L 0.475822 221.69625 
L 4.29774 221.69625 
L 11.941575 211.111549 
L 15.763493 221.69625 
L 19.585411 216.4039 
L 23.407329 216.4039 
L 27.229247 211.111549 
L 31.051164 221.69625 
L 34.873082 216.4039 
L 38.695 216.4039 
L 42.516918 221.69625 
L 46.338836 216.4039 
L 50.160753 221.69625 
L 53.982671 216.4039 
L 57.804589 221.69625 
L 84.558014 221.69625 
L 88.379932 216.4039 
L 92.201849 221.69625 
L 111.311438 221.69625 
L 115.133356 216.4039 
L 118.955274 221.69625 
L 126.59911 221.69625 
L 130.421027 216.4039 
L 134.242945 216.4039 
L 138.064863 221.69625 
L 141.886781 221.69625 
L 145.708699 216.4039 
L 149.530616 221.69625 
L 153.352534 216.4039 
L 157.174452 221.69625 
L 164.818288 221.69625 
L 168.640205 216.4039 
L 172.462123 221.69625 
L 203.037466 221.69625 
L 206.859384 211.111549 
L 210.681301 221.69625 
L 214.503219 211.111549 
L 222.147055 221.69625 
L 225.968973 211.111549 
L 229.79089 221.69625 
L 233.612808 211.111549 
L 241.256644 221.69625 
L 245.078562 195.234498 
L 248.900479 221.69625 
L 252.722397 216.4039 
L 256.544315 221.69625 
L 264.188151 211.111549 
L 268.010068 189.942147 
L 271.831986 200.526848 
L 275.653904 216.4039 
L 279.475822 221.69625 
L 283.29774 221.69625 
L 287.119658 216.4039 
L 290.941575 216.4039 
L 294.763493 205.819199 
L 298.585411 221.69625 
L 302.407329 221.69625 
L 306.229247 216.4039 
L 313.873082 216.4039 
L 317.695 221.69625 
L 325.338836 221.69625 
L 329.160753 211.111549 
L 336.804589 221.69625 
L 340.626507 205.819199 
L 344.448425 200.526848 
L 348.270342 221.69625 
L 355.914178 211.111549 
L 359.736096 216.4039 
L 363.558014 211.111549 
L 367.379932 221.69625 
L 371.201849 216.4039 
L 375.023767 216.4039 
L 378.845685 221.69625 
L 382.667603 216.4039 
L 394.133356 216.4039 
L 397.955274 221.69625 
L 401.777192 205.819199 
L 405.59911 216.4039 
L 409.421027 221.69625 
L 413.242945 221.69625 
L 417.064863 216.4039 
L 420.886781 221.69625 
L 428.530616 221.69625 
L 432.352534 216.4039 
L 436.174452 221.69625 
L 447.640205 221.69625 
L 451.462123 216.4039 
L 459.105959 216.4039 
L 462.927877 221.69625 
L 474.39363 221.69625 
L 478.215548 216.4039 
L 482.037466 216.4039 
L 485.859384 200.526848 
L 489.681301 221.69625 
L 493.503219 221.69625 
L 497.325137 211.111549 
L 501.147055 174.065096 
L 504.968973 205.819199 
L 508.79089 205.819199 
L 512.612808 179.357446 
L 516.434726 174.065096 
L 520.256644 205.819199 
L 524.078562 184.649797 
L 527.900479 110.55689 
L 531.722397 195.234498 
L 535.544315 200.526848 
L 539.366233 221.69625 
L 543.188151 221.69625 
L 547.010068 211.111549 
L 550.831986 221.69625 
L 554.653904 211.111549 
L 558.475822 221.69625 
L 566.119658 211.111549 
L 569.941575 221.69625 
L 577.585411 221.69625 
L 581.407329 216.4039 
L 585.229247 221.69625 
L 615.804589 221.69625 
L 619.626507 211.111549 
L 623.448425 221.69625 
L 627.270342 221.69625 
L 634.914178 211.111549 
L 638.736096 221.69625 
L 642.558014 211.111549 
L 646.379932 205.819199 
L 650.201849 216.4039 
L 654.023767 221.69625 
L 657.845685 211.111549 
L 661.667603 221.69625 
L 680.777192 221.69625 
L 684.59911 216.4039 
L 688.421027 216.4039 
L 692.242945 221.69625 
L 711.352534 221.69625 
L 715.174452 216.4039 
L 718.99637 221.69625 
L 722.818288 221.69625 
L 726.640205 216.4039 
L 730.462123 216.4039 
L 734.284041 221.69625 
L 745.749795 221.69625 
L 749.571712 216.4039 
L 753.39363 221.69625 
L 761.037466 221.69625 
L 768.681301 211.111549 
L 772.503219 221.69625 
L 783.968973 221.69625 
L 787.79089 216.4039 
L 791.612808 221.69625 
L 799.256644 221.69625 
L 803.078562 216.4039 
L 810.722397 216.4039 
L 814.544315 221.69625 
L 829.831986 221.69625 
L 833.653904 216.4039 
L 837.475822 221.69625 
L 841.29774 216.4039 
L 845.119658 221.69625 
L 848.941575 211.111549 
L 852.763493 221.69625 
L 875.695 221.69625 
L 879.516918 216.4039 
L 883.338836 221.69625 
L 902.448425 221.69625 
L 906.270342 211.111549 
L 910.09226 221.69625 
L 913.914178 205.819199 
L 917.736096 221.69625 
L 925.379932 221.69625 
L 929.201849 211.111549 
L 933.023767 216.4039 
L 936.845685 189.942147 
L 940.667603 211.111549 
L 948.311438 221.69625 
L 955.955274 221.69625 
L 959.777192 110.55689 
L 963.59911 41.756333 
L 967.421027 158.188044 
L 971.242945 179.357446 
L 975.064863 163.480395 
L 978.886781 205.819199 
L 982.708699 221.69625 
L 986.530616 211.111549 
L 990.352534 216.4039 
L 994.174452 216.4039 
L 997.99637 221.69625 
L 1001.818288 221.69625 
L 1005.640205 216.4039 
L 1009.462123 221.69625 
L 1013.284041 221.69625 
L 1017.105959 216.4039 
L 1020.927877 216.4039 
L 1024.749795 221.69625 
L 1028.571712 221.69625 
L 1032.39363 216.4039 
L 1036.215548 221.69625 
L 1040.037466 221.69625 
L 1043.859384 216.4039 
L 1047.681301 221.69625 
L 1051.503219 216.4039 
L 1055.325137 221.69625 
L 1066.79089 221.69625 
L 1070.612808 216.4039 
L 1074.434726 216.4039 
L 1078.256644 221.69625 
L 1089.722397 221.69625 
L 1097.366233 211.111549 
L 1101.188151 221.69625 
L 1105.010068 216.4039 
L 1108.831986 221.69625 
L 1124.119658 221.69625 
L 1127.941575 216.4039 
L 1131.763493 221.69625 
L 1154.695 221.69625 
L 1158.516918 216.4039 
L 1162.338836 221.69625 
L 1173.804589 221.69625 
L 1177.626507 216.4039 
L 1181.448425 200.526848 
L 1185.270342 221.69625 
L 1189.09226 216.4039 
L 1192.914178 221.69625 
L 1215.845685 221.69625 
L 1219.667603 216.4039 
L 1223.489521 221.69625 
L 1234.955274 221.69625 
L 1238.777192 216.4039 
L 1242.59911 221.69625 
L 1246.421027 221.69625 
L 1250.242945 216.4039 
L 1254.064863 221.69625 
L 1261.708699 221.69625 
L 1265.530616 211.111549 
L 1269.352534 221.69625 
L 1273.174452 216.4039 
L 1276.99637 221.69625 
L 1280.818288 216.4039 
L 1284.640205 221.69625 
L 1292.284041 211.111549 
L 1299.927877 221.69625 
L 1307.571712 221.69625 
L 1311.39363 211.111549 
L 1319.037466 221.69625 
L 1330.503219 221.69625 
L 1334.325137 216.4039 
L 1338.147055 221.69625 
L 1353.434726 221.69625 
L 1357.256644 216.4039 
L 1361.078562 221.69625 
L 1380.188151 221.69625 
L 1384.010068 216.4039 
L 1387.831986 216.4039 
L 1391.653904 221.69625 
L 1395.475822 221.69625 
L 1399.29774 216.4039 
L 1403.119658 221.69625 
L 1414.585411 221.69625 
L 1418.407329 216.4039 
L 1422.229247 216.4039 
L 1426.051164 205.819199 
L 1429.873082 221.69625 
L 1429.873082 221.69625 
" clip-path="url(#pa799e6549a)" style="fill: none; stroke: #000000; stroke-linecap: square"/>
   </g>
   <g id="patch_3">
    <path d="M 38.695 221.69625 
L 38.695 31.43625 
" style="fill: none; stroke: #000000; stroke-width: 0.8; stroke-linejoin: miter; stroke-linecap: square"/>
   </g>
   <g id="patch_4">
    <path d="M 1433.695 221.69625 
L 1433.695 31.43625 
" style="fill: none; stroke: #000000; stroke-width: 0.8; stroke-linejoin: miter; stroke-linecap: square"/>
   </g>
   <g id="patch_5">
    <path d="M 38.695 221.69625 
L 1433.695 221.69625 
" style="fill: none; stroke: #000000; stroke-width: 0.8; stroke-linejoin: miter; stroke-linecap: square"/>
   </g>
   <g id="patch_6">
    <path d="M 38.695 31.43625 
L 1433.695 31.43625 
" style="fill: none; stroke: #000000; stroke-width: 0.8; stroke-linejoin: miter; stroke-linecap: square"/>
   </g>
   <g id="text_19">
    <!-- Peak Detection - Topic 3 -->
    <g transform="translate(588.66625 25.43625)scale(0.24 -0.24)">
     <defs>
      <path id="DejaVuSerif-50" d="M 1581 2375 
L 2406 2375 
Q 2872 2375 3115 2626 
Q 3359 2878 3359 3353 
Q 3359 3831 3115 4081 
Q 2872 4331 2406 4331 
L 1581 4331 
L 1581 2375 
z
M 353 0 
L 353 331 
L 947 331 
L 947 4331 
L 353 4331 
L 353 4666 
L 2559 4666 
Q 3259 4666 3668 4311 
Q 4078 3956 4078 3353 
Q 4078 2753 3668 2397 
Q 3259 2041 2559 2041 
L 1581 2041 
L 1581 331 
L 2303 331 
L 2303 0 
L 353 0 
z
" transform="scale(0.015625)"/>
      <path id="DejaVuSerif-6b" d="M 1831 0 
L 219 0 
L 219 331 
L 738 331 
L 738 4531 
L 184 4531 
L 184 4863 
L 1313 4863 
L 1313 1697 
L 2713 2988 
L 2234 2988 
L 2234 3322 
L 3738 3322 
L 3738 2988 
L 3169 2988 
L 2181 2075 
L 3444 331 
L 3922 331 
L 3922 0 
L 2284 0 
L 2284 331 
L 2759 331 
L 1766 1697 
L 1313 1275 
L 1313 331 
L 1831 331 
L 1831 0 
z
" transform="scale(0.015625)"/>
      <path id="DejaVuSerif-20" transform="scale(0.015625)"/>
      <path id="DejaVuSerif-69" d="M 622 4353 
Q 622 4497 726 4603 
Q 831 4709 978 4709 
Q 1122 4709 1226 4603 
Q 1331 4497 1331 4353 
Q 1331 4206 1228 4103 
Q 1125 4000 978 4000 
Q 831 4000 726 4103 
Q 622 4206 622 4353 
z
M 1356 331 
L 1900 331 
L 1900 0 
L 231 0 
L 231 331 
L 781 331 
L 781 2988 
L 231 2988 
L 231 3322 
L 1356 3322 
L 1356 331 
z
" transform="scale(0.015625)"/>
      <path id="DejaVuSerif-54" d="M 1222 0 
L 1222 331 
L 1819 331 
L 1819 4294 
L 447 4294 
L 447 3566 
L 63 3566 
L 63 4666 
L 4206 4666 
L 4206 3566 
L 3822 3566 
L 3822 4294 
L 2450 4294 
L 2450 331 
L 3047 331 
L 3047 0 
L 1222 0 
z
" transform="scale(0.015625)"/>
     </defs>
     <use xlink:href="#DejaVuSerif-50"/>
     <use xlink:href="#DejaVuSerif-65" x="62.785156"/>
     <use xlink:href="#DejaVuSerif-61" x="121.964844"/>
     <use xlink:href="#DejaVuSerif-6b" x="181.583984"/>
     <use xlink:href="#DejaVuSerif-20" x="242.179688"/>
     <use xlink:href="#DejaVuSerif-44" x="273.966797"/>
     <use xlink:href="#DejaVuSerif-65" x="354.142578"/>
     <use xlink:href="#DejaVuSerif-74" x="413.322266"/>
     <use xlink:href="#DejaVuSerif-65" x="453.507812"/>
     <use xlink:href="#DejaVuSerif-63" x="512.6875"/>
     <use xlink:href="#DejaVuSerif-74" x="568.693359"/>
     <use xlink:href="#DejaVuSerif-69" x="608.878906"/>
     <use xlink:href="#DejaVuSerif-6f" x="640.861328"/>
     <use xlink:href="#DejaVuSerif-6e" x="701.066406"/>
     <use xlink:href="#DejaVuSerif-20" x="765.470703"/>
     <use xlink:href="#DejaVuSerif-2d" x="797.257812"/>
     <use xlink:href="#DejaVuSerif-20" x="831.046875"/>
     <use xlink:href="#DejaVuSerif-54" x="862.833984"/>
     <use xlink:href="#DejaVuSerif-6f" x="921.783203"/>
     <use xlink:href="#DejaVuSerif-70" x="981.988281"/>
     <use xlink:href="#DejaVuSerif-69" x="1046.001953"/>
     <use xlink:href="#DejaVuSerif-63" x="1077.984375"/>
     <use xlink:href="#DejaVuSerif-20" x="1133.990234"/>
     <use xlink:href="#DejaVuSerif-33" x="1165.777344"/>
    </g>
   </g>
  </g>
 </g>
 <defs>
  <clipPath id="pa799e6549a">
   <rect x="38.695" y="31.43625" width="1395" height="190.26"/>
  </clipPath>
 </defs>
</svg>
