<?xml version="1.0" encoding="utf-8" standalone="no"?>
<!DOCTYPE svg PUBLIC "-//W3C//DTD SVG 1.1//EN"
  "http://www.w3.org/Graphics/SVG/1.1/DTD/svg11.dtd">
<svg xmlns:xlink="http://www.w3.org/1999/xlink" width="1429.4425pt" height="182.259531pt" viewBox="0 0 1429.4425 182.259531" xmlns="http://www.w3.org/2000/svg" version="1.1">
 <metadata>
  <rdf:RDF xmlns:dc="http://purl.org/dc/elements/1.1/" xmlns:cc="http://creativecommons.org/ns#" xmlns:rdf="http://www.w3.org/1999/02/22-rdf-syntax-ns#">
   <cc:Work>
    <dc:type rdf:resource="http://purl.org/dc/dcmitype/StillImage"/>
    <dc:date>2022-12-28T18:00:33.534810</dc:date>
    <dc:format>image/svg+xml</dc:format>
    <dc:creator>
     <cc:Agent>
      <dc:title>Matplotlib v3.5.2, https://matplotlib.org/</dc:title>
     </cc:Agent>
    </dc:creator>
   </cc:Work>
  </rdf:RDF>
 </metadata>
 <defs>
  <style type="text/css">*{stroke-linejoin: round; stroke-linecap: butt}</style>
 </defs>
 <g id="figure_1">
  <g id="patch_1">
   <path d="M 0 182.259531 
L 1429.4425 182.259531 
L 1429.4425 0 
L 0 0 
L 0 182.259531 
z
" style="fill: none"/>
  </g>
  <g id="axes_1">
   <g id="patch_2">
    <path d="M 27.2425 158.977969 
L 1422.2425 158.977969 
L 1422.2425 23.077969 
L 27.2425 23.077969 
z
" style="fill: #ffffff"/>
   </g>
   <g id="matplotlib.axis_1">
    <g id="xtick_1">
     <g id="line2d_1">
      <defs>
       <path id="m93d1e8a191" d="M 0 0 
L 0 -3.5 
" style="stroke: #000000; stroke-width: 0.8"/>
      </defs>
      <g>
       <use xlink:href="#m93d1e8a191" x="27.2425" y="158.977969" style="stroke: #000000; stroke-width: 0.8"/>
      </g>
     </g>
     <g id="text_1">
      <!-- Nov-21 -->
      <g transform="translate(27.2425 172.355938)scale(0.13 -0.13)">
       <defs>
        <path id="DejaVuSerif-4e" d="M 313 0 
L 313 331 
L 941 331 
L 941 4331 
L 313 4331 
L 313 4666 
L 1509 4666 
L 4306 984 
L 4306 4331 
L 3681 4331 
L 3681 4666 
L 5319 4666 
L 5319 4331 
L 4691 4331 
L 4691 -91 
L 4313 -91 
L 1325 3841 
L 1325 331 
L 1953 331 
L 1953 0 
L 313 0 
z
" transform="scale(0.015625)"/>
        <path id="DejaVuSerif-6f" d="M 1925 219 
Q 2388 219 2623 584 
Q 2859 950 2859 1663 
Q 2859 2375 2623 2739 
Q 2388 3103 1925 3103 
Q 1463 3103 1227 2739 
Q 991 2375 991 1663 
Q 991 950 1228 584 
Q 1466 219 1925 219 
z
M 1925 -91 
Q 1200 -91 759 389 
Q 319 869 319 1663 
Q 319 2456 758 2934 
Q 1197 3413 1925 3413 
Q 2653 3413 3092 2934 
Q 3531 2456 3531 1663 
Q 3531 869 3092 389 
Q 2653 -91 1925 -91 
z
" transform="scale(0.015625)"/>
        <path id="DejaVuSerif-76" d="M 1581 0 
L 359 2988 
L -19 2988 
L -19 3322 
L 1509 3322 
L 1509 2988 
L 978 2988 
L 1913 703 
L 2847 2988 
L 2350 2988 
L 2350 3322 
L 3597 3322 
L 3597 2988 
L 3225 2988 
L 2003 0 
L 1581 0 
z
" transform="scale(0.015625)"/>
        <path id="DejaVuSerif-2d" d="M 281 1959 
L 1881 1959 
L 1881 1472 
L 281 1472 
L 281 1959 
z
" transform="scale(0.015625)"/>
        <path id="DejaVuSerif-32" d="M 819 3553 
L 469 3553 
L 469 4384 
Q 803 4563 1142 4656 
Q 1481 4750 1806 4750 
Q 2534 4750 2956 4397 
Q 3378 4044 3378 3438 
Q 3378 2753 2422 1800 
Q 2347 1728 2309 1691 
L 1131 513 
L 3078 513 
L 3078 1088 
L 3444 1088 
L 3444 0 
L 434 0 
L 434 341 
L 1850 1753 
Q 2319 2222 2519 2614 
Q 2719 3006 2719 3438 
Q 2719 3909 2473 4175 
Q 2228 4441 1797 4441 
Q 1350 4441 1106 4219 
Q 863 3997 819 3553 
z
" transform="scale(0.015625)"/>
        <path id="DejaVuSerif-31" d="M 909 0 
L 909 331 
L 1722 331 
L 1722 4213 
L 781 3603 
L 781 4013 
L 1919 4750 
L 2350 4750 
L 2350 331 
L 3163 331 
L 3163 0 
L 909 0 
z
" transform="scale(0.015625)"/>
       </defs>
       <use xlink:href="#DejaVuSerif-4e"/>
       <use xlink:href="#DejaVuSerif-6f" x="87.5"/>
       <use xlink:href="#DejaVuSerif-76" x="147.705078"/>
       <use xlink:href="#DejaVuSerif-2d" x="204.199219"/>
       <use xlink:href="#DejaVuSerif-32" x="237.988281"/>
       <use xlink:href="#DejaVuSerif-31" x="301.611328"/>
      </g>
     </g>
    </g>
    <g id="xtick_2">
     <g id="line2d_2">
      <g>
       <use xlink:href="#m93d1e8a191" x="126.413116" y="158.977969" style="stroke: #000000; stroke-width: 0.8"/>
      </g>
     </g>
     <g id="text_2">
      <!-- Dec-21 -->
      <g transform="translate(103.24671 172.355938)scale(0.13 -0.13)">
       <defs>
        <path id="DejaVuSerif-44" d="M 1581 331 
L 2163 331 
Q 3072 331 3558 850 
Q 4044 1369 4044 2338 
Q 4044 3306 3559 3818 
Q 3075 4331 2163 4331 
L 1581 4331 
L 1581 331 
z
M 353 0 
L 353 331 
L 947 331 
L 947 4331 
L 353 4331 
L 353 4666 
L 2209 4666 
Q 3416 4666 4089 4050 
Q 4763 3434 4763 2338 
Q 4763 1238 4088 619 
Q 3413 0 2209 0 
L 353 0 
z
" transform="scale(0.015625)"/>
        <path id="DejaVuSerif-65" d="M 3469 1600 
L 991 1600 
L 991 1575 
Q 991 903 1244 561 
Q 1497 219 1991 219 
Q 2369 219 2611 417 
Q 2853 616 2950 1006 
L 3413 1006 
Q 3275 459 2904 184 
Q 2534 -91 1931 -91 
Q 1203 -91 761 389 
Q 319 869 319 1663 
Q 319 2450 753 2931 
Q 1188 3413 1894 3413 
Q 2647 3413 3050 2948 
Q 3453 2484 3469 1600 
z
M 2791 1931 
Q 2772 2513 2545 2808 
Q 2319 3103 1894 3103 
Q 1497 3103 1269 2806 
Q 1041 2509 991 1931 
L 2791 1931 
z
" transform="scale(0.015625)"/>
        <path id="DejaVuSerif-63" d="M 3291 997 
Q 3169 466 2822 187 
Q 2475 -91 1925 -91 
Q 1200 -91 759 389 
Q 319 869 319 1663 
Q 319 2459 759 2936 
Q 1200 3413 1925 3413 
Q 2241 3413 2553 3339 
Q 2866 3266 3181 3116 
L 3181 2266 
L 2847 2266 
Q 2781 2703 2561 2903 
Q 2341 3103 1931 3103 
Q 1466 3103 1228 2742 
Q 991 2381 991 1663 
Q 991 944 1227 581 
Q 1463 219 1931 219 
Q 2303 219 2525 412 
Q 2747 606 2828 997 
L 3291 997 
z
" transform="scale(0.015625)"/>
       </defs>
       <use xlink:href="#DejaVuSerif-44"/>
       <use xlink:href="#DejaVuSerif-65" x="80.175781"/>
       <use xlink:href="#DejaVuSerif-63" x="139.355469"/>
       <use xlink:href="#DejaVuSerif-2d" x="195.361328"/>
       <use xlink:href="#DejaVuSerif-32" x="229.150391"/>
       <use xlink:href="#DejaVuSerif-31" x="292.773438"/>
      </g>
     </g>
    </g>
    <g id="xtick_3">
     <g id="line2d_3">
      <g>
       <use xlink:href="#m93d1e8a191" x="228.889419" y="158.977969" style="stroke: #000000; stroke-width: 0.8"/>
      </g>
     </g>
     <g id="text_3">
      <!-- Jan-22 -->
      <g transform="translate(207.753248 172.355938)scale(0.13 -0.13)">
       <defs>
        <path id="DejaVuSerif-4a" d="M -538 -1119 
L -538 -384 
L -181 -384 
Q -172 -694 -34 -845 
Q 103 -997 378 -997 
Q 750 -997 897 -762 
Q 1044 -528 1044 153 
L 1044 4331 
L 319 4331 
L 319 4666 
L 2272 4666 
L 2272 4331 
L 1678 4331 
L 1678 128 
Q 1678 -644 1368 -987 
Q 1059 -1331 372 -1331 
Q 150 -1331 -79 -1278 
Q -309 -1225 -538 -1119 
z
" transform="scale(0.015625)"/>
        <path id="DejaVuSerif-61" d="M 2547 1044 
L 2547 1747 
L 1806 1747 
Q 1378 1747 1168 1562 
Q 959 1378 959 997 
Q 959 650 1171 447 
Q 1384 244 1747 244 
Q 2106 244 2326 466 
Q 2547 688 2547 1044 
z
M 3122 2075 
L 3122 331 
L 3634 331 
L 3634 0 
L 2547 0 
L 2547 359 
Q 2356 128 2106 18 
Q 1856 -91 1522 -91 
Q 969 -91 644 203 
Q 319 497 319 997 
Q 319 1513 691 1797 
Q 1063 2081 1741 2081 
L 2547 2081 
L 2547 2309 
Q 2547 2688 2317 2895 
Q 2088 3103 1672 3103 
Q 1328 3103 1125 2947 
Q 922 2791 872 2484 
L 575 2484 
L 575 3156 
Q 875 3284 1158 3348 
Q 1441 3413 1709 3413 
Q 2400 3413 2761 3070 
Q 3122 2728 3122 2075 
z
" transform="scale(0.015625)"/>
        <path id="DejaVuSerif-6e" d="M 263 0 
L 263 331 
L 781 331 
L 781 2988 
L 231 2988 
L 231 3322 
L 1356 3322 
L 1356 2731 
Q 1516 3069 1770 3241 
Q 2025 3413 2363 3413 
Q 2913 3413 3172 3097 
Q 3431 2781 3431 2113 
L 3431 331 
L 3944 331 
L 3944 0 
L 2356 0 
L 2356 331 
L 2853 331 
L 2853 1931 
Q 2853 2541 2703 2767 
Q 2553 2994 2175 2994 
Q 1775 2994 1565 2701 
Q 1356 2409 1356 1850 
L 1356 331 
L 1856 331 
L 1856 0 
L 263 0 
z
" transform="scale(0.015625)"/>
       </defs>
       <use xlink:href="#DejaVuSerif-4a"/>
       <use xlink:href="#DejaVuSerif-61" x="40.087891"/>
       <use xlink:href="#DejaVuSerif-6e" x="99.707031"/>
       <use xlink:href="#DejaVuSerif-2d" x="164.111328"/>
       <use xlink:href="#DejaVuSerif-32" x="197.900391"/>
       <use xlink:href="#DejaVuSerif-32" x="261.523438"/>
      </g>
     </g>
    </g>
    <g id="xtick_4">
     <g id="line2d_4">
      <g>
       <use xlink:href="#m93d1e8a191" x="331.365723" y="158.977969" style="stroke: #000000; stroke-width: 0.8"/>
      </g>
     </g>
     <g id="text_4">
      <!-- Feb-22 -->
      <g transform="translate(308.736582 172.355938)scale(0.13 -0.13)">
       <defs>
        <path id="DejaVuSerif-46" d="M 353 0 
L 353 331 
L 947 331 
L 947 4331 
L 353 4331 
L 353 4666 
L 4172 4666 
L 4172 3628 
L 3788 3628 
L 3788 4281 
L 1581 4281 
L 1581 2719 
L 3175 2719 
L 3175 3303 
L 3559 3303 
L 3559 1753 
L 3175 1753 
L 3175 2338 
L 1581 2338 
L 1581 331 
L 2328 331 
L 2328 0 
L 353 0 
z
" transform="scale(0.015625)"/>
        <path id="DejaVuSerif-62" d="M 738 331 
L 738 4531 
L 184 4531 
L 184 4863 
L 1313 4863 
L 1313 2803 
Q 1481 3116 1742 3264 
Q 2003 3413 2388 3413 
Q 3000 3413 3387 2928 
Q 3775 2444 3775 1663 
Q 3775 881 3387 395 
Q 3000 -91 2388 -91 
Q 2003 -91 1742 57 
Q 1481 206 1313 519 
L 1313 0 
L 184 0 
L 184 331 
L 738 331 
z
M 1313 1497 
Q 1313 897 1542 583 
Q 1772 269 2209 269 
Q 2650 269 2876 622 
Q 3103 975 3103 1663 
Q 3103 2353 2876 2703 
Q 2650 3053 2209 3053 
Q 1772 3053 1542 2737 
Q 1313 2422 1313 1825 
L 1313 1497 
z
" transform="scale(0.015625)"/>
       </defs>
       <use xlink:href="#DejaVuSerif-46"/>
       <use xlink:href="#DejaVuSerif-65" x="63.884766"/>
       <use xlink:href="#DejaVuSerif-62" x="123.064453"/>
       <use xlink:href="#DejaVuSerif-2d" x="187.078125"/>
       <use xlink:href="#DejaVuSerif-32" x="220.867188"/>
       <use xlink:href="#DejaVuSerif-32" x="284.490234"/>
      </g>
     </g>
    </g>
    <g id="xtick_5">
     <g id="line2d_5">
      <g>
       <use xlink:href="#m93d1e8a191" x="423.924964" y="158.977969" style="stroke: #000000; stroke-width: 0.8"/>
      </g>
     </g>
     <g id="text_5">
      <!-- Mar-22 -->
      <g transform="translate(399.819105 172.355938)scale(0.13 -0.13)">
       <defs>
        <path id="DejaVuSerif-4d" d="M 353 0 
L 353 331 
L 947 331 
L 947 4331 
L 319 4331 
L 319 4666 
L 1678 4666 
L 3316 1344 
L 4953 4666 
L 6228 4666 
L 6228 4331 
L 5606 4331 
L 5606 331 
L 6203 331 
L 6203 0 
L 4378 0 
L 4378 331 
L 4972 331 
L 4972 3938 
L 3372 684 
L 2931 684 
L 1331 3938 
L 1331 331 
L 1925 331 
L 1925 0 
L 353 0 
z
" transform="scale(0.015625)"/>
        <path id="DejaVuSerif-72" d="M 3059 3328 
L 3059 2497 
L 2728 2497 
Q 2713 2744 2591 2866 
Q 2469 2988 2234 2988 
Q 1809 2988 1582 2694 
Q 1356 2400 1356 1850 
L 1356 331 
L 2022 331 
L 2022 0 
L 263 0 
L 263 331 
L 781 331 
L 781 2994 
L 231 2994 
L 231 3322 
L 1356 3322 
L 1356 2731 
Q 1525 3078 1790 3245 
Q 2056 3413 2438 3413 
Q 2578 3413 2733 3391 
Q 2888 3369 3059 3328 
z
" transform="scale(0.015625)"/>
       </defs>
       <use xlink:href="#DejaVuSerif-4d"/>
       <use xlink:href="#DejaVuSerif-61" x="102.392578"/>
       <use xlink:href="#DejaVuSerif-72" x="162.011719"/>
       <use xlink:href="#DejaVuSerif-2d" x="209.814453"/>
       <use xlink:href="#DejaVuSerif-32" x="243.603516"/>
       <use xlink:href="#DejaVuSerif-32" x="307.226562"/>
      </g>
     </g>
    </g>
    <g id="xtick_6">
     <g id="line2d_6">
      <g>
       <use xlink:href="#m93d1e8a191" x="526.401268" y="158.977969" style="stroke: #000000; stroke-width: 0.8"/>
      </g>
     </g>
     <g id="text_6">
      <!-- Apr-22 -->
      <g transform="translate(503.97119 172.355938)scale(0.13 -0.13)">
       <defs>
        <path id="DejaVuSerif-41" d="M 1281 1691 
L 2994 1691 
L 2138 3909 
L 1281 1691 
z
M -38 0 
L -38 331 
L 372 331 
L 2034 4666 
L 2559 4666 
L 4225 331 
L 4684 331 
L 4684 0 
L 2988 0 
L 2988 331 
L 3506 331 
L 3116 1356 
L 1153 1356 
L 763 331 
L 1275 331 
L 1275 0 
L -38 0 
z
" transform="scale(0.015625)"/>
        <path id="DejaVuSerif-70" d="M 1313 1825 
L 1313 1497 
Q 1313 897 1542 583 
Q 1772 269 2209 269 
Q 2650 269 2876 622 
Q 3103 975 3103 1663 
Q 3103 2353 2876 2703 
Q 2650 3053 2209 3053 
Q 1772 3053 1542 2737 
Q 1313 2422 1313 1825 
z
M 738 2988 
L 184 2988 
L 184 3322 
L 1313 3322 
L 1313 2803 
Q 1481 3116 1742 3264 
Q 2003 3413 2388 3413 
Q 3000 3413 3387 2928 
Q 3775 2444 3775 1663 
Q 3775 881 3387 395 
Q 3000 -91 2388 -91 
Q 2003 -91 1742 57 
Q 1481 206 1313 519 
L 1313 -997 
L 1856 -997 
L 1856 -1331 
L 184 -1331 
L 184 -997 
L 738 -997 
L 738 2988 
z
" transform="scale(0.015625)"/>
       </defs>
       <use xlink:href="#DejaVuSerif-41"/>
       <use xlink:href="#DejaVuSerif-70" x="72.216797"/>
       <use xlink:href="#DejaVuSerif-72" x="136.230469"/>
       <use xlink:href="#DejaVuSerif-2d" x="184.033203"/>
       <use xlink:href="#DejaVuSerif-32" x="217.822266"/>
       <use xlink:href="#DejaVuSerif-32" x="281.445312"/>
      </g>
     </g>
    </g>
    <g id="xtick_7">
     <g id="line2d_7">
      <g>
       <use xlink:href="#m93d1e8a191" x="625.571884" y="158.977969" style="stroke: #000000; stroke-width: 0.8"/>
      </g>
     </g>
     <g id="text_7">
      <!-- May-22 -->
      <g transform="translate(600.900321 172.171094)scale(0.13 -0.13)">
       <defs>
        <path id="DejaVuSerif-79" d="M 1381 -609 
L 1600 -56 
L 359 2988 
L -19 2988 
L -19 3322 
L 1509 3322 
L 1509 2988 
L 978 2988 
L 1913 703 
L 2847 2988 
L 2350 2988 
L 2350 3322 
L 3597 3322 
L 3597 2988 
L 3225 2988 
L 1703 -750 
Q 1547 -1138 1356 -1280 
Q 1166 -1422 819 -1422 
Q 672 -1422 517 -1397 
Q 363 -1372 206 -1325 
L 206 -691 
L 500 -691 
Q 519 -903 608 -995 
Q 697 -1088 884 -1088 
Q 1056 -1088 1161 -992 
Q 1266 -897 1381 -609 
z
" transform="scale(0.015625)"/>
       </defs>
       <use xlink:href="#DejaVuSerif-4d"/>
       <use xlink:href="#DejaVuSerif-61" x="102.392578"/>
       <use xlink:href="#DejaVuSerif-79" x="162.011719"/>
       <use xlink:href="#DejaVuSerif-2d" x="218.505859"/>
       <use xlink:href="#DejaVuSerif-32" x="252.294922"/>
       <use xlink:href="#DejaVuSerif-32" x="315.917969"/>
      </g>
     </g>
    </g>
    <g id="xtick_8">
     <g id="line2d_8">
      <g>
       <use xlink:href="#m93d1e8a191" x="728.048187" y="158.977969" style="stroke: #000000; stroke-width: 0.8"/>
      </g>
     </g>
     <g id="text_8">
      <!-- Jun-22 -->
      <g transform="translate(706.601234 172.355938)scale(0.13 -0.13)">
       <defs>
        <path id="DejaVuSerif-75" d="M 2266 3322 
L 3341 3322 
L 3341 331 
L 3884 331 
L 3884 0 
L 2766 0 
L 2766 588 
Q 2606 256 2353 82 
Q 2100 -91 1766 -91 
Q 1213 -91 952 223 
Q 691 538 691 1209 
L 691 2988 
L 172 2988 
L 172 3322 
L 1269 3322 
L 1269 1388 
Q 1269 781 1417 556 
Q 1566 331 1947 331 
Q 2347 331 2556 625 
Q 2766 919 2766 1478 
L 2766 2988 
L 2266 2988 
L 2266 3322 
z
" transform="scale(0.015625)"/>
       </defs>
       <use xlink:href="#DejaVuSerif-4a"/>
       <use xlink:href="#DejaVuSerif-75" x="40.087891"/>
       <use xlink:href="#DejaVuSerif-6e" x="104.492188"/>
       <use xlink:href="#DejaVuSerif-2d" x="168.896484"/>
       <use xlink:href="#DejaVuSerif-32" x="202.685547"/>
       <use xlink:href="#DejaVuSerif-32" x="266.308594"/>
      </g>
     </g>
    </g>
    <g id="xtick_9">
     <g id="line2d_9">
      <g>
       <use xlink:href="#m93d1e8a191" x="827.218803" y="158.977969" style="stroke: #000000; stroke-width: 0.8"/>
      </g>
     </g>
     <g id="text_9">
      <!-- Jul-22 -->
      <g transform="translate(807.879272 172.355938)scale(0.13 -0.13)">
       <defs>
        <path id="DejaVuSerif-6c" d="M 1313 331 
L 1856 331 
L 1856 0 
L 184 0 
L 184 331 
L 738 331 
L 738 4531 
L 184 4531 
L 184 4863 
L 1313 4863 
L 1313 331 
z
" transform="scale(0.015625)"/>
       </defs>
       <use xlink:href="#DejaVuSerif-4a"/>
       <use xlink:href="#DejaVuSerif-75" x="40.087891"/>
       <use xlink:href="#DejaVuSerif-6c" x="104.492188"/>
       <use xlink:href="#DejaVuSerif-2d" x="136.474609"/>
       <use xlink:href="#DejaVuSerif-32" x="170.263672"/>
       <use xlink:href="#DejaVuSerif-32" x="233.886719"/>
      </g>
     </g>
    </g>
    <g id="xtick_10">
     <g id="line2d_10">
      <g>
       <use xlink:href="#m93d1e8a191" x="929.695107" y="158.977969" style="stroke: #000000; stroke-width: 0.8"/>
      </g>
     </g>
     <g id="text_10">
      <!-- Aug-22 -->
      <g transform="translate(906.185419 172.171094)scale(0.13 -0.13)">
       <defs>
        <path id="DejaVuSerif-67" d="M 3359 2988 
L 3359 72 
Q 3359 -644 2965 -1033 
Q 2572 -1422 1844 -1422 
Q 1516 -1422 1216 -1362 
Q 916 -1303 641 -1184 
L 641 -488 
L 941 -488 
Q 997 -813 1206 -963 
Q 1416 -1113 1806 -1113 
Q 2313 -1113 2548 -827 
Q 2784 -541 2784 72 
L 2784 519 
Q 2616 206 2355 57 
Q 2094 -91 1709 -91 
Q 1097 -91 708 395 
Q 319 881 319 1663 
Q 319 2444 706 2928 
Q 1094 3413 1709 3413 
Q 2094 3413 2355 3264 
Q 2616 3116 2784 2803 
L 2784 3322 
L 3909 3322 
L 3909 2988 
L 3359 2988 
z
M 2784 1825 
Q 2784 2422 2554 2737 
Q 2325 3053 1888 3053 
Q 1444 3053 1217 2703 
Q 991 2353 991 1663 
Q 991 975 1217 622 
Q 1444 269 1888 269 
Q 2325 269 2554 583 
Q 2784 897 2784 1497 
L 2784 1825 
z
" transform="scale(0.015625)"/>
       </defs>
       <use xlink:href="#DejaVuSerif-41"/>
       <use xlink:href="#DejaVuSerif-75" x="72.216797"/>
       <use xlink:href="#DejaVuSerif-67" x="136.621094"/>
       <use xlink:href="#DejaVuSerif-2d" x="200.634766"/>
       <use xlink:href="#DejaVuSerif-32" x="234.423828"/>
       <use xlink:href="#DejaVuSerif-32" x="298.046875"/>
      </g>
     </g>
    </g>
    <g id="xtick_11">
     <g id="line2d_11">
      <g>
       <use xlink:href="#m93d1e8a191" x="1032.17141" y="158.977969" style="stroke: #000000; stroke-width: 0.8"/>
      </g>
     </g>
     <g id="text_11">
      <!-- Sep-22 -->
      <g transform="translate(1009.24266 172.355938)scale(0.13 -0.13)">
       <defs>
        <path id="DejaVuSerif-53" d="M 594 225 
L 594 1288 
L 953 1284 
Q 969 753 1261 498 
Q 1553 244 2150 244 
Q 2706 244 2998 464 
Q 3291 684 3291 1106 
Q 3291 1444 3114 1625 
Q 2938 1806 2369 1978 
L 1753 2163 
Q 1084 2366 811 2669 
Q 538 2972 538 3500 
Q 538 4094 959 4422 
Q 1381 4750 2144 4750 
Q 2469 4750 2856 4679 
Q 3244 4609 3681 4475 
L 3681 3481 
L 3328 3481 
Q 3275 3975 2998 4195 
Q 2722 4416 2156 4416 
Q 1663 4416 1405 4214 
Q 1147 4013 1147 3628 
Q 1147 3294 1340 3103 
Q 1534 2913 2163 2725 
L 2741 2553 
Q 3375 2363 3645 2067 
Q 3916 1772 3916 1275 
Q 3916 597 3481 253 
Q 3047 -91 2188 -91 
Q 1803 -91 1404 -12 
Q 1006 66 594 225 
z
" transform="scale(0.015625)"/>
       </defs>
       <use xlink:href="#DejaVuSerif-53"/>
       <use xlink:href="#DejaVuSerif-65" x="68.505859"/>
       <use xlink:href="#DejaVuSerif-70" x="127.685547"/>
       <use xlink:href="#DejaVuSerif-2d" x="191.699219"/>
       <use xlink:href="#DejaVuSerif-32" x="225.488281"/>
       <use xlink:href="#DejaVuSerif-32" x="289.111328"/>
      </g>
     </g>
    </g>
    <g id="xtick_12">
     <g id="line2d_12">
      <g>
       <use xlink:href="#m93d1e8a191" x="1131.342026" y="158.977969" style="stroke: #000000; stroke-width: 0.8"/>
      </g>
     </g>
     <g id="text_12">
      <!-- Oct-22 -->
      <g transform="translate(1109.292807 172.355938)scale(0.13 -0.13)">
       <defs>
        <path id="DejaVuSerif-4f" d="M 2625 244 
Q 3391 244 3781 770 
Q 4172 1297 4172 2328 
Q 4172 3363 3781 3889 
Q 3391 4416 2625 4416 
Q 1856 4416 1465 3889 
Q 1075 3363 1075 2328 
Q 1075 1297 1465 770 
Q 1856 244 2625 244 
z
M 2625 -91 
Q 2150 -91 1751 65 
Q 1353 222 1050 525 
Q 700 875 529 1319 
Q 359 1763 359 2328 
Q 359 2894 529 3339 
Q 700 3784 1050 4134 
Q 1356 4441 1750 4595 
Q 2144 4750 2625 4750 
Q 3641 4750 4266 4084 
Q 4891 3419 4891 2328 
Q 4891 1769 4719 1320 
Q 4547 872 4197 525 
Q 3891 219 3497 64 
Q 3103 -91 2625 -91 
z
" transform="scale(0.015625)"/>
        <path id="DejaVuSerif-74" d="M 691 2988 
L 184 2988 
L 184 3322 
L 691 3322 
L 691 4353 
L 1269 4353 
L 1269 3322 
L 2350 3322 
L 2350 2988 
L 1269 2988 
L 1269 878 
Q 1269 456 1350 337 
Q 1431 219 1650 219 
Q 1875 219 1978 351 
Q 2081 484 2088 781 
L 2522 781 
Q 2497 328 2275 118 
Q 2053 -91 1600 -91 
Q 1103 -91 897 129 
Q 691 350 691 878 
L 691 2988 
z
" transform="scale(0.015625)"/>
       </defs>
       <use xlink:href="#DejaVuSerif-4f"/>
       <use xlink:href="#DejaVuSerif-63" x="81.982422"/>
       <use xlink:href="#DejaVuSerif-74" x="137.988281"/>
       <use xlink:href="#DejaVuSerif-2d" x="178.173828"/>
       <use xlink:href="#DejaVuSerif-32" x="211.962891"/>
       <use xlink:href="#DejaVuSerif-32" x="275.585938"/>
      </g>
     </g>
    </g>
    <g id="xtick_13">
     <g id="line2d_13">
      <g>
       <use xlink:href="#m93d1e8a191" x="1233.818329" y="158.977969" style="stroke: #000000; stroke-width: 0.8"/>
      </g>
     </g>
     <g id="text_13">
      <!-- Nov-22 -->
      <g transform="translate(1210.077079 172.355938)scale(0.13 -0.13)">
       <use xlink:href="#DejaVuSerif-4e"/>
       <use xlink:href="#DejaVuSerif-6f" x="87.5"/>
       <use xlink:href="#DejaVuSerif-76" x="147.705078"/>
       <use xlink:href="#DejaVuSerif-2d" x="204.199219"/>
       <use xlink:href="#DejaVuSerif-32" x="237.988281"/>
       <use xlink:href="#DejaVuSerif-32" x="301.611328"/>
      </g>
     </g>
    </g>
    <g id="xtick_14">
     <g id="line2d_14">
      <g>
       <use xlink:href="#m93d1e8a191" x="1332.988945" y="158.977969" style="stroke: #000000; stroke-width: 0.8"/>
      </g>
     </g>
     <g id="text_14">
      <!-- Dec-22 -->
      <g transform="translate(1309.822539 172.355938)scale(0.13 -0.13)">
       <use xlink:href="#DejaVuSerif-44"/>
       <use xlink:href="#DejaVuSerif-65" x="80.175781"/>
       <use xlink:href="#DejaVuSerif-63" x="139.355469"/>
       <use xlink:href="#DejaVuSerif-2d" x="195.361328"/>
       <use xlink:href="#DejaVuSerif-32" x="229.150391"/>
       <use xlink:href="#DejaVuSerif-32" x="292.773438"/>
      </g>
     </g>
    </g>
   </g>
   <g id="matplotlib.axis_2">
    <g id="ytick_1">
     <g id="line2d_15">
      <defs>
       <path id="me7e51eed59" d="M 0 0 
L 3.5 0 
" style="stroke: #000000; stroke-width: 0.8"/>
      </defs>
      <g>
       <use xlink:href="#me7e51eed59" x="27.2425" y="158.977969" style="stroke: #000000; stroke-width: 0.8"/>
      </g>
     </g>
     <g id="text_15">
      <!-- 0 -->
      <g transform="translate(15.47125 163.916953)scale(0.13 -0.13)">
       <defs>
        <path id="DejaVuSerif-30" d="M 2034 219 
Q 2513 219 2750 744 
Q 2988 1269 2988 2328 
Q 2988 3391 2750 3916 
Q 2513 4441 2034 4441 
Q 1556 4441 1318 3916 
Q 1081 3391 1081 2328 
Q 1081 1269 1318 744 
Q 1556 219 2034 219 
z
M 2034 -91 
Q 1275 -91 848 546 
Q 422 1184 422 2328 
Q 422 3475 848 4112 
Q 1275 4750 2034 4750 
Q 2797 4750 3222 4112 
Q 3647 3475 3647 2328 
Q 3647 1184 3222 546 
Q 2797 -91 2034 -91 
z
" transform="scale(0.015625)"/>
       </defs>
       <use xlink:href="#DejaVuSerif-30"/>
      </g>
     </g>
    </g>
    <g id="ytick_2">
     <g id="line2d_16">
      <g>
       <use xlink:href="#me7e51eed59" x="27.2425" y="133.033423" style="stroke: #000000; stroke-width: 0.8"/>
      </g>
     </g>
     <g id="text_16">
      <!-- 11 -->
      <g transform="translate(7.2 137.972408)scale(0.13 -0.13)">
       <use xlink:href="#DejaVuSerif-31"/>
       <use xlink:href="#DejaVuSerif-31" x="63.623047"/>
      </g>
     </g>
    </g>
    <g id="ytick_3">
     <g id="line2d_17">
      <g>
       <use xlink:href="#me7e51eed59" x="27.2425" y="107.088878" style="stroke: #000000; stroke-width: 0.8"/>
      </g>
     </g>
     <g id="text_17">
      <!-- 26 -->
      <g transform="translate(7.2 112.027862)scale(0.13 -0.13)">
       <defs>
        <path id="DejaVuSerif-36" d="M 2094 219 
Q 2534 219 2771 542 
Q 3009 866 3009 1472 
Q 3009 2078 2771 2401 
Q 2534 2725 2094 2725 
Q 1647 2725 1412 2412 
Q 1178 2100 1178 1509 
Q 1178 888 1415 553 
Q 1653 219 2094 219 
z
M 1075 2569 
Q 1288 2803 1556 2918 
Q 1825 3034 2163 3034 
Q 2859 3034 3264 2615 
Q 3669 2197 3669 1472 
Q 3669 763 3233 336 
Q 2797 -91 2069 -91 
Q 1278 -91 853 498 
Q 428 1088 428 2181 
Q 428 3406 931 4078 
Q 1434 4750 2350 4750 
Q 2597 4750 2869 4703 
Q 3141 4656 3425 4563 
L 3425 3794 
L 3072 3794 
Q 3034 4109 2831 4275 
Q 2628 4441 2284 4441 
Q 1678 4441 1381 3981 
Q 1084 3522 1075 2569 
z
" transform="scale(0.015625)"/>
       </defs>
       <use xlink:href="#DejaVuSerif-32"/>
       <use xlink:href="#DejaVuSerif-36" x="63.623047"/>
      </g>
     </g>
    </g>
    <g id="ytick_4">
     <g id="line2d_18">
      <g>
       <use xlink:href="#me7e51eed59" x="27.2425" y="81.144332" style="stroke: #000000; stroke-width: 0.8"/>
      </g>
     </g>
     <g id="text_18">
      <!-- 41 -->
      <g transform="translate(7.2 86.083317)scale(0.13 -0.13)">
       <defs>
        <path id="DejaVuSerif-34" d="M 2234 1581 
L 2234 4063 
L 641 1581 
L 2234 1581 
z
M 3609 0 
L 1484 0 
L 1484 331 
L 2234 331 
L 2234 1247 
L 197 1247 
L 197 1588 
L 2241 4750 
L 2859 4750 
L 2859 1581 
L 3750 1581 
L 3750 1247 
L 2859 1247 
L 2859 331 
L 3609 331 
L 3609 0 
z
" transform="scale(0.015625)"/>
       </defs>
       <use xlink:href="#DejaVuSerif-34"/>
       <use xlink:href="#DejaVuSerif-31" x="63.623047"/>
      </g>
     </g>
    </g>
    <g id="ytick_5">
     <g id="line2d_19">
      <g>
       <use xlink:href="#me7e51eed59" x="27.2425" y="55.199787" style="stroke: #000000; stroke-width: 0.8"/>
      </g>
     </g>
     <g id="text_19">
      <!-- 56 -->
      <g transform="translate(7.2 60.138771)scale(0.13 -0.13)">
       <defs>
        <path id="DejaVuSerif-35" d="M 3219 4666 
L 3219 4153 
L 1081 4153 
L 1081 2816 
Q 1244 2928 1461 2984 
Q 1678 3041 1947 3041 
Q 2703 3041 3140 2622 
Q 3578 2203 3578 1478 
Q 3578 738 3136 323 
Q 2694 -91 1894 -91 
Q 1572 -91 1234 -12 
Q 897 66 544 225 
L 544 1131 
L 897 1131 
Q 925 688 1179 453 
Q 1434 219 1894 219 
Q 2388 219 2653 544 
Q 2919 869 2919 1478 
Q 2919 2084 2655 2407 
Q 2391 2731 1894 2731 
Q 1613 2731 1398 2631 
Q 1184 2531 1019 2322 
L 750 2322 
L 750 4666 
L 3219 4666 
z
" transform="scale(0.015625)"/>
       </defs>
       <use xlink:href="#DejaVuSerif-35"/>
       <use xlink:href="#DejaVuSerif-36" x="63.623047"/>
      </g>
     </g>
    </g>
    <g id="ytick_6">
     <g id="line2d_20">
      <g>
       <use xlink:href="#me7e51eed59" x="27.2425" y="29.255241" style="stroke: #000000; stroke-width: 0.8"/>
      </g>
     </g>
     <g id="text_20">
      <!-- 71 -->
      <g transform="translate(7.2 34.194226)scale(0.13 -0.13)">
       <defs>
        <path id="DejaVuSerif-37" d="M 3609 4347 
L 1784 0 
L 1319 0 
L 3059 4153 
L 903 4153 
L 903 3578 
L 538 3578 
L 538 4666 
L 3609 4666 
L 3609 4347 
z
" transform="scale(0.015625)"/>
       </defs>
       <use xlink:href="#DejaVuSerif-37"/>
       <use xlink:href="#DejaVuSerif-31" x="63.623047"/>
      </g>
     </g>
    </g>
   </g>
   <g id="line2d_21">
    <path d="M 23.936813 152.800696 
L 27.2425 149.320542 
L 30.548187 151.060619 
L 33.853874 151.060619 
L 37.159562 149.320542 
L 40.465249 152.800696 
L 47.076623 152.800696 
L 50.38231 145.840389 
L 53.687998 145.840389 
L 60.299372 152.800696 
L 63.605059 149.320542 
L 66.910746 152.800696 
L 70.216434 152.800696 
L 73.522121 149.320542 
L 76.827808 147.580466 
L 80.133495 147.580466 
L 83.439182 151.060619 
L 86.74487 152.800696 
L 90.050557 151.060619 
L 93.356244 152.800696 
L 106.578993 152.800696 
L 109.88468 149.320542 
L 113.190367 152.800696 
L 119.801742 152.800696 
L 126.413116 149.320542 
L 129.718803 151.060619 
L 139.635865 151.060619 
L 142.941552 152.800696 
L 149.552927 149.320542 
L 152.858614 149.320542 
L 156.164301 152.800696 
L 162.775675 152.800696 
L 166.081363 151.060619 
L 169.38705 152.800696 
L 172.692737 147.580466 
L 175.998424 151.060619 
L 179.304111 149.320542 
L 182.609799 152.800696 
L 185.915486 152.800696 
L 189.221173 149.320542 
L 192.52686 149.320542 
L 199.138235 152.800696 
L 202.443922 151.060619 
L 205.749609 152.800696 
L 215.666671 152.800696 
L 218.972358 151.060619 
L 222.278045 151.060619 
L 225.583732 149.320542 
L 228.889419 152.800696 
L 232.195107 152.800696 
L 235.500794 151.060619 
L 238.806481 151.060619 
L 242.112168 147.580466 
L 245.417855 151.060619 
L 252.02923 151.060619 
L 255.334917 152.800696 
L 258.640604 149.320542 
L 265.251979 149.320542 
L 268.557666 147.580466 
L 271.863353 147.580466 
L 275.16904 151.060619 
L 285.086102 151.060619 
L 288.391789 145.840389 
L 291.697476 137.140005 
L 295.003164 147.580466 
L 298.308851 151.060619 
L 301.614538 149.320542 
L 304.920225 145.840389 
L 308.225912 133.659851 
L 311.5316 142.360235 
L 314.837287 149.320542 
L 318.142974 144.100312 
L 321.448661 151.060619 
L 324.754348 151.060619 
L 328.060036 145.840389 
L 331.365723 149.320542 
L 334.67141 142.360235 
L 341.282784 149.320542 
L 344.588472 151.060619 
L 347.894159 149.320542 
L 351.199846 145.840389 
L 354.505533 151.060619 
L 357.81122 145.840389 
L 361.116908 149.320542 
L 364.422595 140.620158 
L 367.728282 140.620158 
L 371.033969 142.360235 
L 374.339656 133.659851 
L 377.645344 128.43962 
L 380.951031 142.360235 
L 384.256718 128.43962 
L 387.562405 137.140005 
L 390.868092 142.360235 
L 394.17378 131.919774 
L 397.479467 117.99916 
L 400.785154 119.739236 
L 404.090841 123.21939 
L 407.396528 46.65601 
L 410.702216 29.255241 
L 414.007903 81.457546 
L 417.31359 77.977393 
L 420.619277 37.955626 
L 423.924964 37.955626 
L 427.230652 76.237316 
L 430.536339 71.017085 
L 433.842026 62.316701 
L 437.147713 112.778929 
L 440.4534 100.598391 
L 443.759088 46.65601 
L 447.064775 53.616317 
L 450.370462 50.136163 
L 453.676149 62.316701 
L 456.981836 79.717469 
L 460.287524 123.21939 
L 463.593211 124.959467 
L 466.898898 86.677777 
L 470.204585 100.598391 
L 473.510273 86.677777 
L 476.81596 84.9377 
L 480.121647 95.378161 
L 483.427334 123.21939 
L 486.733021 128.43962 
L 490.038709 105.818622 
L 493.344396 114.519006 
L 496.650083 100.598391 
L 499.95577 105.818622 
L 503.261457 102.338468 
L 506.567145 140.620158 
L 509.872832 133.659851 
L 513.178519 121.479313 
L 516.484206 130.179697 
L 519.789893 119.739236 
L 523.095581 124.959467 
L 526.401268 131.919774 
L 533.012642 131.919774 
L 536.318329 116.259083 
L 539.624017 126.699544 
L 542.929704 116.259083 
L 546.235391 119.739236 
L 549.541078 126.699544 
L 552.846765 135.399928 
L 556.152453 128.43962 
L 559.45814 131.919774 
L 562.763827 124.959467 
L 566.069514 126.699544 
L 569.375201 124.959467 
L 572.680889 126.699544 
L 575.986576 137.140005 
L 579.292263 138.880081 
L 582.59795 133.659851 
L 585.903637 137.140005 
L 589.209325 133.659851 
L 592.515012 131.919774 
L 595.820699 124.959467 
L 599.126386 142.360235 
L 602.432073 145.840389 
L 605.737761 135.399928 
L 609.043448 135.399928 
L 612.349135 137.140005 
L 615.654822 130.179697 
L 618.960509 124.959467 
L 622.266197 144.100312 
L 625.571884 137.140005 
L 628.877571 131.919774 
L 632.183258 138.880081 
L 635.488945 131.919774 
L 638.794633 131.919774 
L 645.406007 142.360235 
L 648.711694 138.880081 
L 652.017382 131.919774 
L 655.323069 137.140005 
L 658.628756 137.140005 
L 661.934443 130.179697 
L 665.24013 135.399928 
L 668.545818 145.840389 
L 675.157192 138.880081 
L 678.462879 140.620158 
L 681.768566 135.399928 
L 685.074254 131.919774 
L 688.379941 137.140005 
L 691.685628 147.580466 
L 694.991315 147.580466 
L 698.297002 137.140005 
L 701.60269 138.880081 
L 704.908377 144.100312 
L 708.214064 145.840389 
L 711.519751 142.360235 
L 714.825438 147.580466 
L 718.131126 149.320542 
L 721.436813 144.100312 
L 724.7425 144.100312 
L 728.048187 142.360235 
L 731.353874 133.659851 
L 734.659562 138.880081 
L 737.965249 151.060619 
L 741.270936 144.100312 
L 744.576623 144.100312 
L 747.88231 145.840389 
L 751.187998 138.880081 
L 754.493685 144.100312 
L 757.799372 144.100312 
L 761.105059 152.800696 
L 764.410746 147.580466 
L 767.716434 144.100312 
L 771.022121 144.100312 
L 774.327808 137.140005 
L 777.633495 144.100312 
L 780.939182 144.100312 
L 784.24487 149.320542 
L 787.550557 145.840389 
L 790.856244 135.399928 
L 794.161931 135.399928 
L 797.467618 130.179697 
L 800.773306 145.840389 
L 804.078993 142.360235 
L 807.38468 145.840389 
L 810.690367 144.100312 
L 813.996055 135.399928 
L 817.301742 135.399928 
L 823.913116 138.880081 
L 827.218803 131.919774 
L 830.524491 149.320542 
L 833.830178 149.320542 
L 837.135865 138.880081 
L 840.441552 135.399928 
L 843.747239 142.360235 
L 847.052927 142.360235 
L 850.358614 140.620158 
L 853.664301 145.840389 
L 856.969988 149.320542 
L 860.275675 140.620158 
L 863.581363 151.060619 
L 866.88705 138.880081 
L 870.192737 142.360235 
L 873.498424 138.880081 
L 876.804111 147.580466 
L 880.109799 149.320542 
L 883.415486 140.620158 
L 886.721173 145.840389 
L 890.02686 145.840389 
L 893.332547 142.360235 
L 896.638235 142.360235 
L 899.943922 149.320542 
L 903.249609 147.580466 
L 909.860983 140.620158 
L 913.166671 138.880081 
L 919.778045 138.880081 
L 923.083732 149.320542 
L 926.389419 151.060619 
L 929.695107 147.580466 
L 933.000794 142.360235 
L 936.306481 142.360235 
L 939.612168 131.919774 
L 942.917855 144.100312 
L 946.223543 149.320542 
L 949.52923 149.320542 
L 952.834917 138.880081 
L 956.140604 149.320542 
L 959.446291 140.620158 
L 962.751979 138.880081 
L 966.057666 145.840389 
L 969.363353 151.060619 
L 972.66904 147.580466 
L 979.280415 144.100312 
L 982.586102 147.580466 
L 985.891789 149.320542 
L 989.197476 144.100312 
L 992.503164 151.060619 
L 995.808851 142.360235 
L 999.114538 145.840389 
L 1002.420225 145.840389 
L 1005.725912 131.919774 
L 1009.0316 142.360235 
L 1012.337287 137.140005 
L 1015.642974 149.320542 
L 1018.948661 149.320542 
L 1022.254348 145.840389 
L 1025.560036 145.840389 
L 1028.865723 140.620158 
L 1032.17141 138.880081 
L 1035.477097 147.580466 
L 1038.782784 147.580466 
L 1042.088472 149.320542 
L 1045.394159 138.880081 
L 1048.699846 140.620158 
L 1052.005533 149.320542 
L 1055.31122 147.580466 
L 1058.616908 151.060619 
L 1061.922595 151.060619 
L 1065.228282 145.840389 
L 1068.533969 149.320542 
L 1071.839656 140.620158 
L 1075.145344 144.100312 
L 1078.451031 140.620158 
L 1081.756718 133.659851 
L 1085.062405 145.840389 
L 1088.368092 142.360235 
L 1094.979467 145.840389 
L 1098.285154 133.659851 
L 1101.590841 142.360235 
L 1104.896528 140.620158 
L 1108.202216 144.100312 
L 1111.507903 135.399928 
L 1114.81359 142.360235 
L 1118.119277 140.620158 
L 1121.424964 124.959467 
L 1124.730652 137.140005 
L 1128.036339 130.179697 
L 1131.342026 140.620158 
L 1134.647713 142.360235 
L 1137.9534 130.179697 
L 1141.259088 140.620158 
L 1144.564775 130.179697 
L 1147.870462 131.919774 
L 1151.176149 131.919774 
L 1154.481836 144.100312 
L 1157.787524 145.840389 
L 1161.093211 140.620158 
L 1164.398898 133.659851 
L 1167.704585 131.919774 
L 1171.010273 140.620158 
L 1177.621647 147.580466 
L 1180.927334 137.140005 
L 1184.233021 137.140005 
L 1187.538709 142.360235 
L 1190.844396 124.959467 
L 1194.150083 135.399928 
L 1197.45577 135.399928 
L 1200.761457 149.320542 
L 1204.067145 142.360235 
L 1207.372832 142.360235 
L 1210.678519 144.100312 
L 1213.984206 137.140005 
L 1217.289893 135.399928 
L 1220.595581 140.620158 
L 1223.901268 144.100312 
L 1227.206955 142.360235 
L 1230.512642 144.100312 
L 1233.818329 138.880081 
L 1237.124017 147.580466 
L 1243.735391 140.620158 
L 1247.041078 142.360235 
L 1250.346765 149.320542 
L 1253.652453 142.360235 
L 1260.263827 142.360235 
L 1260.263827 142.360235 
" clip-path="url(#pb6f9227a1b)" style="fill: none; stroke: #000000; stroke-linecap: square"/>
   </g>
   <g id="patch_3">
    <path d="M 27.2425 158.977969 
L 27.2425 23.077969 
" style="fill: none; stroke: #000000; stroke-width: 0.8; stroke-linejoin: miter; stroke-linecap: square"/>
   </g>
   <g id="patch_4">
    <path d="M 1422.2425 158.977969 
L 1422.2425 23.077969 
" style="fill: none; stroke: #000000; stroke-width: 0.8; stroke-linejoin: miter; stroke-linecap: square"/>
   </g>
   <g id="patch_5">
    <path d="M 27.2425 158.977969 
L 1422.2425 158.977969 
" style="fill: none; stroke: #000000; stroke-width: 0.8; stroke-linejoin: miter; stroke-linecap: square"/>
   </g>
   <g id="patch_6">
    <path d="M 27.2425 23.077969 
L 1422.2425 23.077969 
" style="fill: none; stroke: #000000; stroke-width: 0.8; stroke-linejoin: miter; stroke-linecap: square"/>
   </g>
   <g id="text_21">
    <!-- Number of articles, Daily - CBS -->
    <g transform="translate(620.984219 17.077969)scale(0.13 -0.13)">
     <defs>
      <path id="DejaVuSerif-6d" d="M 3316 2675 
Q 3481 3041 3739 3227 
Q 3997 3413 4341 3413 
Q 4863 3413 5119 3089 
Q 5375 2766 5375 2113 
L 5375 331 
L 5894 331 
L 5894 0 
L 4300 0 
L 4300 331 
L 4800 331 
L 4800 2047 
Q 4800 2556 4650 2772 
Q 4500 2988 4153 2988 
Q 3769 2988 3567 2697 
Q 3366 2406 3366 1850 
L 3366 331 
L 3866 331 
L 3866 0 
L 2291 0 
L 2291 331 
L 2791 331 
L 2791 2069 
Q 2791 2566 2641 2777 
Q 2491 2988 2144 2988 
Q 1759 2988 1557 2697 
Q 1356 2406 1356 1850 
L 1356 331 
L 1856 331 
L 1856 0 
L 263 0 
L 263 331 
L 781 331 
L 781 2994 
L 231 2994 
L 231 3322 
L 1356 3322 
L 1356 2731 
Q 1516 3063 1762 3238 
Q 2009 3413 2322 3413 
Q 2709 3413 2968 3220 
Q 3228 3028 3316 2675 
z
" transform="scale(0.015625)"/>
      <path id="DejaVuSerif-20" transform="scale(0.015625)"/>
      <path id="DejaVuSerif-66" d="M 2753 4078 
L 2450 4078 
Q 2447 4313 2317 4434 
Q 2188 4556 1941 4556 
Q 1619 4556 1487 4379 
Q 1356 4203 1356 3750 
L 1356 3322 
L 2284 3322 
L 2284 2988 
L 1356 2988 
L 1356 331 
L 2094 331 
L 2094 0 
L 231 0 
L 231 331 
L 781 331 
L 781 2988 
L 231 2988 
L 231 3322 
L 781 3322 
L 781 3738 
Q 781 4294 1070 4578 
Q 1359 4863 1919 4863 
Q 2128 4863 2337 4825 
Q 2547 4788 2753 4709 
L 2753 4078 
z
" transform="scale(0.015625)"/>
      <path id="DejaVuSerif-69" d="M 622 4353 
Q 622 4497 726 4603 
Q 831 4709 978 4709 
Q 1122 4709 1226 4603 
Q 1331 4497 1331 4353 
Q 1331 4206 1228 4103 
Q 1125 4000 978 4000 
Q 831 4000 726 4103 
Q 622 4206 622 4353 
z
M 1356 331 
L 1900 331 
L 1900 0 
L 231 0 
L 231 331 
L 781 331 
L 781 2988 
L 231 2988 
L 231 3322 
L 1356 3322 
L 1356 331 
z
" transform="scale(0.015625)"/>
      <path id="DejaVuSerif-73" d="M 359 184 
L 359 959 
L 691 959 
Q 703 588 923 403 
Q 1144 219 1575 219 
Q 1963 219 2166 364 
Q 2369 509 2369 788 
Q 2369 1006 2220 1140 
Q 2072 1275 1594 1428 
L 1178 1569 
Q 750 1706 558 1912 
Q 366 2119 366 2438 
Q 366 2894 700 3153 
Q 1034 3413 1625 3413 
Q 1888 3413 2178 3344 
Q 2469 3275 2778 3144 
L 2778 2419 
L 2447 2419 
Q 2434 2741 2221 2922 
Q 2009 3103 1644 3103 
Q 1281 3103 1095 2975 
Q 909 2847 909 2591 
Q 909 2381 1050 2254 
Q 1191 2128 1613 1997 
L 2069 1856 
Q 2541 1709 2748 1489 
Q 2956 1269 2956 922 
Q 2956 450 2595 179 
Q 2234 -91 1600 -91 
Q 1278 -91 972 -22 
Q 666 47 359 184 
z
" transform="scale(0.015625)"/>
      <path id="DejaVuSerif-2c" d="M 231 -622 
Q 525 -406 662 -114 
Q 800 178 800 594 
L 800 709 
L 1416 709 
Q 1391 175 1164 -208 
Q 938 -591 481 -872 
L 231 -622 
z
" transform="scale(0.015625)"/>
      <path id="DejaVuSerif-43" d="M 4513 1234 
Q 4306 581 3820 245 
Q 3334 -91 2591 -91 
Q 2134 -91 1743 65 
Q 1353 222 1050 525 
Q 700 875 529 1320 
Q 359 1766 359 2328 
Q 359 3416 987 4083 
Q 1616 4750 2644 4750 
Q 3025 4750 3456 4650 
Q 3888 4550 4384 4347 
L 4384 3272 
L 4031 3272 
Q 3916 3859 3567 4137 
Q 3219 4416 2591 4416 
Q 1844 4416 1459 3886 
Q 1075 3356 1075 2328 
Q 1075 1303 1459 773 
Q 1844 244 2591 244 
Q 3113 244 3450 492 
Q 3788 741 3938 1234 
L 4513 1234 
z
" transform="scale(0.015625)"/>
      <path id="DejaVuSerif-42" d="M 1581 331 
L 2516 331 
Q 3078 331 3337 575 
Q 3597 819 3597 1350 
Q 3597 1878 3339 2120 
Q 3081 2363 2516 2363 
L 1581 2363 
L 1581 331 
z
M 1581 2694 
L 2375 2694 
Q 2888 2694 3123 2891 
Q 3359 3088 3359 3513 
Q 3359 3941 3123 4136 
Q 2888 4331 2375 4331 
L 1581 4331 
L 1581 2694 
z
M 353 0 
L 353 331 
L 947 331 
L 947 4331 
L 353 4331 
L 353 4666 
L 2656 4666 
Q 3363 4666 3720 4377 
Q 4078 4088 4078 3513 
Q 4078 3097 3829 2850 
Q 3581 2603 3103 2547 
Q 3697 2472 4005 2167 
Q 4313 1863 4313 1350 
Q 4313 656 3875 328 
Q 3438 0 2509 0 
L 353 0 
z
" transform="scale(0.015625)"/>
     </defs>
     <use xlink:href="#DejaVuSerif-4e"/>
     <use xlink:href="#DejaVuSerif-75" x="87.5"/>
     <use xlink:href="#DejaVuSerif-6d" x="151.904297"/>
     <use xlink:href="#DejaVuSerif-62" x="246.728516"/>
     <use xlink:href="#DejaVuSerif-65" x="310.742188"/>
     <use xlink:href="#DejaVuSerif-72" x="369.921875"/>
     <use xlink:href="#DejaVuSerif-20" x="417.724609"/>
     <use xlink:href="#DejaVuSerif-6f" x="449.511719"/>
     <use xlink:href="#DejaVuSerif-66" x="509.716797"/>
     <use xlink:href="#DejaVuSerif-20" x="546.728516"/>
     <use xlink:href="#DejaVuSerif-61" x="578.515625"/>
     <use xlink:href="#DejaVuSerif-72" x="638.134766"/>
     <use xlink:href="#DejaVuSerif-74" x="685.9375"/>
     <use xlink:href="#DejaVuSerif-69" x="726.123047"/>
     <use xlink:href="#DejaVuSerif-63" x="758.105469"/>
     <use xlink:href="#DejaVuSerif-6c" x="814.111328"/>
     <use xlink:href="#DejaVuSerif-65" x="846.09375"/>
     <use xlink:href="#DejaVuSerif-73" x="905.273438"/>
     <use xlink:href="#DejaVuSerif-2c" x="956.591797"/>
     <use xlink:href="#DejaVuSerif-20" x="988.378906"/>
     <use xlink:href="#DejaVuSerif-44" x="1020.166016"/>
     <use xlink:href="#DejaVuSerif-61" x="1100.341797"/>
     <use xlink:href="#DejaVuSerif-69" x="1159.960938"/>
     <use xlink:href="#DejaVuSerif-6c" x="1191.943359"/>
     <use xlink:href="#DejaVuSerif-79" x="1223.925781"/>
     <use xlink:href="#DejaVuSerif-20" x="1280.419922"/>
     <use xlink:href="#DejaVuSerif-2d" x="1312.207031"/>
     <use xlink:href="#DejaVuSerif-20" x="1345.996094"/>
     <use xlink:href="#DejaVuSerif-43" x="1377.783203"/>
     <use xlink:href="#DejaVuSerif-42" x="1454.296875"/>
     <use xlink:href="#DejaVuSerif-53" x="1527.783203"/>
    </g>
   </g>
  </g>
 </g>
 <defs>
  <clipPath id="pb6f9227a1b">
   <rect x="27.2425" y="23.077969" width="1395" height="135.9"/>
  </clipPath>
 </defs>
</svg>
