<?xml version="1.0" encoding="utf-8" standalone="no"?>
<!DOCTYPE svg PUBLIC "-//W3C//DTD SVG 1.1//EN"
  "http://www.w3.org/Graphics/SVG/1.1/DTD/svg11.dtd">
<svg xmlns:xlink="http://www.w3.org/1999/xlink" width="1444.467656pt" height="182.259531pt" viewBox="0 0 1444.467656 182.259531" xmlns="http://www.w3.org/2000/svg" version="1.1">
 <metadata>
  <rdf:RDF xmlns:dc="http://purl.org/dc/elements/1.1/" xmlns:cc="http://creativecommons.org/ns#" xmlns:rdf="http://www.w3.org/1999/02/22-rdf-syntax-ns#">
   <cc:Work>
    <dc:type rdf:resource="http://purl.org/dc/dcmitype/StillImage"/>
    <dc:date>2022-11-10T16:09:16.746555</dc:date>
    <dc:format>image/svg+xml</dc:format>
    <dc:creator>
     <cc:Agent>
      <dc:title>Matplotlib v3.5.2, https://matplotlib.org/</dc:title>
     </cc:Agent>
    </dc:creator>
   </cc:Work>
  </rdf:RDF>
 </metadata>
 <defs>
  <style type="text/css">*{stroke-linejoin: round; stroke-linecap: butt}</style>
 </defs>
 <g id="figure_1">
  <g id="patch_1">
   <path d="M 0 182.259531 
L 1444.467656 182.259531 
L 1444.467656 0 
L 0 0 
L 0 182.259531 
z
" style="fill: none"/>
  </g>
  <g id="axes_1">
   <g id="patch_2">
    <path d="M 42.267656 158.977969 
L 1437.267656 158.977969 
L 1437.267656 23.077969 
L 42.267656 23.077969 
z
" style="fill: #ffffff"/>
   </g>
   <g id="matplotlib.axis_1">
    <g id="xtick_1">
     <g id="line2d_1">
      <defs>
       <path id="md48cd1257d" d="M 0 0 
L 0 -3.5 
" style="stroke: #000000; stroke-width: 0.8"/>
      </defs>
      <g>
       <use xlink:href="#md48cd1257d" x="42.267656" y="158.977969" style="stroke: #000000; stroke-width: 0.8"/>
      </g>
     </g>
     <g id="text_1">
      <!-- Nov-21 -->
      <g transform="translate(42.267656 172.355938)scale(0.13 -0.13)">
       <defs>
        <path id="DejaVuSerif-4e" d="M 313 0 
L 313 331 
L 941 331 
L 941 4331 
L 313 4331 
L 313 4666 
L 1509 4666 
L 4306 984 
L 4306 4331 
L 3681 4331 
L 3681 4666 
L 5319 4666 
L 5319 4331 
L 4691 4331 
L 4691 -91 
L 4313 -91 
L 1325 3841 
L 1325 331 
L 1953 331 
L 1953 0 
L 313 0 
z
" transform="scale(0.015625)"/>
        <path id="DejaVuSerif-6f" d="M 1925 219 
Q 2388 219 2623 584 
Q 2859 950 2859 1663 
Q 2859 2375 2623 2739 
Q 2388 3103 1925 3103 
Q 1463 3103 1227 2739 
Q 991 2375 991 1663 
Q 991 950 1228 584 
Q 1466 219 1925 219 
z
M 1925 -91 
Q 1200 -91 759 389 
Q 319 869 319 1663 
Q 319 2456 758 2934 
Q 1197 3413 1925 3413 
Q 2653 3413 3092 2934 
Q 3531 2456 3531 1663 
Q 3531 869 3092 389 
Q 2653 -91 1925 -91 
z
" transform="scale(0.015625)"/>
        <path id="DejaVuSerif-76" d="M 1581 0 
L 359 2988 
L -19 2988 
L -19 3322 
L 1509 3322 
L 1509 2988 
L 978 2988 
L 1913 703 
L 2847 2988 
L 2350 2988 
L 2350 3322 
L 3597 3322 
L 3597 2988 
L 3225 2988 
L 2003 0 
L 1581 0 
z
" transform="scale(0.015625)"/>
        <path id="DejaVuSerif-2d" d="M 281 1959 
L 1881 1959 
L 1881 1472 
L 281 1472 
L 281 1959 
z
" transform="scale(0.015625)"/>
        <path id="DejaVuSerif-32" d="M 819 3553 
L 469 3553 
L 469 4384 
Q 803 4563 1142 4656 
Q 1481 4750 1806 4750 
Q 2534 4750 2956 4397 
Q 3378 4044 3378 3438 
Q 3378 2753 2422 1800 
Q 2347 1728 2309 1691 
L 1131 513 
L 3078 513 
L 3078 1088 
L 3444 1088 
L 3444 0 
L 434 0 
L 434 341 
L 1850 1753 
Q 2319 2222 2519 2614 
Q 2719 3006 2719 3438 
Q 2719 3909 2473 4175 
Q 2228 4441 1797 4441 
Q 1350 4441 1106 4219 
Q 863 3997 819 3553 
z
" transform="scale(0.015625)"/>
        <path id="DejaVuSerif-31" d="M 909 0 
L 909 331 
L 1722 331 
L 1722 4213 
L 781 3603 
L 781 4013 
L 1919 4750 
L 2350 4750 
L 2350 331 
L 3163 331 
L 3163 0 
L 909 0 
z
" transform="scale(0.015625)"/>
       </defs>
       <use xlink:href="#DejaVuSerif-4e"/>
       <use xlink:href="#DejaVuSerif-6f" x="87.5"/>
       <use xlink:href="#DejaVuSerif-76" x="147.705078"/>
       <use xlink:href="#DejaVuSerif-2d" x="204.199219"/>
       <use xlink:href="#DejaVuSerif-32" x="237.988281"/>
       <use xlink:href="#DejaVuSerif-31" x="301.611328"/>
      </g>
     </g>
    </g>
    <g id="xtick_2">
     <g id="line2d_2">
      <g>
       <use xlink:href="#md48cd1257d" x="154.166052" y="158.977969" style="stroke: #000000; stroke-width: 0.8"/>
      </g>
     </g>
     <g id="text_2">
      <!-- Dec-21 -->
      <g transform="translate(130.999646 172.355938)scale(0.13 -0.13)">
       <defs>
        <path id="DejaVuSerif-44" d="M 1581 331 
L 2163 331 
Q 3072 331 3558 850 
Q 4044 1369 4044 2338 
Q 4044 3306 3559 3818 
Q 3075 4331 2163 4331 
L 1581 4331 
L 1581 331 
z
M 353 0 
L 353 331 
L 947 331 
L 947 4331 
L 353 4331 
L 353 4666 
L 2209 4666 
Q 3416 4666 4089 4050 
Q 4763 3434 4763 2338 
Q 4763 1238 4088 619 
Q 3413 0 2209 0 
L 353 0 
z
" transform="scale(0.015625)"/>
        <path id="DejaVuSerif-65" d="M 3469 1600 
L 991 1600 
L 991 1575 
Q 991 903 1244 561 
Q 1497 219 1991 219 
Q 2369 219 2611 417 
Q 2853 616 2950 1006 
L 3413 1006 
Q 3275 459 2904 184 
Q 2534 -91 1931 -91 
Q 1203 -91 761 389 
Q 319 869 319 1663 
Q 319 2450 753 2931 
Q 1188 3413 1894 3413 
Q 2647 3413 3050 2948 
Q 3453 2484 3469 1600 
z
M 2791 1931 
Q 2772 2513 2545 2808 
Q 2319 3103 1894 3103 
Q 1497 3103 1269 2806 
Q 1041 2509 991 1931 
L 2791 1931 
z
" transform="scale(0.015625)"/>
        <path id="DejaVuSerif-63" d="M 3291 997 
Q 3169 466 2822 187 
Q 2475 -91 1925 -91 
Q 1200 -91 759 389 
Q 319 869 319 1663 
Q 319 2459 759 2936 
Q 1200 3413 1925 3413 
Q 2241 3413 2553 3339 
Q 2866 3266 3181 3116 
L 3181 2266 
L 2847 2266 
Q 2781 2703 2561 2903 
Q 2341 3103 1931 3103 
Q 1466 3103 1228 2742 
Q 991 2381 991 1663 
Q 991 944 1227 581 
Q 1463 219 1931 219 
Q 2303 219 2525 412 
Q 2747 606 2828 997 
L 3291 997 
z
" transform="scale(0.015625)"/>
       </defs>
       <use xlink:href="#DejaVuSerif-44"/>
       <use xlink:href="#DejaVuSerif-65" x="80.175781"/>
       <use xlink:href="#DejaVuSerif-63" x="139.355469"/>
       <use xlink:href="#DejaVuSerif-2d" x="195.361328"/>
       <use xlink:href="#DejaVuSerif-32" x="229.150391"/>
       <use xlink:href="#DejaVuSerif-31" x="292.773438"/>
      </g>
     </g>
    </g>
    <g id="xtick_3">
     <g id="line2d_3">
      <g>
       <use xlink:href="#md48cd1257d" x="269.794394" y="158.977969" style="stroke: #000000; stroke-width: 0.8"/>
      </g>
     </g>
     <g id="text_3">
      <!-- Jan-22 -->
      <g transform="translate(248.658222 172.355938)scale(0.13 -0.13)">
       <defs>
        <path id="DejaVuSerif-4a" d="M -538 -1119 
L -538 -384 
L -181 -384 
Q -172 -694 -34 -845 
Q 103 -997 378 -997 
Q 750 -997 897 -762 
Q 1044 -528 1044 153 
L 1044 4331 
L 319 4331 
L 319 4666 
L 2272 4666 
L 2272 4331 
L 1678 4331 
L 1678 128 
Q 1678 -644 1368 -987 
Q 1059 -1331 372 -1331 
Q 150 -1331 -79 -1278 
Q -309 -1225 -538 -1119 
z
" transform="scale(0.015625)"/>
        <path id="DejaVuSerif-61" d="M 2547 1044 
L 2547 1747 
L 1806 1747 
Q 1378 1747 1168 1562 
Q 959 1378 959 997 
Q 959 650 1171 447 
Q 1384 244 1747 244 
Q 2106 244 2326 466 
Q 2547 688 2547 1044 
z
M 3122 2075 
L 3122 331 
L 3634 331 
L 3634 0 
L 2547 0 
L 2547 359 
Q 2356 128 2106 18 
Q 1856 -91 1522 -91 
Q 969 -91 644 203 
Q 319 497 319 997 
Q 319 1513 691 1797 
Q 1063 2081 1741 2081 
L 2547 2081 
L 2547 2309 
Q 2547 2688 2317 2895 
Q 2088 3103 1672 3103 
Q 1328 3103 1125 2947 
Q 922 2791 872 2484 
L 575 2484 
L 575 3156 
Q 875 3284 1158 3348 
Q 1441 3413 1709 3413 
Q 2400 3413 2761 3070 
Q 3122 2728 3122 2075 
z
" transform="scale(0.015625)"/>
        <path id="DejaVuSerif-6e" d="M 263 0 
L 263 331 
L 781 331 
L 781 2988 
L 231 2988 
L 231 3322 
L 1356 3322 
L 1356 2731 
Q 1516 3069 1770 3241 
Q 2025 3413 2363 3413 
Q 2913 3413 3172 3097 
Q 3431 2781 3431 2113 
L 3431 331 
L 3944 331 
L 3944 0 
L 2356 0 
L 2356 331 
L 2853 331 
L 2853 1931 
Q 2853 2541 2703 2767 
Q 2553 2994 2175 2994 
Q 1775 2994 1565 2701 
Q 1356 2409 1356 1850 
L 1356 331 
L 1856 331 
L 1856 0 
L 263 0 
z
" transform="scale(0.015625)"/>
       </defs>
       <use xlink:href="#DejaVuSerif-4a"/>
       <use xlink:href="#DejaVuSerif-61" x="40.087891"/>
       <use xlink:href="#DejaVuSerif-6e" x="99.707031"/>
       <use xlink:href="#DejaVuSerif-2d" x="164.111328"/>
       <use xlink:href="#DejaVuSerif-32" x="197.900391"/>
       <use xlink:href="#DejaVuSerif-32" x="261.523438"/>
      </g>
     </g>
    </g>
    <g id="xtick_4">
     <g id="line2d_4">
      <g>
       <use xlink:href="#md48cd1257d" x="385.422736" y="158.977969" style="stroke: #000000; stroke-width: 0.8"/>
      </g>
     </g>
     <g id="text_4">
      <!-- Feb-22 -->
      <g transform="translate(362.793596 172.355938)scale(0.13 -0.13)">
       <defs>
        <path id="DejaVuSerif-46" d="M 353 0 
L 353 331 
L 947 331 
L 947 4331 
L 353 4331 
L 353 4666 
L 4172 4666 
L 4172 3628 
L 3788 3628 
L 3788 4281 
L 1581 4281 
L 1581 2719 
L 3175 2719 
L 3175 3303 
L 3559 3303 
L 3559 1753 
L 3175 1753 
L 3175 2338 
L 1581 2338 
L 1581 331 
L 2328 331 
L 2328 0 
L 353 0 
z
" transform="scale(0.015625)"/>
        <path id="DejaVuSerif-62" d="M 738 331 
L 738 4531 
L 184 4531 
L 184 4863 
L 1313 4863 
L 1313 2803 
Q 1481 3116 1742 3264 
Q 2003 3413 2388 3413 
Q 3000 3413 3387 2928 
Q 3775 2444 3775 1663 
Q 3775 881 3387 395 
Q 3000 -91 2388 -91 
Q 2003 -91 1742 57 
Q 1481 206 1313 519 
L 1313 0 
L 184 0 
L 184 331 
L 738 331 
z
M 1313 1497 
Q 1313 897 1542 583 
Q 1772 269 2209 269 
Q 2650 269 2876 622 
Q 3103 975 3103 1663 
Q 3103 2353 2876 2703 
Q 2650 3053 2209 3053 
Q 1772 3053 1542 2737 
Q 1313 2422 1313 1825 
L 1313 1497 
z
" transform="scale(0.015625)"/>
       </defs>
       <use xlink:href="#DejaVuSerif-46"/>
       <use xlink:href="#DejaVuSerif-65" x="63.884766"/>
       <use xlink:href="#DejaVuSerif-62" x="123.064453"/>
       <use xlink:href="#DejaVuSerif-2d" x="187.078125"/>
       <use xlink:href="#DejaVuSerif-32" x="220.867188"/>
       <use xlink:href="#DejaVuSerif-32" x="284.490234"/>
      </g>
     </g>
    </g>
    <g id="xtick_5">
     <g id="line2d_5">
      <g>
       <use xlink:href="#md48cd1257d" x="489.861239" y="158.977969" style="stroke: #000000; stroke-width: 0.8"/>
      </g>
     </g>
     <g id="text_5">
      <!-- Mar-22 -->
      <g transform="translate(465.75538 172.355938)scale(0.13 -0.13)">
       <defs>
        <path id="DejaVuSerif-4d" d="M 353 0 
L 353 331 
L 947 331 
L 947 4331 
L 319 4331 
L 319 4666 
L 1678 4666 
L 3316 1344 
L 4953 4666 
L 6228 4666 
L 6228 4331 
L 5606 4331 
L 5606 331 
L 6203 331 
L 6203 0 
L 4378 0 
L 4378 331 
L 4972 331 
L 4972 3938 
L 3372 684 
L 2931 684 
L 1331 3938 
L 1331 331 
L 1925 331 
L 1925 0 
L 353 0 
z
" transform="scale(0.015625)"/>
        <path id="DejaVuSerif-72" d="M 3059 3328 
L 3059 2497 
L 2728 2497 
Q 2713 2744 2591 2866 
Q 2469 2988 2234 2988 
Q 1809 2988 1582 2694 
Q 1356 2400 1356 1850 
L 1356 331 
L 2022 331 
L 2022 0 
L 263 0 
L 263 331 
L 781 331 
L 781 2994 
L 231 2994 
L 231 3322 
L 1356 3322 
L 1356 2731 
Q 1525 3078 1790 3245 
Q 2056 3413 2438 3413 
Q 2578 3413 2733 3391 
Q 2888 3369 3059 3328 
z
" transform="scale(0.015625)"/>
       </defs>
       <use xlink:href="#DejaVuSerif-4d"/>
       <use xlink:href="#DejaVuSerif-61" x="102.392578"/>
       <use xlink:href="#DejaVuSerif-72" x="162.011719"/>
       <use xlink:href="#DejaVuSerif-2d" x="209.814453"/>
       <use xlink:href="#DejaVuSerif-32" x="243.603516"/>
       <use xlink:href="#DejaVuSerif-32" x="307.226562"/>
      </g>
     </g>
    </g>
    <g id="xtick_6">
     <g id="line2d_6">
      <g>
       <use xlink:href="#md48cd1257d" x="605.489581" y="158.977969" style="stroke: #000000; stroke-width: 0.8"/>
      </g>
     </g>
     <g id="text_6">
      <!-- Apr-22 -->
      <g transform="translate(583.059503 172.355938)scale(0.13 -0.13)">
       <defs>
        <path id="DejaVuSerif-41" d="M 1281 1691 
L 2994 1691 
L 2138 3909 
L 1281 1691 
z
M -38 0 
L -38 331 
L 372 331 
L 2034 4666 
L 2559 4666 
L 4225 331 
L 4684 331 
L 4684 0 
L 2988 0 
L 2988 331 
L 3506 331 
L 3116 1356 
L 1153 1356 
L 763 331 
L 1275 331 
L 1275 0 
L -38 0 
z
" transform="scale(0.015625)"/>
        <path id="DejaVuSerif-70" d="M 1313 1825 
L 1313 1497 
Q 1313 897 1542 583 
Q 1772 269 2209 269 
Q 2650 269 2876 622 
Q 3103 975 3103 1663 
Q 3103 2353 2876 2703 
Q 2650 3053 2209 3053 
Q 1772 3053 1542 2737 
Q 1313 2422 1313 1825 
z
M 738 2988 
L 184 2988 
L 184 3322 
L 1313 3322 
L 1313 2803 
Q 1481 3116 1742 3264 
Q 2003 3413 2388 3413 
Q 3000 3413 3387 2928 
Q 3775 2444 3775 1663 
Q 3775 881 3387 395 
Q 3000 -91 2388 -91 
Q 2003 -91 1742 57 
Q 1481 206 1313 519 
L 1313 -997 
L 1856 -997 
L 1856 -1331 
L 184 -1331 
L 184 -997 
L 738 -997 
L 738 2988 
z
" transform="scale(0.015625)"/>
       </defs>
       <use xlink:href="#DejaVuSerif-41"/>
       <use xlink:href="#DejaVuSerif-70" x="72.216797"/>
       <use xlink:href="#DejaVuSerif-72" x="136.230469"/>
       <use xlink:href="#DejaVuSerif-2d" x="184.033203"/>
       <use xlink:href="#DejaVuSerif-32" x="217.822266"/>
       <use xlink:href="#DejaVuSerif-32" x="281.445312"/>
      </g>
     </g>
    </g>
    <g id="xtick_7">
     <g id="line2d_7">
      <g>
       <use xlink:href="#md48cd1257d" x="717.387977" y="158.977969" style="stroke: #000000; stroke-width: 0.8"/>
      </g>
     </g>
     <g id="text_7">
      <!-- May-22 -->
      <g transform="translate(692.716415 172.171094)scale(0.13 -0.13)">
       <defs>
        <path id="DejaVuSerif-79" d="M 1381 -609 
L 1600 -56 
L 359 2988 
L -19 2988 
L -19 3322 
L 1509 3322 
L 1509 2988 
L 978 2988 
L 1913 703 
L 2847 2988 
L 2350 2988 
L 2350 3322 
L 3597 3322 
L 3597 2988 
L 3225 2988 
L 1703 -750 
Q 1547 -1138 1356 -1280 
Q 1166 -1422 819 -1422 
Q 672 -1422 517 -1397 
Q 363 -1372 206 -1325 
L 206 -691 
L 500 -691 
Q 519 -903 608 -995 
Q 697 -1088 884 -1088 
Q 1056 -1088 1161 -992 
Q 1266 -897 1381 -609 
z
" transform="scale(0.015625)"/>
       </defs>
       <use xlink:href="#DejaVuSerif-4d"/>
       <use xlink:href="#DejaVuSerif-61" x="102.392578"/>
       <use xlink:href="#DejaVuSerif-79" x="162.011719"/>
       <use xlink:href="#DejaVuSerif-2d" x="218.505859"/>
       <use xlink:href="#DejaVuSerif-32" x="252.294922"/>
       <use xlink:href="#DejaVuSerif-32" x="315.917969"/>
      </g>
     </g>
    </g>
    <g id="xtick_8">
     <g id="line2d_8">
      <g>
       <use xlink:href="#md48cd1257d" x="833.016319" y="158.977969" style="stroke: #000000; stroke-width: 0.8"/>
      </g>
     </g>
     <g id="text_8">
      <!-- Jun-22 -->
      <g transform="translate(811.569366 172.355938)scale(0.13 -0.13)">
       <defs>
        <path id="DejaVuSerif-75" d="M 2266 3322 
L 3341 3322 
L 3341 331 
L 3884 331 
L 3884 0 
L 2766 0 
L 2766 588 
Q 2606 256 2353 82 
Q 2100 -91 1766 -91 
Q 1213 -91 952 223 
Q 691 538 691 1209 
L 691 2988 
L 172 2988 
L 172 3322 
L 1269 3322 
L 1269 1388 
Q 1269 781 1417 556 
Q 1566 331 1947 331 
Q 2347 331 2556 625 
Q 2766 919 2766 1478 
L 2766 2988 
L 2266 2988 
L 2266 3322 
z
" transform="scale(0.015625)"/>
       </defs>
       <use xlink:href="#DejaVuSerif-4a"/>
       <use xlink:href="#DejaVuSerif-75" x="40.087891"/>
       <use xlink:href="#DejaVuSerif-6e" x="104.492188"/>
       <use xlink:href="#DejaVuSerif-2d" x="168.896484"/>
       <use xlink:href="#DejaVuSerif-32" x="202.685547"/>
       <use xlink:href="#DejaVuSerif-32" x="266.308594"/>
      </g>
     </g>
    </g>
    <g id="xtick_9">
     <g id="line2d_9">
      <g>
       <use xlink:href="#md48cd1257d" x="944.914715" y="158.977969" style="stroke: #000000; stroke-width: 0.8"/>
      </g>
     </g>
     <g id="text_9">
      <!-- Jul-22 -->
      <g transform="translate(925.575184 172.355938)scale(0.13 -0.13)">
       <defs>
        <path id="DejaVuSerif-6c" d="M 1313 331 
L 1856 331 
L 1856 0 
L 184 0 
L 184 331 
L 738 331 
L 738 4531 
L 184 4531 
L 184 4863 
L 1313 4863 
L 1313 331 
z
" transform="scale(0.015625)"/>
       </defs>
       <use xlink:href="#DejaVuSerif-4a"/>
       <use xlink:href="#DejaVuSerif-75" x="40.087891"/>
       <use xlink:href="#DejaVuSerif-6c" x="104.492188"/>
       <use xlink:href="#DejaVuSerif-2d" x="136.474609"/>
       <use xlink:href="#DejaVuSerif-32" x="170.263672"/>
       <use xlink:href="#DejaVuSerif-32" x="233.886719"/>
      </g>
     </g>
    </g>
    <g id="xtick_10">
     <g id="line2d_10">
      <g>
       <use xlink:href="#md48cd1257d" x="1060.543057" y="158.977969" style="stroke: #000000; stroke-width: 0.8"/>
      </g>
     </g>
     <g id="text_10">
      <!-- Aug-22 -->
      <g transform="translate(1037.03337 172.171094)scale(0.13 -0.13)">
       <defs>
        <path id="DejaVuSerif-67" d="M 3359 2988 
L 3359 72 
Q 3359 -644 2965 -1033 
Q 2572 -1422 1844 -1422 
Q 1516 -1422 1216 -1362 
Q 916 -1303 641 -1184 
L 641 -488 
L 941 -488 
Q 997 -813 1206 -963 
Q 1416 -1113 1806 -1113 
Q 2313 -1113 2548 -827 
Q 2784 -541 2784 72 
L 2784 519 
Q 2616 206 2355 57 
Q 2094 -91 1709 -91 
Q 1097 -91 708 395 
Q 319 881 319 1663 
Q 319 2444 706 2928 
Q 1094 3413 1709 3413 
Q 2094 3413 2355 3264 
Q 2616 3116 2784 2803 
L 2784 3322 
L 3909 3322 
L 3909 2988 
L 3359 2988 
z
M 2784 1825 
Q 2784 2422 2554 2737 
Q 2325 3053 1888 3053 
Q 1444 3053 1217 2703 
Q 991 2353 991 1663 
Q 991 975 1217 622 
Q 1444 269 1888 269 
Q 2325 269 2554 583 
Q 2784 897 2784 1497 
L 2784 1825 
z
" transform="scale(0.015625)"/>
       </defs>
       <use xlink:href="#DejaVuSerif-41"/>
       <use xlink:href="#DejaVuSerif-75" x="72.216797"/>
       <use xlink:href="#DejaVuSerif-67" x="136.621094"/>
       <use xlink:href="#DejaVuSerif-2d" x="200.634766"/>
       <use xlink:href="#DejaVuSerif-32" x="234.423828"/>
       <use xlink:href="#DejaVuSerif-32" x="298.046875"/>
      </g>
     </g>
    </g>
    <g id="xtick_11">
     <g id="line2d_11">
      <g>
       <use xlink:href="#md48cd1257d" x="1176.1714" y="158.977969" style="stroke: #000000; stroke-width: 0.8"/>
      </g>
     </g>
     <g id="text_11">
      <!-- Sep-22 -->
      <g transform="translate(1153.24265 172.355938)scale(0.13 -0.13)">
       <defs>
        <path id="DejaVuSerif-53" d="M 594 225 
L 594 1288 
L 953 1284 
Q 969 753 1261 498 
Q 1553 244 2150 244 
Q 2706 244 2998 464 
Q 3291 684 3291 1106 
Q 3291 1444 3114 1625 
Q 2938 1806 2369 1978 
L 1753 2163 
Q 1084 2366 811 2669 
Q 538 2972 538 3500 
Q 538 4094 959 4422 
Q 1381 4750 2144 4750 
Q 2469 4750 2856 4679 
Q 3244 4609 3681 4475 
L 3681 3481 
L 3328 3481 
Q 3275 3975 2998 4195 
Q 2722 4416 2156 4416 
Q 1663 4416 1405 4214 
Q 1147 4013 1147 3628 
Q 1147 3294 1340 3103 
Q 1534 2913 2163 2725 
L 2741 2553 
Q 3375 2363 3645 2067 
Q 3916 1772 3916 1275 
Q 3916 597 3481 253 
Q 3047 -91 2188 -91 
Q 1803 -91 1404 -12 
Q 1006 66 594 225 
z
" transform="scale(0.015625)"/>
       </defs>
       <use xlink:href="#DejaVuSerif-53"/>
       <use xlink:href="#DejaVuSerif-65" x="68.505859"/>
       <use xlink:href="#DejaVuSerif-70" x="127.685547"/>
       <use xlink:href="#DejaVuSerif-2d" x="191.699219"/>
       <use xlink:href="#DejaVuSerif-32" x="225.488281"/>
       <use xlink:href="#DejaVuSerif-32" x="289.111328"/>
      </g>
     </g>
    </g>
    <g id="xtick_12">
     <g id="line2d_12">
      <g>
       <use xlink:href="#md48cd1257d" x="1288.069795" y="158.977969" style="stroke: #000000; stroke-width: 0.8"/>
      </g>
     </g>
     <g id="text_12">
      <!-- Oct-22 -->
      <g transform="translate(1266.020577 172.355938)scale(0.13 -0.13)">
       <defs>
        <path id="DejaVuSerif-4f" d="M 2625 244 
Q 3391 244 3781 770 
Q 4172 1297 4172 2328 
Q 4172 3363 3781 3889 
Q 3391 4416 2625 4416 
Q 1856 4416 1465 3889 
Q 1075 3363 1075 2328 
Q 1075 1297 1465 770 
Q 1856 244 2625 244 
z
M 2625 -91 
Q 2150 -91 1751 65 
Q 1353 222 1050 525 
Q 700 875 529 1319 
Q 359 1763 359 2328 
Q 359 2894 529 3339 
Q 700 3784 1050 4134 
Q 1356 4441 1750 4595 
Q 2144 4750 2625 4750 
Q 3641 4750 4266 4084 
Q 4891 3419 4891 2328 
Q 4891 1769 4719 1320 
Q 4547 872 4197 525 
Q 3891 219 3497 64 
Q 3103 -91 2625 -91 
z
" transform="scale(0.015625)"/>
        <path id="DejaVuSerif-74" d="M 691 2988 
L 184 2988 
L 184 3322 
L 691 3322 
L 691 4353 
L 1269 4353 
L 1269 3322 
L 2350 3322 
L 2350 2988 
L 1269 2988 
L 1269 878 
Q 1269 456 1350 337 
Q 1431 219 1650 219 
Q 1875 219 1978 351 
Q 2081 484 2088 781 
L 2522 781 
Q 2497 328 2275 118 
Q 2053 -91 1600 -91 
Q 1103 -91 897 129 
Q 691 350 691 878 
L 691 2988 
z
" transform="scale(0.015625)"/>
       </defs>
       <use xlink:href="#DejaVuSerif-4f"/>
       <use xlink:href="#DejaVuSerif-63" x="81.982422"/>
       <use xlink:href="#DejaVuSerif-74" x="137.988281"/>
       <use xlink:href="#DejaVuSerif-2d" x="178.173828"/>
       <use xlink:href="#DejaVuSerif-32" x="211.962891"/>
       <use xlink:href="#DejaVuSerif-32" x="275.585938"/>
      </g>
     </g>
    </g>
    <g id="xtick_13">
     <g id="line2d_13">
      <g>
       <use xlink:href="#md48cd1257d" x="1403.698138" y="158.977969" style="stroke: #000000; stroke-width: 0.8"/>
      </g>
     </g>
     <g id="text_13">
      <!-- Nov-22 -->
      <g transform="translate(1379.956888 172.355938)scale(0.13 -0.13)">
       <use xlink:href="#DejaVuSerif-4e"/>
       <use xlink:href="#DejaVuSerif-6f" x="87.5"/>
       <use xlink:href="#DejaVuSerif-76" x="147.705078"/>
       <use xlink:href="#DejaVuSerif-2d" x="204.199219"/>
       <use xlink:href="#DejaVuSerif-32" x="237.988281"/>
       <use xlink:href="#DejaVuSerif-32" x="301.611328"/>
      </g>
     </g>
    </g>
   </g>
   <g id="matplotlib.axis_2">
    <g id="ytick_1">
     <g id="line2d_14">
      <defs>
       <path id="mab22593f0e" d="M 0 0 
L 3.5 0 
" style="stroke: #000000; stroke-width: 0.8"/>
      </defs>
      <g>
       <use xlink:href="#mab22593f0e" x="42.267656" y="158.977969" style="stroke: #000000; stroke-width: 0.8"/>
      </g>
     </g>
     <g id="text_14">
      <!-- −2.5 -->
      <g transform="translate(7.2 163.916953)scale(0.13 -0.13)">
       <defs>
        <path id="DejaVuSerif-2212" d="M 678 2259 
L 4684 2259 
L 4684 1753 
L 678 1753 
L 678 2259 
z
" transform="scale(0.015625)"/>
        <path id="DejaVuSerif-2e" d="M 603 325 
Q 603 500 722 622 
Q 841 744 1019 744 
Q 1191 744 1312 622 
Q 1434 500 1434 325 
Q 1434 153 1312 31 
Q 1191 -91 1019 -91 
Q 841 -91 722 29 
Q 603 150 603 325 
z
" transform="scale(0.015625)"/>
        <path id="DejaVuSerif-35" d="M 3219 4666 
L 3219 4153 
L 1081 4153 
L 1081 2816 
Q 1244 2928 1461 2984 
Q 1678 3041 1947 3041 
Q 2703 3041 3140 2622 
Q 3578 2203 3578 1478 
Q 3578 738 3136 323 
Q 2694 -91 1894 -91 
Q 1572 -91 1234 -12 
Q 897 66 544 225 
L 544 1131 
L 897 1131 
Q 925 688 1179 453 
Q 1434 219 1894 219 
Q 2388 219 2653 544 
Q 2919 869 2919 1478 
Q 2919 2084 2655 2407 
Q 2391 2731 1894 2731 
Q 1613 2731 1398 2631 
Q 1184 2531 1019 2322 
L 750 2322 
L 750 4666 
L 3219 4666 
z
" transform="scale(0.015625)"/>
       </defs>
       <use xlink:href="#DejaVuSerif-2212"/>
       <use xlink:href="#DejaVuSerif-32" x="83.789062"/>
       <use xlink:href="#DejaVuSerif-2e" x="147.412109"/>
       <use xlink:href="#DejaVuSerif-35" x="179.199219"/>
      </g>
     </g>
    </g>
    <g id="ytick_2">
     <g id="line2d_15">
      <g>
       <use xlink:href="#mab22593f0e" x="42.267656" y="91.029328" style="stroke: #000000; stroke-width: 0.8"/>
      </g>
     </g>
     <g id="text_15">
      <!-- 0.0 -->
      <g transform="translate(18.093594 95.968312)scale(0.13 -0.13)">
       <defs>
        <path id="DejaVuSerif-30" d="M 2034 219 
Q 2513 219 2750 744 
Q 2988 1269 2988 2328 
Q 2988 3391 2750 3916 
Q 2513 4441 2034 4441 
Q 1556 4441 1318 3916 
Q 1081 3391 1081 2328 
Q 1081 1269 1318 744 
Q 1556 219 2034 219 
z
M 2034 -91 
Q 1275 -91 848 546 
Q 422 1184 422 2328 
Q 422 3475 848 4112 
Q 1275 4750 2034 4750 
Q 2797 4750 3222 4112 
Q 3647 3475 3647 2328 
Q 3647 1184 3222 546 
Q 2797 -91 2034 -91 
z
" transform="scale(0.015625)"/>
       </defs>
       <use xlink:href="#DejaVuSerif-30"/>
       <use xlink:href="#DejaVuSerif-2e" x="63.623047"/>
       <use xlink:href="#DejaVuSerif-30" x="95.410156"/>
      </g>
     </g>
    </g>
    <g id="ytick_3">
     <g id="line2d_16">
      <g>
       <use xlink:href="#mab22593f0e" x="42.267656" y="23.080687" style="stroke: #000000; stroke-width: 0.8"/>
      </g>
     </g>
     <g id="text_16">
      <!-- 2.5 -->
      <g transform="translate(18.093594 28.019671)scale(0.13 -0.13)">
       <use xlink:href="#DejaVuSerif-32"/>
       <use xlink:href="#DejaVuSerif-2e" x="63.623047"/>
       <use xlink:href="#DejaVuSerif-35" x="95.410156"/>
      </g>
     </g>
    </g>
   </g>
   <g id="line2d_17">
    <path d="M 53.457496 119.193825 
L 57.187442 106.397719 
L 60.917389 95.984208 
M 68.377282 82.617597 
L 72.107228 66.067902 
L 75.837175 129.090601 
L 79.567121 143.836148 
L 83.297068 135.498942 
L 87.027015 131.302246 
L 90.756961 111.786726 
L 94.486908 107.466008 
L 98.216854 85.084043 
M 116.866587 82.056806 
L 120.596533 137.689517 
L 124.32648 92.875072 
M 150.436105 145.270913 
L 154.166052 141.283717 
L 157.895998 109.431052 
L 161.625945 112.293363 
L 165.355892 112.045563 
L 169.085838 110.965813 
L 172.815785 110.429848 
L 176.545731 92.607846 
L 180.275678 86.163197 
L 184.005624 81.501548 
L 187.735571 85.57423 
L 191.465517 79.314173 
L 195.195464 77.015075 
L 198.92541 83.98402 
L 202.655357 72.924374 
M 228.764982 89.803535 
L 232.494929 84.451881 
L 236.224876 79.968915 
L 239.954822 90.694749 
L 243.684769 95.046643 
M 254.874608 92.992888 
L 258.604555 90.327317 
L 262.334501 80.373414 
L 266.064448 83.921669 
L 269.794394 88.982292 
L 273.524341 91.496036 
M 280.984234 91.368075 
L 284.71418 100.480515 
L 288.444127 101.206143 
L 292.174073 99.915726 
L 295.90402 90.716739 
L 299.633966 84.324154 
L 303.363913 96.094622 
L 307.093859 78.148932 
L 310.823806 69.9621 
L 314.553753 60.696767 
L 318.283699 90.093632 
L 322.013646 71.153738 
L 325.743592 72.103286 
L 329.473539 87.545226 
L 333.203485 85.135843 
L 336.933432 90.231492 
L 340.663378 94.659825 
L 344.393325 83.090971 
L 348.123271 94.291994 
L 351.853218 85.092378 
L 355.583164 84.120076 
L 359.313111 93.571014 
L 363.043057 93.543399 
L 366.773004 93.123321 
L 370.50295 96.330914 
L 374.232897 96.308095 
L 377.962843 88.874174 
L 381.69279 86.011502 
L 385.422736 78.724648 
L 389.152683 93.795104 
L 392.88263 100.842239 
L 396.612576 90.971243 
L 400.342523 85.257793 
L 404.072469 98.828133 
L 407.802416 106.067806 
L 411.532362 96.654429 
L 415.262309 101.672649 
L 418.992255 98.575291 
L 422.722202 90.600044 
L 426.452148 71.832304 
L 430.182095 58.32936 
L 433.912041 111.086117 
L 437.641988 92.329361 
L 441.371934 88.73136 
L 445.101881 113.846401 
L 448.831827 98.236518 
L 452.561774 81.487813 
L 456.29172 83.035573 
L 460.021667 77.842149 
L 463.751613 91.975599 
L 467.48156 81.10688 
L 471.211507 94.06439 
L 474.941453 89.71372 
L 478.6714 86.852629 
L 482.401346 90.37912 
L 486.131293 95.875289 
L 489.861239 91.918808 
L 493.591186 89.360632 
L 497.321132 87.278228 
L 501.051079 94.539462 
L 504.781025 86.100514 
L 508.510972 88.139372 
L 512.240918 90.446028 
L 515.970865 86.416253 
L 519.700811 92.438944 
L 523.430758 88.363344 
L 527.160704 94.644863 
L 530.890651 90.25577 
L 534.620597 89.013819 
L 538.350544 91.650912 
L 542.08049 89.453408 
L 545.810437 90.662734 
L 549.540384 95.432258 
L 553.27033 91.248554 
L 557.000277 73.955898 
L 560.730223 87.512786 
L 564.46017 94.260828 
L 571.920063 86.687985 
L 575.650009 92.349856 
L 579.379956 99.539858 
L 583.109902 102.514419 
L 586.839849 91.017725 
L 590.569795 82.47469 
L 594.299742 93.387702 
L 598.029688 79.241629 
L 601.759635 107.901656 
L 605.489581 72.245634 
L 609.219528 100.934886 
L 612.949474 109.138722 
L 616.679421 95.180152 
L 620.409367 84.137201 
L 624.139314 91.687484 
L 627.869261 89.754736 
L 631.599207 91.141794 
L 635.329154 92.373379 
L 639.0591 83.586264 
L 642.789047 89.310316 
L 646.518993 91.710388 
L 650.24894 88.212603 
L 653.978886 91.503184 
L 657.708833 95.22397 
L 661.438779 85.405693 
L 665.168726 85.692356 
L 668.898672 88.906311 
L 672.628619 94.498864 
L 676.358565 75.283027 
L 683.818458 98.798981 
L 687.548405 95.161092 
L 691.278351 93.096379 
L 695.008298 90.659522 
L 698.738244 93.841446 
L 702.468191 88.504219 
L 706.198138 86.884933 
L 709.928084 91.88538 
L 713.658031 108.785774 
L 717.387977 87.271196 
L 721.117924 95.549993 
L 724.84787 94.731203 
L 728.577817 91.96456 
L 732.307763 83.277916 
L 736.03771 109.231809 
L 739.767656 130.00622 
L 743.497603 106.482878 
L 747.227549 99.657379 
L 750.957496 87.224289 
L 754.687442 91.044808 
L 758.417389 81.997819 
L 762.147335 75.818198 
L 769.607228 93.680445 
L 773.337175 76.608104 
L 777.067121 91.331387 
L 780.797068 87.413728 
L 784.527015 100.837077 
L 788.256961 91.00637 
L 791.986908 100.292041 
L 795.716854 106.584193 
L 799.446801 99.554816 
L 803.176747 93.835658 
L 806.906694 104.934254 
L 810.63664 95.034839 
L 814.366587 67.891873 
M 825.556426 118.467978 
L 829.286373 83.658003 
L 833.016319 81.089127 
L 836.746266 95.102744 
L 840.476212 85.179349 
L 844.206159 97.910184 
M 851.666052 92.153244 
L 855.395998 66.693251 
L 859.125945 65.114419 
L 862.855892 127.926597 
L 866.585838 85.503662 
L 870.315785 104.496902 
L 874.045731 96.445885 
L 877.775678 94.699268 
L 881.505624 94.295436 
L 885.235571 92.214053 
L 888.965517 92.54214 
L 892.695464 90.646032 
L 896.42541 87.440913 
L 900.155357 88.757832 
L 903.885303 78.867567 
L 907.61525 85.923822 
L 911.345196 88.945667 
L 915.075143 99.222747 
L 918.805089 97.809622 
L 922.535036 107.342137 
L 926.264982 112.495546 
L 929.994929 95.882344 
L 933.724876 72.862935 
L 937.454822 69.494367 
L 941.184769 63.626745 
L 944.914715 113.016924 
L 948.644662 82.60093 
L 952.374608 72.91254 
L 956.104555 91.827385 
L 959.834501 100.444676 
L 963.564448 78.424074 
L 967.294394 69.681481 
L 971.024341 66.768609 
L 974.754287 89.262263 
L 978.484234 77.491766 
L 982.21418 109.001908 
L 985.944127 78.651161 
L 989.674073 102.554643 
L 993.40402 73.926631 
L 997.133966 104.527947 
L 1000.863913 64.390823 
L 1004.593859 88.346364 
L 1008.323806 84.987176 
L 1012.053753 93.717895 
L 1015.783699 106.093815 
L 1019.513646 88.313653 
L 1023.243592 105.426969 
L 1026.973539 83.061246 
L 1030.703485 81.277231 
L 1034.433432 67.261549 
L 1038.163378 79.745006 
L 1041.893325 91.711471 
L 1045.623271 84.718832 
L 1049.353218 111.388246 
L 1053.083164 106.64313 
L 1056.813111 92.077517 
L 1060.543057 87.535877 
L 1068.00295 66.033408 
L 1071.732897 94.451876 
L 1075.462843 59.633384 
L 1079.19279 148.404 
L 1082.922736 105.925761 
L 1086.652683 103.276178 
L 1090.38263 112.429138 
L 1094.112576 99.641185 
L 1097.842523 103.331454 
L 1101.572469 91.848995 
L 1105.302416 87.259635 
L 1109.032362 106.622535 
L 1112.762309 123.878789 
L 1116.492255 80.556803 
L 1120.222202 84.573164 
L 1123.952148 98.778033 
L 1127.682095 114.948011 
L 1131.412041 98.768331 
L 1135.141988 100.129774 
L 1138.871934 91.374696 
L 1142.601881 85.486156 
L 1146.331827 75.417025 
L 1150.061774 124.215826 
L 1153.79172 91.213684 
L 1157.521667 99.689942 
L 1161.251613 74.462139 
L 1164.98156 93.861765 
L 1168.711507 76.245829 
L 1172.441453 72.069705 
L 1176.1714 74.393388 
L 1179.901346 82.122868 
L 1183.631293 94.996093 
L 1187.361239 63.928385 
L 1191.091186 101.409327 
L 1194.821132 97.575728 
L 1198.551079 96.386723 
L 1202.281025 117.602925 
L 1206.010972 102.500241 
L 1209.740918 105.172606 
L 1213.470865 95.898643 
L 1217.200811 89.294644 
L 1220.930758 80.861993 
L 1224.660704 96.046817 
L 1228.390651 84.511955 
L 1232.120597 101.57629 
L 1235.850544 84.501713 
L 1239.58049 100.977227 
L 1243.310437 97.347593 
M 1250.77033 89.13856 
L 1254.500277 95.448482 
L 1258.230223 96.444564 
L 1261.96017 95.143294 
L 1265.690116 84.645106 
L 1269.420063 98.884615 
L 1273.150009 98.902261 
L 1276.879956 93.042726 
L 1280.609902 77.362907 
L 1284.339849 85.281839 
L 1288.069795 70.848544 
L 1291.799742 69.581474 
L 1295.529688 56.920158 
L 1299.259635 77.167131 
L 1302.989581 95.903797 
L 1306.719528 95.17223 
L 1310.449474 105.036132 
L 1314.179421 122.174603 
L 1317.909367 96.074798 
L 1321.639314 94.536776 
L 1325.369261 92.0258 
L 1329.099207 80.217606 
L 1332.829154 102.508153 
L 1336.5591 99.430603 
L 1340.289047 104.279989 
L 1344.018993 83.46384 
L 1347.74894 81.622326 
L 1351.478886 78.419484 
L 1355.208833 75.37582 
L 1358.938779 82.530212 
L 1362.668726 98.771448 
L 1366.398672 88.591428 
L 1370.128619 81.466771 
L 1373.858565 106.107297 
L 1377.588512 86.93344 
L 1381.318458 82.42292 
L 1385.048405 86.837589 
L 1388.778351 125.041439 
L 1392.508298 113.574826 
L 1396.238244 95.167139 
L 1399.968191 97.751971 
L 1403.698138 93.868532 
L 1407.428084 89.10204 
L 1411.158031 91.029328 
L 1418.617924 91.029328 
M 1426.077817 91.029328 
L 1433.53771 91.029328 
L 1433.53771 91.029328 
" clip-path="url(#pfbeaf74c24)" style="fill: none; stroke: #000000; stroke-linecap: square"/>
   </g>
   <g id="LineCollection_1">
    <path d="M 489.861239 158.977969 
L 489.861239 23.080687 
" clip-path="url(#pfbeaf74c24)" style="fill: none; stroke-dasharray: 1.5,2.475; stroke-dashoffset: 0; stroke: #000000; stroke-width: 1.5"/>
    <path d="M 1060.543057 158.977969 
L 1060.543057 23.080687 
" clip-path="url(#pfbeaf74c24)" style="fill: none; stroke-dasharray: 1.5,2.475; stroke-dashoffset: 0; stroke: #000000; stroke-width: 1.5"/>
   </g>
   <g id="patch_3">
    <path d="M 42.267656 158.977969 
L 42.267656 23.077969 
" style="fill: none; stroke: #000000; stroke-width: 0.8; stroke-linejoin: miter; stroke-linecap: square"/>
   </g>
   <g id="patch_4">
    <path d="M 1437.267656 158.977969 
L 1437.267656 23.077969 
" style="fill: none; stroke: #000000; stroke-width: 0.8; stroke-linejoin: miter; stroke-linecap: square"/>
   </g>
   <g id="patch_5">
    <path d="M 42.267656 158.977969 
L 1437.267656 158.977969 
" style="fill: none; stroke: #000000; stroke-width: 0.8; stroke-linejoin: miter; stroke-linecap: square"/>
   </g>
   <g id="patch_6">
    <path d="M 42.267656 23.077969 
L 1437.267656 23.077969 
" style="fill: none; stroke: #000000; stroke-width: 0.8; stroke-linejoin: miter; stroke-linecap: square"/>
   </g>
   <g id="text_17">
    <!-- Daily Resonance - CNN Articles -->
    <g transform="translate(634.922656 17.077969)scale(0.13 -0.13)">
     <defs>
      <path id="DejaVuSerif-69" d="M 622 4353 
Q 622 4497 726 4603 
Q 831 4709 978 4709 
Q 1122 4709 1226 4603 
Q 1331 4497 1331 4353 
Q 1331 4206 1228 4103 
Q 1125 4000 978 4000 
Q 831 4000 726 4103 
Q 622 4206 622 4353 
z
M 1356 331 
L 1900 331 
L 1900 0 
L 231 0 
L 231 331 
L 781 331 
L 781 2988 
L 231 2988 
L 231 3322 
L 1356 3322 
L 1356 331 
z
" transform="scale(0.015625)"/>
      <path id="DejaVuSerif-20" transform="scale(0.015625)"/>
      <path id="DejaVuSerif-52" d="M 3066 2316 
Q 3284 2256 3442 2114 
Q 3600 1972 3725 1716 
L 4403 331 
L 4972 331 
L 4972 0 
L 3872 0 
L 3144 1484 
Q 2934 1916 2759 2042 
Q 2584 2169 2278 2169 
L 1581 2169 
L 1581 331 
L 2241 331 
L 2241 0 
L 353 0 
L 353 331 
L 947 331 
L 947 4331 
L 353 4331 
L 353 4666 
L 2719 4666 
Q 3400 4666 3770 4341 
Q 4141 4016 4141 3419 
Q 4141 2938 3870 2661 
Q 3600 2384 3066 2316 
z
M 1581 2503 
L 2503 2503 
Q 2975 2503 3200 2726 
Q 3425 2950 3425 3419 
Q 3425 3888 3200 4109 
Q 2975 4331 2503 4331 
L 1581 4331 
L 1581 2503 
z
" transform="scale(0.015625)"/>
      <path id="DejaVuSerif-73" d="M 359 184 
L 359 959 
L 691 959 
Q 703 588 923 403 
Q 1144 219 1575 219 
Q 1963 219 2166 364 
Q 2369 509 2369 788 
Q 2369 1006 2220 1140 
Q 2072 1275 1594 1428 
L 1178 1569 
Q 750 1706 558 1912 
Q 366 2119 366 2438 
Q 366 2894 700 3153 
Q 1034 3413 1625 3413 
Q 1888 3413 2178 3344 
Q 2469 3275 2778 3144 
L 2778 2419 
L 2447 2419 
Q 2434 2741 2221 2922 
Q 2009 3103 1644 3103 
Q 1281 3103 1095 2975 
Q 909 2847 909 2591 
Q 909 2381 1050 2254 
Q 1191 2128 1613 1997 
L 2069 1856 
Q 2541 1709 2748 1489 
Q 2956 1269 2956 922 
Q 2956 450 2595 179 
Q 2234 -91 1600 -91 
Q 1278 -91 972 -22 
Q 666 47 359 184 
z
" transform="scale(0.015625)"/>
      <path id="DejaVuSerif-43" d="M 4513 1234 
Q 4306 581 3820 245 
Q 3334 -91 2591 -91 
Q 2134 -91 1743 65 
Q 1353 222 1050 525 
Q 700 875 529 1320 
Q 359 1766 359 2328 
Q 359 3416 987 4083 
Q 1616 4750 2644 4750 
Q 3025 4750 3456 4650 
Q 3888 4550 4384 4347 
L 4384 3272 
L 4031 3272 
Q 3916 3859 3567 4137 
Q 3219 4416 2591 4416 
Q 1844 4416 1459 3886 
Q 1075 3356 1075 2328 
Q 1075 1303 1459 773 
Q 1844 244 2591 244 
Q 3113 244 3450 492 
Q 3788 741 3938 1234 
L 4513 1234 
z
" transform="scale(0.015625)"/>
     </defs>
     <use xlink:href="#DejaVuSerif-44"/>
     <use xlink:href="#DejaVuSerif-61" x="80.175781"/>
     <use xlink:href="#DejaVuSerif-69" x="139.794922"/>
     <use xlink:href="#DejaVuSerif-6c" x="171.777344"/>
     <use xlink:href="#DejaVuSerif-79" x="203.759766"/>
     <use xlink:href="#DejaVuSerif-20" x="260.253906"/>
     <use xlink:href="#DejaVuSerif-52" x="292.041016"/>
     <use xlink:href="#DejaVuSerif-65" x="367.333984"/>
     <use xlink:href="#DejaVuSerif-73" x="426.513672"/>
     <use xlink:href="#DejaVuSerif-6f" x="477.832031"/>
     <use xlink:href="#DejaVuSerif-6e" x="538.037109"/>
     <use xlink:href="#DejaVuSerif-61" x="602.441406"/>
     <use xlink:href="#DejaVuSerif-6e" x="662.060547"/>
     <use xlink:href="#DejaVuSerif-63" x="726.464844"/>
     <use xlink:href="#DejaVuSerif-65" x="782.470703"/>
     <use xlink:href="#DejaVuSerif-20" x="841.650391"/>
     <use xlink:href="#DejaVuSerif-2d" x="873.4375"/>
     <use xlink:href="#DejaVuSerif-20" x="907.226562"/>
     <use xlink:href="#DejaVuSerif-43" x="939.013672"/>
     <use xlink:href="#DejaVuSerif-4e" x="1015.527344"/>
     <use xlink:href="#DejaVuSerif-4e" x="1103.027344"/>
     <use xlink:href="#DejaVuSerif-20" x="1190.527344"/>
     <use xlink:href="#DejaVuSerif-41" x="1222.314453"/>
     <use xlink:href="#DejaVuSerif-72" x="1294.53125"/>
     <use xlink:href="#DejaVuSerif-74" x="1342.333984"/>
     <use xlink:href="#DejaVuSerif-69" x="1382.519531"/>
     <use xlink:href="#DejaVuSerif-63" x="1414.501953"/>
     <use xlink:href="#DejaVuSerif-6c" x="1470.507812"/>
     <use xlink:href="#DejaVuSerif-65" x="1502.490234"/>
     <use xlink:href="#DejaVuSerif-73" x="1561.669922"/>
    </g>
   </g>
  </g>
 </g>
 <defs>
  <clipPath id="pfbeaf74c24">
   <rect x="42.267656" y="23.077969" width="1395" height="135.9"/>
  </clipPath>
 </defs>
</svg>
