<?xml version="1.0" encoding="utf-8" standalone="no"?>
<!DOCTYPE svg PUBLIC "-//W3C//DTD SVG 1.1//EN"
  "http://www.w3.org/Graphics/SVG/1.1/DTD/svg11.dtd">
<svg xmlns:xlink="http://www.w3.org/1999/xlink" width="1432.064844pt" height="182.259531pt" viewBox="0 0 1432.064844 182.259531" xmlns="http://www.w3.org/2000/svg" version="1.1">
 <metadata>
  <rdf:RDF xmlns:dc="http://purl.org/dc/elements/1.1/" xmlns:cc="http://creativecommons.org/ns#" xmlns:rdf="http://www.w3.org/1999/02/22-rdf-syntax-ns#">
   <cc:Work>
    <dc:type rdf:resource="http://purl.org/dc/dcmitype/StillImage"/>
    <dc:date>2022-11-21T23:23:56.879734</dc:date>
    <dc:format>image/svg+xml</dc:format>
    <dc:creator>
     <cc:Agent>
      <dc:title>Matplotlib v3.5.2, https://matplotlib.org/</dc:title>
     </cc:Agent>
    </dc:creator>
   </cc:Work>
  </rdf:RDF>
 </metadata>
 <defs>
  <style type="text/css">*{stroke-linejoin: round; stroke-linecap: butt}</style>
 </defs>
 <g id="figure_1">
  <g id="patch_1">
   <path d="M 0 182.259531 
L 1432.064844 182.259531 
L 1432.064844 0 
L 0 0 
L 0 182.259531 
z
" style="fill: none"/>
  </g>
  <g id="axes_1">
   <g id="patch_2">
    <path d="M 29.864844 158.977969 
L 1424.864844 158.977969 
L 1424.864844 23.077969 
L 29.864844 23.077969 
z
" style="fill: #ffffff"/>
   </g>
   <g id="matplotlib.axis_1">
    <g id="xtick_1">
     <g id="line2d_1">
      <defs>
       <path id="m683b474cb9" d="M 0 0 
L 0 -3.5 
" style="stroke: #000000; stroke-width: 0.8"/>
      </defs>
      <g>
       <use xlink:href="#m683b474cb9" x="29.864844" y="158.977969" style="stroke: #000000; stroke-width: 0.8"/>
      </g>
     </g>
     <g id="text_1">
      <!-- Nov-21 -->
      <g transform="translate(29.864844 172.355938)scale(0.13 -0.13)">
       <defs>
        <path id="DejaVuSerif-4e" d="M 313 0 
L 313 331 
L 941 331 
L 941 4331 
L 313 4331 
L 313 4666 
L 1509 4666 
L 4306 984 
L 4306 4331 
L 3681 4331 
L 3681 4666 
L 5319 4666 
L 5319 4331 
L 4691 4331 
L 4691 -91 
L 4313 -91 
L 1325 3841 
L 1325 331 
L 1953 331 
L 1953 0 
L 313 0 
z
" transform="scale(0.015625)"/>
        <path id="DejaVuSerif-6f" d="M 1925 219 
Q 2388 219 2623 584 
Q 2859 950 2859 1663 
Q 2859 2375 2623 2739 
Q 2388 3103 1925 3103 
Q 1463 3103 1227 2739 
Q 991 2375 991 1663 
Q 991 950 1228 584 
Q 1466 219 1925 219 
z
M 1925 -91 
Q 1200 -91 759 389 
Q 319 869 319 1663 
Q 319 2456 758 2934 
Q 1197 3413 1925 3413 
Q 2653 3413 3092 2934 
Q 3531 2456 3531 1663 
Q 3531 869 3092 389 
Q 2653 -91 1925 -91 
z
" transform="scale(0.015625)"/>
        <path id="DejaVuSerif-76" d="M 1581 0 
L 359 2988 
L -19 2988 
L -19 3322 
L 1509 3322 
L 1509 2988 
L 978 2988 
L 1913 703 
L 2847 2988 
L 2350 2988 
L 2350 3322 
L 3597 3322 
L 3597 2988 
L 3225 2988 
L 2003 0 
L 1581 0 
z
" transform="scale(0.015625)"/>
        <path id="DejaVuSerif-2d" d="M 281 1959 
L 1881 1959 
L 1881 1472 
L 281 1472 
L 281 1959 
z
" transform="scale(0.015625)"/>
        <path id="DejaVuSerif-32" d="M 819 3553 
L 469 3553 
L 469 4384 
Q 803 4563 1142 4656 
Q 1481 4750 1806 4750 
Q 2534 4750 2956 4397 
Q 3378 4044 3378 3438 
Q 3378 2753 2422 1800 
Q 2347 1728 2309 1691 
L 1131 513 
L 3078 513 
L 3078 1088 
L 3444 1088 
L 3444 0 
L 434 0 
L 434 341 
L 1850 1753 
Q 2319 2222 2519 2614 
Q 2719 3006 2719 3438 
Q 2719 3909 2473 4175 
Q 2228 4441 1797 4441 
Q 1350 4441 1106 4219 
Q 863 3997 819 3553 
z
" transform="scale(0.015625)"/>
        <path id="DejaVuSerif-31" d="M 909 0 
L 909 331 
L 1722 331 
L 1722 4213 
L 781 3603 
L 781 4013 
L 1919 4750 
L 2350 4750 
L 2350 331 
L 3163 331 
L 3163 0 
L 909 0 
z
" transform="scale(0.015625)"/>
       </defs>
       <use xlink:href="#DejaVuSerif-4e"/>
       <use xlink:href="#DejaVuSerif-6f" x="87.5"/>
       <use xlink:href="#DejaVuSerif-76" x="147.705078"/>
       <use xlink:href="#DejaVuSerif-2d" x="204.199219"/>
       <use xlink:href="#DejaVuSerif-32" x="237.988281"/>
       <use xlink:href="#DejaVuSerif-31" x="301.611328"/>
      </g>
     </g>
    </g>
    <g id="xtick_2">
     <g id="line2d_2">
      <g>
       <use xlink:href="#m683b474cb9" x="138.566142" y="158.977969" style="stroke: #000000; stroke-width: 0.8"/>
      </g>
     </g>
     <g id="text_2">
      <!-- Dec-21 -->
      <g transform="translate(115.399736 172.355938)scale(0.13 -0.13)">
       <defs>
        <path id="DejaVuSerif-44" d="M 1581 331 
L 2163 331 
Q 3072 331 3558 850 
Q 4044 1369 4044 2338 
Q 4044 3306 3559 3818 
Q 3075 4331 2163 4331 
L 1581 4331 
L 1581 331 
z
M 353 0 
L 353 331 
L 947 331 
L 947 4331 
L 353 4331 
L 353 4666 
L 2209 4666 
Q 3416 4666 4089 4050 
Q 4763 3434 4763 2338 
Q 4763 1238 4088 619 
Q 3413 0 2209 0 
L 353 0 
z
" transform="scale(0.015625)"/>
        <path id="DejaVuSerif-65" d="M 3469 1600 
L 991 1600 
L 991 1575 
Q 991 903 1244 561 
Q 1497 219 1991 219 
Q 2369 219 2611 417 
Q 2853 616 2950 1006 
L 3413 1006 
Q 3275 459 2904 184 
Q 2534 -91 1931 -91 
Q 1203 -91 761 389 
Q 319 869 319 1663 
Q 319 2450 753 2931 
Q 1188 3413 1894 3413 
Q 2647 3413 3050 2948 
Q 3453 2484 3469 1600 
z
M 2791 1931 
Q 2772 2513 2545 2808 
Q 2319 3103 1894 3103 
Q 1497 3103 1269 2806 
Q 1041 2509 991 1931 
L 2791 1931 
z
" transform="scale(0.015625)"/>
        <path id="DejaVuSerif-63" d="M 3291 997 
Q 3169 466 2822 187 
Q 2475 -91 1925 -91 
Q 1200 -91 759 389 
Q 319 869 319 1663 
Q 319 2459 759 2936 
Q 1200 3413 1925 3413 
Q 2241 3413 2553 3339 
Q 2866 3266 3181 3116 
L 3181 2266 
L 2847 2266 
Q 2781 2703 2561 2903 
Q 2341 3103 1931 3103 
Q 1466 3103 1228 2742 
Q 991 2381 991 1663 
Q 991 944 1227 581 
Q 1463 219 1931 219 
Q 2303 219 2525 412 
Q 2747 606 2828 997 
L 3291 997 
z
" transform="scale(0.015625)"/>
       </defs>
       <use xlink:href="#DejaVuSerif-44"/>
       <use xlink:href="#DejaVuSerif-65" x="80.175781"/>
       <use xlink:href="#DejaVuSerif-63" x="139.355469"/>
       <use xlink:href="#DejaVuSerif-2d" x="195.361328"/>
       <use xlink:href="#DejaVuSerif-32" x="229.150391"/>
       <use xlink:href="#DejaVuSerif-31" x="292.773438"/>
      </g>
     </g>
    </g>
    <g id="xtick_3">
     <g id="line2d_3">
      <g>
       <use xlink:href="#m683b474cb9" x="250.890818" y="158.977969" style="stroke: #000000; stroke-width: 0.8"/>
      </g>
     </g>
     <g id="text_3">
      <!-- Jan-22 -->
      <g transform="translate(229.754646 172.355938)scale(0.13 -0.13)">
       <defs>
        <path id="DejaVuSerif-4a" d="M -538 -1119 
L -538 -384 
L -181 -384 
Q -172 -694 -34 -845 
Q 103 -997 378 -997 
Q 750 -997 897 -762 
Q 1044 -528 1044 153 
L 1044 4331 
L 319 4331 
L 319 4666 
L 2272 4666 
L 2272 4331 
L 1678 4331 
L 1678 128 
Q 1678 -644 1368 -987 
Q 1059 -1331 372 -1331 
Q 150 -1331 -79 -1278 
Q -309 -1225 -538 -1119 
z
" transform="scale(0.015625)"/>
        <path id="DejaVuSerif-61" d="M 2547 1044 
L 2547 1747 
L 1806 1747 
Q 1378 1747 1168 1562 
Q 959 1378 959 997 
Q 959 650 1171 447 
Q 1384 244 1747 244 
Q 2106 244 2326 466 
Q 2547 688 2547 1044 
z
M 3122 2075 
L 3122 331 
L 3634 331 
L 3634 0 
L 2547 0 
L 2547 359 
Q 2356 128 2106 18 
Q 1856 -91 1522 -91 
Q 969 -91 644 203 
Q 319 497 319 997 
Q 319 1513 691 1797 
Q 1063 2081 1741 2081 
L 2547 2081 
L 2547 2309 
Q 2547 2688 2317 2895 
Q 2088 3103 1672 3103 
Q 1328 3103 1125 2947 
Q 922 2791 872 2484 
L 575 2484 
L 575 3156 
Q 875 3284 1158 3348 
Q 1441 3413 1709 3413 
Q 2400 3413 2761 3070 
Q 3122 2728 3122 2075 
z
" transform="scale(0.015625)"/>
        <path id="DejaVuSerif-6e" d="M 263 0 
L 263 331 
L 781 331 
L 781 2988 
L 231 2988 
L 231 3322 
L 1356 3322 
L 1356 2731 
Q 1516 3069 1770 3241 
Q 2025 3413 2363 3413 
Q 2913 3413 3172 3097 
Q 3431 2781 3431 2113 
L 3431 331 
L 3944 331 
L 3944 0 
L 2356 0 
L 2356 331 
L 2853 331 
L 2853 1931 
Q 2853 2541 2703 2767 
Q 2553 2994 2175 2994 
Q 1775 2994 1565 2701 
Q 1356 2409 1356 1850 
L 1356 331 
L 1856 331 
L 1856 0 
L 263 0 
z
" transform="scale(0.015625)"/>
       </defs>
       <use xlink:href="#DejaVuSerif-4a"/>
       <use xlink:href="#DejaVuSerif-61" x="40.087891"/>
       <use xlink:href="#DejaVuSerif-6e" x="99.707031"/>
       <use xlink:href="#DejaVuSerif-2d" x="164.111328"/>
       <use xlink:href="#DejaVuSerif-32" x="197.900391"/>
       <use xlink:href="#DejaVuSerif-32" x="261.523438"/>
      </g>
     </g>
    </g>
    <g id="xtick_4">
     <g id="line2d_4">
      <g>
       <use xlink:href="#m683b474cb9" x="363.215493" y="158.977969" style="stroke: #000000; stroke-width: 0.8"/>
      </g>
     </g>
     <g id="text_4">
      <!-- Feb-22 -->
      <g transform="translate(340.586352 172.355938)scale(0.13 -0.13)">
       <defs>
        <path id="DejaVuSerif-46" d="M 353 0 
L 353 331 
L 947 331 
L 947 4331 
L 353 4331 
L 353 4666 
L 4172 4666 
L 4172 3628 
L 3788 3628 
L 3788 4281 
L 1581 4281 
L 1581 2719 
L 3175 2719 
L 3175 3303 
L 3559 3303 
L 3559 1753 
L 3175 1753 
L 3175 2338 
L 1581 2338 
L 1581 331 
L 2328 331 
L 2328 0 
L 353 0 
z
" transform="scale(0.015625)"/>
        <path id="DejaVuSerif-62" d="M 738 331 
L 738 4531 
L 184 4531 
L 184 4863 
L 1313 4863 
L 1313 2803 
Q 1481 3116 1742 3264 
Q 2003 3413 2388 3413 
Q 3000 3413 3387 2928 
Q 3775 2444 3775 1663 
Q 3775 881 3387 395 
Q 3000 -91 2388 -91 
Q 2003 -91 1742 57 
Q 1481 206 1313 519 
L 1313 0 
L 184 0 
L 184 331 
L 738 331 
z
M 1313 1497 
Q 1313 897 1542 583 
Q 1772 269 2209 269 
Q 2650 269 2876 622 
Q 3103 975 3103 1663 
Q 3103 2353 2876 2703 
Q 2650 3053 2209 3053 
Q 1772 3053 1542 2737 
Q 1313 2422 1313 1825 
L 1313 1497 
z
" transform="scale(0.015625)"/>
       </defs>
       <use xlink:href="#DejaVuSerif-46"/>
       <use xlink:href="#DejaVuSerif-65" x="63.884766"/>
       <use xlink:href="#DejaVuSerif-62" x="123.064453"/>
       <use xlink:href="#DejaVuSerif-2d" x="187.078125"/>
       <use xlink:href="#DejaVuSerif-32" x="220.867188"/>
       <use xlink:href="#DejaVuSerif-32" x="284.490234"/>
      </g>
     </g>
    </g>
    <g id="xtick_5">
     <g id="line2d_5">
      <g>
       <use xlink:href="#m683b474cb9" x="464.670039" y="158.977969" style="stroke: #000000; stroke-width: 0.8"/>
      </g>
     </g>
     <g id="text_5">
      <!-- Mar-22 -->
      <g transform="translate(440.564179 172.355938)scale(0.13 -0.13)">
       <defs>
        <path id="DejaVuSerif-4d" d="M 353 0 
L 353 331 
L 947 331 
L 947 4331 
L 319 4331 
L 319 4666 
L 1678 4666 
L 3316 1344 
L 4953 4666 
L 6228 4666 
L 6228 4331 
L 5606 4331 
L 5606 331 
L 6203 331 
L 6203 0 
L 4378 0 
L 4378 331 
L 4972 331 
L 4972 3938 
L 3372 684 
L 2931 684 
L 1331 3938 
L 1331 331 
L 1925 331 
L 1925 0 
L 353 0 
z
" transform="scale(0.015625)"/>
        <path id="DejaVuSerif-72" d="M 3059 3328 
L 3059 2497 
L 2728 2497 
Q 2713 2744 2591 2866 
Q 2469 2988 2234 2988 
Q 1809 2988 1582 2694 
Q 1356 2400 1356 1850 
L 1356 331 
L 2022 331 
L 2022 0 
L 263 0 
L 263 331 
L 781 331 
L 781 2994 
L 231 2994 
L 231 3322 
L 1356 3322 
L 1356 2731 
Q 1525 3078 1790 3245 
Q 2056 3413 2438 3413 
Q 2578 3413 2733 3391 
Q 2888 3369 3059 3328 
z
" transform="scale(0.015625)"/>
       </defs>
       <use xlink:href="#DejaVuSerif-4d"/>
       <use xlink:href="#DejaVuSerif-61" x="102.392578"/>
       <use xlink:href="#DejaVuSerif-72" x="162.011719"/>
       <use xlink:href="#DejaVuSerif-2d" x="209.814453"/>
       <use xlink:href="#DejaVuSerif-32" x="243.603516"/>
       <use xlink:href="#DejaVuSerif-32" x="307.226562"/>
      </g>
     </g>
    </g>
    <g id="xtick_6">
     <g id="line2d_6">
      <g>
       <use xlink:href="#m683b474cb9" x="576.994714" y="158.977969" style="stroke: #000000; stroke-width: 0.8"/>
      </g>
     </g>
     <g id="text_6">
      <!-- Apr-22 -->
      <g transform="translate(554.564636 172.355938)scale(0.13 -0.13)">
       <defs>
        <path id="DejaVuSerif-41" d="M 1281 1691 
L 2994 1691 
L 2138 3909 
L 1281 1691 
z
M -38 0 
L -38 331 
L 372 331 
L 2034 4666 
L 2559 4666 
L 4225 331 
L 4684 331 
L 4684 0 
L 2988 0 
L 2988 331 
L 3506 331 
L 3116 1356 
L 1153 1356 
L 763 331 
L 1275 331 
L 1275 0 
L -38 0 
z
" transform="scale(0.015625)"/>
        <path id="DejaVuSerif-70" d="M 1313 1825 
L 1313 1497 
Q 1313 897 1542 583 
Q 1772 269 2209 269 
Q 2650 269 2876 622 
Q 3103 975 3103 1663 
Q 3103 2353 2876 2703 
Q 2650 3053 2209 3053 
Q 1772 3053 1542 2737 
Q 1313 2422 1313 1825 
z
M 738 2988 
L 184 2988 
L 184 3322 
L 1313 3322 
L 1313 2803 
Q 1481 3116 1742 3264 
Q 2003 3413 2388 3413 
Q 3000 3413 3387 2928 
Q 3775 2444 3775 1663 
Q 3775 881 3387 395 
Q 3000 -91 2388 -91 
Q 2003 -91 1742 57 
Q 1481 206 1313 519 
L 1313 -997 
L 1856 -997 
L 1856 -1331 
L 184 -1331 
L 184 -997 
L 738 -997 
L 738 2988 
z
" transform="scale(0.015625)"/>
       </defs>
       <use xlink:href="#DejaVuSerif-41"/>
       <use xlink:href="#DejaVuSerif-70" x="72.216797"/>
       <use xlink:href="#DejaVuSerif-72" x="136.230469"/>
       <use xlink:href="#DejaVuSerif-2d" x="184.033203"/>
       <use xlink:href="#DejaVuSerif-32" x="217.822266"/>
       <use xlink:href="#DejaVuSerif-32" x="281.445312"/>
      </g>
     </g>
    </g>
    <g id="xtick_7">
     <g id="line2d_7">
      <g>
       <use xlink:href="#m683b474cb9" x="685.696013" y="158.977969" style="stroke: #000000; stroke-width: 0.8"/>
      </g>
     </g>
     <g id="text_7">
      <!-- May-22 -->
      <g transform="translate(661.02445 172.171094)scale(0.13 -0.13)">
       <defs>
        <path id="DejaVuSerif-79" d="M 1381 -609 
L 1600 -56 
L 359 2988 
L -19 2988 
L -19 3322 
L 1509 3322 
L 1509 2988 
L 978 2988 
L 1913 703 
L 2847 2988 
L 2350 2988 
L 2350 3322 
L 3597 3322 
L 3597 2988 
L 3225 2988 
L 1703 -750 
Q 1547 -1138 1356 -1280 
Q 1166 -1422 819 -1422 
Q 672 -1422 517 -1397 
Q 363 -1372 206 -1325 
L 206 -691 
L 500 -691 
Q 519 -903 608 -995 
Q 697 -1088 884 -1088 
Q 1056 -1088 1161 -992 
Q 1266 -897 1381 -609 
z
" transform="scale(0.015625)"/>
       </defs>
       <use xlink:href="#DejaVuSerif-4d"/>
       <use xlink:href="#DejaVuSerif-61" x="102.392578"/>
       <use xlink:href="#DejaVuSerif-79" x="162.011719"/>
       <use xlink:href="#DejaVuSerif-2d" x="218.505859"/>
       <use xlink:href="#DejaVuSerif-32" x="252.294922"/>
       <use xlink:href="#DejaVuSerif-32" x="315.917969"/>
      </g>
     </g>
    </g>
    <g id="xtick_8">
     <g id="line2d_8">
      <g>
       <use xlink:href="#m683b474cb9" x="798.020688" y="158.977969" style="stroke: #000000; stroke-width: 0.8"/>
      </g>
     </g>
     <g id="text_8">
      <!-- Jun-22 -->
      <g transform="translate(776.573735 172.355938)scale(0.13 -0.13)">
       <defs>
        <path id="DejaVuSerif-75" d="M 2266 3322 
L 3341 3322 
L 3341 331 
L 3884 331 
L 3884 0 
L 2766 0 
L 2766 588 
Q 2606 256 2353 82 
Q 2100 -91 1766 -91 
Q 1213 -91 952 223 
Q 691 538 691 1209 
L 691 2988 
L 172 2988 
L 172 3322 
L 1269 3322 
L 1269 1388 
Q 1269 781 1417 556 
Q 1566 331 1947 331 
Q 2347 331 2556 625 
Q 2766 919 2766 1478 
L 2766 2988 
L 2266 2988 
L 2266 3322 
z
" transform="scale(0.015625)"/>
       </defs>
       <use xlink:href="#DejaVuSerif-4a"/>
       <use xlink:href="#DejaVuSerif-75" x="40.087891"/>
       <use xlink:href="#DejaVuSerif-6e" x="104.492188"/>
       <use xlink:href="#DejaVuSerif-2d" x="168.896484"/>
       <use xlink:href="#DejaVuSerif-32" x="202.685547"/>
       <use xlink:href="#DejaVuSerif-32" x="266.308594"/>
      </g>
     </g>
    </g>
    <g id="xtick_9">
     <g id="line2d_9">
      <g>
       <use xlink:href="#m683b474cb9" x="906.721987" y="158.977969" style="stroke: #000000; stroke-width: 0.8"/>
      </g>
     </g>
     <g id="text_9">
      <!-- Jul-22 -->
      <g transform="translate(887.382455 172.355938)scale(0.13 -0.13)">
       <defs>
        <path id="DejaVuSerif-6c" d="M 1313 331 
L 1856 331 
L 1856 0 
L 184 0 
L 184 331 
L 738 331 
L 738 4531 
L 184 4531 
L 184 4863 
L 1313 4863 
L 1313 331 
z
" transform="scale(0.015625)"/>
       </defs>
       <use xlink:href="#DejaVuSerif-4a"/>
       <use xlink:href="#DejaVuSerif-75" x="40.087891"/>
       <use xlink:href="#DejaVuSerif-6c" x="104.492188"/>
       <use xlink:href="#DejaVuSerif-2d" x="136.474609"/>
       <use xlink:href="#DejaVuSerif-32" x="170.263672"/>
       <use xlink:href="#DejaVuSerif-32" x="233.886719"/>
      </g>
     </g>
    </g>
    <g id="xtick_10">
     <g id="line2d_10">
      <g>
       <use xlink:href="#m683b474cb9" x="1019.046662" y="158.977969" style="stroke: #000000; stroke-width: 0.8"/>
      </g>
     </g>
     <g id="text_10">
      <!-- Aug-22 -->
      <g transform="translate(995.536974 172.171094)scale(0.13 -0.13)">
       <defs>
        <path id="DejaVuSerif-67" d="M 3359 2988 
L 3359 72 
Q 3359 -644 2965 -1033 
Q 2572 -1422 1844 -1422 
Q 1516 -1422 1216 -1362 
Q 916 -1303 641 -1184 
L 641 -488 
L 941 -488 
Q 997 -813 1206 -963 
Q 1416 -1113 1806 -1113 
Q 2313 -1113 2548 -827 
Q 2784 -541 2784 72 
L 2784 519 
Q 2616 206 2355 57 
Q 2094 -91 1709 -91 
Q 1097 -91 708 395 
Q 319 881 319 1663 
Q 319 2444 706 2928 
Q 1094 3413 1709 3413 
Q 2094 3413 2355 3264 
Q 2616 3116 2784 2803 
L 2784 3322 
L 3909 3322 
L 3909 2988 
L 3359 2988 
z
M 2784 1825 
Q 2784 2422 2554 2737 
Q 2325 3053 1888 3053 
Q 1444 3053 1217 2703 
Q 991 2353 991 1663 
Q 991 975 1217 622 
Q 1444 269 1888 269 
Q 2325 269 2554 583 
Q 2784 897 2784 1497 
L 2784 1825 
z
" transform="scale(0.015625)"/>
       </defs>
       <use xlink:href="#DejaVuSerif-41"/>
       <use xlink:href="#DejaVuSerif-75" x="72.216797"/>
       <use xlink:href="#DejaVuSerif-67" x="136.621094"/>
       <use xlink:href="#DejaVuSerif-2d" x="200.634766"/>
       <use xlink:href="#DejaVuSerif-32" x="234.423828"/>
       <use xlink:href="#DejaVuSerif-32" x="298.046875"/>
      </g>
     </g>
    </g>
    <g id="xtick_11">
     <g id="line2d_11">
      <g>
       <use xlink:href="#m683b474cb9" x="1131.371337" y="158.977969" style="stroke: #000000; stroke-width: 0.8"/>
      </g>
     </g>
     <g id="text_11">
      <!-- Sep-22 -->
      <g transform="translate(1108.442587 172.355938)scale(0.13 -0.13)">
       <defs>
        <path id="DejaVuSerif-53" d="M 594 225 
L 594 1288 
L 953 1284 
Q 969 753 1261 498 
Q 1553 244 2150 244 
Q 2706 244 2998 464 
Q 3291 684 3291 1106 
Q 3291 1444 3114 1625 
Q 2938 1806 2369 1978 
L 1753 2163 
Q 1084 2366 811 2669 
Q 538 2972 538 3500 
Q 538 4094 959 4422 
Q 1381 4750 2144 4750 
Q 2469 4750 2856 4679 
Q 3244 4609 3681 4475 
L 3681 3481 
L 3328 3481 
Q 3275 3975 2998 4195 
Q 2722 4416 2156 4416 
Q 1663 4416 1405 4214 
Q 1147 4013 1147 3628 
Q 1147 3294 1340 3103 
Q 1534 2913 2163 2725 
L 2741 2553 
Q 3375 2363 3645 2067 
Q 3916 1772 3916 1275 
Q 3916 597 3481 253 
Q 3047 -91 2188 -91 
Q 1803 -91 1404 -12 
Q 1006 66 594 225 
z
" transform="scale(0.015625)"/>
       </defs>
       <use xlink:href="#DejaVuSerif-53"/>
       <use xlink:href="#DejaVuSerif-65" x="68.505859"/>
       <use xlink:href="#DejaVuSerif-70" x="127.685547"/>
       <use xlink:href="#DejaVuSerif-2d" x="191.699219"/>
       <use xlink:href="#DejaVuSerif-32" x="225.488281"/>
       <use xlink:href="#DejaVuSerif-32" x="289.111328"/>
      </g>
     </g>
    </g>
    <g id="xtick_12">
     <g id="line2d_12">
      <g>
       <use xlink:href="#m683b474cb9" x="1240.072636" y="158.977969" style="stroke: #000000; stroke-width: 0.8"/>
      </g>
     </g>
     <g id="text_12">
      <!-- Oct-22 -->
      <g transform="translate(1218.023417 172.355938)scale(0.13 -0.13)">
       <defs>
        <path id="DejaVuSerif-4f" d="M 2625 244 
Q 3391 244 3781 770 
Q 4172 1297 4172 2328 
Q 4172 3363 3781 3889 
Q 3391 4416 2625 4416 
Q 1856 4416 1465 3889 
Q 1075 3363 1075 2328 
Q 1075 1297 1465 770 
Q 1856 244 2625 244 
z
M 2625 -91 
Q 2150 -91 1751 65 
Q 1353 222 1050 525 
Q 700 875 529 1319 
Q 359 1763 359 2328 
Q 359 2894 529 3339 
Q 700 3784 1050 4134 
Q 1356 4441 1750 4595 
Q 2144 4750 2625 4750 
Q 3641 4750 4266 4084 
Q 4891 3419 4891 2328 
Q 4891 1769 4719 1320 
Q 4547 872 4197 525 
Q 3891 219 3497 64 
Q 3103 -91 2625 -91 
z
" transform="scale(0.015625)"/>
        <path id="DejaVuSerif-74" d="M 691 2988 
L 184 2988 
L 184 3322 
L 691 3322 
L 691 4353 
L 1269 4353 
L 1269 3322 
L 2350 3322 
L 2350 2988 
L 1269 2988 
L 1269 878 
Q 1269 456 1350 337 
Q 1431 219 1650 219 
Q 1875 219 1978 351 
Q 2081 484 2088 781 
L 2522 781 
Q 2497 328 2275 118 
Q 2053 -91 1600 -91 
Q 1103 -91 897 129 
Q 691 350 691 878 
L 691 2988 
z
" transform="scale(0.015625)"/>
       </defs>
       <use xlink:href="#DejaVuSerif-4f"/>
       <use xlink:href="#DejaVuSerif-63" x="81.982422"/>
       <use xlink:href="#DejaVuSerif-74" x="137.988281"/>
       <use xlink:href="#DejaVuSerif-2d" x="178.173828"/>
       <use xlink:href="#DejaVuSerif-32" x="211.962891"/>
       <use xlink:href="#DejaVuSerif-32" x="275.585938"/>
      </g>
     </g>
    </g>
    <g id="xtick_13">
     <g id="line2d_13">
      <g>
       <use xlink:href="#m683b474cb9" x="1352.397311" y="158.977969" style="stroke: #000000; stroke-width: 0.8"/>
      </g>
     </g>
     <g id="text_13">
      <!-- Nov-22 -->
      <g transform="translate(1328.656061 172.355938)scale(0.13 -0.13)">
       <use xlink:href="#DejaVuSerif-4e"/>
       <use xlink:href="#DejaVuSerif-6f" x="87.5"/>
       <use xlink:href="#DejaVuSerif-76" x="147.705078"/>
       <use xlink:href="#DejaVuSerif-2d" x="204.199219"/>
       <use xlink:href="#DejaVuSerif-32" x="237.988281"/>
       <use xlink:href="#DejaVuSerif-32" x="301.611328"/>
      </g>
     </g>
    </g>
   </g>
   <g id="matplotlib.axis_2">
    <g id="ytick_1">
     <g id="line2d_14">
      <defs>
       <path id="m21914ea818" d="M 0 0 
L 3.5 0 
" style="stroke: #000000; stroke-width: 0.8"/>
      </defs>
      <g>
       <use xlink:href="#m21914ea818" x="29.864844" y="158.977969" style="stroke: #000000; stroke-width: 0.8"/>
      </g>
     </g>
     <g id="text_14">
      <!-- −1 -->
      <g transform="translate(7.2 163.916953)scale(0.13 -0.13)">
       <defs>
        <path id="DejaVuSerif-2212" d="M 678 2259 
L 4684 2259 
L 4684 1753 
L 678 1753 
L 678 2259 
z
" transform="scale(0.015625)"/>
       </defs>
       <use xlink:href="#DejaVuSerif-2212"/>
       <use xlink:href="#DejaVuSerif-31" x="83.789062"/>
      </g>
     </g>
    </g>
   </g>
   <g id="line2d_15">
    <path d="M 26.241467 93.413416 
L 29.864844 73.481919 
L 33.48822 89.956028 
L 37.111597 100.136249 
L 40.734974 142.040782 
L 44.35835 110.687347 
L 47.981727 171.54873 
M 74.576464 183.259531 
L 76.96874 161.770634 
L 80.592116 125.103555 
L 84.215493 81.828806 
L 87.83887 56.692808 
L 91.462246 68.20023 
L 95.085623 74.914297 
L 98.709 77.16604 
L 102.332376 79.98787 
L 105.955753 83.846698 
L 109.579129 104.008183 
L 113.202506 111.395662 
L 116.825883 99.783805 
L 120.449259 107.308431 
L 124.072636 107.646774 
L 127.696013 97.671668 
L 131.319389 109.553302 
L 134.942766 120.512405 
L 138.566142 105.134022 
L 142.189519 112.05235 
L 145.812896 105.140964 
L 149.436272 101.915471 
L 153.059649 108.206157 
L 156.683026 97.9971 
L 160.306402 95.813307 
L 163.929779 94.266872 
L 167.553155 105.629405 
L 171.176532 95.930647 
L 174.799909 93.370109 
L 178.423285 83.685255 
L 182.046662 62.257002 
L 185.670039 38.829354 
L 189.293415 32.243585 
L 192.916792 43.774031 
L 196.540168 56.741107 
L 200.163545 72.536781 
L 203.786922 74.964338 
L 207.410298 86.791223 
L 211.033675 110.886659 
L 214.657052 124.464814 
L 218.280428 129.955378 
L 221.903805 128.778531 
L 225.527181 123.924892 
L 229.150558 110.609904 
L 232.773935 105.512239 
L 236.397311 108.648076 
L 240.020688 118.975189 
L 243.644065 108.753394 
L 247.267441 115.612412 
L 250.890818 128.512648 
L 254.514194 121.729134 
L 258.137571 120.206068 
L 261.760948 123.436362 
L 265.384324 117.584143 
L 269.007701 114.845814 
L 272.631078 119.554075 
L 276.254454 102.56936 
L 279.877831 107.148833 
L 283.501207 87.235279 
L 287.124584 77.248568 
L 290.747961 87.298752 
L 294.371337 80.604734 
L 297.994714 69.908141 
L 301.618091 53.481598 
L 305.241467 59.737437 
L 308.864844 68.047999 
L 312.48822 50.280497 
L 316.111597 57.998984 
L 319.734974 101.1593 
L 323.35835 142.212979 
L 326.981727 122.800504 
L 334.22848 81.218052 
L 337.851857 70.222718 
L 341.475233 75.900727 
L 345.09861 120.429476 
L 348.721987 120.470019 
L 352.345363 98.032394 
L 355.96874 72.971737 
L 359.592116 65.50223 
L 363.215493 60.699833 
L 366.83887 93.766111 
L 370.462246 102.782599 
L 374.085623 103.195021 
L 377.709 110.730767 
L 381.332376 113.119776 
L 384.955753 112.758083 
L 388.579129 75.985012 
L 392.202506 69.776183 
L 395.825883 93.744332 
L 399.449259 100.468361 
L 403.072636 75.605451 
L 406.696013 75.122135 
L 410.319389 48.654729 
L 413.942766 118.459762 
L 417.566142 117.393066 
L 421.189519 95.109993 
L 424.812896 97.559562 
L 428.436272 103.360651 
L 432.059649 99.574932 
L 435.683026 97.682106 
L 439.306402 74.309365 
L 442.929779 75.739561 
L 446.553155 98.345181 
L 450.176532 89.139319 
L 453.799909 94.54953 
L 457.423285 74.456951 
L 461.046662 88.256488 
L 464.670039 92.551824 
L 468.293415 86.213309 
L 471.916792 95.309607 
L 475.540168 87.334232 
L 479.163545 111.784754 
L 482.786922 72.824391 
L 486.410298 92.567893 
L 490.033675 80.468957 
L 493.657052 97.274308 
L 497.280428 89.143101 
L 500.903805 96.994085 
L 504.527181 101.326494 
L 508.150558 87.44779 
L 511.773935 84.758755 
L 515.397311 85.25187 
L 519.020688 99.974335 
L 522.644065 94.419108 
L 526.267441 86.977676 
L 529.890818 120.438392 
L 533.514194 62.747453 
L 537.137571 88.370039 
L 540.760948 84.098734 
L 544.384324 89.477284 
L 548.007701 82.205554 
L 551.631078 122.669699 
L 555.254454 100.824067 
L 558.877831 55.331256 
L 562.501207 93.852213 
L 566.124584 90.381441 
L 569.747961 84.358317 
L 573.371337 76.011946 
L 576.994714 124.715523 
L 580.618091 121.14813 
L 584.241467 115.737337 
L 587.864844 65.20802 
L 591.48822 84.349713 
L 595.111597 100.914703 
L 598.734974 84.823726 
L 602.35835 94.981813 
L 605.981727 110.997943 
L 609.605103 66.384105 
L 613.22848 91.569815 
L 616.851857 80.824539 
L 620.475233 95.152272 
L 624.09861 89.877522 
L 627.721987 123.447224 
L 631.345363 104.291059 
L 634.96874 90.996551 
L 638.592116 61.497361 
L 642.215493 78.178417 
L 645.83887 94.261058 
L 649.462246 94.461045 
L 653.085623 98.829007 
L 656.709 108.613133 
L 660.332376 82.991398 
L 663.955753 82.98194 
L 667.579129 73.637424 
L 671.202506 86.861266 
L 674.825883 74.729601 
L 678.449259 118.930143 
L 682.072636 131.574296 
L 685.696013 80.217672 
L 689.319389 59.47329 
L 692.942766 99.189937 
L 696.566142 73.692497 
L 700.189519 94.994265 
L 703.812896 113.67215 
L 707.436272 123.775617 
L 711.059649 94.64969 
L 714.683026 71.768033 
L 718.306402 80.68156 
L 721.929779 58.306886 
L 725.553155 94.078792 
L 729.176532 116.374955 
L 732.799909 99.212922 
L 736.423285 69.948187 
L 740.046662 84.820395 
L 743.670039 79.99649 
L 747.293415 87.753855 
L 750.916792 87.859168 
L 754.540168 127.309122 
L 758.163545 106.484611 
L 761.786922 78.158533 
L 765.410298 89.368174 
L 769.033675 91.416423 
L 772.657052 78.925684 
L 776.280428 126.984601 
L 779.903805 127.896693 
L 783.527181 78.058502 
L 787.150558 60.765922 
L 790.773935 66.40978 
L 794.397311 92.155735 
L 798.020688 82.314192 
L 801.644065 93.719008 
L 805.267441 117.406319 
L 808.890818 129.879628 
L 812.514194 75.384322 
L 816.137571 38.401996 
L 819.760948 79.705623 
L 823.384324 88.16792 
L 827.007701 111.523667 
L 830.631078 83.316759 
L 834.254454 60.791501 
L 837.877831 67.660621 
L 841.501207 81.407576 
L 845.124584 135.202286 
L 848.747961 121.528162 
L 852.371337 80.489973 
L 855.994714 84.880291 
L 859.618091 93.899955 
L 863.241467 71.250655 
L 866.864844 81.954551 
L 870.48822 88.099853 
L 874.111597 94.663299 
L 877.734974 103.324535 
L 881.35835 102.899553 
L 884.981727 80.347205 
L 888.605103 85.223021 
L 892.22848 83.143033 
L 895.851857 81.532774 
L 899.475233 90.515585 
L 903.09861 72.751939 
L 906.721987 125.102777 
L 910.345363 154.076322 
L 913.96874 82.23065 
L 917.592116 33.542488 
L 921.215493 44.349161 
L 924.83887 90.155349 
L 928.462246 104.41043 
L 932.085623 93.11085 
L 935.709 71.412462 
L 939.332376 56.342895 
L 942.955753 80.211197 
L 946.579129 89.373264 
L 950.202506 97.360573 
L 953.825883 127.709764 
L 957.449259 106.630835 
L 961.072636 79.886474 
L 964.696013 80.363276 
L 968.319389 95.041543 
L 971.942766 110.302038 
L 975.566142 60.275593 
L 979.189519 116.431151 
L 982.812896 151.261105 
L 986.436272 117.941405 
L 990.059649 48.820256 
L 993.344678 -1 
M 994.078319 -1 
L 1000.929779 89.344365 
L 1004.553155 123.863252 
L 1008.176532 139.041 
L 1011.799909 139.903947 
L 1015.423285 91.367092 
L 1019.046662 85.094023 
L 1026.293415 71.906346 
L 1029.916792 90.77121 
L 1033.540168 116.229006 
L 1037.163545 149.575637 
L 1040.786922 125.373762 
L 1044.410298 92.407437 
L 1048.033675 65.800846 
L 1051.657052 84.31703 
L 1055.280428 95.984829 
L 1058.903805 109.232267 
L 1062.527181 102.271018 
L 1066.150558 116.778694 
L 1069.773935 91.133979 
L 1073.397311 86.745526 
L 1077.020688 112.133999 
L 1080.644065 124.372329 
L 1084.267441 96.29709 
L 1087.890818 92.695295 
L 1091.514194 85.629454 
L 1095.137571 68.302716 
L 1098.760948 100.687303 
L 1102.384324 86.015161 
L 1106.007701 42.700383 
L 1109.631078 87.374128 
L 1113.254454 108.706067 
L 1116.877831 99.152668 
L 1120.501207 76.227028 
L 1124.124584 72.791527 
L 1127.747961 84.187991 
L 1131.371337 100.423576 
L 1134.994714 85.960374 
L 1138.618091 81.329762 
L 1142.241467 66.166254 
L 1145.864844 61.097829 
L 1149.48822 103.775846 
L 1153.111597 100.657683 
L 1156.734974 125.247273 
L 1160.35835 174.982138 
L 1163.981727 144.015495 
L 1167.605103 101.829772 
L 1171.22848 19.885122 
L 1174.851857 55.067321 
L 1178.475233 97.740924 
L 1182.09861 70.769599 
L 1185.721987 105.813675 
L 1189.345363 111.8509 
L 1192.96874 81.114527 
L 1196.592116 77.117393 
L 1200.215493 130.988095 
L 1203.83887 94.282147 
L 1207.462246 93.394591 
L 1211.085623 90.829365 
L 1214.709 67.928291 
L 1218.332376 53.674734 
L 1221.955753 100.977511 
L 1225.579129 124.900743 
L 1229.202506 64.846161 
L 1232.825883 85.88082 
L 1236.449259 97.627427 
L 1240.072636 97.697682 
L 1243.696013 105.496096 
L 1247.319389 86.999696 
L 1250.942766 65.93406 
L 1254.566142 82.967718 
L 1258.189519 89.105705 
L 1261.812896 97.566177 
L 1265.436272 150.343931 
L 1269.059649 133.306594 
L 1272.683026 90.488467 
L 1276.306402 72.831587 
L 1279.929779 68.339342 
L 1283.553155 79.809584 
L 1287.176532 116.121611 
L 1290.799909 128.580073 
L 1294.423285 95.093662 
L 1298.046662 62.860744 
L 1301.670039 71.136433 
L 1305.293415 88.47914 
L 1308.916792 100.729082 
L 1312.540168 124.87321 
L 1316.163545 114.135144 
L 1319.786922 67.087139 
L 1323.410298 54.591255 
L 1327.033675 95.521668 
L 1330.657052 76.172742 
L 1334.280428 96.364022 
L 1337.903805 131.271045 
L 1341.527181 108.349136 
L 1345.150558 87.014393 
L 1348.773935 70.154854 
L 1352.397311 95.079723 
L 1356.020688 91.401273 
L 1359.644065 55.690935 
L 1363.267441 99.744656 
L 1366.890818 110.568792 
L 1370.514194 96.830927 
L 1374.137571 72.437712 
L 1377.760948 105.229752 
L 1381.384324 119.489891 
L 1385.007701 83.8723 
L 1388.631078 91.309093 
L 1392.254454 78.616233 
L 1395.877831 72.259023 
L 1399.501207 103.00727 
L 1403.124584 134.971157 
L 1406.747961 70.5303 
L 1410.371337 63.035162 
L 1413.994714 91.044485 
L 1424.864844 91.031366 
L 1424.864844 91.031366 
" clip-path="url(#p790ccc02a3)" style="fill: none; stroke: #000000; stroke-linecap: square"/>
   </g>
   <g id="LineCollection_1">
    <path d="M 464.670039 183.259531 
L 464.670039 -1 
" clip-path="url(#p790ccc02a3)" style="fill: none; stroke-dasharray: 1.5,2.475; stroke-dashoffset: 0; stroke: #000000; stroke-width: 1.5"/>
    <path d="M 1019.046662 183.259531 
L 1019.046662 -1 
" clip-path="url(#p790ccc02a3)" style="fill: none; stroke-dasharray: 1.5,2.475; stroke-dashoffset: 0; stroke: #000000; stroke-width: 1.5"/>
   </g>
   <g id="LineCollection_2">
    <path d="M 993.683026 183.259531 
L 993.683026 -1 
" clip-path="url(#p790ccc02a3)" style="fill: none; stroke-dasharray: 1.5,2.475; stroke-dashoffset: 0; stroke: #ff0000; stroke-width: 1.5"/>
    <path d="M 993.683026 183.259531 
L 993.683026 -1 
" clip-path="url(#p790ccc02a3)" style="fill: none; stroke-dasharray: 1.5,2.475; stroke-dashoffset: 0; stroke: #ff0000; stroke-width: 1.5"/>
    <path d="M 993.683026 183.259531 
L 993.683026 -1 
" clip-path="url(#p790ccc02a3)" style="fill: none; stroke-dasharray: 1.5,2.475; stroke-dashoffset: 0; stroke: #ff0000; stroke-width: 1.5"/>
    <path d="M 997.306402 183.259531 
L 997.306402 -1 
" clip-path="url(#p790ccc02a3)" style="fill: none; stroke-dasharray: 1.5,2.475; stroke-dashoffset: 0; stroke: #ff0000; stroke-width: 1.5"/>
    <path d="M 997.306402 183.259531 
L 997.306402 -1 
" clip-path="url(#p790ccc02a3)" style="fill: none; stroke-dasharray: 1.5,2.475; stroke-dashoffset: 0; stroke: #ff0000; stroke-width: 1.5"/>
    <path d="M 993.683026 183.259531 
L 993.683026 -1 
" clip-path="url(#p790ccc02a3)" style="fill: none; stroke-dasharray: 1.5,2.475; stroke-dashoffset: 0; stroke: #ff0000; stroke-width: 1.5"/>
    <path d="M 993.683026 183.259531 
L 993.683026 -1 
" clip-path="url(#p790ccc02a3)" style="fill: none; stroke-dasharray: 1.5,2.475; stroke-dashoffset: 0; stroke: #ff0000; stroke-width: 1.5"/>
    <path d="M 993.683026 183.259531 
L 993.683026 -1 
" clip-path="url(#p790ccc02a3)" style="fill: none; stroke-dasharray: 1.5,2.475; stroke-dashoffset: 0; stroke: #ff0000; stroke-width: 1.5"/>
    <path d="M 993.683026 183.259531 
L 993.683026 -1 
" clip-path="url(#p790ccc02a3)" style="fill: none; stroke-dasharray: 1.5,2.475; stroke-dashoffset: 0; stroke: #ff0000; stroke-width: 1.5"/>
    <path d="M 1171.22848 183.259531 
L 1171.22848 -1 
" clip-path="url(#p790ccc02a3)" style="fill: none; stroke-dasharray: 1.5,2.475; stroke-dashoffset: 0; stroke: #ff0000; stroke-width: 1.5"/>
    <path d="M 997.306402 183.259531 
L 997.306402 -1 
" clip-path="url(#p790ccc02a3)" style="fill: none; stroke-dasharray: 1.5,2.475; stroke-dashoffset: 0; stroke: #ff0000; stroke-width: 1.5"/>
    <path d="M 993.683026 183.259531 
L 993.683026 -1 
" clip-path="url(#p790ccc02a3)" style="fill: none; stroke-dasharray: 1.5,2.475; stroke-dashoffset: 0; stroke: #ff0000; stroke-width: 1.5"/>
    <path d="M 1171.22848 183.259531 
L 1171.22848 -1 
" clip-path="url(#p790ccc02a3)" style="fill: none; stroke-dasharray: 1.5,2.475; stroke-dashoffset: 0; stroke: #ff0000; stroke-width: 1.5"/>
    <path d="M 1171.22848 183.259531 
L 1171.22848 -1 
" clip-path="url(#p790ccc02a3)" style="fill: none; stroke-dasharray: 1.5,2.475; stroke-dashoffset: 0; stroke: #ff0000; stroke-width: 1.5"/>
    <path d="M 1171.22848 183.259531 
L 1171.22848 -1 
" clip-path="url(#p790ccc02a3)" style="fill: none; stroke-dasharray: 1.5,2.475; stroke-dashoffset: 0; stroke: #ff0000; stroke-width: 1.5"/>
    <path d="M 1171.22848 183.259531 
L 1171.22848 -1 
" clip-path="url(#p790ccc02a3)" style="fill: none; stroke-dasharray: 1.5,2.475; stroke-dashoffset: 0; stroke: #ff0000; stroke-width: 1.5"/>
    <path d="M 993.683026 183.259531 
L 993.683026 -1 
" clip-path="url(#p790ccc02a3)" style="fill: none; stroke-dasharray: 1.5,2.475; stroke-dashoffset: 0; stroke: #ff0000; stroke-width: 1.5"/>
    <path d="M 1171.22848 183.259531 
L 1171.22848 -1 
" clip-path="url(#p790ccc02a3)" style="fill: none; stroke-dasharray: 1.5,2.475; stroke-dashoffset: 0; stroke: #ff0000; stroke-width: 1.5"/>
    <path d="M 993.683026 183.259531 
L 993.683026 -1 
" clip-path="url(#p790ccc02a3)" style="fill: none; stroke-dasharray: 1.5,2.475; stroke-dashoffset: 0; stroke: #ff0000; stroke-width: 1.5"/>
    <path d="M 1406.747961 183.259531 
L 1406.747961 -1 
" clip-path="url(#p790ccc02a3)" style="fill: none; stroke-dasharray: 1.5,2.475; stroke-dashoffset: 0; stroke: #ff0000; stroke-width: 1.5"/>
    <path d="M 1406.747961 183.259531 
L 1406.747961 -1 
" clip-path="url(#p790ccc02a3)" style="fill: none; stroke-dasharray: 1.5,2.475; stroke-dashoffset: 0; stroke: #ff0000; stroke-width: 1.5"/>
    <path d="M 1171.22848 183.259531 
L 1171.22848 -1 
" clip-path="url(#p790ccc02a3)" style="fill: none; stroke-dasharray: 1.5,2.475; stroke-dashoffset: 0; stroke: #ff0000; stroke-width: 1.5"/>
    <path d="M 993.683026 183.259531 
L 993.683026 -1 
" clip-path="url(#p790ccc02a3)" style="fill: none; stroke-dasharray: 1.5,2.475; stroke-dashoffset: 0; stroke: #ff0000; stroke-width: 1.5"/>
    <path d="M 1171.22848 183.259531 
L 1171.22848 -1 
" clip-path="url(#p790ccc02a3)" style="fill: none; stroke-dasharray: 1.5,2.475; stroke-dashoffset: 0; stroke: #ff0000; stroke-width: 1.5"/>
    <path d="M 1406.747961 183.259531 
L 1406.747961 -1 
" clip-path="url(#p790ccc02a3)" style="fill: none; stroke-dasharray: 1.5,2.475; stroke-dashoffset: 0; stroke: #ff0000; stroke-width: 1.5"/>
    <path d="M 1406.747961 183.259531 
L 1406.747961 -1 
" clip-path="url(#p790ccc02a3)" style="fill: none; stroke-dasharray: 1.5,2.475; stroke-dashoffset: 0; stroke: #ff0000; stroke-width: 1.5"/>
    <path d="M 993.683026 183.259531 
L 993.683026 -1 
" clip-path="url(#p790ccc02a3)" style="fill: none; stroke-dasharray: 1.5,2.475; stroke-dashoffset: 0; stroke: #ff0000; stroke-width: 1.5"/>
    <path d="M 921.215493 183.259531 
L 921.215493 -1 
" clip-path="url(#p790ccc02a3)" style="fill: none; stroke-dasharray: 1.5,2.475; stroke-dashoffset: 0; stroke: #ff0000; stroke-width: 1.5"/>
    <path d="M 1174.851857 183.259531 
L 1174.851857 -1 
" clip-path="url(#p790ccc02a3)" style="fill: none; stroke-dasharray: 1.5,2.475; stroke-dashoffset: 0; stroke: #ff0000; stroke-width: 1.5"/>
    <path d="M 1171.22848 183.259531 
L 1171.22848 -1 
" clip-path="url(#p790ccc02a3)" style="fill: none; stroke-dasharray: 1.5,2.475; stroke-dashoffset: 0; stroke: #ff0000; stroke-width: 1.5"/>
    <path d="M 921.215493 183.259531 
L 921.215493 -1 
" clip-path="url(#p790ccc02a3)" style="fill: none; stroke-dasharray: 1.5,2.475; stroke-dashoffset: 0; stroke: #ff0000; stroke-width: 1.5"/>
    <path d="M 1171.22848 183.259531 
L 1171.22848 -1 
" clip-path="url(#p790ccc02a3)" style="fill: none; stroke-dasharray: 1.5,2.475; stroke-dashoffset: 0; stroke: #ff0000; stroke-width: 1.5"/>
    <path d="M 921.215493 183.259531 
L 921.215493 -1 
" clip-path="url(#p790ccc02a3)" style="fill: none; stroke-dasharray: 1.5,2.475; stroke-dashoffset: 0; stroke: #ff0000; stroke-width: 1.5"/>
    <path d="M 1171.22848 183.259531 
L 1171.22848 -1 
" clip-path="url(#p790ccc02a3)" style="fill: none; stroke-dasharray: 1.5,2.475; stroke-dashoffset: 0; stroke: #ff0000; stroke-width: 1.5"/>
    <path d="M 921.215493 183.259531 
L 921.215493 -1 
" clip-path="url(#p790ccc02a3)" style="fill: none; stroke-dasharray: 1.5,2.475; stroke-dashoffset: 0; stroke: #ff0000; stroke-width: 1.5"/>
    <path d="M 1171.22848 183.259531 
L 1171.22848 -1 
" clip-path="url(#p790ccc02a3)" style="fill: none; stroke-dasharray: 1.5,2.475; stroke-dashoffset: 0; stroke: #ff0000; stroke-width: 1.5"/>
    <path d="M 993.683026 183.259531 
L 993.683026 -1 
" clip-path="url(#p790ccc02a3)" style="fill: none; stroke-dasharray: 1.5,2.475; stroke-dashoffset: 0; stroke: #ff0000; stroke-width: 1.5"/>
    <path d="M 993.683026 183.259531 
L 993.683026 -1 
" clip-path="url(#p790ccc02a3)" style="fill: none; stroke-dasharray: 1.5,2.475; stroke-dashoffset: 0; stroke: #ff0000; stroke-width: 1.5"/>
    <path d="M 1174.851857 183.259531 
L 1174.851857 -1 
" clip-path="url(#p790ccc02a3)" style="fill: none; stroke-dasharray: 1.5,2.475; stroke-dashoffset: 0; stroke: #ff0000; stroke-width: 1.5"/>
    <path d="M 1171.22848 183.259531 
L 1171.22848 -1 
" clip-path="url(#p790ccc02a3)" style="fill: none; stroke-dasharray: 1.5,2.475; stroke-dashoffset: 0; stroke: #ff0000; stroke-width: 1.5"/>
    <path d="M 1171.22848 183.259531 
L 1171.22848 -1 
" clip-path="url(#p790ccc02a3)" style="fill: none; stroke-dasharray: 1.5,2.475; stroke-dashoffset: 0; stroke: #ff0000; stroke-width: 1.5"/>
    <path d="M 993.683026 183.259531 
L 993.683026 -1 
" clip-path="url(#p790ccc02a3)" style="fill: none; stroke-dasharray: 1.5,2.475; stroke-dashoffset: 0; stroke: #ff0000; stroke-width: 1.5"/>
    <path d="M 1174.851857 183.259531 
L 1174.851857 -1 
" clip-path="url(#p790ccc02a3)" style="fill: none; stroke-dasharray: 1.5,2.475; stroke-dashoffset: 0; stroke: #ff0000; stroke-width: 1.5"/>
    <path d="M 1323.410298 183.259531 
L 1323.410298 -1 
" clip-path="url(#p790ccc02a3)" style="fill: none; stroke-dasharray: 1.5,2.475; stroke-dashoffset: 0; stroke: #ff0000; stroke-width: 1.5"/>
    <path d="M 1174.851857 183.259531 
L 1174.851857 -1 
" clip-path="url(#p790ccc02a3)" style="fill: none; stroke-dasharray: 1.5,2.475; stroke-dashoffset: 0; stroke: #ff0000; stroke-width: 1.5"/>
    <path d="M 997.306402 183.259531 
L 997.306402 -1 
" clip-path="url(#p790ccc02a3)" style="fill: none; stroke-dasharray: 1.5,2.475; stroke-dashoffset: 0; stroke: #ff0000; stroke-width: 1.5"/>
    <path d="M 1174.851857 183.259531 
L 1174.851857 -1 
" clip-path="url(#p790ccc02a3)" style="fill: none; stroke-dasharray: 1.5,2.475; stroke-dashoffset: 0; stroke: #ff0000; stroke-width: 1.5"/>
    <path d="M 1174.851857 183.259531 
L 1174.851857 -1 
" clip-path="url(#p790ccc02a3)" style="fill: none; stroke-dasharray: 1.5,2.475; stroke-dashoffset: 0; stroke: #ff0000; stroke-width: 1.5"/>
    <path d="M 1406.747961 183.259531 
L 1406.747961 -1 
" clip-path="url(#p790ccc02a3)" style="fill: none; stroke-dasharray: 1.5,2.475; stroke-dashoffset: 0; stroke: #ff0000; stroke-width: 1.5"/>
    <path d="M 678.449259 183.259531 
L 678.449259 -1 
" clip-path="url(#p790ccc02a3)" style="fill: none; stroke-dasharray: 1.5,2.475; stroke-dashoffset: 0; stroke: #ff0000; stroke-width: 1.5"/>
   </g>
   <g id="LineCollection_3">
    <path d="M 576.994714 183.259531 
L 576.994714 -1 
" clip-path="url(#p790ccc02a3)" style="fill: none; stroke-dasharray: 1.5,2.475; stroke-dashoffset: 0; stroke: #0000ff; stroke-width: 1.5"/>
    <path d="M 906.721987 183.259531 
L 906.721987 -1 
" clip-path="url(#p790ccc02a3)" style="fill: none; stroke-dasharray: 1.5,2.475; stroke-dashoffset: 0; stroke: #0000ff; stroke-width: 1.5"/>
    <path d="M 906.721987 183.259531 
L 906.721987 -1 
" clip-path="url(#p790ccc02a3)" style="fill: none; stroke-dasharray: 1.5,2.475; stroke-dashoffset: 0; stroke: #0000ff; stroke-width: 1.5"/>
    <path d="M 1287.176532 183.259531 
L 1287.176532 -1 
" clip-path="url(#p790ccc02a3)" style="fill: none; stroke-dasharray: 1.5,2.475; stroke-dashoffset: 0; stroke: #0000ff; stroke-width: 1.5"/>
    <path d="M 906.721987 183.259531 
L 906.721987 -1 
" clip-path="url(#p790ccc02a3)" style="fill: none; stroke-dasharray: 1.5,2.475; stroke-dashoffset: 0; stroke: #0000ff; stroke-width: 1.5"/>
    <path d="M 979.189519 183.259531 
L 979.189519 -1 
" clip-path="url(#p790ccc02a3)" style="fill: none; stroke-dasharray: 1.5,2.475; stroke-dashoffset: 0; stroke: #0000ff; stroke-width: 1.5"/>
    <path d="M 508.150558 183.259531 
L 508.150558 -1 
" clip-path="url(#p790ccc02a3)" style="fill: none; stroke-dasharray: 1.5,2.475; stroke-dashoffset: 0; stroke: #0000ff; stroke-width: 1.5"/>
    <path d="M 779.903805 183.259531 
L 779.903805 -1 
" clip-path="url(#p790ccc02a3)" style="fill: none; stroke-dasharray: 1.5,2.475; stroke-dashoffset: 0; stroke: #0000ff; stroke-width: 1.5"/>
    <path d="M 1156.734974 183.259531 
L 1156.734974 -1 
" clip-path="url(#p790ccc02a3)" style="fill: none; stroke-dasharray: 1.5,2.475; stroke-dashoffset: 0; stroke: #0000ff; stroke-width: 1.5"/>
    <path d="M 776.280428 183.259531 
L 776.280428 -1 
" clip-path="url(#p790ccc02a3)" style="fill: none; stroke-dasharray: 1.5,2.475; stroke-dashoffset: 0; stroke: #0000ff; stroke-width: 1.5"/>
    <path d="M 1287.176532 183.259531 
L 1287.176532 -1 
" clip-path="url(#p790ccc02a3)" style="fill: none; stroke-dasharray: 1.5,2.475; stroke-dashoffset: 0; stroke: #0000ff; stroke-width: 1.5"/>
    <path d="M 1156.734974 183.259531 
L 1156.734974 -1 
" clip-path="url(#p790ccc02a3)" style="fill: none; stroke-dasharray: 1.5,2.475; stroke-dashoffset: 0; stroke: #0000ff; stroke-width: 1.5"/>
    <path d="M 776.280428 183.259531 
L 776.280428 -1 
" clip-path="url(#p790ccc02a3)" style="fill: none; stroke-dasharray: 1.5,2.475; stroke-dashoffset: 0; stroke: #0000ff; stroke-width: 1.5"/>
    <path d="M 464.670039 183.259531 
L 464.670039 -1 
" clip-path="url(#p790ccc02a3)" style="fill: none; stroke-dasharray: 1.5,2.475; stroke-dashoffset: 0; stroke: #0000ff; stroke-width: 1.5"/>
    <path d="M 678.449259 183.259531 
L 678.449259 -1 
" clip-path="url(#p790ccc02a3)" style="fill: none; stroke-dasharray: 1.5,2.475; stroke-dashoffset: 0; stroke: #0000ff; stroke-width: 1.5"/>
    <path d="M 906.721987 183.259531 
L 906.721987 -1 
" clip-path="url(#p790ccc02a3)" style="fill: none; stroke-dasharray: 1.5,2.475; stroke-dashoffset: 0; stroke: #0000ff; stroke-width: 1.5"/>
    <path d="M 1156.734974 183.259531 
L 1156.734974 -1 
" clip-path="url(#p790ccc02a3)" style="fill: none; stroke-dasharray: 1.5,2.475; stroke-dashoffset: 0; stroke: #0000ff; stroke-width: 1.5"/>
    <path d="M 576.994714 183.259531 
L 576.994714 -1 
" clip-path="url(#p790ccc02a3)" style="fill: none; stroke-dasharray: 1.5,2.475; stroke-dashoffset: 0; stroke: #0000ff; stroke-width: 1.5"/>
    <path d="M 1156.734974 183.259531 
L 1156.734974 -1 
" clip-path="url(#p790ccc02a3)" style="fill: none; stroke-dasharray: 1.5,2.475; stroke-dashoffset: 0; stroke: #0000ff; stroke-width: 1.5"/>
    <path d="M 779.903805 183.259531 
L 779.903805 -1 
" clip-path="url(#p790ccc02a3)" style="fill: none; stroke-dasharray: 1.5,2.475; stroke-dashoffset: 0; stroke: #0000ff; stroke-width: 1.5"/>
    <path d="M 982.812896 183.259531 
L 982.812896 -1 
" clip-path="url(#p790ccc02a3)" style="fill: none; stroke-dasharray: 1.5,2.475; stroke-dashoffset: 0; stroke: #0000ff; stroke-width: 1.5"/>
    <path d="M 982.812896 183.259531 
L 982.812896 -1 
" clip-path="url(#p790ccc02a3)" style="fill: none; stroke-dasharray: 1.5,2.475; stroke-dashoffset: 0; stroke: #0000ff; stroke-width: 1.5"/>
    <path d="M 1160.35835 183.259531 
L 1160.35835 -1 
" clip-path="url(#p790ccc02a3)" style="fill: none; stroke-dasharray: 1.5,2.475; stroke-dashoffset: 0; stroke: #0000ff; stroke-width: 1.5"/>
    <path d="M 464.670039 183.259531 
L 464.670039 -1 
" clip-path="url(#p790ccc02a3)" style="fill: none; stroke-dasharray: 1.5,2.475; stroke-dashoffset: 0; stroke: #0000ff; stroke-width: 1.5"/>
    <path d="M 576.994714 183.259531 
L 576.994714 -1 
" clip-path="url(#p790ccc02a3)" style="fill: none; stroke-dasharray: 1.5,2.475; stroke-dashoffset: 0; stroke: #0000ff; stroke-width: 1.5"/>
    <path d="M 1312.540168 183.259531 
L 1312.540168 -1 
" clip-path="url(#p790ccc02a3)" style="fill: none; stroke-dasharray: 1.5,2.475; stroke-dashoffset: 0; stroke: #0000ff; stroke-width: 1.5"/>
    <path d="M 508.150558 183.259531 
L 508.150558 -1 
" clip-path="url(#p790ccc02a3)" style="fill: none; stroke-dasharray: 1.5,2.475; stroke-dashoffset: 0; stroke: #0000ff; stroke-width: 1.5"/>
    <path d="M 551.631078 183.259531 
L 551.631078 -1 
" clip-path="url(#p790ccc02a3)" style="fill: none; stroke-dasharray: 1.5,2.475; stroke-dashoffset: 0; stroke: #0000ff; stroke-width: 1.5"/>
    <path d="M 906.721987 183.259531 
L 906.721987 -1 
" clip-path="url(#p790ccc02a3)" style="fill: none; stroke-dasharray: 1.5,2.475; stroke-dashoffset: 0; stroke: #0000ff; stroke-width: 1.5"/>
    <path d="M 551.631078 183.259531 
L 551.631078 -1 
" clip-path="url(#p790ccc02a3)" style="fill: none; stroke-dasharray: 1.5,2.475; stroke-dashoffset: 0; stroke: #0000ff; stroke-width: 1.5"/>
    <path d="M 464.670039 183.259531 
L 464.670039 -1 
" clip-path="url(#p790ccc02a3)" style="fill: none; stroke-dasharray: 1.5,2.475; stroke-dashoffset: 0; stroke: #0000ff; stroke-width: 1.5"/>
    <path d="M 508.150558 183.259531 
L 508.150558 -1 
" clip-path="url(#p790ccc02a3)" style="fill: none; stroke-dasharray: 1.5,2.475; stroke-dashoffset: 0; stroke: #0000ff; stroke-width: 1.5"/>
    <path d="M 551.631078 183.259531 
L 551.631078 -1 
" clip-path="url(#p790ccc02a3)" style="fill: none; stroke-dasharray: 1.5,2.475; stroke-dashoffset: 0; stroke: #0000ff; stroke-width: 1.5"/>
    <path d="M 776.280428 183.259531 
L 776.280428 -1 
" clip-path="url(#p790ccc02a3)" style="fill: none; stroke-dasharray: 1.5,2.475; stroke-dashoffset: 0; stroke: #0000ff; stroke-width: 1.5"/>
    <path d="M 1160.35835 183.259531 
L 1160.35835 -1 
" clip-path="url(#p790ccc02a3)" style="fill: none; stroke-dasharray: 1.5,2.475; stroke-dashoffset: 0; stroke: #0000ff; stroke-width: 1.5"/>
    <path d="M 1160.35835 183.259531 
L 1160.35835 -1 
" clip-path="url(#p790ccc02a3)" style="fill: none; stroke-dasharray: 1.5,2.475; stroke-dashoffset: 0; stroke: #0000ff; stroke-width: 1.5"/>
    <path d="M 678.449259 183.259531 
L 678.449259 -1 
" clip-path="url(#p790ccc02a3)" style="fill: none; stroke-dasharray: 1.5,2.475; stroke-dashoffset: 0; stroke: #0000ff; stroke-width: 1.5"/>
    <path d="M 1008.176532 183.259531 
L 1008.176532 -1 
" clip-path="url(#p790ccc02a3)" style="fill: none; stroke-dasharray: 1.5,2.475; stroke-dashoffset: 0; stroke: #0000ff; stroke-width: 1.5"/>
    <path d="M 910.345363 183.259531 
L 910.345363 -1 
" clip-path="url(#p790ccc02a3)" style="fill: none; stroke-dasharray: 1.5,2.475; stroke-dashoffset: 0; stroke: #0000ff; stroke-width: 1.5"/>
    <path d="M 1156.734974 183.259531 
L 1156.734974 -1 
" clip-path="url(#p790ccc02a3)" style="fill: none; stroke-dasharray: 1.5,2.475; stroke-dashoffset: 0; stroke: #0000ff; stroke-width: 1.5"/>
    <path d="M 464.670039 183.259531 
L 464.670039 -1 
" clip-path="url(#p790ccc02a3)" style="fill: none; stroke-dasharray: 1.5,2.475; stroke-dashoffset: 0; stroke: #0000ff; stroke-width: 1.5"/>
    <path d="M 551.631078 183.259531 
L 551.631078 -1 
" clip-path="url(#p790ccc02a3)" style="fill: none; stroke-dasharray: 1.5,2.475; stroke-dashoffset: 0; stroke: #0000ff; stroke-width: 1.5"/>
    <path d="M 1008.176532 183.259531 
L 1008.176532 -1 
" clip-path="url(#p790ccc02a3)" style="fill: none; stroke-dasharray: 1.5,2.475; stroke-dashoffset: 0; stroke: #0000ff; stroke-width: 1.5"/>
    <path d="M 1160.35835 183.259531 
L 1160.35835 -1 
" clip-path="url(#p790ccc02a3)" style="fill: none; stroke-dasharray: 1.5,2.475; stroke-dashoffset: 0; stroke: #0000ff; stroke-width: 1.5"/>
    <path d="M 906.721987 183.259531 
L 906.721987 -1 
" clip-path="url(#p790ccc02a3)" style="fill: none; stroke-dasharray: 1.5,2.475; stroke-dashoffset: 0; stroke: #0000ff; stroke-width: 1.5"/>
    <path d="M 1163.981727 183.259531 
L 1163.981727 -1 
" clip-path="url(#p790ccc02a3)" style="fill: none; stroke-dasharray: 1.5,2.475; stroke-dashoffset: 0; stroke: #0000ff; stroke-width: 1.5"/>
    <path d="M 906.721987 183.259531 
L 906.721987 -1 
" clip-path="url(#p790ccc02a3)" style="fill: none; stroke-dasharray: 1.5,2.475; stroke-dashoffset: 0; stroke: #0000ff; stroke-width: 1.5"/>
    <path d="M 1160.35835 183.259531 
L 1160.35835 -1 
" clip-path="url(#p790ccc02a3)" style="fill: none; stroke-dasharray: 1.5,2.475; stroke-dashoffset: 0; stroke: #0000ff; stroke-width: 1.5"/>
    <path d="M 982.812896 183.259531 
L 982.812896 -1 
" clip-path="url(#p790ccc02a3)" style="fill: none; stroke-dasharray: 1.5,2.475; stroke-dashoffset: 0; stroke: #0000ff; stroke-width: 1.5"/>
    <path d="M 982.812896 183.259531 
L 982.812896 -1 
" clip-path="url(#p790ccc02a3)" style="fill: none; stroke-dasharray: 1.5,2.475; stroke-dashoffset: 0; stroke: #0000ff; stroke-width: 1.5"/>
   </g>
   <g id="patch_3">
    <path d="M 29.864844 158.977969 
L 29.864844 23.077969 
" style="fill: none; stroke: #000000; stroke-width: 0.8; stroke-linejoin: miter; stroke-linecap: square"/>
   </g>
   <g id="patch_4">
    <path d="M 1424.864844 158.977969 
L 1424.864844 23.077969 
" style="fill: none; stroke: #000000; stroke-width: 0.8; stroke-linejoin: miter; stroke-linecap: square"/>
   </g>
   <g id="patch_5">
    <path d="M 29.864844 158.977969 
L 1424.864844 158.977969 
" style="fill: none; stroke: #000000; stroke-width: 0.8; stroke-linejoin: miter; stroke-linecap: square"/>
   </g>
   <g id="patch_6">
    <path d="M 29.864844 23.077969 
L 1424.864844 23.077969 
" style="fill: none; stroke: #000000; stroke-width: 0.8; stroke-linejoin: miter; stroke-linecap: square"/>
   </g>
   <g id="text_15">
    <!-- Filtered Daily Resonance - All Articles -->
    <g transform="translate(601.707656 17.077969)scale(0.13 -0.13)">
     <defs>
      <path id="DejaVuSerif-69" d="M 622 4353 
Q 622 4497 726 4603 
Q 831 4709 978 4709 
Q 1122 4709 1226 4603 
Q 1331 4497 1331 4353 
Q 1331 4206 1228 4103 
Q 1125 4000 978 4000 
Q 831 4000 726 4103 
Q 622 4206 622 4353 
z
M 1356 331 
L 1900 331 
L 1900 0 
L 231 0 
L 231 331 
L 781 331 
L 781 2988 
L 231 2988 
L 231 3322 
L 1356 3322 
L 1356 331 
z
" transform="scale(0.015625)"/>
      <path id="DejaVuSerif-64" d="M 3359 331 
L 3909 331 
L 3909 0 
L 2784 0 
L 2784 519 
Q 2616 206 2355 57 
Q 2094 -91 1709 -91 
Q 1097 -91 708 395 
Q 319 881 319 1663 
Q 319 2444 706 2928 
Q 1094 3413 1709 3413 
Q 2094 3413 2355 3264 
Q 2616 3116 2784 2803 
L 2784 4531 
L 2241 4531 
L 2241 4863 
L 3359 4863 
L 3359 331 
z
M 2784 1497 
L 2784 1825 
Q 2784 2422 2554 2737 
Q 2325 3053 1888 3053 
Q 1444 3053 1217 2703 
Q 991 2353 991 1663 
Q 991 975 1217 622 
Q 1444 269 1888 269 
Q 2325 269 2554 583 
Q 2784 897 2784 1497 
z
" transform="scale(0.015625)"/>
      <path id="DejaVuSerif-20" transform="scale(0.015625)"/>
      <path id="DejaVuSerif-52" d="M 3066 2316 
Q 3284 2256 3442 2114 
Q 3600 1972 3725 1716 
L 4403 331 
L 4972 331 
L 4972 0 
L 3872 0 
L 3144 1484 
Q 2934 1916 2759 2042 
Q 2584 2169 2278 2169 
L 1581 2169 
L 1581 331 
L 2241 331 
L 2241 0 
L 353 0 
L 353 331 
L 947 331 
L 947 4331 
L 353 4331 
L 353 4666 
L 2719 4666 
Q 3400 4666 3770 4341 
Q 4141 4016 4141 3419 
Q 4141 2938 3870 2661 
Q 3600 2384 3066 2316 
z
M 1581 2503 
L 2503 2503 
Q 2975 2503 3200 2726 
Q 3425 2950 3425 3419 
Q 3425 3888 3200 4109 
Q 2975 4331 2503 4331 
L 1581 4331 
L 1581 2503 
z
" transform="scale(0.015625)"/>
      <path id="DejaVuSerif-73" d="M 359 184 
L 359 959 
L 691 959 
Q 703 588 923 403 
Q 1144 219 1575 219 
Q 1963 219 2166 364 
Q 2369 509 2369 788 
Q 2369 1006 2220 1140 
Q 2072 1275 1594 1428 
L 1178 1569 
Q 750 1706 558 1912 
Q 366 2119 366 2438 
Q 366 2894 700 3153 
Q 1034 3413 1625 3413 
Q 1888 3413 2178 3344 
Q 2469 3275 2778 3144 
L 2778 2419 
L 2447 2419 
Q 2434 2741 2221 2922 
Q 2009 3103 1644 3103 
Q 1281 3103 1095 2975 
Q 909 2847 909 2591 
Q 909 2381 1050 2254 
Q 1191 2128 1613 1997 
L 2069 1856 
Q 2541 1709 2748 1489 
Q 2956 1269 2956 922 
Q 2956 450 2595 179 
Q 2234 -91 1600 -91 
Q 1278 -91 972 -22 
Q 666 47 359 184 
z
" transform="scale(0.015625)"/>
     </defs>
     <use xlink:href="#DejaVuSerif-46"/>
     <use xlink:href="#DejaVuSerif-69" x="69.384766"/>
     <use xlink:href="#DejaVuSerif-6c" x="101.367188"/>
     <use xlink:href="#DejaVuSerif-74" x="133.349609"/>
     <use xlink:href="#DejaVuSerif-65" x="173.535156"/>
     <use xlink:href="#DejaVuSerif-72" x="232.714844"/>
     <use xlink:href="#DejaVuSerif-65" x="280.517578"/>
     <use xlink:href="#DejaVuSerif-64" x="339.697266"/>
     <use xlink:href="#DejaVuSerif-20" x="403.710938"/>
     <use xlink:href="#DejaVuSerif-44" x="435.498047"/>
     <use xlink:href="#DejaVuSerif-61" x="515.673828"/>
     <use xlink:href="#DejaVuSerif-69" x="575.292969"/>
     <use xlink:href="#DejaVuSerif-6c" x="607.275391"/>
     <use xlink:href="#DejaVuSerif-79" x="639.257812"/>
     <use xlink:href="#DejaVuSerif-20" x="695.751953"/>
     <use xlink:href="#DejaVuSerif-52" x="727.539062"/>
     <use xlink:href="#DejaVuSerif-65" x="802.832031"/>
     <use xlink:href="#DejaVuSerif-73" x="862.011719"/>
     <use xlink:href="#DejaVuSerif-6f" x="913.330078"/>
     <use xlink:href="#DejaVuSerif-6e" x="973.535156"/>
     <use xlink:href="#DejaVuSerif-61" x="1037.939453"/>
     <use xlink:href="#DejaVuSerif-6e" x="1097.558594"/>
     <use xlink:href="#DejaVuSerif-63" x="1161.962891"/>
     <use xlink:href="#DejaVuSerif-65" x="1217.96875"/>
     <use xlink:href="#DejaVuSerif-20" x="1277.148438"/>
     <use xlink:href="#DejaVuSerif-2d" x="1308.935547"/>
     <use xlink:href="#DejaVuSerif-20" x="1342.724609"/>
     <use xlink:href="#DejaVuSerif-41" x="1374.511719"/>
     <use xlink:href="#DejaVuSerif-6c" x="1446.728516"/>
     <use xlink:href="#DejaVuSerif-6c" x="1478.710938"/>
     <use xlink:href="#DejaVuSerif-20" x="1510.693359"/>
     <use xlink:href="#DejaVuSerif-41" x="1542.480469"/>
     <use xlink:href="#DejaVuSerif-72" x="1614.697266"/>
     <use xlink:href="#DejaVuSerif-74" x="1662.5"/>
     <use xlink:href="#DejaVuSerif-69" x="1702.685547"/>
     <use xlink:href="#DejaVuSerif-63" x="1734.667969"/>
     <use xlink:href="#DejaVuSerif-6c" x="1790.673828"/>
     <use xlink:href="#DejaVuSerif-65" x="1822.65625"/>
     <use xlink:href="#DejaVuSerif-73" x="1881.835938"/>
    </g>
   </g>
  </g>
 </g>
 <defs>
  <clipPath id="p790ccc02a3">
   <rect x="29.864844" y="23.077969" width="1395" height="135.9"/>
  </clipPath>
 </defs>
</svg>
