<?xml version="1.0" encoding="utf-8" standalone="no"?>
<!DOCTYPE svg PUBLIC "-//W3C//DTD SVG 1.1//EN"
  "http://www.w3.org/Graphics/SVG/1.1/DTD/svg11.dtd">
<svg xmlns:xlink="http://www.w3.org/1999/xlink" width="1449.934037pt" height="184.959531pt" viewBox="0 0 1449.934037 184.959531" xmlns="http://www.w3.org/2000/svg" version="1.1">
 <metadata>
  <rdf:RDF xmlns:dc="http://purl.org/dc/elements/1.1/" xmlns:cc="http://creativecommons.org/ns#" xmlns:rdf="http://www.w3.org/1999/02/22-rdf-syntax-ns#">
   <cc:Work>
    <dc:type rdf:resource="http://purl.org/dc/dcmitype/StillImage"/>
    <dc:date>2023-01-02T13:18:23.707566</dc:date>
    <dc:format>image/svg+xml</dc:format>
    <dc:creator>
     <cc:Agent>
      <dc:title>Matplotlib v3.5.3, https://matplotlib.org/</dc:title>
     </cc:Agent>
    </dc:creator>
   </cc:Work>
  </rdf:RDF>
 </metadata>
 <defs>
  <style type="text/css">*{stroke-linejoin: round; stroke-linecap: butt}</style>
 </defs>
 <g id="figure_1">
  <g id="patch_1">
   <path d="M 0 184.959531 
L 1449.934037 184.959531 
L 1449.934037 0 
L 0 0 
z
" style="fill: #ffffff"/>
  </g>
  <g id="axes_1">
   <g id="patch_2">
    <path d="M 29.864844 161.677969 
L 1424.864844 161.677969 
L 1424.864844 23.077969 
L 29.864844 23.077969 
z
" style="fill: #ffffff"/>
   </g>
   <g id="matplotlib.axis_1">
    <g id="xtick_1">
     <g id="line2d_1">
      <defs>
       <path id="m86b669138b" d="M 0 0 
L 0 -3.5 
" style="stroke: #000000; stroke-width: 0.8"/>
      </defs>
      <g>
       <use xlink:href="#m86b669138b" x="29.864844" y="161.677969" style="stroke: #000000; stroke-width: 0.8"/>
      </g>
     </g>
     <g id="text_1">
      <!-- Nov-21 -->
      <g transform="translate(29.864844 175.055938)scale(0.13 -0.13)">
       <defs>
        <path id="DejaVuSerif-4e" d="M 313 0 
L 313 331 
L 941 331 
L 941 4331 
L 313 4331 
L 313 4666 
L 1509 4666 
L 4306 984 
L 4306 4331 
L 3681 4331 
L 3681 4666 
L 5319 4666 
L 5319 4331 
L 4691 4331 
L 4691 -91 
L 4313 -91 
L 1325 3841 
L 1325 331 
L 1953 331 
L 1953 0 
L 313 0 
z
" transform="scale(0.015625)"/>
        <path id="DejaVuSerif-6f" d="M 1925 219 
Q 2388 219 2623 584 
Q 2859 950 2859 1663 
Q 2859 2375 2623 2739 
Q 2388 3103 1925 3103 
Q 1463 3103 1227 2739 
Q 991 2375 991 1663 
Q 991 950 1228 584 
Q 1466 219 1925 219 
z
M 1925 -91 
Q 1200 -91 759 389 
Q 319 869 319 1663 
Q 319 2456 758 2934 
Q 1197 3413 1925 3413 
Q 2653 3413 3092 2934 
Q 3531 2456 3531 1663 
Q 3531 869 3092 389 
Q 2653 -91 1925 -91 
z
" transform="scale(0.015625)"/>
        <path id="DejaVuSerif-76" d="M 1581 0 
L 359 2988 
L -19 2988 
L -19 3322 
L 1509 3322 
L 1509 2988 
L 978 2988 
L 1913 703 
L 2847 2988 
L 2350 2988 
L 2350 3322 
L 3597 3322 
L 3597 2988 
L 3225 2988 
L 2003 0 
L 1581 0 
z
" transform="scale(0.015625)"/>
        <path id="DejaVuSerif-2d" d="M 281 1959 
L 1881 1959 
L 1881 1472 
L 281 1472 
L 281 1959 
z
" transform="scale(0.015625)"/>
        <path id="DejaVuSerif-32" d="M 819 3553 
L 469 3553 
L 469 4384 
Q 803 4563 1142 4656 
Q 1481 4750 1806 4750 
Q 2534 4750 2956 4397 
Q 3378 4044 3378 3438 
Q 3378 2753 2422 1800 
Q 2347 1728 2309 1691 
L 1131 513 
L 3078 513 
L 3078 1088 
L 3444 1088 
L 3444 0 
L 434 0 
L 434 341 
L 1850 1753 
Q 2319 2222 2519 2614 
Q 2719 3006 2719 3438 
Q 2719 3909 2473 4175 
Q 2228 4441 1797 4441 
Q 1350 4441 1106 4219 
Q 863 3997 819 3553 
z
" transform="scale(0.015625)"/>
        <path id="DejaVuSerif-31" d="M 909 0 
L 909 331 
L 1722 331 
L 1722 4213 
L 781 3603 
L 781 4013 
L 1919 4750 
L 2350 4750 
L 2350 331 
L 3163 331 
L 3163 0 
L 909 0 
z
" transform="scale(0.015625)"/>
       </defs>
       <use xlink:href="#DejaVuSerif-4e"/>
       <use xlink:href="#DejaVuSerif-6f" x="87.5"/>
       <use xlink:href="#DejaVuSerif-76" x="147.705078"/>
       <use xlink:href="#DejaVuSerif-2d" x="204.199219"/>
       <use xlink:href="#DejaVuSerif-32" x="237.988281"/>
       <use xlink:href="#DejaVuSerif-31" x="301.611328"/>
      </g>
     </g>
    </g>
    <g id="xtick_2">
     <g id="line2d_2">
      <g>
       <use xlink:href="#m86b669138b" x="127.874211" y="161.677969" style="stroke: #000000; stroke-width: 0.8"/>
      </g>
     </g>
     <g id="text_2">
      <!-- Dec-21 -->
      <g transform="translate(104.707805 175.055938)scale(0.13 -0.13)">
       <defs>
        <path id="DejaVuSerif-44" d="M 1581 331 
L 2163 331 
Q 3072 331 3558 850 
Q 4044 1369 4044 2338 
Q 4044 3306 3559 3818 
Q 3075 4331 2163 4331 
L 1581 4331 
L 1581 331 
z
M 353 0 
L 353 331 
L 947 331 
L 947 4331 
L 353 4331 
L 353 4666 
L 2209 4666 
Q 3416 4666 4089 4050 
Q 4763 3434 4763 2338 
Q 4763 1238 4088 619 
Q 3413 0 2209 0 
L 353 0 
z
" transform="scale(0.015625)"/>
        <path id="DejaVuSerif-65" d="M 3469 1600 
L 991 1600 
L 991 1575 
Q 991 903 1244 561 
Q 1497 219 1991 219 
Q 2369 219 2611 417 
Q 2853 616 2950 1006 
L 3413 1006 
Q 3275 459 2904 184 
Q 2534 -91 1931 -91 
Q 1203 -91 761 389 
Q 319 869 319 1663 
Q 319 2450 753 2931 
Q 1188 3413 1894 3413 
Q 2647 3413 3050 2948 
Q 3453 2484 3469 1600 
z
M 2791 1931 
Q 2772 2513 2545 2808 
Q 2319 3103 1894 3103 
Q 1497 3103 1269 2806 
Q 1041 2509 991 1931 
L 2791 1931 
z
" transform="scale(0.015625)"/>
        <path id="DejaVuSerif-63" d="M 3291 997 
Q 3169 466 2822 187 
Q 2475 -91 1925 -91 
Q 1200 -91 759 389 
Q 319 869 319 1663 
Q 319 2459 759 2936 
Q 1200 3413 1925 3413 
Q 2241 3413 2553 3339 
Q 2866 3266 3181 3116 
L 3181 2266 
L 2847 2266 
Q 2781 2703 2561 2903 
Q 2341 3103 1931 3103 
Q 1466 3103 1228 2742 
Q 991 2381 991 1663 
Q 991 944 1227 581 
Q 1463 219 1931 219 
Q 2303 219 2525 412 
Q 2747 606 2828 997 
L 3291 997 
z
" transform="scale(0.015625)"/>
       </defs>
       <use xlink:href="#DejaVuSerif-44"/>
       <use xlink:href="#DejaVuSerif-65" x="80.175781"/>
       <use xlink:href="#DejaVuSerif-63" x="139.355469"/>
       <use xlink:href="#DejaVuSerif-2d" x="195.361328"/>
       <use xlink:href="#DejaVuSerif-32" x="229.150391"/>
       <use xlink:href="#DejaVuSerif-31" x="292.773438"/>
      </g>
     </g>
    </g>
    <g id="xtick_3">
     <g id="line2d_3">
      <g>
       <use xlink:href="#m86b669138b" x="229.150558" y="161.677969" style="stroke: #000000; stroke-width: 0.8"/>
      </g>
     </g>
     <g id="text_3">
      <!-- Jan-22 -->
      <g transform="translate(208.014386 175.055938)scale(0.13 -0.13)">
       <defs>
        <path id="DejaVuSerif-4a" d="M -538 -1119 
L -538 -384 
L -181 -384 
Q -172 -694 -34 -845 
Q 103 -997 378 -997 
Q 750 -997 897 -762 
Q 1044 -528 1044 153 
L 1044 4331 
L 319 4331 
L 319 4666 
L 2272 4666 
L 2272 4331 
L 1678 4331 
L 1678 128 
Q 1678 -644 1368 -987 
Q 1059 -1331 372 -1331 
Q 150 -1331 -79 -1278 
Q -309 -1225 -538 -1119 
z
" transform="scale(0.015625)"/>
        <path id="DejaVuSerif-61" d="M 2547 1044 
L 2547 1747 
L 1806 1747 
Q 1378 1747 1168 1562 
Q 959 1378 959 997 
Q 959 650 1171 447 
Q 1384 244 1747 244 
Q 2106 244 2326 466 
Q 2547 688 2547 1044 
z
M 3122 2075 
L 3122 331 
L 3634 331 
L 3634 0 
L 2547 0 
L 2547 359 
Q 2356 128 2106 18 
Q 1856 -91 1522 -91 
Q 969 -91 644 203 
Q 319 497 319 997 
Q 319 1513 691 1797 
Q 1063 2081 1741 2081 
L 2547 2081 
L 2547 2309 
Q 2547 2688 2317 2895 
Q 2088 3103 1672 3103 
Q 1328 3103 1125 2947 
Q 922 2791 872 2484 
L 575 2484 
L 575 3156 
Q 875 3284 1158 3348 
Q 1441 3413 1709 3413 
Q 2400 3413 2761 3070 
Q 3122 2728 3122 2075 
z
" transform="scale(0.015625)"/>
        <path id="DejaVuSerif-6e" d="M 263 0 
L 263 331 
L 781 331 
L 781 2988 
L 231 2988 
L 231 3322 
L 1356 3322 
L 1356 2731 
Q 1516 3069 1770 3241 
Q 2025 3413 2363 3413 
Q 2913 3413 3172 3097 
Q 3431 2781 3431 2113 
L 3431 331 
L 3944 331 
L 3944 0 
L 2356 0 
L 2356 331 
L 2853 331 
L 2853 1931 
Q 2853 2541 2703 2767 
Q 2553 2994 2175 2994 
Q 1775 2994 1565 2701 
Q 1356 2409 1356 1850 
L 1356 331 
L 1856 331 
L 1856 0 
L 263 0 
z
" transform="scale(0.015625)"/>
       </defs>
       <use xlink:href="#DejaVuSerif-4a"/>
       <use xlink:href="#DejaVuSerif-61" x="40.087891"/>
       <use xlink:href="#DejaVuSerif-6e" x="99.707031"/>
       <use xlink:href="#DejaVuSerif-2d" x="164.111328"/>
       <use xlink:href="#DejaVuSerif-32" x="197.900391"/>
       <use xlink:href="#DejaVuSerif-32" x="261.523438"/>
      </g>
     </g>
    </g>
    <g id="xtick_4">
     <g id="line2d_4">
      <g>
       <use xlink:href="#m86b669138b" x="330.426905" y="161.677969" style="stroke: #000000; stroke-width: 0.8"/>
      </g>
     </g>
     <g id="text_4">
      <!-- Feb-22 -->
      <g transform="translate(307.797764 175.055938)scale(0.13 -0.13)">
       <defs>
        <path id="DejaVuSerif-46" d="M 353 0 
L 353 331 
L 947 331 
L 947 4331 
L 353 4331 
L 353 4666 
L 4172 4666 
L 4172 3628 
L 3788 3628 
L 3788 4281 
L 1581 4281 
L 1581 2719 
L 3175 2719 
L 3175 3303 
L 3559 3303 
L 3559 1753 
L 3175 1753 
L 3175 2338 
L 1581 2338 
L 1581 331 
L 2328 331 
L 2328 0 
L 353 0 
z
" transform="scale(0.015625)"/>
        <path id="DejaVuSerif-62" d="M 738 331 
L 738 4531 
L 184 4531 
L 184 4863 
L 1313 4863 
L 1313 2803 
Q 1481 3116 1742 3264 
Q 2003 3413 2388 3413 
Q 3000 3413 3387 2928 
Q 3775 2444 3775 1663 
Q 3775 881 3387 395 
Q 3000 -91 2388 -91 
Q 2003 -91 1742 57 
Q 1481 206 1313 519 
L 1313 0 
L 184 0 
L 184 331 
L 738 331 
z
M 1313 1497 
Q 1313 897 1542 583 
Q 1772 269 2209 269 
Q 2650 269 2876 622 
Q 3103 975 3103 1663 
Q 3103 2353 2876 2703 
Q 2650 3053 2209 3053 
Q 1772 3053 1542 2737 
Q 1313 2422 1313 1825 
L 1313 1497 
z
" transform="scale(0.015625)"/>
       </defs>
       <use xlink:href="#DejaVuSerif-46"/>
       <use xlink:href="#DejaVuSerif-65" x="63.884766"/>
       <use xlink:href="#DejaVuSerif-62" x="123.064453"/>
       <use xlink:href="#DejaVuSerif-2d" x="187.078125"/>
       <use xlink:href="#DejaVuSerif-32" x="220.867188"/>
       <use xlink:href="#DejaVuSerif-32" x="284.490234"/>
      </g>
     </g>
    </g>
    <g id="xtick_5">
     <g id="line2d_5">
      <g>
       <use xlink:href="#m86b669138b" x="421.902314" y="161.677969" style="stroke: #000000; stroke-width: 0.8"/>
      </g>
     </g>
     <g id="text_5">
      <!-- Mar-22 -->
      <g transform="translate(397.796455 175.055938)scale(0.13 -0.13)">
       <defs>
        <path id="DejaVuSerif-4d" d="M 353 0 
L 353 331 
L 947 331 
L 947 4331 
L 319 4331 
L 319 4666 
L 1678 4666 
L 3316 1344 
L 4953 4666 
L 6228 4666 
L 6228 4331 
L 5606 4331 
L 5606 331 
L 6203 331 
L 6203 0 
L 4378 0 
L 4378 331 
L 4972 331 
L 4972 3938 
L 3372 684 
L 2931 684 
L 1331 3938 
L 1331 331 
L 1925 331 
L 1925 0 
L 353 0 
z
" transform="scale(0.015625)"/>
        <path id="DejaVuSerif-72" d="M 3059 3328 
L 3059 2497 
L 2728 2497 
Q 2713 2744 2591 2866 
Q 2469 2988 2234 2988 
Q 1809 2988 1582 2694 
Q 1356 2400 1356 1850 
L 1356 331 
L 2022 331 
L 2022 0 
L 263 0 
L 263 331 
L 781 331 
L 781 2994 
L 231 2994 
L 231 3322 
L 1356 3322 
L 1356 2731 
Q 1525 3078 1790 3245 
Q 2056 3413 2438 3413 
Q 2578 3413 2733 3391 
Q 2888 3369 3059 3328 
z
" transform="scale(0.015625)"/>
       </defs>
       <use xlink:href="#DejaVuSerif-4d"/>
       <use xlink:href="#DejaVuSerif-61" x="102.392578"/>
       <use xlink:href="#DejaVuSerif-72" x="162.011719"/>
       <use xlink:href="#DejaVuSerif-2d" x="209.814453"/>
       <use xlink:href="#DejaVuSerif-32" x="243.603516"/>
       <use xlink:href="#DejaVuSerif-32" x="307.226562"/>
      </g>
     </g>
    </g>
    <g id="xtick_6">
     <g id="line2d_6">
      <g>
       <use xlink:href="#m86b669138b" x="523.178661" y="161.677969" style="stroke: #000000; stroke-width: 0.8"/>
      </g>
     </g>
     <g id="text_6">
      <!-- Apr-22 -->
      <g transform="translate(500.748583 175.055938)scale(0.13 -0.13)">
       <defs>
        <path id="DejaVuSerif-41" d="M 1281 1691 
L 2994 1691 
L 2138 3909 
L 1281 1691 
z
M -38 0 
L -38 331 
L 372 331 
L 2034 4666 
L 2559 4666 
L 4225 331 
L 4684 331 
L 4684 0 
L 2988 0 
L 2988 331 
L 3506 331 
L 3116 1356 
L 1153 1356 
L 763 331 
L 1275 331 
L 1275 0 
L -38 0 
z
" transform="scale(0.015625)"/>
        <path id="DejaVuSerif-70" d="M 1313 1825 
L 1313 1497 
Q 1313 897 1542 583 
Q 1772 269 2209 269 
Q 2650 269 2876 622 
Q 3103 975 3103 1663 
Q 3103 2353 2876 2703 
Q 2650 3053 2209 3053 
Q 1772 3053 1542 2737 
Q 1313 2422 1313 1825 
z
M 738 2988 
L 184 2988 
L 184 3322 
L 1313 3322 
L 1313 2803 
Q 1481 3116 1742 3264 
Q 2003 3413 2388 3413 
Q 3000 3413 3387 2928 
Q 3775 2444 3775 1663 
Q 3775 881 3387 395 
Q 3000 -91 2388 -91 
Q 2003 -91 1742 57 
Q 1481 206 1313 519 
L 1313 -997 
L 1856 -997 
L 1856 -1331 
L 184 -1331 
L 184 -997 
L 738 -997 
L 738 2988 
z
" transform="scale(0.015625)"/>
       </defs>
       <use xlink:href="#DejaVuSerif-41"/>
       <use xlink:href="#DejaVuSerif-70" x="72.216797"/>
       <use xlink:href="#DejaVuSerif-72" x="136.230469"/>
       <use xlink:href="#DejaVuSerif-2d" x="184.033203"/>
       <use xlink:href="#DejaVuSerif-32" x="217.822266"/>
       <use xlink:href="#DejaVuSerif-32" x="281.445312"/>
      </g>
     </g>
    </g>
    <g id="xtick_7">
     <g id="line2d_7">
      <g>
       <use xlink:href="#m86b669138b" x="621.188029" y="161.677969" style="stroke: #000000; stroke-width: 0.8"/>
      </g>
     </g>
     <g id="text_7">
      <!-- May-22 -->
      <g transform="translate(596.516466 174.871094)scale(0.13 -0.13)">
       <defs>
        <path id="DejaVuSerif-79" d="M 1381 -609 
L 1600 -56 
L 359 2988 
L -19 2988 
L -19 3322 
L 1509 3322 
L 1509 2988 
L 978 2988 
L 1913 703 
L 2847 2988 
L 2350 2988 
L 2350 3322 
L 3597 3322 
L 3597 2988 
L 3225 2988 
L 1703 -750 
Q 1547 -1138 1356 -1280 
Q 1166 -1422 819 -1422 
Q 672 -1422 517 -1397 
Q 363 -1372 206 -1325 
L 206 -691 
L 500 -691 
Q 519 -903 608 -995 
Q 697 -1088 884 -1088 
Q 1056 -1088 1161 -992 
Q 1266 -897 1381 -609 
z
" transform="scale(0.015625)"/>
       </defs>
       <use xlink:href="#DejaVuSerif-4d"/>
       <use xlink:href="#DejaVuSerif-61" x="102.392578"/>
       <use xlink:href="#DejaVuSerif-79" x="162.011719"/>
       <use xlink:href="#DejaVuSerif-2d" x="218.505859"/>
       <use xlink:href="#DejaVuSerif-32" x="252.294922"/>
       <use xlink:href="#DejaVuSerif-32" x="315.917969"/>
      </g>
     </g>
    </g>
    <g id="xtick_8">
     <g id="line2d_8">
      <g>
       <use xlink:href="#m86b669138b" x="722.464375" y="161.677969" style="stroke: #000000; stroke-width: 0.8"/>
      </g>
     </g>
     <g id="text_8">
      <!-- Jun-22 -->
      <g transform="translate(701.017422 175.055938)scale(0.13 -0.13)">
       <defs>
        <path id="DejaVuSerif-75" d="M 2266 3322 
L 3341 3322 
L 3341 331 
L 3884 331 
L 3884 0 
L 2766 0 
L 2766 588 
Q 2606 256 2353 82 
Q 2100 -91 1766 -91 
Q 1213 -91 952 223 
Q 691 538 691 1209 
L 691 2988 
L 172 2988 
L 172 3322 
L 1269 3322 
L 1269 1388 
Q 1269 781 1417 556 
Q 1566 331 1947 331 
Q 2347 331 2556 625 
Q 2766 919 2766 1478 
L 2766 2988 
L 2266 2988 
L 2266 3322 
z
" transform="scale(0.015625)"/>
       </defs>
       <use xlink:href="#DejaVuSerif-4a"/>
       <use xlink:href="#DejaVuSerif-75" x="40.087891"/>
       <use xlink:href="#DejaVuSerif-6e" x="104.492188"/>
       <use xlink:href="#DejaVuSerif-2d" x="168.896484"/>
       <use xlink:href="#DejaVuSerif-32" x="202.685547"/>
       <use xlink:href="#DejaVuSerif-32" x="266.308594"/>
      </g>
     </g>
    </g>
    <g id="xtick_9">
     <g id="line2d_9">
      <g>
       <use xlink:href="#m86b669138b" x="820.473743" y="161.677969" style="stroke: #000000; stroke-width: 0.8"/>
      </g>
     </g>
     <g id="text_9">
      <!-- Jul-22 -->
      <g transform="translate(801.134212 175.055938)scale(0.13 -0.13)">
       <defs>
        <path id="DejaVuSerif-6c" d="M 1313 331 
L 1856 331 
L 1856 0 
L 184 0 
L 184 331 
L 738 331 
L 738 4531 
L 184 4531 
L 184 4863 
L 1313 4863 
L 1313 331 
z
" transform="scale(0.015625)"/>
       </defs>
       <use xlink:href="#DejaVuSerif-4a"/>
       <use xlink:href="#DejaVuSerif-75" x="40.087891"/>
       <use xlink:href="#DejaVuSerif-6c" x="104.492188"/>
       <use xlink:href="#DejaVuSerif-2d" x="136.474609"/>
       <use xlink:href="#DejaVuSerif-32" x="170.263672"/>
       <use xlink:href="#DejaVuSerif-32" x="233.886719"/>
      </g>
     </g>
    </g>
    <g id="xtick_10">
     <g id="line2d_10">
      <g>
       <use xlink:href="#m86b669138b" x="921.75009" y="161.677969" style="stroke: #000000; stroke-width: 0.8"/>
      </g>
     </g>
     <g id="text_10">
      <!-- Aug-22 -->
      <g transform="translate(898.240402 174.871094)scale(0.13 -0.13)">
       <defs>
        <path id="DejaVuSerif-67" d="M 3359 2988 
L 3359 72 
Q 3359 -644 2965 -1033 
Q 2572 -1422 1844 -1422 
Q 1516 -1422 1216 -1362 
Q 916 -1303 641 -1184 
L 641 -488 
L 941 -488 
Q 997 -813 1206 -963 
Q 1416 -1113 1806 -1113 
Q 2313 -1113 2548 -827 
Q 2784 -541 2784 72 
L 2784 519 
Q 2616 206 2355 57 
Q 2094 -91 1709 -91 
Q 1097 -91 708 395 
Q 319 881 319 1663 
Q 319 2444 706 2928 
Q 1094 3413 1709 3413 
Q 2094 3413 2355 3264 
Q 2616 3116 2784 2803 
L 2784 3322 
L 3909 3322 
L 3909 2988 
L 3359 2988 
z
M 2784 1825 
Q 2784 2422 2554 2737 
Q 2325 3053 1888 3053 
Q 1444 3053 1217 2703 
Q 991 2353 991 1663 
Q 991 975 1217 622 
Q 1444 269 1888 269 
Q 2325 269 2554 583 
Q 2784 897 2784 1497 
L 2784 1825 
z
" transform="scale(0.015625)"/>
       </defs>
       <use xlink:href="#DejaVuSerif-41"/>
       <use xlink:href="#DejaVuSerif-75" x="72.216797"/>
       <use xlink:href="#DejaVuSerif-67" x="136.621094"/>
       <use xlink:href="#DejaVuSerif-2d" x="200.634766"/>
       <use xlink:href="#DejaVuSerif-32" x="234.423828"/>
       <use xlink:href="#DejaVuSerif-32" x="298.046875"/>
      </g>
     </g>
    </g>
    <g id="xtick_11">
     <g id="line2d_11">
      <g>
       <use xlink:href="#m86b669138b" x="1023.026436" y="161.677969" style="stroke: #000000; stroke-width: 0.8"/>
      </g>
     </g>
     <g id="text_11">
      <!-- Sep-22 -->
      <g transform="translate(1000.097686 175.055938)scale(0.13 -0.13)">
       <defs>
        <path id="DejaVuSerif-53" d="M 594 225 
L 594 1288 
L 953 1284 
Q 969 753 1261 498 
Q 1553 244 2150 244 
Q 2706 244 2998 464 
Q 3291 684 3291 1106 
Q 3291 1444 3114 1625 
Q 2938 1806 2369 1978 
L 1753 2163 
Q 1084 2366 811 2669 
Q 538 2972 538 3500 
Q 538 4094 959 4422 
Q 1381 4750 2144 4750 
Q 2469 4750 2856 4679 
Q 3244 4609 3681 4475 
L 3681 3481 
L 3328 3481 
Q 3275 3975 2998 4195 
Q 2722 4416 2156 4416 
Q 1663 4416 1405 4214 
Q 1147 4013 1147 3628 
Q 1147 3294 1340 3103 
Q 1534 2913 2163 2725 
L 2741 2553 
Q 3375 2363 3645 2067 
Q 3916 1772 3916 1275 
Q 3916 597 3481 253 
Q 3047 -91 2188 -91 
Q 1803 -91 1404 -12 
Q 1006 66 594 225 
z
" transform="scale(0.015625)"/>
       </defs>
       <use xlink:href="#DejaVuSerif-53"/>
       <use xlink:href="#DejaVuSerif-65" x="68.505859"/>
       <use xlink:href="#DejaVuSerif-70" x="127.685547"/>
       <use xlink:href="#DejaVuSerif-2d" x="191.699219"/>
       <use xlink:href="#DejaVuSerif-32" x="225.488281"/>
       <use xlink:href="#DejaVuSerif-32" x="289.111328"/>
      </g>
     </g>
    </g>
    <g id="xtick_12">
     <g id="line2d_12">
      <g>
       <use xlink:href="#m86b669138b" x="1121.035804" y="161.677969" style="stroke: #000000; stroke-width: 0.8"/>
      </g>
     </g>
     <g id="text_12">
      <!-- Oct-22 -->
      <g transform="translate(1098.986585 175.055938)scale(0.13 -0.13)">
       <defs>
        <path id="DejaVuSerif-4f" d="M 2625 244 
Q 3391 244 3781 770 
Q 4172 1297 4172 2328 
Q 4172 3363 3781 3889 
Q 3391 4416 2625 4416 
Q 1856 4416 1465 3889 
Q 1075 3363 1075 2328 
Q 1075 1297 1465 770 
Q 1856 244 2625 244 
z
M 2625 -91 
Q 2150 -91 1751 65 
Q 1353 222 1050 525 
Q 700 875 529 1319 
Q 359 1763 359 2328 
Q 359 2894 529 3339 
Q 700 3784 1050 4134 
Q 1356 4441 1750 4595 
Q 2144 4750 2625 4750 
Q 3641 4750 4266 4084 
Q 4891 3419 4891 2328 
Q 4891 1769 4719 1320 
Q 4547 872 4197 525 
Q 3891 219 3497 64 
Q 3103 -91 2625 -91 
z
" transform="scale(0.015625)"/>
        <path id="DejaVuSerif-74" d="M 691 2988 
L 184 2988 
L 184 3322 
L 691 3322 
L 691 4353 
L 1269 4353 
L 1269 3322 
L 2350 3322 
L 2350 2988 
L 1269 2988 
L 1269 878 
Q 1269 456 1350 337 
Q 1431 219 1650 219 
Q 1875 219 1978 351 
Q 2081 484 2088 781 
L 2522 781 
Q 2497 328 2275 118 
Q 2053 -91 1600 -91 
Q 1103 -91 897 129 
Q 691 350 691 878 
L 691 2988 
z
" transform="scale(0.015625)"/>
       </defs>
       <use xlink:href="#DejaVuSerif-4f"/>
       <use xlink:href="#DejaVuSerif-63" x="81.982422"/>
       <use xlink:href="#DejaVuSerif-74" x="137.988281"/>
       <use xlink:href="#DejaVuSerif-2d" x="178.173828"/>
       <use xlink:href="#DejaVuSerif-32" x="211.962891"/>
       <use xlink:href="#DejaVuSerif-32" x="275.585938"/>
      </g>
     </g>
    </g>
    <g id="xtick_13">
     <g id="line2d_13">
      <g>
       <use xlink:href="#m86b669138b" x="1222.312151" y="161.677969" style="stroke: #000000; stroke-width: 0.8"/>
      </g>
     </g>
     <g id="text_13">
      <!-- Nov-22 -->
      <g transform="translate(1198.570901 175.055938)scale(0.13 -0.13)">
       <use xlink:href="#DejaVuSerif-4e"/>
       <use xlink:href="#DejaVuSerif-6f" x="87.5"/>
       <use xlink:href="#DejaVuSerif-76" x="147.705078"/>
       <use xlink:href="#DejaVuSerif-2d" x="204.199219"/>
       <use xlink:href="#DejaVuSerif-32" x="237.988281"/>
       <use xlink:href="#DejaVuSerif-32" x="301.611328"/>
      </g>
     </g>
    </g>
    <g id="xtick_14">
     <g id="line2d_14">
      <g>
       <use xlink:href="#m86b669138b" x="1320.321518" y="161.677969" style="stroke: #000000; stroke-width: 0.8"/>
      </g>
     </g>
     <g id="text_14">
      <!-- Dec-22 -->
      <g transform="translate(1297.155112 175.055938)scale(0.13 -0.13)">
       <use xlink:href="#DejaVuSerif-44"/>
       <use xlink:href="#DejaVuSerif-65" x="80.175781"/>
       <use xlink:href="#DejaVuSerif-63" x="139.355469"/>
       <use xlink:href="#DejaVuSerif-2d" x="195.361328"/>
       <use xlink:href="#DejaVuSerif-32" x="229.150391"/>
       <use xlink:href="#DejaVuSerif-32" x="292.773438"/>
      </g>
     </g>
    </g>
    <g id="xtick_15">
     <g id="line2d_15">
      <g>
       <use xlink:href="#m86b669138b" x="1421.597865" y="161.677969" style="stroke: #000000; stroke-width: 0.8"/>
      </g>
     </g>
     <g id="text_15">
      <!-- Jan-23 -->
      <g transform="translate(1400.461693 175.055938)scale(0.13 -0.13)">
       <defs>
        <path id="DejaVuSerif-33" d="M 622 4469 
Q 988 4606 1323 4678 
Q 1659 4750 1953 4750 
Q 2638 4750 3022 4454 
Q 3406 4159 3406 3634 
Q 3406 3213 3140 2930 
Q 2875 2647 2388 2547 
Q 2963 2466 3280 2130 
Q 3597 1794 3597 1259 
Q 3597 606 3158 257 
Q 2719 -91 1894 -91 
Q 1528 -91 1179 -12 
Q 831 66 488 225 
L 488 1131 
L 838 1131 
Q 869 681 1141 450 
Q 1413 219 1906 219 
Q 2384 219 2661 495 
Q 2938 772 2938 1253 
Q 2938 1803 2653 2086 
Q 2369 2369 1819 2369 
L 1522 2369 
L 1522 2688 
L 1678 2688 
Q 2225 2688 2498 2914 
Q 2772 3141 2772 3597 
Q 2772 4006 2547 4223 
Q 2322 4441 1900 4441 
Q 1478 4441 1245 4241 
Q 1013 4041 972 3647 
L 622 3647 
L 622 4469 
z
" transform="scale(0.015625)"/>
       </defs>
       <use xlink:href="#DejaVuSerif-4a"/>
       <use xlink:href="#DejaVuSerif-61" x="40.087891"/>
       <use xlink:href="#DejaVuSerif-6e" x="99.707031"/>
       <use xlink:href="#DejaVuSerif-2d" x="164.111328"/>
       <use xlink:href="#DejaVuSerif-32" x="197.900391"/>
       <use xlink:href="#DejaVuSerif-33" x="261.523438"/>
      </g>
     </g>
    </g>
   </g>
   <g id="matplotlib.axis_2">
    <g id="ytick_1">
     <g id="line2d_16">
      <defs>
       <path id="m792ce2635c" d="M 0 0 
L 3.5 0 
" style="stroke: #000000; stroke-width: 0.8"/>
      </defs>
      <g>
       <use xlink:href="#m792ce2635c" x="29.864844" y="161.677969" style="stroke: #000000; stroke-width: 0.8"/>
      </g>
     </g>
     <g id="text_16">
      <!-- −1 -->
      <g transform="translate(7.2 166.616953)scale(0.13 -0.13)">
       <defs>
        <path id="DejaVuSerif-2212" d="M 678 2259 
L 4684 2259 
L 4684 1753 
L 678 1753 
L 678 2259 
z
" transform="scale(0.015625)"/>
       </defs>
       <use xlink:href="#DejaVuSerif-2212"/>
       <use xlink:href="#DejaVuSerif-31" x="83.789062"/>
      </g>
     </g>
    </g>
    <g id="ytick_2">
     <g id="line2d_17">
      <g>
       <use xlink:href="#m792ce2635c" x="29.864844" y="92.412601" style="stroke: #000000; stroke-width: 0.8"/>
      </g>
     </g>
     <g id="text_17">
      <!-- 0 -->
      <g transform="translate(18.093594 97.351586)scale(0.13 -0.13)">
       <defs>
        <path id="DejaVuSerif-30" d="M 2034 219 
Q 2513 219 2750 744 
Q 2988 1269 2988 2328 
Q 2988 3391 2750 3916 
Q 2513 4441 2034 4441 
Q 1556 4441 1318 3916 
Q 1081 3391 1081 2328 
Q 1081 1269 1318 744 
Q 1556 219 2034 219 
z
M 2034 -91 
Q 1275 -91 848 546 
Q 422 1184 422 2328 
Q 422 3475 848 4112 
Q 1275 4750 2034 4750 
Q 2797 4750 3222 4112 
Q 3647 3475 3647 2328 
Q 3647 1184 3222 546 
Q 2797 -91 2034 -91 
z
" transform="scale(0.015625)"/>
       </defs>
       <use xlink:href="#DejaVuSerif-30"/>
      </g>
     </g>
    </g>
    <g id="ytick_3">
     <g id="line2d_18">
      <g>
       <use xlink:href="#m792ce2635c" x="29.864844" y="23.147234" style="stroke: #000000; stroke-width: 0.8"/>
      </g>
     </g>
     <g id="text_18">
      <!-- 1 -->
      <g transform="translate(18.093594 28.086218)scale(0.13 -0.13)">
       <use xlink:href="#DejaVuSerif-31"/>
      </g>
     </g>
    </g>
   </g>
   <g id="line2d_19">
    <path d="M 26.597865 108.329397 
L 29.864844 178.761963 
L 33.131823 104.406665 
M 39.665781 80.414869 
L 42.932759 33.880115 
M 56.000675 39.35886 
L 59.267654 52.164475 
L 62.534633 95.765132 
L 65.801612 1.111754 
L 69.068591 83.355771 
L 71.561769 185.959531 
M 73.484906 185.959531 
L 75.602549 127.285691 
L 78.869528 151.394792 
L 82.136507 138.536624 
M 105.005359 90.611855 
L 108.272338 50.025489 
L 111.539317 161.693566 
L 114.806296 176.177838 
L 118.073275 126.312661 
M 124.607233 67.827856 
L 127.874211 149.940797 
L 131.14119 106.622328 
M 138.439836 185.959531 
L 140.942127 115.666331 
L 143.947465 185.959531 
M 144.892324 185.959531 
L 147.476085 162.816603 
L 150.64514 185.959531 
M 150.772962 185.959531 
L 154.010043 108.532243 
L 157.277022 128.062615 
L 159.202465 185.959531 
M 165.008169 185.959531 
L 167.077959 134.623597 
L 170.344937 114.519297 
L 173.611916 131.120743 
L 176.878895 111.942727 
L 179.819931 185.959531 
M 180.469328 185.959531 
L 183.412853 111.309951 
M 193.21379 157.562471 
L 196.480769 138.312338 
L 199.747748 153.242863 
L 203.014727 117.817576 
L 206.281706 76.062071 
L 209.548684 140.372567 
L 212.815663 92.547483 
L 216.082642 135.49339 
L 219.349621 155.854434 
M 225.883579 129.005226 
L 229.150558 51.161756 
M 235.684516 93.888475 
L 238.951495 84.794273 
L 242.218474 91.701611 
L 245.485453 85.145214 
L 248.752432 92.756176 
L 251.128719 185.959531 
M 253.52863 185.959531 
L 255.286389 145.27144 
L 258.553368 146.298882 
L 261.806618 185.959531 
M 261.836482 185.959531 
L 265.087326 152.237699 
L 268.354305 114.530099 
L 271.621284 135.674531 
L 274.888263 115.022074 
M 281.422221 132.399491 
L 284.6892 121.903981 
L 287.956179 161.449807 
L 291.223158 132.060437 
L 294.490136 111.994757 
L 297.757115 122.666983 
L 301.024094 123.715406 
L 304.291073 121.33528 
L 307.558052 103.715826 
L 310.825031 87.559771 
L 314.09201 79.293865 
L 317.358989 68.496571 
L 320.625968 71.875574 
L 323.892947 69.857164 
L 327.159926 52.863819 
L 330.426905 67.439787 
L 333.693884 57.313916 
L 336.960862 74.616672 
L 340.227841 71.380011 
L 343.49482 61.070232 
L 346.761799 55.961941 
L 350.028778 63.977825 
L 353.295757 67.181599 
L 356.562736 69.861272 
L 359.829715 67.709438 
L 363.096694 71.022506 
L 366.363673 59.060248 
L 369.630652 84.209026 
L 372.897631 95.999601 
L 376.16461 104.651193 
L 379.431588 99.014855 
L 382.698567 101.562096 
L 385.965546 132.427113 
L 389.232525 125.79799 
L 392.499504 117.657887 
L 395.766483 123.040113 
L 399.033462 104.092869 
L 402.300441 80.718858 
L 405.56742 85.638736 
L 408.834399 88.673566 
L 412.101378 97.244568 
L 415.368357 82.452041 
L 418.635336 78.108731 
L 421.902314 86.468332 
L 425.169293 93.816565 
L 428.436272 95.592581 
L 431.703251 91.600044 
L 434.97023 83.711482 
L 438.237209 82.025712 
L 441.504188 87.668979 
L 444.771167 96.399251 
L 448.038146 87.461245 
L 451.305125 87.663072 
L 454.572104 90.776585 
L 457.839083 88.076571 
L 461.106062 90.388226 
L 464.37304 96.725856 
L 467.640019 95.232541 
L 470.906998 93.883765 
L 474.173977 91.521431 
L 477.440956 96.849915 
L 480.707935 100.741758 
L 483.974914 94.885415 
L 487.241893 92.114165 
L 490.508872 81.621938 
L 493.775851 97.574082 
L 497.04283 100.303083 
L 500.309809 95.902102 
L 503.576788 111.897068 
L 506.843766 107.770207 
L 510.110745 85.115667 
L 513.377724 88.284278 
L 516.644703 95.949385 
L 519.911682 82.469859 
L 523.178661 76.941773 
L 526.44564 94.361034 
L 529.712619 122.798055 
L 532.979598 131.259494 
L 536.246577 98.456767 
L 539.513556 90.9379 
L 542.780535 86.185439 
L 546.047514 87.719498 
L 549.314492 97.972259 
L 552.581471 83.515481 
L 555.84845 82.449968 
L 559.115429 84.641845 
L 562.382408 84.488252 
L 565.649387 88.610178 
L 572.183345 98.75978 
L 575.450324 91.586418 
L 578.717303 89.62186 
L 581.984282 101.435824 
L 585.251261 92.597553 
L 588.51824 87.984978 
L 591.785218 94.200435 
L 595.052197 75.038273 
L 598.319176 86.961264 
L 601.586155 92.123674 
L 604.853134 90.639238 
L 608.120113 86.531633 
L 611.387092 86.966164 
L 614.654071 88.516587 
L 617.92105 75.784353 
L 621.188029 91.82987 
L 624.455008 80.501281 
L 627.721987 80.769577 
L 630.988966 84.512411 
L 634.255944 88.065569 
L 637.522923 87.668317 
L 640.789902 84.400396 
L 644.056881 87.589944 
L 647.32386 88.011527 
L 650.590839 83.066641 
L 653.857818 97.734335 
L 657.124797 106.904724 
L 660.391776 102.404075 
L 663.658755 103.422553 
L 666.925734 108.311633 
L 670.192713 101.559871 
L 673.459692 109.872551 
L 676.72667 121.421928 
L 679.993649 108.640871 
L 683.260628 104.949143 
L 686.527607 118.249505 
L 689.794586 105.843732 
L 693.061565 114.819296 
L 696.328544 110.853519 
L 699.595523 100.90689 
L 702.862502 107.137444 
L 706.129481 99.854911 
L 709.39646 96.518376 
L 712.663439 84.509245 
L 715.930418 99.545056 
L 719.197396 83.183737 
L 722.464375 90.940783 
L 725.731354 82.185354 
L 728.998333 85.724924 
L 732.265312 67.86136 
L 735.532291 71.458055 
L 738.79927 79.297405 
L 742.066249 67.857228 
L 745.333228 57.716542 
L 748.600207 75.739347 
L 751.867186 60.033403 
L 755.134165 46.958639 
L 758.401144 100.034292 
L 761.668122 96.537511 
L 764.935101 71.464518 
L 768.20208 66.156043 
L 771.469059 87.311673 
L 774.736038 101.485776 
L 778.003017 75.130555 
L 781.269996 52.350752 
L 784.536975 68.49493 
L 787.803954 88.138713 
L 791.070933 79.953285 
L 794.337912 69.391162 
L 797.604891 54.705883 
L 800.87187 72.976509 
L 804.138848 82.091661 
L 807.405827 76.871342 
L 810.672806 81.091725 
L 813.939785 78.277164 
L 817.206764 80.17291 
L 820.473743 87.330667 
L 823.740722 83.781847 
L 827.007701 82.455304 
L 830.27468 79.866703 
L 833.541659 71.36082 
L 840.075617 83.458683 
L 843.342596 86.674801 
L 846.609574 90.126315 
L 849.876553 79.700602 
L 853.143532 79.762672 
L 856.410511 78.744639 
L 859.67749 91.764547 
L 862.944469 82.254453 
L 866.211448 88.699965 
L 869.478427 96.211193 
L 872.745406 114.485592 
L 876.012385 90.395252 
L 879.279364 83.391939 
L 885.813322 96.30816 
L 889.0803 100.373564 
L 892.347279 89.420185 
L 895.614258 97.965067 
L 898.881237 88.984701 
L 902.148216 84.327002 
L 905.415195 88.306087 
L 908.682174 100.024669 
L 911.949153 97.344626 
L 915.216132 96.074711 
L 918.483111 120.360715 
L 921.75009 87.859292 
L 925.017069 100.280329 
L 928.284047 100.094373 
L 931.551026 92.214104 
L 934.818005 59.334862 
L 938.084984 82.484554 
L 941.351963 80.753564 
L 944.618942 108.667651 
L 947.885921 93.398395 
L 951.1529 116.263662 
L 954.419879 116.356385 
L 957.686858 115.696021 
L 960.953837 134.305808 
L 964.220816 120.873051 
L 967.487795 113.462465 
L 970.754773 88.835886 
L 974.021752 102.615159 
L 977.288731 103.74395 
L 980.55571 176.066905 
L 983.822689 119.751094 
L 987.089668 117.319627 
L 990.356647 71.092205 
L 993.623626 95.639681 
L 996.890605 93.73233 
L 1000.157584 102.438595 
L 1003.424563 102.530421 
L 1006.691542 124.465608 
L 1009.958521 103.882677 
L 1013.225499 86.220092 
L 1016.492478 88.715951 
L 1019.759457 88.289743 
L 1023.026436 88.332185 
L 1026.293415 87.364104 
L 1029.560394 75.830567 
L 1032.827373 97.989002 
L 1036.094352 81.752296 
L 1039.361331 81.306895 
L 1042.62831 93.711448 
L 1045.895289 94.080493 
L 1049.162268 89.945768 
L 1052.429247 107.734485 
L 1055.696225 46.263135 
L 1058.963204 89.691024 
L 1062.230183 96.470741 
L 1065.497162 116.529337 
L 1068.764141 94.893317 
L 1072.03112 103.704126 
L 1075.298099 107.28897 
L 1078.565078 99.365323 
L 1081.832057 94.612905 
L 1085.099036 104.483694 
L 1088.366015 109.599043 
L 1091.632994 101.135912 
L 1094.899973 90.750526 
L 1098.166951 89.783346 
L 1101.43393 105.911662 
L 1104.700909 106.337008 
L 1107.967888 95.797135 
L 1111.234867 89.052193 
L 1114.501846 90.484534 
L 1117.768825 70.964777 
L 1121.035804 78.41748 
L 1124.302783 67.776868 
L 1127.569762 80.582231 
L 1130.836741 66.298961 
L 1134.10372 70.356165 
L 1137.370699 81.102688 
L 1140.637677 87.278974 
L 1143.904656 106.790843 
L 1147.171635 104.565699 
L 1150.438614 106.066987 
L 1153.705593 103.97845 
L 1160.239551 90.555579 
L 1163.50653 97.267308 
L 1166.773509 101.378867 
L 1170.040488 87.619838 
L 1173.307467 101.566584 
L 1176.574446 103.089832 
L 1179.841425 87.006312 
L 1183.108403 93.407132 
L 1186.375382 99.497168 
L 1189.642361 85.337263 
L 1192.90934 97.307708 
L 1196.176319 85.326615 
L 1199.443298 108.100017 
L 1202.710277 105.331243 
L 1205.977256 96.116619 
L 1209.244235 98.853509 
L 1212.511214 91.883213 
L 1215.778193 79.327003 
L 1219.045172 103.722046 
L 1222.312151 110.987243 
L 1225.579129 88.543203 
L 1228.846108 82.14976 
L 1232.113087 85.734778 
L 1235.380066 106.686627 
M 1241.914024 98.08496 
L 1245.181003 90.105755 
L 1248.447982 85.897019 
L 1251.714961 75.220771 
L 1254.98194 97.95545 
L 1258.248919 80.601299 
L 1261.515898 90.869785 
L 1264.782877 92.556067 
L 1268.049855 84.936381 
L 1271.316834 65.969952 
L 1274.583813 60.225772 
L 1277.850792 63.376645 
L 1281.117771 49.57585 
L 1284.38475 45.443281 
L 1287.651729 68.307309 
L 1290.918708 62.102123 
L 1294.185687 73.531438 
L 1297.452666 83.563949 
L 1300.719645 38.834557 
L 1303.986624 75.111198 
L 1307.253603 94.241871 
L 1310.520581 60.094786 
L 1313.78756 43.307621 
L 1317.054539 68.056159 
L 1320.321518 60.186874 
L 1323.588497 57.242253 
L 1326.855476 44.074164 
M 1333.389434 60.495201 
L 1336.656413 51.251904 
L 1339.923392 53.932287 
L 1343.190371 102.59927 
L 1346.45735 92.412601 
L 1411.796928 92.412601 
L 1411.796928 92.412601 
" clip-path="url(#p5cc7ba5ae0)" style="fill: none; stroke: #000000; stroke-linecap: square"/>
   </g>
   <g id="LineCollection_1">
    <path d="M 421.902314 185.959531 
L 421.902314 -1 
" clip-path="url(#p5cc7ba5ae0)" style="fill: none; stroke-dasharray: 1.5,2.475; stroke-dashoffset: 0; stroke: #000000; stroke-width: 1.5"/>
    <path d="M 921.75009 185.959531 
L 921.75009 -1 
" clip-path="url(#p5cc7ba5ae0)" style="fill: none; stroke-dasharray: 1.5,2.475; stroke-dashoffset: 0; stroke: #000000; stroke-width: 1.5"/>
   </g>
   <g id="patch_3">
    <path d="M 29.864844 161.677969 
L 29.864844 23.077969 
" style="fill: none; stroke: #000000; stroke-width: 0.8; stroke-linejoin: miter; stroke-linecap: square"/>
   </g>
   <g id="patch_4">
    <path d="M 1424.864844 161.677969 
L 1424.864844 23.077969 
" style="fill: none; stroke: #000000; stroke-width: 0.8; stroke-linejoin: miter; stroke-linecap: square"/>
   </g>
   <g id="patch_5">
    <path d="M 29.864844 161.677969 
L 1424.864844 161.677969 
" style="fill: none; stroke: #000000; stroke-width: 0.8; stroke-linejoin: miter; stroke-linecap: square"/>
   </g>
   <g id="patch_6">
    <path d="M 29.864844 23.077969 
L 1424.864844 23.077969 
" style="fill: none; stroke: #000000; stroke-width: 0.8; stroke-linejoin: miter; stroke-linecap: square"/>
   </g>
   <g id="text_19">
    <!-- Daily Resonance - Fox Articles -->
    <g transform="translate(627.136875 17.077969)scale(0.13 -0.13)">
     <defs>
      <path id="DejaVuSerif-69" d="M 622 4353 
Q 622 4497 726 4603 
Q 831 4709 978 4709 
Q 1122 4709 1226 4603 
Q 1331 4497 1331 4353 
Q 1331 4206 1228 4103 
Q 1125 4000 978 4000 
Q 831 4000 726 4103 
Q 622 4206 622 4353 
z
M 1356 331 
L 1900 331 
L 1900 0 
L 231 0 
L 231 331 
L 781 331 
L 781 2988 
L 231 2988 
L 231 3322 
L 1356 3322 
L 1356 331 
z
" transform="scale(0.015625)"/>
      <path id="DejaVuSerif-20" transform="scale(0.015625)"/>
      <path id="DejaVuSerif-52" d="M 3066 2316 
Q 3284 2256 3442 2114 
Q 3600 1972 3725 1716 
L 4403 331 
L 4972 331 
L 4972 0 
L 3872 0 
L 3144 1484 
Q 2934 1916 2759 2042 
Q 2584 2169 2278 2169 
L 1581 2169 
L 1581 331 
L 2241 331 
L 2241 0 
L 353 0 
L 353 331 
L 947 331 
L 947 4331 
L 353 4331 
L 353 4666 
L 2719 4666 
Q 3400 4666 3770 4341 
Q 4141 4016 4141 3419 
Q 4141 2938 3870 2661 
Q 3600 2384 3066 2316 
z
M 1581 2503 
L 2503 2503 
Q 2975 2503 3200 2726 
Q 3425 2950 3425 3419 
Q 3425 3888 3200 4109 
Q 2975 4331 2503 4331 
L 1581 4331 
L 1581 2503 
z
" transform="scale(0.015625)"/>
      <path id="DejaVuSerif-73" d="M 359 184 
L 359 959 
L 691 959 
Q 703 588 923 403 
Q 1144 219 1575 219 
Q 1963 219 2166 364 
Q 2369 509 2369 788 
Q 2369 1006 2220 1140 
Q 2072 1275 1594 1428 
L 1178 1569 
Q 750 1706 558 1912 
Q 366 2119 366 2438 
Q 366 2894 700 3153 
Q 1034 3413 1625 3413 
Q 1888 3413 2178 3344 
Q 2469 3275 2778 3144 
L 2778 2419 
L 2447 2419 
Q 2434 2741 2221 2922 
Q 2009 3103 1644 3103 
Q 1281 3103 1095 2975 
Q 909 2847 909 2591 
Q 909 2381 1050 2254 
Q 1191 2128 1613 1997 
L 2069 1856 
Q 2541 1709 2748 1489 
Q 2956 1269 2956 922 
Q 2956 450 2595 179 
Q 2234 -91 1600 -91 
Q 1278 -91 972 -22 
Q 666 47 359 184 
z
" transform="scale(0.015625)"/>
      <path id="DejaVuSerif-78" d="M 1863 2028 
L 2559 2988 
L 2113 2988 
L 2113 3322 
L 3391 3322 
L 3391 2988 
L 2950 2988 
L 2059 1759 
L 3097 331 
L 3531 331 
L 3531 0 
L 1997 0 
L 1997 331 
L 2419 331 
L 1697 1325 
L 972 331 
L 1403 331 
L 1403 0 
L 141 0 
L 141 331 
L 581 331 
L 1497 1594 
L 488 2988 
L 78 2988 
L 78 3322 
L 1563 3322 
L 1563 2988 
L 1166 2988 
L 1863 2028 
z
" transform="scale(0.015625)"/>
     </defs>
     <use xlink:href="#DejaVuSerif-44"/>
     <use xlink:href="#DejaVuSerif-61" x="80.175781"/>
     <use xlink:href="#DejaVuSerif-69" x="139.794922"/>
     <use xlink:href="#DejaVuSerif-6c" x="171.777344"/>
     <use xlink:href="#DejaVuSerif-79" x="203.759766"/>
     <use xlink:href="#DejaVuSerif-20" x="260.253906"/>
     <use xlink:href="#DejaVuSerif-52" x="292.041016"/>
     <use xlink:href="#DejaVuSerif-65" x="367.333984"/>
     <use xlink:href="#DejaVuSerif-73" x="426.513672"/>
     <use xlink:href="#DejaVuSerif-6f" x="477.832031"/>
     <use xlink:href="#DejaVuSerif-6e" x="538.037109"/>
     <use xlink:href="#DejaVuSerif-61" x="602.441406"/>
     <use xlink:href="#DejaVuSerif-6e" x="662.060547"/>
     <use xlink:href="#DejaVuSerif-63" x="726.464844"/>
     <use xlink:href="#DejaVuSerif-65" x="782.470703"/>
     <use xlink:href="#DejaVuSerif-20" x="841.650391"/>
     <use xlink:href="#DejaVuSerif-2d" x="873.4375"/>
     <use xlink:href="#DejaVuSerif-20" x="907.226562"/>
     <use xlink:href="#DejaVuSerif-46" x="939.013672"/>
     <use xlink:href="#DejaVuSerif-6f" x="1002.898438"/>
     <use xlink:href="#DejaVuSerif-78" x="1063.103516"/>
     <use xlink:href="#DejaVuSerif-20" x="1119.5"/>
     <use xlink:href="#DejaVuSerif-41" x="1151.287109"/>
     <use xlink:href="#DejaVuSerif-72" x="1223.503906"/>
     <use xlink:href="#DejaVuSerif-74" x="1271.306641"/>
     <use xlink:href="#DejaVuSerif-69" x="1311.492188"/>
     <use xlink:href="#DejaVuSerif-63" x="1343.474609"/>
     <use xlink:href="#DejaVuSerif-6c" x="1399.480469"/>
     <use xlink:href="#DejaVuSerif-65" x="1431.462891"/>
     <use xlink:href="#DejaVuSerif-73" x="1490.642578"/>
    </g>
   </g>
  </g>
 </g>
 <defs>
  <clipPath id="p5cc7ba5ae0">
   <rect x="29.864844" y="23.077969" width="1395" height="138.6"/>
  </clipPath>
 </defs>
</svg>
