<?xml version="1.0" encoding="utf-8" standalone="no"?>
<!DOCTYPE svg PUBLIC "-//W3C//DTD SVG 1.1//EN"
  "http://www.w3.org/Graphics/SVG/1.1/DTD/svg11.dtd">
<svg xmlns:xlink="http://www.w3.org/1999/xlink" width="1432.064844pt" height="182.259531pt" viewBox="0 0 1432.064844 182.259531" xmlns="http://www.w3.org/2000/svg" version="1.1">
 <metadata>
  <rdf:RDF xmlns:dc="http://purl.org/dc/elements/1.1/" xmlns:cc="http://creativecommons.org/ns#" xmlns:rdf="http://www.w3.org/1999/02/22-rdf-syntax-ns#">
   <cc:Work>
    <dc:type rdf:resource="http://purl.org/dc/dcmitype/StillImage"/>
    <dc:date>2022-11-21T23:21:10.603399</dc:date>
    <dc:format>image/svg+xml</dc:format>
    <dc:creator>
     <cc:Agent>
      <dc:title>Matplotlib v3.5.2, https://matplotlib.org/</dc:title>
     </cc:Agent>
    </dc:creator>
   </cc:Work>
  </rdf:RDF>
 </metadata>
 <defs>
  <style type="text/css">*{stroke-linejoin: round; stroke-linecap: butt}</style>
 </defs>
 <g id="figure_1">
  <g id="patch_1">
   <path d="M 0 182.259531 
L 1432.064844 182.259531 
L 1432.064844 0 
L 0 0 
L 0 182.259531 
z
" style="fill: none"/>
  </g>
  <g id="axes_1">
   <g id="patch_2">
    <path d="M 29.864844 158.977969 
L 1424.864844 158.977969 
L 1424.864844 23.077969 
L 29.864844 23.077969 
z
" style="fill: #ffffff"/>
   </g>
   <g id="matplotlib.axis_1">
    <g id="xtick_1">
     <g id="line2d_1">
      <defs>
       <path id="maced9eb50f" d="M 0 0 
L 0 -3.5 
" style="stroke: #000000; stroke-width: 0.8"/>
      </defs>
      <g>
       <use xlink:href="#maced9eb50f" x="29.864844" y="158.977969" style="stroke: #000000; stroke-width: 0.8"/>
      </g>
     </g>
     <g id="text_1">
      <!-- Nov-21 -->
      <g transform="translate(29.864844 172.355938)scale(0.13 -0.13)">
       <defs>
        <path id="DejaVuSerif-4e" d="M 313 0 
L 313 331 
L 941 331 
L 941 4331 
L 313 4331 
L 313 4666 
L 1509 4666 
L 4306 984 
L 4306 4331 
L 3681 4331 
L 3681 4666 
L 5319 4666 
L 5319 4331 
L 4691 4331 
L 4691 -91 
L 4313 -91 
L 1325 3841 
L 1325 331 
L 1953 331 
L 1953 0 
L 313 0 
z
" transform="scale(0.015625)"/>
        <path id="DejaVuSerif-6f" d="M 1925 219 
Q 2388 219 2623 584 
Q 2859 950 2859 1663 
Q 2859 2375 2623 2739 
Q 2388 3103 1925 3103 
Q 1463 3103 1227 2739 
Q 991 2375 991 1663 
Q 991 950 1228 584 
Q 1466 219 1925 219 
z
M 1925 -91 
Q 1200 -91 759 389 
Q 319 869 319 1663 
Q 319 2456 758 2934 
Q 1197 3413 1925 3413 
Q 2653 3413 3092 2934 
Q 3531 2456 3531 1663 
Q 3531 869 3092 389 
Q 2653 -91 1925 -91 
z
" transform="scale(0.015625)"/>
        <path id="DejaVuSerif-76" d="M 1581 0 
L 359 2988 
L -19 2988 
L -19 3322 
L 1509 3322 
L 1509 2988 
L 978 2988 
L 1913 703 
L 2847 2988 
L 2350 2988 
L 2350 3322 
L 3597 3322 
L 3597 2988 
L 3225 2988 
L 2003 0 
L 1581 0 
z
" transform="scale(0.015625)"/>
        <path id="DejaVuSerif-2d" d="M 281 1959 
L 1881 1959 
L 1881 1472 
L 281 1472 
L 281 1959 
z
" transform="scale(0.015625)"/>
        <path id="DejaVuSerif-32" d="M 819 3553 
L 469 3553 
L 469 4384 
Q 803 4563 1142 4656 
Q 1481 4750 1806 4750 
Q 2534 4750 2956 4397 
Q 3378 4044 3378 3438 
Q 3378 2753 2422 1800 
Q 2347 1728 2309 1691 
L 1131 513 
L 3078 513 
L 3078 1088 
L 3444 1088 
L 3444 0 
L 434 0 
L 434 341 
L 1850 1753 
Q 2319 2222 2519 2614 
Q 2719 3006 2719 3438 
Q 2719 3909 2473 4175 
Q 2228 4441 1797 4441 
Q 1350 4441 1106 4219 
Q 863 3997 819 3553 
z
" transform="scale(0.015625)"/>
        <path id="DejaVuSerif-31" d="M 909 0 
L 909 331 
L 1722 331 
L 1722 4213 
L 781 3603 
L 781 4013 
L 1919 4750 
L 2350 4750 
L 2350 331 
L 3163 331 
L 3163 0 
L 909 0 
z
" transform="scale(0.015625)"/>
       </defs>
       <use xlink:href="#DejaVuSerif-4e"/>
       <use xlink:href="#DejaVuSerif-6f" x="87.5"/>
       <use xlink:href="#DejaVuSerif-76" x="147.705078"/>
       <use xlink:href="#DejaVuSerif-2d" x="204.199219"/>
       <use xlink:href="#DejaVuSerif-32" x="237.988281"/>
       <use xlink:href="#DejaVuSerif-31" x="301.611328"/>
      </g>
     </g>
    </g>
    <g id="xtick_2">
     <g id="line2d_2">
      <g>
       <use xlink:href="#maced9eb50f" x="138.566142" y="158.977969" style="stroke: #000000; stroke-width: 0.8"/>
      </g>
     </g>
     <g id="text_2">
      <!-- Dec-21 -->
      <g transform="translate(115.399736 172.355938)scale(0.13 -0.13)">
       <defs>
        <path id="DejaVuSerif-44" d="M 1581 331 
L 2163 331 
Q 3072 331 3558 850 
Q 4044 1369 4044 2338 
Q 4044 3306 3559 3818 
Q 3075 4331 2163 4331 
L 1581 4331 
L 1581 331 
z
M 353 0 
L 353 331 
L 947 331 
L 947 4331 
L 353 4331 
L 353 4666 
L 2209 4666 
Q 3416 4666 4089 4050 
Q 4763 3434 4763 2338 
Q 4763 1238 4088 619 
Q 3413 0 2209 0 
L 353 0 
z
" transform="scale(0.015625)"/>
        <path id="DejaVuSerif-65" d="M 3469 1600 
L 991 1600 
L 991 1575 
Q 991 903 1244 561 
Q 1497 219 1991 219 
Q 2369 219 2611 417 
Q 2853 616 2950 1006 
L 3413 1006 
Q 3275 459 2904 184 
Q 2534 -91 1931 -91 
Q 1203 -91 761 389 
Q 319 869 319 1663 
Q 319 2450 753 2931 
Q 1188 3413 1894 3413 
Q 2647 3413 3050 2948 
Q 3453 2484 3469 1600 
z
M 2791 1931 
Q 2772 2513 2545 2808 
Q 2319 3103 1894 3103 
Q 1497 3103 1269 2806 
Q 1041 2509 991 1931 
L 2791 1931 
z
" transform="scale(0.015625)"/>
        <path id="DejaVuSerif-63" d="M 3291 997 
Q 3169 466 2822 187 
Q 2475 -91 1925 -91 
Q 1200 -91 759 389 
Q 319 869 319 1663 
Q 319 2459 759 2936 
Q 1200 3413 1925 3413 
Q 2241 3413 2553 3339 
Q 2866 3266 3181 3116 
L 3181 2266 
L 2847 2266 
Q 2781 2703 2561 2903 
Q 2341 3103 1931 3103 
Q 1466 3103 1228 2742 
Q 991 2381 991 1663 
Q 991 944 1227 581 
Q 1463 219 1931 219 
Q 2303 219 2525 412 
Q 2747 606 2828 997 
L 3291 997 
z
" transform="scale(0.015625)"/>
       </defs>
       <use xlink:href="#DejaVuSerif-44"/>
       <use xlink:href="#DejaVuSerif-65" x="80.175781"/>
       <use xlink:href="#DejaVuSerif-63" x="139.355469"/>
       <use xlink:href="#DejaVuSerif-2d" x="195.361328"/>
       <use xlink:href="#DejaVuSerif-32" x="229.150391"/>
       <use xlink:href="#DejaVuSerif-31" x="292.773438"/>
      </g>
     </g>
    </g>
    <g id="xtick_3">
     <g id="line2d_3">
      <g>
       <use xlink:href="#maced9eb50f" x="250.890818" y="158.977969" style="stroke: #000000; stroke-width: 0.8"/>
      </g>
     </g>
     <g id="text_3">
      <!-- Jan-22 -->
      <g transform="translate(229.754646 172.355938)scale(0.13 -0.13)">
       <defs>
        <path id="DejaVuSerif-4a" d="M -538 -1119 
L -538 -384 
L -181 -384 
Q -172 -694 -34 -845 
Q 103 -997 378 -997 
Q 750 -997 897 -762 
Q 1044 -528 1044 153 
L 1044 4331 
L 319 4331 
L 319 4666 
L 2272 4666 
L 2272 4331 
L 1678 4331 
L 1678 128 
Q 1678 -644 1368 -987 
Q 1059 -1331 372 -1331 
Q 150 -1331 -79 -1278 
Q -309 -1225 -538 -1119 
z
" transform="scale(0.015625)"/>
        <path id="DejaVuSerif-61" d="M 2547 1044 
L 2547 1747 
L 1806 1747 
Q 1378 1747 1168 1562 
Q 959 1378 959 997 
Q 959 650 1171 447 
Q 1384 244 1747 244 
Q 2106 244 2326 466 
Q 2547 688 2547 1044 
z
M 3122 2075 
L 3122 331 
L 3634 331 
L 3634 0 
L 2547 0 
L 2547 359 
Q 2356 128 2106 18 
Q 1856 -91 1522 -91 
Q 969 -91 644 203 
Q 319 497 319 997 
Q 319 1513 691 1797 
Q 1063 2081 1741 2081 
L 2547 2081 
L 2547 2309 
Q 2547 2688 2317 2895 
Q 2088 3103 1672 3103 
Q 1328 3103 1125 2947 
Q 922 2791 872 2484 
L 575 2484 
L 575 3156 
Q 875 3284 1158 3348 
Q 1441 3413 1709 3413 
Q 2400 3413 2761 3070 
Q 3122 2728 3122 2075 
z
" transform="scale(0.015625)"/>
        <path id="DejaVuSerif-6e" d="M 263 0 
L 263 331 
L 781 331 
L 781 2988 
L 231 2988 
L 231 3322 
L 1356 3322 
L 1356 2731 
Q 1516 3069 1770 3241 
Q 2025 3413 2363 3413 
Q 2913 3413 3172 3097 
Q 3431 2781 3431 2113 
L 3431 331 
L 3944 331 
L 3944 0 
L 2356 0 
L 2356 331 
L 2853 331 
L 2853 1931 
Q 2853 2541 2703 2767 
Q 2553 2994 2175 2994 
Q 1775 2994 1565 2701 
Q 1356 2409 1356 1850 
L 1356 331 
L 1856 331 
L 1856 0 
L 263 0 
z
" transform="scale(0.015625)"/>
       </defs>
       <use xlink:href="#DejaVuSerif-4a"/>
       <use xlink:href="#DejaVuSerif-61" x="40.087891"/>
       <use xlink:href="#DejaVuSerif-6e" x="99.707031"/>
       <use xlink:href="#DejaVuSerif-2d" x="164.111328"/>
       <use xlink:href="#DejaVuSerif-32" x="197.900391"/>
       <use xlink:href="#DejaVuSerif-32" x="261.523438"/>
      </g>
     </g>
    </g>
    <g id="xtick_4">
     <g id="line2d_4">
      <g>
       <use xlink:href="#maced9eb50f" x="363.215493" y="158.977969" style="stroke: #000000; stroke-width: 0.8"/>
      </g>
     </g>
     <g id="text_4">
      <!-- Feb-22 -->
      <g transform="translate(340.586352 172.355938)scale(0.13 -0.13)">
       <defs>
        <path id="DejaVuSerif-46" d="M 353 0 
L 353 331 
L 947 331 
L 947 4331 
L 353 4331 
L 353 4666 
L 4172 4666 
L 4172 3628 
L 3788 3628 
L 3788 4281 
L 1581 4281 
L 1581 2719 
L 3175 2719 
L 3175 3303 
L 3559 3303 
L 3559 1753 
L 3175 1753 
L 3175 2338 
L 1581 2338 
L 1581 331 
L 2328 331 
L 2328 0 
L 353 0 
z
" transform="scale(0.015625)"/>
        <path id="DejaVuSerif-62" d="M 738 331 
L 738 4531 
L 184 4531 
L 184 4863 
L 1313 4863 
L 1313 2803 
Q 1481 3116 1742 3264 
Q 2003 3413 2388 3413 
Q 3000 3413 3387 2928 
Q 3775 2444 3775 1663 
Q 3775 881 3387 395 
Q 3000 -91 2388 -91 
Q 2003 -91 1742 57 
Q 1481 206 1313 519 
L 1313 0 
L 184 0 
L 184 331 
L 738 331 
z
M 1313 1497 
Q 1313 897 1542 583 
Q 1772 269 2209 269 
Q 2650 269 2876 622 
Q 3103 975 3103 1663 
Q 3103 2353 2876 2703 
Q 2650 3053 2209 3053 
Q 1772 3053 1542 2737 
Q 1313 2422 1313 1825 
L 1313 1497 
z
" transform="scale(0.015625)"/>
       </defs>
       <use xlink:href="#DejaVuSerif-46"/>
       <use xlink:href="#DejaVuSerif-65" x="63.884766"/>
       <use xlink:href="#DejaVuSerif-62" x="123.064453"/>
       <use xlink:href="#DejaVuSerif-2d" x="187.078125"/>
       <use xlink:href="#DejaVuSerif-32" x="220.867188"/>
       <use xlink:href="#DejaVuSerif-32" x="284.490234"/>
      </g>
     </g>
    </g>
    <g id="xtick_5">
     <g id="line2d_5">
      <g>
       <use xlink:href="#maced9eb50f" x="464.670039" y="158.977969" style="stroke: #000000; stroke-width: 0.8"/>
      </g>
     </g>
     <g id="text_5">
      <!-- Mar-22 -->
      <g transform="translate(440.564179 172.355938)scale(0.13 -0.13)">
       <defs>
        <path id="DejaVuSerif-4d" d="M 353 0 
L 353 331 
L 947 331 
L 947 4331 
L 319 4331 
L 319 4666 
L 1678 4666 
L 3316 1344 
L 4953 4666 
L 6228 4666 
L 6228 4331 
L 5606 4331 
L 5606 331 
L 6203 331 
L 6203 0 
L 4378 0 
L 4378 331 
L 4972 331 
L 4972 3938 
L 3372 684 
L 2931 684 
L 1331 3938 
L 1331 331 
L 1925 331 
L 1925 0 
L 353 0 
z
" transform="scale(0.015625)"/>
        <path id="DejaVuSerif-72" d="M 3059 3328 
L 3059 2497 
L 2728 2497 
Q 2713 2744 2591 2866 
Q 2469 2988 2234 2988 
Q 1809 2988 1582 2694 
Q 1356 2400 1356 1850 
L 1356 331 
L 2022 331 
L 2022 0 
L 263 0 
L 263 331 
L 781 331 
L 781 2994 
L 231 2994 
L 231 3322 
L 1356 3322 
L 1356 2731 
Q 1525 3078 1790 3245 
Q 2056 3413 2438 3413 
Q 2578 3413 2733 3391 
Q 2888 3369 3059 3328 
z
" transform="scale(0.015625)"/>
       </defs>
       <use xlink:href="#DejaVuSerif-4d"/>
       <use xlink:href="#DejaVuSerif-61" x="102.392578"/>
       <use xlink:href="#DejaVuSerif-72" x="162.011719"/>
       <use xlink:href="#DejaVuSerif-2d" x="209.814453"/>
       <use xlink:href="#DejaVuSerif-32" x="243.603516"/>
       <use xlink:href="#DejaVuSerif-32" x="307.226562"/>
      </g>
     </g>
    </g>
    <g id="xtick_6">
     <g id="line2d_6">
      <g>
       <use xlink:href="#maced9eb50f" x="576.994714" y="158.977969" style="stroke: #000000; stroke-width: 0.8"/>
      </g>
     </g>
     <g id="text_6">
      <!-- Apr-22 -->
      <g transform="translate(554.564636 172.355938)scale(0.13 -0.13)">
       <defs>
        <path id="DejaVuSerif-41" d="M 1281 1691 
L 2994 1691 
L 2138 3909 
L 1281 1691 
z
M -38 0 
L -38 331 
L 372 331 
L 2034 4666 
L 2559 4666 
L 4225 331 
L 4684 331 
L 4684 0 
L 2988 0 
L 2988 331 
L 3506 331 
L 3116 1356 
L 1153 1356 
L 763 331 
L 1275 331 
L 1275 0 
L -38 0 
z
" transform="scale(0.015625)"/>
        <path id="DejaVuSerif-70" d="M 1313 1825 
L 1313 1497 
Q 1313 897 1542 583 
Q 1772 269 2209 269 
Q 2650 269 2876 622 
Q 3103 975 3103 1663 
Q 3103 2353 2876 2703 
Q 2650 3053 2209 3053 
Q 1772 3053 1542 2737 
Q 1313 2422 1313 1825 
z
M 738 2988 
L 184 2988 
L 184 3322 
L 1313 3322 
L 1313 2803 
Q 1481 3116 1742 3264 
Q 2003 3413 2388 3413 
Q 3000 3413 3387 2928 
Q 3775 2444 3775 1663 
Q 3775 881 3387 395 
Q 3000 -91 2388 -91 
Q 2003 -91 1742 57 
Q 1481 206 1313 519 
L 1313 -997 
L 1856 -997 
L 1856 -1331 
L 184 -1331 
L 184 -997 
L 738 -997 
L 738 2988 
z
" transform="scale(0.015625)"/>
       </defs>
       <use xlink:href="#DejaVuSerif-41"/>
       <use xlink:href="#DejaVuSerif-70" x="72.216797"/>
       <use xlink:href="#DejaVuSerif-72" x="136.230469"/>
       <use xlink:href="#DejaVuSerif-2d" x="184.033203"/>
       <use xlink:href="#DejaVuSerif-32" x="217.822266"/>
       <use xlink:href="#DejaVuSerif-32" x="281.445312"/>
      </g>
     </g>
    </g>
    <g id="xtick_7">
     <g id="line2d_7">
      <g>
       <use xlink:href="#maced9eb50f" x="685.696013" y="158.977969" style="stroke: #000000; stroke-width: 0.8"/>
      </g>
     </g>
     <g id="text_7">
      <!-- May-22 -->
      <g transform="translate(661.02445 172.171094)scale(0.13 -0.13)">
       <defs>
        <path id="DejaVuSerif-79" d="M 1381 -609 
L 1600 -56 
L 359 2988 
L -19 2988 
L -19 3322 
L 1509 3322 
L 1509 2988 
L 978 2988 
L 1913 703 
L 2847 2988 
L 2350 2988 
L 2350 3322 
L 3597 3322 
L 3597 2988 
L 3225 2988 
L 1703 -750 
Q 1547 -1138 1356 -1280 
Q 1166 -1422 819 -1422 
Q 672 -1422 517 -1397 
Q 363 -1372 206 -1325 
L 206 -691 
L 500 -691 
Q 519 -903 608 -995 
Q 697 -1088 884 -1088 
Q 1056 -1088 1161 -992 
Q 1266 -897 1381 -609 
z
" transform="scale(0.015625)"/>
       </defs>
       <use xlink:href="#DejaVuSerif-4d"/>
       <use xlink:href="#DejaVuSerif-61" x="102.392578"/>
       <use xlink:href="#DejaVuSerif-79" x="162.011719"/>
       <use xlink:href="#DejaVuSerif-2d" x="218.505859"/>
       <use xlink:href="#DejaVuSerif-32" x="252.294922"/>
       <use xlink:href="#DejaVuSerif-32" x="315.917969"/>
      </g>
     </g>
    </g>
    <g id="xtick_8">
     <g id="line2d_8">
      <g>
       <use xlink:href="#maced9eb50f" x="798.020688" y="158.977969" style="stroke: #000000; stroke-width: 0.8"/>
      </g>
     </g>
     <g id="text_8">
      <!-- Jun-22 -->
      <g transform="translate(776.573735 172.355938)scale(0.13 -0.13)">
       <defs>
        <path id="DejaVuSerif-75" d="M 2266 3322 
L 3341 3322 
L 3341 331 
L 3884 331 
L 3884 0 
L 2766 0 
L 2766 588 
Q 2606 256 2353 82 
Q 2100 -91 1766 -91 
Q 1213 -91 952 223 
Q 691 538 691 1209 
L 691 2988 
L 172 2988 
L 172 3322 
L 1269 3322 
L 1269 1388 
Q 1269 781 1417 556 
Q 1566 331 1947 331 
Q 2347 331 2556 625 
Q 2766 919 2766 1478 
L 2766 2988 
L 2266 2988 
L 2266 3322 
z
" transform="scale(0.015625)"/>
       </defs>
       <use xlink:href="#DejaVuSerif-4a"/>
       <use xlink:href="#DejaVuSerif-75" x="40.087891"/>
       <use xlink:href="#DejaVuSerif-6e" x="104.492188"/>
       <use xlink:href="#DejaVuSerif-2d" x="168.896484"/>
       <use xlink:href="#DejaVuSerif-32" x="202.685547"/>
       <use xlink:href="#DejaVuSerif-32" x="266.308594"/>
      </g>
     </g>
    </g>
    <g id="xtick_9">
     <g id="line2d_9">
      <g>
       <use xlink:href="#maced9eb50f" x="906.721987" y="158.977969" style="stroke: #000000; stroke-width: 0.8"/>
      </g>
     </g>
     <g id="text_9">
      <!-- Jul-22 -->
      <g transform="translate(887.382455 172.355938)scale(0.13 -0.13)">
       <defs>
        <path id="DejaVuSerif-6c" d="M 1313 331 
L 1856 331 
L 1856 0 
L 184 0 
L 184 331 
L 738 331 
L 738 4531 
L 184 4531 
L 184 4863 
L 1313 4863 
L 1313 331 
z
" transform="scale(0.015625)"/>
       </defs>
       <use xlink:href="#DejaVuSerif-4a"/>
       <use xlink:href="#DejaVuSerif-75" x="40.087891"/>
       <use xlink:href="#DejaVuSerif-6c" x="104.492188"/>
       <use xlink:href="#DejaVuSerif-2d" x="136.474609"/>
       <use xlink:href="#DejaVuSerif-32" x="170.263672"/>
       <use xlink:href="#DejaVuSerif-32" x="233.886719"/>
      </g>
     </g>
    </g>
    <g id="xtick_10">
     <g id="line2d_10">
      <g>
       <use xlink:href="#maced9eb50f" x="1019.046662" y="158.977969" style="stroke: #000000; stroke-width: 0.8"/>
      </g>
     </g>
     <g id="text_10">
      <!-- Aug-22 -->
      <g transform="translate(995.536974 172.171094)scale(0.13 -0.13)">
       <defs>
        <path id="DejaVuSerif-67" d="M 3359 2988 
L 3359 72 
Q 3359 -644 2965 -1033 
Q 2572 -1422 1844 -1422 
Q 1516 -1422 1216 -1362 
Q 916 -1303 641 -1184 
L 641 -488 
L 941 -488 
Q 997 -813 1206 -963 
Q 1416 -1113 1806 -1113 
Q 2313 -1113 2548 -827 
Q 2784 -541 2784 72 
L 2784 519 
Q 2616 206 2355 57 
Q 2094 -91 1709 -91 
Q 1097 -91 708 395 
Q 319 881 319 1663 
Q 319 2444 706 2928 
Q 1094 3413 1709 3413 
Q 2094 3413 2355 3264 
Q 2616 3116 2784 2803 
L 2784 3322 
L 3909 3322 
L 3909 2988 
L 3359 2988 
z
M 2784 1825 
Q 2784 2422 2554 2737 
Q 2325 3053 1888 3053 
Q 1444 3053 1217 2703 
Q 991 2353 991 1663 
Q 991 975 1217 622 
Q 1444 269 1888 269 
Q 2325 269 2554 583 
Q 2784 897 2784 1497 
L 2784 1825 
z
" transform="scale(0.015625)"/>
       </defs>
       <use xlink:href="#DejaVuSerif-41"/>
       <use xlink:href="#DejaVuSerif-75" x="72.216797"/>
       <use xlink:href="#DejaVuSerif-67" x="136.621094"/>
       <use xlink:href="#DejaVuSerif-2d" x="200.634766"/>
       <use xlink:href="#DejaVuSerif-32" x="234.423828"/>
       <use xlink:href="#DejaVuSerif-32" x="298.046875"/>
      </g>
     </g>
    </g>
    <g id="xtick_11">
     <g id="line2d_11">
      <g>
       <use xlink:href="#maced9eb50f" x="1131.371337" y="158.977969" style="stroke: #000000; stroke-width: 0.8"/>
      </g>
     </g>
     <g id="text_11">
      <!-- Sep-22 -->
      <g transform="translate(1108.442587 172.355938)scale(0.13 -0.13)">
       <defs>
        <path id="DejaVuSerif-53" d="M 594 225 
L 594 1288 
L 953 1284 
Q 969 753 1261 498 
Q 1553 244 2150 244 
Q 2706 244 2998 464 
Q 3291 684 3291 1106 
Q 3291 1444 3114 1625 
Q 2938 1806 2369 1978 
L 1753 2163 
Q 1084 2366 811 2669 
Q 538 2972 538 3500 
Q 538 4094 959 4422 
Q 1381 4750 2144 4750 
Q 2469 4750 2856 4679 
Q 3244 4609 3681 4475 
L 3681 3481 
L 3328 3481 
Q 3275 3975 2998 4195 
Q 2722 4416 2156 4416 
Q 1663 4416 1405 4214 
Q 1147 4013 1147 3628 
Q 1147 3294 1340 3103 
Q 1534 2913 2163 2725 
L 2741 2553 
Q 3375 2363 3645 2067 
Q 3916 1772 3916 1275 
Q 3916 597 3481 253 
Q 3047 -91 2188 -91 
Q 1803 -91 1404 -12 
Q 1006 66 594 225 
z
" transform="scale(0.015625)"/>
       </defs>
       <use xlink:href="#DejaVuSerif-53"/>
       <use xlink:href="#DejaVuSerif-65" x="68.505859"/>
       <use xlink:href="#DejaVuSerif-70" x="127.685547"/>
       <use xlink:href="#DejaVuSerif-2d" x="191.699219"/>
       <use xlink:href="#DejaVuSerif-32" x="225.488281"/>
       <use xlink:href="#DejaVuSerif-32" x="289.111328"/>
      </g>
     </g>
    </g>
    <g id="xtick_12">
     <g id="line2d_12">
      <g>
       <use xlink:href="#maced9eb50f" x="1240.072636" y="158.977969" style="stroke: #000000; stroke-width: 0.8"/>
      </g>
     </g>
     <g id="text_12">
      <!-- Oct-22 -->
      <g transform="translate(1218.023417 172.355938)scale(0.13 -0.13)">
       <defs>
        <path id="DejaVuSerif-4f" d="M 2625 244 
Q 3391 244 3781 770 
Q 4172 1297 4172 2328 
Q 4172 3363 3781 3889 
Q 3391 4416 2625 4416 
Q 1856 4416 1465 3889 
Q 1075 3363 1075 2328 
Q 1075 1297 1465 770 
Q 1856 244 2625 244 
z
M 2625 -91 
Q 2150 -91 1751 65 
Q 1353 222 1050 525 
Q 700 875 529 1319 
Q 359 1763 359 2328 
Q 359 2894 529 3339 
Q 700 3784 1050 4134 
Q 1356 4441 1750 4595 
Q 2144 4750 2625 4750 
Q 3641 4750 4266 4084 
Q 4891 3419 4891 2328 
Q 4891 1769 4719 1320 
Q 4547 872 4197 525 
Q 3891 219 3497 64 
Q 3103 -91 2625 -91 
z
" transform="scale(0.015625)"/>
        <path id="DejaVuSerif-74" d="M 691 2988 
L 184 2988 
L 184 3322 
L 691 3322 
L 691 4353 
L 1269 4353 
L 1269 3322 
L 2350 3322 
L 2350 2988 
L 1269 2988 
L 1269 878 
Q 1269 456 1350 337 
Q 1431 219 1650 219 
Q 1875 219 1978 351 
Q 2081 484 2088 781 
L 2522 781 
Q 2497 328 2275 118 
Q 2053 -91 1600 -91 
Q 1103 -91 897 129 
Q 691 350 691 878 
L 691 2988 
z
" transform="scale(0.015625)"/>
       </defs>
       <use xlink:href="#DejaVuSerif-4f"/>
       <use xlink:href="#DejaVuSerif-63" x="81.982422"/>
       <use xlink:href="#DejaVuSerif-74" x="137.988281"/>
       <use xlink:href="#DejaVuSerif-2d" x="178.173828"/>
       <use xlink:href="#DejaVuSerif-32" x="211.962891"/>
       <use xlink:href="#DejaVuSerif-32" x="275.585938"/>
      </g>
     </g>
    </g>
    <g id="xtick_13">
     <g id="line2d_13">
      <g>
       <use xlink:href="#maced9eb50f" x="1352.397311" y="158.977969" style="stroke: #000000; stroke-width: 0.8"/>
      </g>
     </g>
     <g id="text_13">
      <!-- Nov-22 -->
      <g transform="translate(1328.656061 172.355938)scale(0.13 -0.13)">
       <use xlink:href="#DejaVuSerif-4e"/>
       <use xlink:href="#DejaVuSerif-6f" x="87.5"/>
       <use xlink:href="#DejaVuSerif-76" x="147.705078"/>
       <use xlink:href="#DejaVuSerif-2d" x="204.199219"/>
       <use xlink:href="#DejaVuSerif-32" x="237.988281"/>
       <use xlink:href="#DejaVuSerif-32" x="301.611328"/>
      </g>
     </g>
    </g>
   </g>
   <g id="matplotlib.axis_2">
    <g id="ytick_1">
     <g id="line2d_14">
      <defs>
       <path id="me86262c020" d="M 0 0 
L 3.5 0 
" style="stroke: #000000; stroke-width: 0.8"/>
      </defs>
      <g>
       <use xlink:href="#me86262c020" x="29.864844" y="158.977969" style="stroke: #000000; stroke-width: 0.8"/>
      </g>
     </g>
     <g id="text_14">
      <!-- −1 -->
      <g transform="translate(7.2 163.916953)scale(0.13 -0.13)">
       <defs>
        <path id="DejaVuSerif-2212" d="M 678 2259 
L 4684 2259 
L 4684 1753 
L 678 1753 
L 678 2259 
z
" transform="scale(0.015625)"/>
       </defs>
       <use xlink:href="#DejaVuSerif-2212"/>
       <use xlink:href="#DejaVuSerif-31" x="83.789062"/>
      </g>
     </g>
    </g>
   </g>
   <g id="line2d_15">
    <path d="M 26.241467 133.421953 
L 29.864844 95.227362 
L 33.48822 96.302018 
L 37.111597 80.990623 
L 40.734974 76.618461 
L 44.35835 117.41858 
L 47.981727 110.420787 
L 51.605103 89.339998 
L 55.22848 92.186096 
L 58.851857 145.666747 
L 62.475233 152.226508 
L 66.09861 170.060373 
L 69.721987 140.624531 
L 73.345363 168.51346 
L 76.96874 134.179695 
L 80.592116 80.078215 
L 84.215493 75.297227 
L 87.83887 74.850351 
L 91.462246 60.264304 
L 95.085623 34.83723 
L 98.709 82.351849 
L 102.332376 31.041393 
L 105.955753 62.728898 
L 109.579129 38.002812 
L 113.202506 62.78361 
L 116.825883 71.847851 
L 120.449259 99.725972 
L 124.072636 113.071824 
L 127.696013 96.566211 
L 131.319389 90.935362 
L 134.942766 116.353767 
L 138.566142 114.920241 
L 142.189519 82.610518 
L 145.812896 119.199127 
L 149.436272 82.159517 
L 153.059649 83.742989 
L 156.683026 103.074056 
L 160.306402 132.975686 
L 163.929779 95.846845 
L 167.553155 127.225975 
L 171.176532 96.260257 
L 174.799909 84.298478 
L 178.423285 30.21155 
L 182.046662 76.889443 
L 185.670039 52.599729 
L 189.293415 22.47614 
L 192.916792 31.335209 
L 196.540168 37.656095 
L 200.163545 36.953964 
L 203.786922 64.593735 
L 207.410298 63.641674 
L 211.033675 96.951207 
L 214.657052 107.777611 
L 218.280428 114.730054 
L 221.903805 72.636928 
L 225.527181 86.805948 
L 229.150558 58.36661 
L 232.773935 92.853051 
L 236.397311 104.355552 
L 240.020688 101.224192 
L 243.644065 140.830435 
L 247.267441 138.665261 
M 254.514194 154.859264 
L 258.137571 161.69277 
L 261.760948 172.633206 
L 264.974802 183.259531 
M 265.46561 183.259531 
L 269.007701 124.255551 
L 272.631078 160.999626 
L 276.254454 101.037803 
L 279.877831 93.352047 
L 283.501207 58.672982 
L 287.124584 54.242813 
L 290.747961 105.668386 
L 294.371337 86.717159 
L 297.994714 111.096615 
L 301.618091 92.749346 
L 305.241467 87.212389 
L 308.864844 95.971282 
L 312.48822 97.510538 
L 316.111597 129.052949 
L 323.35835 78.449874 
L 326.981727 87.716143 
L 330.605103 101.941183 
L 334.22848 98.60798 
L 337.851857 89.694009 
L 341.475233 71.42187 
L 345.09861 119.034445 
L 348.721987 120.465452 
L 352.345363 109.748343 
L 355.96874 87.484343 
L 359.592116 78.521534 
L 363.215493 86.25328 
L 366.83887 75.428657 
L 370.462246 68.649896 
L 374.085623 88.293006 
L 377.709 76.119427 
L 381.332376 116.621134 
L 384.955753 108.844599 
L 388.579129 114.189698 
L 392.202506 97.914534 
L 395.825883 70.125484 
L 399.449259 65.847396 
L 403.072636 115.169223 
L 406.696013 119.838413 
L 410.319389 96.882442 
L 413.942766 84.421773 
L 417.566142 72.85101 
L 421.189519 84.508454 
L 424.812896 85.261349 
L 428.436272 94.714983 
L 432.059649 100.386409 
L 435.683026 110.069219 
L 439.306402 88.335857 
L 442.929779 74.608578 
L 446.553155 88.20488 
L 450.176532 86.638391 
L 453.799909 100.339997 
L 457.423285 86.322543 
L 461.046662 84.976115 
L 464.670039 90.98908 
L 468.293415 90.861989 
L 471.916792 91.691361 
L 475.540168 86.317584 
L 479.163545 109.693029 
L 482.786922 98.985462 
L 486.410298 88.748738 
L 490.033675 93.05533 
L 493.657052 96.39655 
L 497.280428 86.917537 
L 500.903805 93.022689 
L 504.527181 109.513925 
L 508.150558 66.279778 
L 511.773935 97.556992 
L 515.397311 90.623319 
L 519.020688 91.081932 
L 522.644065 93.148693 
L 526.267441 88.954256 
L 529.890818 132.818922 
L 533.514194 45.110696 
L 537.137571 92.58748 
L 540.760948 100.836894 
L 544.384324 90.691247 
L 548.007701 88.3495 
L 551.631078 88.514162 
L 555.254454 158.52903 
L 558.877831 85.447668 
L 562.501207 63.899384 
L 566.124584 87.72656 
L 569.747961 89.472201 
L 573.371337 99.471778 
L 576.994714 107.851261 
L 580.618091 161.663337 
L 584.241467 92.987983 
L 587.864844 79.647516 
L 591.48822 84.600162 
L 595.111597 98.929605 
L 598.734974 86.29178 
L 602.35835 69.094552 
L 605.981727 140.535303 
L 609.605103 112.15253 
L 613.22848 86.962816 
L 616.851857 79.907457 
L 620.475233 85.102591 
L 624.09861 98.227236 
L 627.721987 107.470262 
L 631.345363 141.94525 
L 634.96874 90.984454 
L 638.592116 48.917906 
L 642.215493 97.103098 
L 645.83887 79.616369 
L 649.462246 98.766417 
L 653.085623 118.615877 
L 656.709 140.792911 
L 660.332376 16.236372 
L 663.955753 57.581398 
L 667.579129 85.534836 
L 671.202506 76.173891 
L 674.825883 90.25813 
L 682.072636 140.423574 
L 685.696013 108.932293 
L 689.319389 42.099527 
L 692.942766 99.943505 
L 696.566142 91.264446 
L 700.189519 68.991455 
L 703.812896 114.314521 
L 707.436272 105.126402 
L 711.059649 83.83296 
L 714.683026 93.760866 
L 718.306402 77.586616 
L 721.929779 82.633577 
L 725.553155 94.733245 
L 729.176532 82.477154 
L 732.799909 93.941157 
L 736.423285 79.209403 
L 740.046662 92.667278 
L 743.670039 101.479733 
L 747.293415 80.875066 
L 750.916792 93.219809 
L 754.540168 85.602627 
L 758.163545 127.359116 
L 761.786922 101.884077 
L 765.410298 89.985673 
L 769.033675 90.09876 
L 772.657052 98.115653 
L 776.280428 94.208838 
L 779.903805 92.238513 
L 783.527181 115.368186 
L 787.150558 99.780682 
L 790.773935 56.453464 
L 794.397311 88.858053 
L 798.020688 119.418008 
L 801.644065 97.961372 
L 805.267441 72.694564 
L 808.890818 88.297779 
L 812.514194 80.33145 
L 816.137571 90.937611 
L 819.760948 95.281041 
L 823.384324 107.981356 
L 827.007701 74.100597 
L 830.631078 78.591048 
L 834.254454 118.744028 
L 837.877831 94.970859 
L 841.501207 92.620272 
L 845.124584 101.88644 
L 848.747961 83.682064 
L 852.371337 104.760511 
L 855.994714 80.080369 
L 859.618091 38.467898 
L 863.241467 37.564708 
L 866.864844 115.923083 
L 870.48822 82.266603 
L 874.111597 91.780802 
L 877.734974 88.727285 
L 881.35835 104.779917 
L 884.981727 98.639676 
L 888.605103 102.489116 
L 895.851857 69.528832 
L 899.475233 92.156726 
L 903.09861 78.448727 
L 906.721987 72.428427 
L 910.345363 125.145184 
L 913.96874 122.671617 
L 917.592116 113.638902 
L 921.215493 86.010886 
L 924.83887 90.38572 
L 928.462246 102.052769 
L 932.085623 58.363917 
L 935.709 48.12986 
L 939.332376 103.10671 
L 942.955753 109.69405 
L 946.579129 111.433151 
L 950.202506 106.45842 
L 953.825883 91.023091 
L 957.449259 81.325846 
L 961.072636 104.729419 
L 964.696013 98.707749 
L 968.319389 110.149898 
L 971.942766 59.550232 
L 975.566142 100.730147 
L 979.189519 120.453391 
L 982.812896 60.993036 
L 986.436272 139.442595 
L 990.059649 87.112082 
L 993.683026 87.725632 
L 997.306402 81.54196 
L 1000.929779 90.556321 
L 1004.553155 102.115438 
L 1008.176532 92.309681 
L 1011.799909 106.886369 
L 1015.423285 115.027346 
L 1019.046662 77.139181 
L 1022.670039 97.154856 
L 1026.293415 98.826798 
L 1029.916792 80.00245 
L 1037.163545 117.325468 
L 1044.410298 83.80235 
L 1048.033675 98.694823 
L 1051.657052 90.969785 
L 1055.280428 85.9596 
L 1058.903805 86.944021 
L 1062.527181 135.918182 
L 1066.150558 107.931824 
L 1069.773935 83.233596 
L 1073.397311 76.974527 
L 1077.020688 95.146831 
L 1080.644065 104.150654 
L 1084.267441 78.134322 
L 1087.890818 67.152134 
L 1091.514194 110.368854 
L 1095.137571 111.37324 
L 1098.760948 129.088245 
L 1102.384324 74.586203 
L 1106.007701 77.582117 
L 1109.631078 93.117516 
L 1113.254454 105.794917 
L 1116.877831 93.015783 
L 1120.501207 72.569927 
L 1124.124584 103.179977 
L 1127.747961 85.212096 
L 1131.371337 83.892915 
L 1134.994714 105.58649 
L 1138.618091 94.550835 
L 1142.241467 91.28724 
L 1145.864844 98.411351 
L 1149.48822 102.645753 
L 1153.111597 86.549962 
L 1156.734974 81.914995 
L 1160.35835 107.034944 
L 1163.981727 102.018267 
L 1167.605103 49.691753 
L 1171.22848 73.083464 
L 1174.851857 93.729522 
L 1178.475233 98.367078 
L 1182.09861 88.98684 
L 1185.721987 90.696957 
L 1189.345363 100.061514 
L 1192.96874 77.336838 
L 1196.592116 74.352885 
L 1200.215493 106.364635 
L 1203.83887 105.63942 
L 1207.462246 80.875154 
L 1211.085623 78.818504 
L 1214.709 116.297001 
L 1218.332376 124.954688 
L 1221.955753 83.554329 
L 1225.579129 114.019269 
L 1229.202506 99.75932 
L 1232.825883 94.575404 
L 1236.449259 69.955741 
L 1240.072636 91.7923 
L 1243.696013 110.446194 
L 1247.319389 117.323885 
L 1250.942766 84.326303 
L 1254.566142 81.987663 
L 1258.189519 87.569832 
L 1261.812896 73.900894 
L 1265.436272 112.687048 
L 1269.059649 128.718066 
L 1272.683026 116.307596 
L 1276.306402 68.175175 
L 1279.929779 88.950824 
L 1283.553155 67.173198 
L 1287.176532 111.321178 
L 1290.799909 84.337667 
L 1294.423285 96.717149 
L 1298.046662 60.336452 
L 1301.670039 96.10156 
L 1305.293415 109.081136 
L 1308.916792 77.779269 
L 1312.540168 67.470361 
L 1316.163545 118.703269 
L 1319.786922 79.960079 
L 1323.410298 92.770861 
L 1327.033675 136.264238 
L 1330.657052 89.871057 
L 1334.280428 79.561199 
L 1337.903805 114.242392 
L 1341.527181 157.959601 
L 1345.150558 138.194814 
L 1348.773935 79.459378 
L 1352.397311 56.849232 
L 1356.020688 50.890233 
L 1359.644065 97.010346 
L 1363.267441 63.183051 
L 1366.890818 95.539412 
L 1370.514194 80.038474 
L 1374.137571 19.70203 
L 1377.760948 117.183881 
L 1385.007701 79.183571 
L 1388.631078 84.66465 
L 1392.254454 108.796537 
L 1395.877831 115.792596 
L 1399.501207 93.000947 
L 1403.124584 109.782188 
L 1406.747961 65.643624 
L 1410.371337 84.432597 
L 1413.994714 86.246903 
L 1417.618091 91.031366 
L 1424.864844 91.031366 
L 1424.864844 91.031366 
" clip-path="url(#p95db3f69a8)" style="fill: none; stroke: #000000; stroke-linecap: square"/>
   </g>
   <g id="LineCollection_1">
    <path d="M 464.670039 183.259531 
L 464.670039 -1 
" clip-path="url(#p95db3f69a8)" style="fill: none; stroke-dasharray: 1.5,2.475; stroke-dashoffset: 0; stroke: #000000; stroke-width: 1.5"/>
    <path d="M 1019.046662 183.259531 
L 1019.046662 -1 
" clip-path="url(#p95db3f69a8)" style="fill: none; stroke-dasharray: 1.5,2.475; stroke-dashoffset: 0; stroke: #000000; stroke-width: 1.5"/>
   </g>
   <g id="LineCollection_2"/>
   <g id="LineCollection_3"/>
   <g id="patch_3">
    <path d="M 29.864844 158.977969 
L 29.864844 23.077969 
" style="fill: none; stroke: #000000; stroke-width: 0.8; stroke-linejoin: miter; stroke-linecap: square"/>
   </g>
   <g id="patch_4">
    <path d="M 1424.864844 158.977969 
L 1424.864844 23.077969 
" style="fill: none; stroke: #000000; stroke-width: 0.8; stroke-linejoin: miter; stroke-linecap: square"/>
   </g>
   <g id="patch_5">
    <path d="M 29.864844 158.977969 
L 1424.864844 158.977969 
" style="fill: none; stroke: #000000; stroke-width: 0.8; stroke-linejoin: miter; stroke-linecap: square"/>
   </g>
   <g id="patch_6">
    <path d="M 29.864844 23.077969 
L 1424.864844 23.077969 
" style="fill: none; stroke: #000000; stroke-width: 0.8; stroke-linejoin: miter; stroke-linecap: square"/>
   </g>
   <g id="text_15">
    <!-- Daily Resonance - Reuters Articles -->
    <g transform="translate(613.038984 17.077969)scale(0.13 -0.13)">
     <defs>
      <path id="DejaVuSerif-69" d="M 622 4353 
Q 622 4497 726 4603 
Q 831 4709 978 4709 
Q 1122 4709 1226 4603 
Q 1331 4497 1331 4353 
Q 1331 4206 1228 4103 
Q 1125 4000 978 4000 
Q 831 4000 726 4103 
Q 622 4206 622 4353 
z
M 1356 331 
L 1900 331 
L 1900 0 
L 231 0 
L 231 331 
L 781 331 
L 781 2988 
L 231 2988 
L 231 3322 
L 1356 3322 
L 1356 331 
z
" transform="scale(0.015625)"/>
      <path id="DejaVuSerif-20" transform="scale(0.015625)"/>
      <path id="DejaVuSerif-52" d="M 3066 2316 
Q 3284 2256 3442 2114 
Q 3600 1972 3725 1716 
L 4403 331 
L 4972 331 
L 4972 0 
L 3872 0 
L 3144 1484 
Q 2934 1916 2759 2042 
Q 2584 2169 2278 2169 
L 1581 2169 
L 1581 331 
L 2241 331 
L 2241 0 
L 353 0 
L 353 331 
L 947 331 
L 947 4331 
L 353 4331 
L 353 4666 
L 2719 4666 
Q 3400 4666 3770 4341 
Q 4141 4016 4141 3419 
Q 4141 2938 3870 2661 
Q 3600 2384 3066 2316 
z
M 1581 2503 
L 2503 2503 
Q 2975 2503 3200 2726 
Q 3425 2950 3425 3419 
Q 3425 3888 3200 4109 
Q 2975 4331 2503 4331 
L 1581 4331 
L 1581 2503 
z
" transform="scale(0.015625)"/>
      <path id="DejaVuSerif-73" d="M 359 184 
L 359 959 
L 691 959 
Q 703 588 923 403 
Q 1144 219 1575 219 
Q 1963 219 2166 364 
Q 2369 509 2369 788 
Q 2369 1006 2220 1140 
Q 2072 1275 1594 1428 
L 1178 1569 
Q 750 1706 558 1912 
Q 366 2119 366 2438 
Q 366 2894 700 3153 
Q 1034 3413 1625 3413 
Q 1888 3413 2178 3344 
Q 2469 3275 2778 3144 
L 2778 2419 
L 2447 2419 
Q 2434 2741 2221 2922 
Q 2009 3103 1644 3103 
Q 1281 3103 1095 2975 
Q 909 2847 909 2591 
Q 909 2381 1050 2254 
Q 1191 2128 1613 1997 
L 2069 1856 
Q 2541 1709 2748 1489 
Q 2956 1269 2956 922 
Q 2956 450 2595 179 
Q 2234 -91 1600 -91 
Q 1278 -91 972 -22 
Q 666 47 359 184 
z
" transform="scale(0.015625)"/>
     </defs>
     <use xlink:href="#DejaVuSerif-44"/>
     <use xlink:href="#DejaVuSerif-61" x="80.175781"/>
     <use xlink:href="#DejaVuSerif-69" x="139.794922"/>
     <use xlink:href="#DejaVuSerif-6c" x="171.777344"/>
     <use xlink:href="#DejaVuSerif-79" x="203.759766"/>
     <use xlink:href="#DejaVuSerif-20" x="260.253906"/>
     <use xlink:href="#DejaVuSerif-52" x="292.041016"/>
     <use xlink:href="#DejaVuSerif-65" x="367.333984"/>
     <use xlink:href="#DejaVuSerif-73" x="426.513672"/>
     <use xlink:href="#DejaVuSerif-6f" x="477.832031"/>
     <use xlink:href="#DejaVuSerif-6e" x="538.037109"/>
     <use xlink:href="#DejaVuSerif-61" x="602.441406"/>
     <use xlink:href="#DejaVuSerif-6e" x="662.060547"/>
     <use xlink:href="#DejaVuSerif-63" x="726.464844"/>
     <use xlink:href="#DejaVuSerif-65" x="782.470703"/>
     <use xlink:href="#DejaVuSerif-20" x="841.650391"/>
     <use xlink:href="#DejaVuSerif-2d" x="873.4375"/>
     <use xlink:href="#DejaVuSerif-20" x="907.226562"/>
     <use xlink:href="#DejaVuSerif-52" x="939.013672"/>
     <use xlink:href="#DejaVuSerif-65" x="1014.306641"/>
     <use xlink:href="#DejaVuSerif-75" x="1073.486328"/>
     <use xlink:href="#DejaVuSerif-74" x="1137.890625"/>
     <use xlink:href="#DejaVuSerif-65" x="1178.076172"/>
     <use xlink:href="#DejaVuSerif-72" x="1237.255859"/>
     <use xlink:href="#DejaVuSerif-73" x="1285.058594"/>
     <use xlink:href="#DejaVuSerif-20" x="1336.376953"/>
     <use xlink:href="#DejaVuSerif-41" x="1368.164062"/>
     <use xlink:href="#DejaVuSerif-72" x="1440.380859"/>
     <use xlink:href="#DejaVuSerif-74" x="1488.183594"/>
     <use xlink:href="#DejaVuSerif-69" x="1528.369141"/>
     <use xlink:href="#DejaVuSerif-63" x="1560.351562"/>
     <use xlink:href="#DejaVuSerif-6c" x="1616.357422"/>
     <use xlink:href="#DejaVuSerif-65" x="1648.339844"/>
     <use xlink:href="#DejaVuSerif-73" x="1707.519531"/>
    </g>
   </g>
  </g>
 </g>
 <defs>
  <clipPath id="p95db3f69a8">
   <rect x="29.864844" y="23.077969" width="1395" height="135.9"/>
  </clipPath>
 </defs>
</svg>
