<?xml version="1.0" encoding="utf-8" standalone="no"?>
<!DOCTYPE svg PUBLIC "-//W3C//DTD SVG 1.1//EN"
  "http://www.w3.org/Graphics/SVG/1.1/DTD/svg11.dtd">
<svg xmlns:xlink="http://www.w3.org/1999/xlink" width="1474.598281pt" height="249.816875pt" viewBox="0 0 1474.598281 249.816875" xmlns="http://www.w3.org/2000/svg" version="1.1">
 <metadata>
  <rdf:RDF xmlns:dc="http://purl.org/dc/elements/1.1/" xmlns:cc="http://creativecommons.org/ns#" xmlns:rdf="http://www.w3.org/1999/02/22-rdf-syntax-ns#">
   <cc:Work>
    <dc:type rdf:resource="http://purl.org/dc/dcmitype/StillImage"/>
    <dc:date>2023-02-01T02:47:28.707519</dc:date>
    <dc:format>image/svg+xml</dc:format>
    <dc:creator>
     <cc:Agent>
      <dc:title>Matplotlib v3.5.2, https://matplotlib.org/</dc:title>
     </cc:Agent>
    </dc:creator>
   </cc:Work>
  </rdf:RDF>
 </metadata>
 <defs>
  <style type="text/css">*{stroke-linejoin: round; stroke-linecap: butt}</style>
 </defs>
 <g id="figure_1">
  <g id="patch_1">
   <path d="M 0 249.816875 
L 1474.598281 249.816875 
L 1474.598281 0 
L 0 0 
L 0 249.816875 
z
" style="fill: none"/>
  </g>
  <g id="axes_1">
   <g id="patch_2">
    <path d="M 43.132813 221.69625 
L 1438.132812 221.69625 
L 1438.132812 31.43625 
L 43.132813 31.43625 
z
" style="fill: #ffffff"/>
   </g>
   <g id="matplotlib.axis_1">
    <g id="xtick_1">
     <g id="line2d_1">
      <defs>
       <path id="m7973996283" d="M 0 0 
L 0 -3.5 
" style="stroke: #000000; stroke-width: 0.8"/>
      </defs>
      <g>
       <use xlink:href="#m7973996283" x="43.132812" y="221.69625" style="stroke: #000000; stroke-width: 0.8"/>
      </g>
     </g>
     <g id="text_1">
      <!-- Jan-22 -->
      <g transform="translate(43.132812 238.873437)scale(0.18 -0.18)">
       <defs>
        <path id="DejaVuSerif-4a" d="M -538 -1119 
L -538 -384 
L -181 -384 
Q -172 -694 -34 -845 
Q 103 -997 378 -997 
Q 750 -997 897 -762 
Q 1044 -528 1044 153 
L 1044 4331 
L 319 4331 
L 319 4666 
L 2272 4666 
L 2272 4331 
L 1678 4331 
L 1678 128 
Q 1678 -644 1368 -987 
Q 1059 -1331 372 -1331 
Q 150 -1331 -79 -1278 
Q -309 -1225 -538 -1119 
z
" transform="scale(0.015625)"/>
        <path id="DejaVuSerif-61" d="M 2547 1044 
L 2547 1747 
L 1806 1747 
Q 1378 1747 1168 1562 
Q 959 1378 959 997 
Q 959 650 1171 447 
Q 1384 244 1747 244 
Q 2106 244 2326 466 
Q 2547 688 2547 1044 
z
M 3122 2075 
L 3122 331 
L 3634 331 
L 3634 0 
L 2547 0 
L 2547 359 
Q 2356 128 2106 18 
Q 1856 -91 1522 -91 
Q 969 -91 644 203 
Q 319 497 319 997 
Q 319 1513 691 1797 
Q 1063 2081 1741 2081 
L 2547 2081 
L 2547 2309 
Q 2547 2688 2317 2895 
Q 2088 3103 1672 3103 
Q 1328 3103 1125 2947 
Q 922 2791 872 2484 
L 575 2484 
L 575 3156 
Q 875 3284 1158 3348 
Q 1441 3413 1709 3413 
Q 2400 3413 2761 3070 
Q 3122 2728 3122 2075 
z
" transform="scale(0.015625)"/>
        <path id="DejaVuSerif-6e" d="M 263 0 
L 263 331 
L 781 331 
L 781 2988 
L 231 2988 
L 231 3322 
L 1356 3322 
L 1356 2731 
Q 1516 3069 1770 3241 
Q 2025 3413 2363 3413 
Q 2913 3413 3172 3097 
Q 3431 2781 3431 2113 
L 3431 331 
L 3944 331 
L 3944 0 
L 2356 0 
L 2356 331 
L 2853 331 
L 2853 1931 
Q 2853 2541 2703 2767 
Q 2553 2994 2175 2994 
Q 1775 2994 1565 2701 
Q 1356 2409 1356 1850 
L 1356 331 
L 1856 331 
L 1856 0 
L 263 0 
z
" transform="scale(0.015625)"/>
        <path id="DejaVuSerif-2d" d="M 281 1959 
L 1881 1959 
L 1881 1472 
L 281 1472 
L 281 1959 
z
" transform="scale(0.015625)"/>
        <path id="DejaVuSerif-32" d="M 819 3553 
L 469 3553 
L 469 4384 
Q 803 4563 1142 4656 
Q 1481 4750 1806 4750 
Q 2534 4750 2956 4397 
Q 3378 4044 3378 3438 
Q 3378 2753 2422 1800 
Q 2347 1728 2309 1691 
L 1131 513 
L 3078 513 
L 3078 1088 
L 3444 1088 
L 3444 0 
L 434 0 
L 434 341 
L 1850 1753 
Q 2319 2222 2519 2614 
Q 2719 3006 2719 3438 
Q 2719 3909 2473 4175 
Q 2228 4441 1797 4441 
Q 1350 4441 1106 4219 
Q 863 3997 819 3553 
z
" transform="scale(0.015625)"/>
       </defs>
       <use xlink:href="#DejaVuSerif-4a"/>
       <use xlink:href="#DejaVuSerif-61" x="40.087891"/>
       <use xlink:href="#DejaVuSerif-6e" x="99.707031"/>
       <use xlink:href="#DejaVuSerif-2d" x="164.111328"/>
       <use xlink:href="#DejaVuSerif-32" x="197.900391"/>
       <use xlink:href="#DejaVuSerif-32" x="261.523438"/>
      </g>
     </g>
    </g>
    <g id="xtick_2">
     <g id="line2d_2">
      <g>
       <use xlink:href="#m7973996283" x="161.612265" y="221.69625" style="stroke: #000000; stroke-width: 0.8"/>
      </g>
     </g>
     <g id="text_2">
      <!-- Feb-22 -->
      <g transform="translate(130.279608 238.873437)scale(0.18 -0.18)">
       <defs>
        <path id="DejaVuSerif-46" d="M 353 0 
L 353 331 
L 947 331 
L 947 4331 
L 353 4331 
L 353 4666 
L 4172 4666 
L 4172 3628 
L 3788 3628 
L 3788 4281 
L 1581 4281 
L 1581 2719 
L 3175 2719 
L 3175 3303 
L 3559 3303 
L 3559 1753 
L 3175 1753 
L 3175 2338 
L 1581 2338 
L 1581 331 
L 2328 331 
L 2328 0 
L 353 0 
z
" transform="scale(0.015625)"/>
        <path id="DejaVuSerif-65" d="M 3469 1600 
L 991 1600 
L 991 1575 
Q 991 903 1244 561 
Q 1497 219 1991 219 
Q 2369 219 2611 417 
Q 2853 616 2950 1006 
L 3413 1006 
Q 3275 459 2904 184 
Q 2534 -91 1931 -91 
Q 1203 -91 761 389 
Q 319 869 319 1663 
Q 319 2450 753 2931 
Q 1188 3413 1894 3413 
Q 2647 3413 3050 2948 
Q 3453 2484 3469 1600 
z
M 2791 1931 
Q 2772 2513 2545 2808 
Q 2319 3103 1894 3103 
Q 1497 3103 1269 2806 
Q 1041 2509 991 1931 
L 2791 1931 
z
" transform="scale(0.015625)"/>
        <path id="DejaVuSerif-62" d="M 738 331 
L 738 4531 
L 184 4531 
L 184 4863 
L 1313 4863 
L 1313 2803 
Q 1481 3116 1742 3264 
Q 2003 3413 2388 3413 
Q 3000 3413 3387 2928 
Q 3775 2444 3775 1663 
Q 3775 881 3387 395 
Q 3000 -91 2388 -91 
Q 2003 -91 1742 57 
Q 1481 206 1313 519 
L 1313 0 
L 184 0 
L 184 331 
L 738 331 
z
M 1313 1497 
Q 1313 897 1542 583 
Q 1772 269 2209 269 
Q 2650 269 2876 622 
Q 3103 975 3103 1663 
Q 3103 2353 2876 2703 
Q 2650 3053 2209 3053 
Q 1772 3053 1542 2737 
Q 1313 2422 1313 1825 
L 1313 1497 
z
" transform="scale(0.015625)"/>
       </defs>
       <use xlink:href="#DejaVuSerif-46"/>
       <use xlink:href="#DejaVuSerif-65" x="63.884766"/>
       <use xlink:href="#DejaVuSerif-62" x="123.064453"/>
       <use xlink:href="#DejaVuSerif-2d" x="187.078125"/>
       <use xlink:href="#DejaVuSerif-32" x="220.867188"/>
       <use xlink:href="#DejaVuSerif-32" x="284.490234"/>
      </g>
     </g>
    </g>
    <g id="xtick_3">
     <g id="line2d_3">
      <g>
       <use xlink:href="#m7973996283" x="268.625963" y="221.69625" style="stroke: #000000; stroke-width: 0.8"/>
      </g>
     </g>
     <g id="text_3">
      <!-- Mar-22 -->
      <g transform="translate(235.248619 238.873437)scale(0.18 -0.18)">
       <defs>
        <path id="DejaVuSerif-4d" d="M 353 0 
L 353 331 
L 947 331 
L 947 4331 
L 319 4331 
L 319 4666 
L 1678 4666 
L 3316 1344 
L 4953 4666 
L 6228 4666 
L 6228 4331 
L 5606 4331 
L 5606 331 
L 6203 331 
L 6203 0 
L 4378 0 
L 4378 331 
L 4972 331 
L 4972 3938 
L 3372 684 
L 2931 684 
L 1331 3938 
L 1331 331 
L 1925 331 
L 1925 0 
L 353 0 
z
" transform="scale(0.015625)"/>
        <path id="DejaVuSerif-72" d="M 3059 3328 
L 3059 2497 
L 2728 2497 
Q 2713 2744 2591 2866 
Q 2469 2988 2234 2988 
Q 1809 2988 1582 2694 
Q 1356 2400 1356 1850 
L 1356 331 
L 2022 331 
L 2022 0 
L 263 0 
L 263 331 
L 781 331 
L 781 2994 
L 231 2994 
L 231 3322 
L 1356 3322 
L 1356 2731 
Q 1525 3078 1790 3245 
Q 2056 3413 2438 3413 
Q 2578 3413 2733 3391 
Q 2888 3369 3059 3328 
z
" transform="scale(0.015625)"/>
       </defs>
       <use xlink:href="#DejaVuSerif-4d"/>
       <use xlink:href="#DejaVuSerif-61" x="102.392578"/>
       <use xlink:href="#DejaVuSerif-72" x="162.011719"/>
       <use xlink:href="#DejaVuSerif-2d" x="209.814453"/>
       <use xlink:href="#DejaVuSerif-32" x="243.603516"/>
       <use xlink:href="#DejaVuSerif-32" x="307.226562"/>
      </g>
     </g>
    </g>
    <g id="xtick_4">
     <g id="line2d_4">
      <g>
       <use xlink:href="#m7973996283" x="387.105415" y="221.69625" style="stroke: #000000; stroke-width: 0.8"/>
      </g>
     </g>
     <g id="text_4">
      <!-- Apr-22 -->
      <g transform="translate(356.048384 238.873437)scale(0.18 -0.18)">
       <defs>
        <path id="DejaVuSerif-41" d="M 1281 1691 
L 2994 1691 
L 2138 3909 
L 1281 1691 
z
M -38 0 
L -38 331 
L 372 331 
L 2034 4666 
L 2559 4666 
L 4225 331 
L 4684 331 
L 4684 0 
L 2988 0 
L 2988 331 
L 3506 331 
L 3116 1356 
L 1153 1356 
L 763 331 
L 1275 331 
L 1275 0 
L -38 0 
z
" transform="scale(0.015625)"/>
        <path id="DejaVuSerif-70" d="M 1313 1825 
L 1313 1497 
Q 1313 897 1542 583 
Q 1772 269 2209 269 
Q 2650 269 2876 622 
Q 3103 975 3103 1663 
Q 3103 2353 2876 2703 
Q 2650 3053 2209 3053 
Q 1772 3053 1542 2737 
Q 1313 2422 1313 1825 
z
M 738 2988 
L 184 2988 
L 184 3322 
L 1313 3322 
L 1313 2803 
Q 1481 3116 1742 3264 
Q 2003 3413 2388 3413 
Q 3000 3413 3387 2928 
Q 3775 2444 3775 1663 
Q 3775 881 3387 395 
Q 3000 -91 2388 -91 
Q 2003 -91 1742 57 
Q 1481 206 1313 519 
L 1313 -997 
L 1856 -997 
L 1856 -1331 
L 184 -1331 
L 184 -997 
L 738 -997 
L 738 2988 
z
" transform="scale(0.015625)"/>
       </defs>
       <use xlink:href="#DejaVuSerif-41"/>
       <use xlink:href="#DejaVuSerif-70" x="72.216797"/>
       <use xlink:href="#DejaVuSerif-72" x="136.230469"/>
       <use xlink:href="#DejaVuSerif-2d" x="184.033203"/>
       <use xlink:href="#DejaVuSerif-32" x="217.822266"/>
       <use xlink:href="#DejaVuSerif-32" x="281.445312"/>
      </g>
     </g>
    </g>
    <g id="xtick_5">
     <g id="line2d_5">
      <g>
       <use xlink:href="#m7973996283" x="501.762949" y="221.69625" style="stroke: #000000; stroke-width: 0.8"/>
      </g>
     </g>
     <g id="text_5">
      <!-- May-22 -->
      <g transform="translate(467.602324 238.6175)scale(0.18 -0.18)">
       <defs>
        <path id="DejaVuSerif-79" d="M 1381 -609 
L 1600 -56 
L 359 2988 
L -19 2988 
L -19 3322 
L 1509 3322 
L 1509 2988 
L 978 2988 
L 1913 703 
L 2847 2988 
L 2350 2988 
L 2350 3322 
L 3597 3322 
L 3597 2988 
L 3225 2988 
L 1703 -750 
Q 1547 -1138 1356 -1280 
Q 1166 -1422 819 -1422 
Q 672 -1422 517 -1397 
Q 363 -1372 206 -1325 
L 206 -691 
L 500 -691 
Q 519 -903 608 -995 
Q 697 -1088 884 -1088 
Q 1056 -1088 1161 -992 
Q 1266 -897 1381 -609 
z
" transform="scale(0.015625)"/>
       </defs>
       <use xlink:href="#DejaVuSerif-4d"/>
       <use xlink:href="#DejaVuSerif-61" x="102.392578"/>
       <use xlink:href="#DejaVuSerif-79" x="162.011719"/>
       <use xlink:href="#DejaVuSerif-2d" x="218.505859"/>
       <use xlink:href="#DejaVuSerif-32" x="252.294922"/>
       <use xlink:href="#DejaVuSerif-32" x="315.917969"/>
      </g>
     </g>
    </g>
    <g id="xtick_6">
     <g id="line2d_6">
      <g>
       <use xlink:href="#m7973996283" x="620.242402" y="221.69625" style="stroke: #000000; stroke-width: 0.8"/>
      </g>
     </g>
     <g id="text_6">
      <!-- Jun-22 -->
      <g transform="translate(590.54662 238.873437)scale(0.18 -0.18)">
       <defs>
        <path id="DejaVuSerif-75" d="M 2266 3322 
L 3341 3322 
L 3341 331 
L 3884 331 
L 3884 0 
L 2766 0 
L 2766 588 
Q 2606 256 2353 82 
Q 2100 -91 1766 -91 
Q 1213 -91 952 223 
Q 691 538 691 1209 
L 691 2988 
L 172 2988 
L 172 3322 
L 1269 3322 
L 1269 1388 
Q 1269 781 1417 556 
Q 1566 331 1947 331 
Q 2347 331 2556 625 
Q 2766 919 2766 1478 
L 2766 2988 
L 2266 2988 
L 2266 3322 
z
" transform="scale(0.015625)"/>
       </defs>
       <use xlink:href="#DejaVuSerif-4a"/>
       <use xlink:href="#DejaVuSerif-75" x="40.087891"/>
       <use xlink:href="#DejaVuSerif-6e" x="104.492188"/>
       <use xlink:href="#DejaVuSerif-2d" x="168.896484"/>
       <use xlink:href="#DejaVuSerif-32" x="202.685547"/>
       <use xlink:href="#DejaVuSerif-32" x="266.308594"/>
      </g>
     </g>
    </g>
    <g id="xtick_7">
     <g id="line2d_7">
      <g>
       <use xlink:href="#m7973996283" x="734.899936" y="221.69625" style="stroke: #000000; stroke-width: 0.8"/>
      </g>
     </g>
     <g id="text_7">
      <!-- Jul-22 -->
      <g transform="translate(708.122123 238.873437)scale(0.18 -0.18)">
       <defs>
        <path id="DejaVuSerif-6c" d="M 1313 331 
L 1856 331 
L 1856 0 
L 184 0 
L 184 331 
L 738 331 
L 738 4531 
L 184 4531 
L 184 4863 
L 1313 4863 
L 1313 331 
z
" transform="scale(0.015625)"/>
       </defs>
       <use xlink:href="#DejaVuSerif-4a"/>
       <use xlink:href="#DejaVuSerif-75" x="40.087891"/>
       <use xlink:href="#DejaVuSerif-6c" x="104.492188"/>
       <use xlink:href="#DejaVuSerif-2d" x="136.474609"/>
       <use xlink:href="#DejaVuSerif-32" x="170.263672"/>
       <use xlink:href="#DejaVuSerif-32" x="233.886719"/>
      </g>
     </g>
    </g>
    <g id="xtick_8">
     <g id="line2d_8">
      <g>
       <use xlink:href="#m7973996283" x="853.379388" y="221.69625" style="stroke: #000000; stroke-width: 0.8"/>
      </g>
     </g>
     <g id="text_8">
      <!-- Aug-22 -->
      <g transform="translate(820.827513 238.6175)scale(0.18 -0.18)">
       <defs>
        <path id="DejaVuSerif-67" d="M 3359 2988 
L 3359 72 
Q 3359 -644 2965 -1033 
Q 2572 -1422 1844 -1422 
Q 1516 -1422 1216 -1362 
Q 916 -1303 641 -1184 
L 641 -488 
L 941 -488 
Q 997 -813 1206 -963 
Q 1416 -1113 1806 -1113 
Q 2313 -1113 2548 -827 
Q 2784 -541 2784 72 
L 2784 519 
Q 2616 206 2355 57 
Q 2094 -91 1709 -91 
Q 1097 -91 708 395 
Q 319 881 319 1663 
Q 319 2444 706 2928 
Q 1094 3413 1709 3413 
Q 2094 3413 2355 3264 
Q 2616 3116 2784 2803 
L 2784 3322 
L 3909 3322 
L 3909 2988 
L 3359 2988 
z
M 2784 1825 
Q 2784 2422 2554 2737 
Q 2325 3053 1888 3053 
Q 1444 3053 1217 2703 
Q 991 2353 991 1663 
Q 991 975 1217 622 
Q 1444 269 1888 269 
Q 2325 269 2554 583 
Q 2784 897 2784 1497 
L 2784 1825 
z
" transform="scale(0.015625)"/>
       </defs>
       <use xlink:href="#DejaVuSerif-41"/>
       <use xlink:href="#DejaVuSerif-75" x="72.216797"/>
       <use xlink:href="#DejaVuSerif-67" x="136.621094"/>
       <use xlink:href="#DejaVuSerif-2d" x="200.634766"/>
       <use xlink:href="#DejaVuSerif-32" x="234.423828"/>
       <use xlink:href="#DejaVuSerif-32" x="298.046875"/>
      </g>
     </g>
    </g>
    <g id="xtick_9">
     <g id="line2d_9">
      <g>
       <use xlink:href="#m7973996283" x="971.85884" y="221.69625" style="stroke: #000000; stroke-width: 0.8"/>
      </g>
     </g>
     <g id="text_9">
      <!-- Sep-22 -->
      <g transform="translate(940.11134 238.873437)scale(0.18 -0.18)">
       <defs>
        <path id="DejaVuSerif-53" d="M 594 225 
L 594 1288 
L 953 1284 
Q 969 753 1261 498 
Q 1553 244 2150 244 
Q 2706 244 2998 464 
Q 3291 684 3291 1106 
Q 3291 1444 3114 1625 
Q 2938 1806 2369 1978 
L 1753 2163 
Q 1084 2366 811 2669 
Q 538 2972 538 3500 
Q 538 4094 959 4422 
Q 1381 4750 2144 4750 
Q 2469 4750 2856 4679 
Q 3244 4609 3681 4475 
L 3681 3481 
L 3328 3481 
Q 3275 3975 2998 4195 
Q 2722 4416 2156 4416 
Q 1663 4416 1405 4214 
Q 1147 4013 1147 3628 
Q 1147 3294 1340 3103 
Q 1534 2913 2163 2725 
L 2741 2553 
Q 3375 2363 3645 2067 
Q 3916 1772 3916 1275 
Q 3916 597 3481 253 
Q 3047 -91 2188 -91 
Q 1803 -91 1404 -12 
Q 1006 66 594 225 
z
" transform="scale(0.015625)"/>
       </defs>
       <use xlink:href="#DejaVuSerif-53"/>
       <use xlink:href="#DejaVuSerif-65" x="68.505859"/>
       <use xlink:href="#DejaVuSerif-70" x="127.685547"/>
       <use xlink:href="#DejaVuSerif-2d" x="191.699219"/>
       <use xlink:href="#DejaVuSerif-32" x="225.488281"/>
       <use xlink:href="#DejaVuSerif-32" x="289.111328"/>
      </g>
     </g>
    </g>
    <g id="xtick_10">
     <g id="line2d_10">
      <g>
       <use xlink:href="#m7973996283" x="1086.516374" y="221.69625" style="stroke: #000000; stroke-width: 0.8"/>
      </g>
     </g>
     <g id="text_10">
      <!-- Oct-22 -->
      <g transform="translate(1055.986687 238.873437)scale(0.18 -0.18)">
       <defs>
        <path id="DejaVuSerif-4f" d="M 2625 244 
Q 3391 244 3781 770 
Q 4172 1297 4172 2328 
Q 4172 3363 3781 3889 
Q 3391 4416 2625 4416 
Q 1856 4416 1465 3889 
Q 1075 3363 1075 2328 
Q 1075 1297 1465 770 
Q 1856 244 2625 244 
z
M 2625 -91 
Q 2150 -91 1751 65 
Q 1353 222 1050 525 
Q 700 875 529 1319 
Q 359 1763 359 2328 
Q 359 2894 529 3339 
Q 700 3784 1050 4134 
Q 1356 4441 1750 4595 
Q 2144 4750 2625 4750 
Q 3641 4750 4266 4084 
Q 4891 3419 4891 2328 
Q 4891 1769 4719 1320 
Q 4547 872 4197 525 
Q 3891 219 3497 64 
Q 3103 -91 2625 -91 
z
" transform="scale(0.015625)"/>
        <path id="DejaVuSerif-63" d="M 3291 997 
Q 3169 466 2822 187 
Q 2475 -91 1925 -91 
Q 1200 -91 759 389 
Q 319 869 319 1663 
Q 319 2459 759 2936 
Q 1200 3413 1925 3413 
Q 2241 3413 2553 3339 
Q 2866 3266 3181 3116 
L 3181 2266 
L 2847 2266 
Q 2781 2703 2561 2903 
Q 2341 3103 1931 3103 
Q 1466 3103 1228 2742 
Q 991 2381 991 1663 
Q 991 944 1227 581 
Q 1463 219 1931 219 
Q 2303 219 2525 412 
Q 2747 606 2828 997 
L 3291 997 
z
" transform="scale(0.015625)"/>
        <path id="DejaVuSerif-74" d="M 691 2988 
L 184 2988 
L 184 3322 
L 691 3322 
L 691 4353 
L 1269 4353 
L 1269 3322 
L 2350 3322 
L 2350 2988 
L 1269 2988 
L 1269 878 
Q 1269 456 1350 337 
Q 1431 219 1650 219 
Q 1875 219 1978 351 
Q 2081 484 2088 781 
L 2522 781 
Q 2497 328 2275 118 
Q 2053 -91 1600 -91 
Q 1103 -91 897 129 
Q 691 350 691 878 
L 691 2988 
z
" transform="scale(0.015625)"/>
       </defs>
       <use xlink:href="#DejaVuSerif-4f"/>
       <use xlink:href="#DejaVuSerif-63" x="81.982422"/>
       <use xlink:href="#DejaVuSerif-74" x="137.988281"/>
       <use xlink:href="#DejaVuSerif-2d" x="178.173828"/>
       <use xlink:href="#DejaVuSerif-32" x="211.962891"/>
       <use xlink:href="#DejaVuSerif-32" x="275.585938"/>
      </g>
     </g>
    </g>
    <g id="xtick_11">
     <g id="line2d_11">
      <g>
       <use xlink:href="#m7973996283" x="1204.995826" y="221.69625" style="stroke: #000000; stroke-width: 0.8"/>
      </g>
     </g>
     <g id="text_11">
      <!-- Nov-22 -->
      <g transform="translate(1172.123326 238.873437)scale(0.18 -0.18)">
       <defs>
        <path id="DejaVuSerif-4e" d="M 313 0 
L 313 331 
L 941 331 
L 941 4331 
L 313 4331 
L 313 4666 
L 1509 4666 
L 4306 984 
L 4306 4331 
L 3681 4331 
L 3681 4666 
L 5319 4666 
L 5319 4331 
L 4691 4331 
L 4691 -91 
L 4313 -91 
L 1325 3841 
L 1325 331 
L 1953 331 
L 1953 0 
L 313 0 
z
" transform="scale(0.015625)"/>
        <path id="DejaVuSerif-6f" d="M 1925 219 
Q 2388 219 2623 584 
Q 2859 950 2859 1663 
Q 2859 2375 2623 2739 
Q 2388 3103 1925 3103 
Q 1463 3103 1227 2739 
Q 991 2375 991 1663 
Q 991 950 1228 584 
Q 1466 219 1925 219 
z
M 1925 -91 
Q 1200 -91 759 389 
Q 319 869 319 1663 
Q 319 2456 758 2934 
Q 1197 3413 1925 3413 
Q 2653 3413 3092 2934 
Q 3531 2456 3531 1663 
Q 3531 869 3092 389 
Q 2653 -91 1925 -91 
z
" transform="scale(0.015625)"/>
        <path id="DejaVuSerif-76" d="M 1581 0 
L 359 2988 
L -19 2988 
L -19 3322 
L 1509 3322 
L 1509 2988 
L 978 2988 
L 1913 703 
L 2847 2988 
L 2350 2988 
L 2350 3322 
L 3597 3322 
L 3597 2988 
L 3225 2988 
L 2003 0 
L 1581 0 
z
" transform="scale(0.015625)"/>
       </defs>
       <use xlink:href="#DejaVuSerif-4e"/>
       <use xlink:href="#DejaVuSerif-6f" x="87.5"/>
       <use xlink:href="#DejaVuSerif-76" x="147.705078"/>
       <use xlink:href="#DejaVuSerif-2d" x="204.199219"/>
       <use xlink:href="#DejaVuSerif-32" x="237.988281"/>
       <use xlink:href="#DejaVuSerif-32" x="301.611328"/>
      </g>
     </g>
    </g>
    <g id="xtick_12">
     <g id="line2d_12">
      <g>
       <use xlink:href="#m7973996283" x="1319.65336" y="221.69625" style="stroke: #000000; stroke-width: 0.8"/>
      </g>
     </g>
     <g id="text_12">
      <!-- Dec-22 -->
      <g transform="translate(1287.576798 238.873437)scale(0.18 -0.18)">
       <defs>
        <path id="DejaVuSerif-44" d="M 1581 331 
L 2163 331 
Q 3072 331 3558 850 
Q 4044 1369 4044 2338 
Q 4044 3306 3559 3818 
Q 3075 4331 2163 4331 
L 1581 4331 
L 1581 331 
z
M 353 0 
L 353 331 
L 947 331 
L 947 4331 
L 353 4331 
L 353 4666 
L 2209 4666 
Q 3416 4666 4089 4050 
Q 4763 3434 4763 2338 
Q 4763 1238 4088 619 
Q 3413 0 2209 0 
L 353 0 
z
" transform="scale(0.015625)"/>
       </defs>
       <use xlink:href="#DejaVuSerif-44"/>
       <use xlink:href="#DejaVuSerif-65" x="80.175781"/>
       <use xlink:href="#DejaVuSerif-63" x="139.355469"/>
       <use xlink:href="#DejaVuSerif-2d" x="195.361328"/>
       <use xlink:href="#DejaVuSerif-32" x="229.150391"/>
       <use xlink:href="#DejaVuSerif-32" x="292.773438"/>
      </g>
     </g>
    </g>
    <g id="xtick_13">
     <g id="line2d_13">
      <g>
       <use xlink:href="#m7973996283" x="1438.132812" y="221.69625" style="stroke: #000000; stroke-width: 0.8"/>
      </g>
     </g>
     <g id="text_13">
      <!-- Jan-23 -->
      <g transform="translate(1408.867344 238.873437)scale(0.18 -0.18)">
       <defs>
        <path id="DejaVuSerif-33" d="M 622 4469 
Q 988 4606 1323 4678 
Q 1659 4750 1953 4750 
Q 2638 4750 3022 4454 
Q 3406 4159 3406 3634 
Q 3406 3213 3140 2930 
Q 2875 2647 2388 2547 
Q 2963 2466 3280 2130 
Q 3597 1794 3597 1259 
Q 3597 606 3158 257 
Q 2719 -91 1894 -91 
Q 1528 -91 1179 -12 
Q 831 66 488 225 
L 488 1131 
L 838 1131 
Q 869 681 1141 450 
Q 1413 219 1906 219 
Q 2384 219 2661 495 
Q 2938 772 2938 1253 
Q 2938 1803 2653 2086 
Q 2369 2369 1819 2369 
L 1522 2369 
L 1522 2688 
L 1678 2688 
Q 2225 2688 2498 2914 
Q 2772 3141 2772 3597 
Q 2772 4006 2547 4223 
Q 2322 4441 1900 4441 
Q 1478 4441 1245 4241 
Q 1013 4041 972 3647 
L 622 3647 
L 622 4469 
z
" transform="scale(0.015625)"/>
       </defs>
       <use xlink:href="#DejaVuSerif-4a"/>
       <use xlink:href="#DejaVuSerif-61" x="40.087891"/>
       <use xlink:href="#DejaVuSerif-6e" x="99.707031"/>
       <use xlink:href="#DejaVuSerif-2d" x="164.111328"/>
       <use xlink:href="#DejaVuSerif-32" x="197.900391"/>
       <use xlink:href="#DejaVuSerif-33" x="261.523438"/>
      </g>
     </g>
    </g>
   </g>
   <g id="matplotlib.axis_2">
    <g id="ytick_1">
     <g id="line2d_14">
      <defs>
       <path id="m023fde30c1" d="M 0 0 
L 3.5 0 
" style="stroke: #000000; stroke-width: 0.8"/>
      </defs>
      <g>
       <use xlink:href="#m023fde30c1" x="43.132813" y="221.69625" style="stroke: #000000; stroke-width: 0.8"/>
      </g>
     </g>
     <g id="text_14">
      <!-- −1 -->
      <g transform="translate(7.2 230.054531)scale(0.22 -0.22)">
       <defs>
        <path id="DejaVuSerif-2212" d="M 678 2259 
L 4684 2259 
L 4684 1753 
L 678 1753 
L 678 2259 
z
" transform="scale(0.015625)"/>
        <path id="DejaVuSerif-31" d="M 909 0 
L 909 331 
L 1722 331 
L 1722 4213 
L 781 3603 
L 781 4013 
L 1919 4750 
L 2350 4750 
L 2350 331 
L 3163 331 
L 3163 0 
L 909 0 
z
" transform="scale(0.015625)"/>
       </defs>
       <use xlink:href="#DejaVuSerif-2212"/>
       <use xlink:href="#DejaVuSerif-31" x="83.789062"/>
      </g>
     </g>
    </g>
    <g id="ytick_2">
     <g id="line2d_15">
      <g>
       <use xlink:href="#m023fde30c1" x="43.132813" y="126.613791" style="stroke: #000000; stroke-width: 0.8"/>
      </g>
     </g>
     <g id="text_15">
      <!-- 0 -->
      <g transform="translate(25.635313 134.972072)scale(0.22 -0.22)">
       <defs>
        <path id="DejaVuSerif-30" d="M 2034 219 
Q 2513 219 2750 744 
Q 2988 1269 2988 2328 
Q 2988 3391 2750 3916 
Q 2513 4441 2034 4441 
Q 1556 4441 1318 3916 
Q 1081 3391 1081 2328 
Q 1081 1269 1318 744 
Q 1556 219 2034 219 
z
M 2034 -91 
Q 1275 -91 848 546 
Q 422 1184 422 2328 
Q 422 3475 848 4112 
Q 1275 4750 2034 4750 
Q 2797 4750 3222 4112 
Q 3647 3475 3647 2328 
Q 3647 1184 3222 546 
Q 2797 -91 2034 -91 
z
" transform="scale(0.015625)"/>
       </defs>
       <use xlink:href="#DejaVuSerif-30"/>
      </g>
     </g>
    </g>
    <g id="ytick_3">
     <g id="line2d_16">
      <g>
       <use xlink:href="#m023fde30c1" x="43.132813" y="31.531332" style="stroke: #000000; stroke-width: 0.8"/>
      </g>
     </g>
     <g id="text_16">
      <!-- 1 -->
      <g transform="translate(25.635313 39.889614)scale(0.22 -0.22)">
       <use xlink:href="#DejaVuSerif-31"/>
      </g>
     </g>
    </g>
   </g>
   <g id="line2d_17">
    <path d="M -1 135.742773 
L 1.091717 152.93999 
M 16.379388 138.439568 
L 20.201306 164.409098 
M 27.845141 144.804991 
L 31.667059 148.817777 
L 35.488977 113.686209 
L 39.310895 120.145725 
M 58.420484 15.408638 
L 62.242402 150.33957 
L 66.064319 95.339043 
L 69.886237 109.41131 
L 73.708155 135.424328 
L 77.530073 68.460197 
L 81.351991 133.873748 
L 85.173908 79.466377 
L 88.995826 91.564897 
L 92.817744 96.570461 
L 96.639662 139.115985 
L 100.46158 113.222086 
L 104.283497 107.703634 
L 108.105415 63.704969 
L 111.927333 76.792588 
L 115.749251 140.999192 
L 119.441613 -1 
M 119.850258 -1 
L 123.393086 62.247438 
L 127.215004 112.753852 
L 131.036922 91.679415 
L 134.85884 182.025213 
L 138.680758 131.975182 
L 142.502676 105.953262 
L 146.324593 96.887189 
L 150.146511 99.02289 
L 153.968429 156.412528 
L 157.790347 135.537904 
L 161.612265 138.509582 
L 165.434182 198.795806 
L 169.2561 81.644834 
L 173.078018 164.576963 
L 176.899936 149.979676 
L 180.721854 138.105548 
L 184.543771 121.808847 
L 188.365689 179.372391 
L 192.187607 137.486697 
L 196.009525 135.848252 
L 199.831443 139.228697 
L 203.65336 141.244081 
L 207.475278 135.86475 
L 211.297196 121.209257 
L 215.119114 118.378511 
L 218.941032 150.649001 
L 222.762949 138.234103 
L 226.584867 147.368036 
L 230.406785 103.477333 
L 234.228703 118.662749 
L 238.050621 117.009042 
L 241.872539 115.747474 
L 245.694456 128.467767 
L 249.516374 129.845624 
L 253.338292 124.937407 
L 257.16021 155.079346 
L 260.982128 130.15272 
L 264.804045 108.95865 
L 268.625963 119.144851 
L 272.447881 137.51103 
L 276.269799 123.96924 
L 280.091717 140.926295 
L 283.913634 90.122702 
L 287.735552 163.573163 
L 291.55747 129.606187 
L 295.379388 106.900526 
L 299.201306 122.842556 
L 303.023223 112.873613 
L 306.845141 124.568582 
L 310.667059 133.711972 
L 314.488977 144.516189 
L 318.310895 105.816055 
L 322.132812 135.22767 
L 325.95473 103.578893 
L 329.776648 129.138808 
L 333.598566 113.985432 
L 337.420484 133.275842 
L 341.242402 181.276162 
L 345.064319 96.352967 
L 348.886237 124.355925 
L 352.708155 134.128512 
L 356.530073 153.912311 
L 360.351991 146.625263 
L 364.173908 112.486947 
L 367.995826 133.397612 
L 371.817744 142.800307 
L 375.639662 143.935763 
L 379.46158 127.548198 
L 383.283497 160.815373 
L 387.105415 147.301064 
L 390.927333 141.19238 
L 394.749251 125.829657 
L 398.571169 136.670133 
L 402.393086 117.889135 
L 406.215004 115.697292 
L 410.036922 95.856758 
L 413.85884 149.161165 
L 417.680758 164.724319 
L 421.502676 136.500711 
L 425.324593 127.096111 
L 429.146511 95.516517 
L 432.968429 136.051134 
L 436.790347 135.223084 
L 440.612265 179.093236 
L 444.434182 197.468443 
L 448.2561 48.284561 
L 452.078018 107.204199 
L 455.899936 98.092856 
L 459.721854 128.269828 
L 463.543771 23.066613 
L 467.365689 133.043975 
M 478.831443 115.979346 
L 482.65336 135.129481 
L 486.475278 109.113681 
L 490.297196 119.839998 
L 494.119114 125.484225 
L 497.941032 130.763334 
L 501.762949 126.654868 
L 505.584867 121.134319 
L 509.406785 117.757193 
L 513.228703 65.577484 
L 517.050621 134.52176 
L 520.872539 126.744484 
L 524.694456 101.421587 
L 528.516374 121.473955 
L 532.338292 78.714205 
L 536.16021 135.108102 
L 539.982128 118.421564 
L 543.804045 111.083407 
L 547.625963 121.176864 
L 551.447881 102.075856 
L 555.269799 194.79296 
L 559.091717 61.479232 
L 562.913634 135.468136 
L 566.735552 89.981061 
L 570.55747 134.089499 
L 574.379388 129.20613 
L 578.201306 145.848686 
L 582.023223 142.795142 
L 585.845141 164.383122 
L 589.667059 119.256812 
L 593.488977 125.945059 
L 597.310895 137.730744 
L 601.132812 146.530868 
L 604.95473 124.310995 
L 608.776648 87.839714 
L 612.598566 167.039896 
L 616.420484 115.483236 
L 620.242402 67.699626 
L 624.064319 200.247893 
L 627.886237 115.820209 
L 631.708155 152.280135 
L 635.530073 140.122763 
L 639.351991 91.006362 
L 643.173908 107.704138 
L 646.995826 132.287969 
L 650.817744 107.324034 
L 654.639662 169.467585 
L 658.46158 118.965719 
L 662.283497 107.567295 
L 666.105415 221.783733 
L 669.927333 183.939241 
L 673.749251 111.197621 
L 677.571169 152.324737 
L 681.393086 80.603087 
L 685.215004 58.587251 
L 689.036922 53.628404 
L 692.85884 116.524728 
L 696.680758 77.759766 
L 700.502676 182.105948 
L 704.324593 104.659013 
L 708.146511 124.089713 
L 711.968429 -0.410033 
L 715.790347 145.501354 
L 719.612265 171.705616 
L 723.434182 137.388788 
L 727.2561 131.722641 
L 731.078018 112.74445 
L 734.899936 76.007903 
L 738.721854 106.39003 
L 742.543771 145.225124 
L 746.365689 167.158971 
L 750.187607 206.184048 
L 754.009525 127.555599 
L 757.831443 140.653567 
L 761.65336 129.477557 
L 765.475278 142.75228 
L 769.297196 138.630667 
L 773.119114 136.272208 
L 776.941032 161.526566 
L 780.762949 100.465884 
L 784.584867 95.716322 
L 788.406785 178.289835 
L 792.228703 107.276389 
L 796.050621 141.548103 
L 799.872539 147.74581 
L 803.694456 115.794516 
L 811.338292 110.40047 
L 815.16021 90.019654 
L 818.982128 145.518618 
L 822.804045 115.645186 
L 826.625963 161.230586 
L 830.447881 112.231131 
L 834.269799 114.470408 
L 838.091717 124.751044 
L 841.913634 125.263063 
L 845.735552 116.921171 
L 849.55747 104.235009 
L 853.379388 158.921573 
L 857.201306 140.134003 
L 861.023223 78.161093 
L 864.845141 136.990286 
L 868.667059 140.74655 
L 872.488977 127.927134 
L 876.310895 226.692511 
L 880.132812 121.48065 
L 883.95473 158.737389 
L 887.776648 122.765132 
L 891.598566 100.239544 
L 895.420484 101.965149 
L 899.242402 131.884661 
L 903.064319 108.945487 
L 906.886237 90.187963 
L 910.708155 86.473822 
L 914.530073 117.727431 
L 918.351991 173.863879 
L 922.173908 141.52864 
L 925.995826 238.935839 
L 929.817744 194.625201 
L 933.639662 113.586849 
L 937.46158 73.53558 
L 941.283497 106.236652 
L 945.105415 154.610385 
L 948.927333 137.846829 
L 952.749251 107.064726 
L 956.571169 89.83541 
L 960.393086 141.256304 
L 964.215004 130.005679 
L 968.036922 150.176024 
L 971.85884 125.88885 
L 975.680758 21.186234 
L 979.502676 188.484196 
L 983.324593 110.521215 
L 987.146511 181.299687 
L 990.968429 89.673602 
L 994.790347 203.667112 
L 998.612265 82.353993 
L 1002.434182 118.379066 
L 1006.2561 118.826843 
L 1010.078018 168.349631 
L 1013.899936 98.810922 
L 1017.721854 149.655389 
L 1021.543771 102.205128 
L 1025.365689 143.546216 
L 1029.187607 132.074339 
L 1033.009525 131.103261 
L 1036.831443 137.797235 
L 1040.65336 116.47959 
L 1044.475278 139.450507 
L 1048.297196 89.805892 
L 1052.119114 143.144828 
L 1055.941032 158.001192 
L 1059.762949 118.150915 
L 1063.584867 174.143567 
L 1067.406785 101.840089 
L 1071.228703 126.83766 
L 1075.050621 143.627441 
L 1078.872539 45.077367 
L 1082.694456 116.693302 
L 1086.516374 152.441761 
L 1090.338292 116.368499 
L 1094.16021 186.815891 
L 1097.982128 130.829859 
L 1101.804045 140.515747 
L 1105.625963 117.665175 
L 1109.447881 124.221512 
L 1113.269799 103.29695 
L 1117.091717 134.608245 
L 1120.913634 97.690485 
L 1124.735552 133.82685 
L 1128.55747 122.275452 
L 1132.379388 134.521645 
L 1136.201306 154.775071 
L 1140.023223 105.826372 
L 1143.845141 134.613247 
L 1147.667059 120.418827 
L 1151.488977 125.411318 
L 1155.310895 81.374545 
L 1159.132812 157.968196 
L 1162.95473 173.116883 
L 1166.776648 159.064532 
L 1170.598566 171.580626 
L 1174.420484 126.040019 
L 1178.242402 139.668336 
L 1182.064319 122.894248 
L 1185.886237 91.193291 
L 1189.708155 121.715802 
L 1193.530073 119.709296 
L 1197.351991 119.361194 
L 1201.173908 134.284517 
L 1204.995826 131.369427 
L 1208.817744 153.440776 
L 1212.639662 145.8472 
L 1216.46158 136.817827 
L 1220.283497 166.416844 
L 1224.105415 224.891847 
L 1227.927333 121.909872 
L 1231.749251 122.523884 
L 1235.571169 120.074885 
L 1239.393086 189.012471 
L 1243.215004 115.926267 
L 1247.036922 137.353377 
L 1250.85884 118.179826 
L 1254.680758 91.50493 
L 1258.502676 110.039637 
L 1262.324593 127.188608 
L 1266.146511 201.921585 
L 1269.968429 157.711835 
L 1273.790347 189.342708 
L 1277.612265 175.792316 
L 1281.434182 143.602007 
L 1285.2561 159.030862 
L 1289.078018 132.795217 
L 1292.899936 178.839857 
L 1296.721854 117.693692 
L 1300.543771 135.230718 
L 1304.365689 186.679878 
L 1308.187607 158.606122 
L 1312.009525 124.502492 
L 1315.831443 116.409535 
L 1319.65336 149.647558 
L 1323.475278 140.787619 
L 1327.297196 130.333922 
L 1331.119114 105.679196 
L 1334.941032 135.053122 
L 1338.762949 93.866777 
L 1342.584867 129.684861 
L 1346.406785 131.154724 
L 1350.228703 183.149508 
L 1354.050621 85.097903 
L 1357.872539 92.516447 
L 1361.694456 133.763186 
L 1365.516374 123.564651 
L 1369.338292 122.400812 
L 1373.16021 141.896907 
L 1376.982128 51.504946 
L 1380.804045 152.526567 
L 1384.625963 141.385919 
L 1388.447881 123.491989 
L 1392.269799 96.968019 
L 1396.091717 164.583198 
L 1399.913634 149.366738 
L 1403.735552 113.318117 
L 1407.55747 135.369656 
L 1411.379388 61.937295 
L 1415.201306 152.085504 
L 1419.023223 150.588131 
L 1422.845141 112.995392 
L 1426.667059 109.255148 
L 1430.488977 170.627331 
L 1434.310895 171.809488 
L 1434.310895 171.809488 
" clip-path="url(#p0977bd1a82)" style="fill: none; stroke: #000000; stroke-linecap: square"/>
   </g>
   <g id="LineCollection_1">
    <path d="M 387.105415 250.816875 
L 387.105415 -1 
" clip-path="url(#p0977bd1a82)" style="fill: none; stroke-dasharray: 1,1.65; stroke-dashoffset: 0; stroke: #000000"/>
   </g>
   <g id="patch_3">
    <path d="M 43.132813 221.69625 
L 43.132813 31.43625 
" style="fill: none; stroke: #000000; stroke-width: 0.8; stroke-linejoin: miter; stroke-linecap: square"/>
   </g>
   <g id="patch_4">
    <path d="M 1438.132812 221.69625 
L 1438.132812 31.43625 
" style="fill: none; stroke: #000000; stroke-width: 0.8; stroke-linejoin: miter; stroke-linecap: square"/>
   </g>
   <g id="patch_5">
    <path d="M 43.132812 221.69625 
L 1438.132812 221.69625 
" style="fill: none; stroke: #000000; stroke-width: 0.8; stroke-linejoin: miter; stroke-linecap: square"/>
   </g>
   <g id="patch_6">
    <path d="M 43.132812 31.43625 
L 1438.132812 31.43625 
" style="fill: none; stroke: #000000; stroke-width: 0.8; stroke-linejoin: miter; stroke-linecap: square"/>
   </g>
   <g id="text_17">
    <!-- Daily Resonance - NYT Articles -->
    <g transform="translate(550.828438 25.43625)scale(0.24 -0.24)">
     <defs>
      <path id="DejaVuSerif-69" d="M 622 4353 
Q 622 4497 726 4603 
Q 831 4709 978 4709 
Q 1122 4709 1226 4603 
Q 1331 4497 1331 4353 
Q 1331 4206 1228 4103 
Q 1125 4000 978 4000 
Q 831 4000 726 4103 
Q 622 4206 622 4353 
z
M 1356 331 
L 1900 331 
L 1900 0 
L 231 0 
L 231 331 
L 781 331 
L 781 2988 
L 231 2988 
L 231 3322 
L 1356 3322 
L 1356 331 
z
" transform="scale(0.015625)"/>
      <path id="DejaVuSerif-20" transform="scale(0.015625)"/>
      <path id="DejaVuSerif-52" d="M 3066 2316 
Q 3284 2256 3442 2114 
Q 3600 1972 3725 1716 
L 4403 331 
L 4972 331 
L 4972 0 
L 3872 0 
L 3144 1484 
Q 2934 1916 2759 2042 
Q 2584 2169 2278 2169 
L 1581 2169 
L 1581 331 
L 2241 331 
L 2241 0 
L 353 0 
L 353 331 
L 947 331 
L 947 4331 
L 353 4331 
L 353 4666 
L 2719 4666 
Q 3400 4666 3770 4341 
Q 4141 4016 4141 3419 
Q 4141 2938 3870 2661 
Q 3600 2384 3066 2316 
z
M 1581 2503 
L 2503 2503 
Q 2975 2503 3200 2726 
Q 3425 2950 3425 3419 
Q 3425 3888 3200 4109 
Q 2975 4331 2503 4331 
L 1581 4331 
L 1581 2503 
z
" transform="scale(0.015625)"/>
      <path id="DejaVuSerif-73" d="M 359 184 
L 359 959 
L 691 959 
Q 703 588 923 403 
Q 1144 219 1575 219 
Q 1963 219 2166 364 
Q 2369 509 2369 788 
Q 2369 1006 2220 1140 
Q 2072 1275 1594 1428 
L 1178 1569 
Q 750 1706 558 1912 
Q 366 2119 366 2438 
Q 366 2894 700 3153 
Q 1034 3413 1625 3413 
Q 1888 3413 2178 3344 
Q 2469 3275 2778 3144 
L 2778 2419 
L 2447 2419 
Q 2434 2741 2221 2922 
Q 2009 3103 1644 3103 
Q 1281 3103 1095 2975 
Q 909 2847 909 2591 
Q 909 2381 1050 2254 
Q 1191 2128 1613 1997 
L 2069 1856 
Q 2541 1709 2748 1489 
Q 2956 1269 2956 922 
Q 2956 450 2595 179 
Q 2234 -91 1600 -91 
Q 1278 -91 972 -22 
Q 666 47 359 184 
z
" transform="scale(0.015625)"/>
      <path id="DejaVuSerif-59" d="M 1209 0 
L 1209 331 
L 1806 331 
L 1806 2009 
L 366 4331 
L -72 4331 
L -72 4666 
L 1663 4666 
L 1663 4331 
L 1119 4331 
L 2284 2444 
L 3450 4331 
L 2925 4331 
L 2925 4666 
L 4281 4666 
L 4281 4331 
L 3841 4331 
L 2438 2069 
L 2438 331 
L 3034 331 
L 3034 0 
L 1209 0 
z
" transform="scale(0.015625)"/>
      <path id="DejaVuSerif-54" d="M 1222 0 
L 1222 331 
L 1819 331 
L 1819 4294 
L 447 4294 
L 447 3566 
L 63 3566 
L 63 4666 
L 4206 4666 
L 4206 3566 
L 3822 3566 
L 3822 4294 
L 2450 4294 
L 2450 331 
L 3047 331 
L 3047 0 
L 1222 0 
z
" transform="scale(0.015625)"/>
     </defs>
     <use xlink:href="#DejaVuSerif-44"/>
     <use xlink:href="#DejaVuSerif-61" x="80.175781"/>
     <use xlink:href="#DejaVuSerif-69" x="139.794922"/>
     <use xlink:href="#DejaVuSerif-6c" x="171.777344"/>
     <use xlink:href="#DejaVuSerif-79" x="203.759766"/>
     <use xlink:href="#DejaVuSerif-20" x="260.253906"/>
     <use xlink:href="#DejaVuSerif-52" x="292.041016"/>
     <use xlink:href="#DejaVuSerif-65" x="367.333984"/>
     <use xlink:href="#DejaVuSerif-73" x="426.513672"/>
     <use xlink:href="#DejaVuSerif-6f" x="477.832031"/>
     <use xlink:href="#DejaVuSerif-6e" x="538.037109"/>
     <use xlink:href="#DejaVuSerif-61" x="602.441406"/>
     <use xlink:href="#DejaVuSerif-6e" x="662.060547"/>
     <use xlink:href="#DejaVuSerif-63" x="726.464844"/>
     <use xlink:href="#DejaVuSerif-65" x="782.470703"/>
     <use xlink:href="#DejaVuSerif-20" x="841.650391"/>
     <use xlink:href="#DejaVuSerif-2d" x="873.4375"/>
     <use xlink:href="#DejaVuSerif-20" x="907.226562"/>
     <use xlink:href="#DejaVuSerif-4e" x="939.013672"/>
     <use xlink:href="#DejaVuSerif-59" x="1026.513672"/>
     <use xlink:href="#DejaVuSerif-54" x="1092.529297"/>
     <use xlink:href="#DejaVuSerif-20" x="1159.228516"/>
     <use xlink:href="#DejaVuSerif-41" x="1191.015625"/>
     <use xlink:href="#DejaVuSerif-72" x="1263.232422"/>
     <use xlink:href="#DejaVuSerif-74" x="1311.035156"/>
     <use xlink:href="#DejaVuSerif-69" x="1351.220703"/>
     <use xlink:href="#DejaVuSerif-63" x="1383.203125"/>
     <use xlink:href="#DejaVuSerif-6c" x="1439.208984"/>
     <use xlink:href="#DejaVuSerif-65" x="1471.191406"/>
     <use xlink:href="#DejaVuSerif-73" x="1530.371094"/>
    </g>
   </g>
  </g>
 </g>
 <defs>
  <clipPath id="p0977bd1a82">
   <rect x="43.132813" y="31.43625" width="1395" height="190.26"/>
  </clipPath>
 </defs>
</svg>
